<svg xmlns="http://www.w3.org/2000/svg" viewBox="0 0 1920 1414.001"><defs><style>.a{fill-rule:evenodd;}.b{fill:#1c1c1c;}.c{fill:#212121;}.d{fill:#fff;}.e{fill:#333;}.f{fill:#06214d;}.g{fill:#2b2b2b;}.h{fill:#242424;}.i{fill:#4d4d4d;}.j{fill:rgba(0,0,0,0.1);}.k{fill:#3d3d3d;}.l{fill:#87daff;}.m{fill:rgba(0,0,0,0.2);}.n{fill:#33282f;}.o{fill:#1a1a1a;}</style></defs><path class="a" d="M0,0H1920V1414H0Z"/><path class="b" d="M1920,4544.677H0V4119.31H1920Z" transform="translate(0 -3130.676)"/><g transform="translate(1640.518 387.504)"><g transform="translate(62.477 132.074)"><path class="c" d="M7258.03,2164.91h-7.61v431.611h7.61Z" transform="translate(-7213.313 -2164.91)"/><path class="d" d="M7176.68,3970.9c0-4.2-18.1-7.608-40.435-7.608s-40.435,3.405-40.435,7.608,18.1,7.605,40.435,7.605S7176.68,3975.1,7176.68,3970.9Z" transform="translate(-7095.811 -3531.679)"/></g><path class="e" d="M6984.547,1614.6h-91.339l-57.718,141.446h206.78Z" transform="translate(-6835.49 -1614.6)"/><g transform="translate(47.935 0.002)"><path class="c" d="M7035.22,1756.054l29.911-141.444h2.462l-29.911,141.444Z" transform="translate(-7035.22 -1614.61)"/><g transform="translate(78.53)"><path class="c" d="M7392.341,1756.054l-29.911-141.444h2.459l29.912,141.444Z" transform="translate(-7362.431 -1614.61)"/></g></g><g transform="translate(102.185 0.002)"><path class="c" d="M7261.26,1756.054V1614.61h2.407v141.444h-2.407Z" transform="translate(-7261.26 -1614.61)"/></g><g transform="translate(137.062 141.446)"><path class="c" d="M7420.988,2322.064h-1.808v-118.1h1.808Z" transform="translate(-7416.156 -2203.96)"/><path class="c" d="M7414.436,2693.518a3.927,3.927,0,0,1-7.855,0v-2.311a3.927,3.927,0,0,1,7.855,0Z" transform="translate(-7406.581 -2571.283)"/></g></g><path class="e" d="M404.05,4458.236c1.037,3.708-1.409,7.63-5.462,8.76s-8.179-.958-9.214-4.665-2.4-27.842-.053-28.5S403.016,4454.528,404.05,4458.236Z" transform="translate(-240.901 -3316.702)"/><path class="f" d="M4905.97,4153.01l11.184,31.939a11.893,11.893,0,0,1,8.525,0l11.182-31.939Z" transform="translate(-3728.537 -3156.287)"/><path class="f" d="M4947.174,4292.345a9.536,9.536,0,0,1-6.149,8.645v-5.225h-9.074v5.225a9.542,9.542,0,0,1-6.151-8.645c0-5.268,4.783-9.545,10.687-9.545S4947.174,4287.077,4947.174,4292.345Z" transform="translate(-3743.608 -3254.928)"/><path class="f" d="M4960.5,4348.707h-9.075V4336.82h9.075Z" transform="translate(-3763.087 -3295.983)"/><path class="f" d="M7525.169,4153.01l11.182,31.939a11.893,11.893,0,0,1,8.525,0l11.181-31.939h-30.888Z" transform="translate(-5719.128 -3156.287)"/><path class="f" d="M7566.37,4292.345a9.536,9.536,0,0,1-6.146,8.643v-5.223h-9.08v5.223a9.534,9.534,0,0,1-6.144-8.643c0-5.268,4.784-9.545,10.685-9.545S7566.37,4287.077,7566.37,4292.345Z" transform="translate(-5734.2 -3254.928)"/><path class="f" d="M7579.679,4348.707H7570.6V4336.82h9.079Z" transform="translate(-5753.656 -3295.983)"/><path class="g" d="M5262.741,3246.534a19.788,19.788,0,0,1-1.2,6.828H5163.5a135.341,135.341,0,0,0,33.108-24.333s-7.294-38.352-34.738-63.024c-15.137,2.575-28.591,9.015-39.146,15.658a117.19,117.19,0,0,0-1.006-12.634c-40.8-24.149-90.653-18.36-90.653-18.36s-15.962,28.152-18.942,63.564a19.223,19.223,0,0,0-16.141-9.091H4950.35v-121.2a19.34,19.34,0,0,1,19.143-19.526h274.1a19.341,19.341,0,0,1,19.145,19.526v162.588Zm-139.061,6.828H5106.5c1.791-3.794,4.136-9.177,6.485-15.749A112.313,112.313,0,0,0,5123.68,3253.362Zm-82.915,0h-26.6a22,22,0,0,0,1.361-7.656v-2.834A127.82,127.82,0,0,0,5040.765,3253.362Z" transform="translate(-3762.266 -2328.959)"/><path class="g" d="M6556.455,3253.362H6309.084a19.777,19.777,0,0,1-1.2-6.828V3083.946a19.339,19.339,0,0,1,19.14-19.526h274.106a19.339,19.339,0,0,1,19.142,19.526v121.2h-45.636c-10.788,0-19.541,9.331-19.541,20.842v19.723A21.94,21.94,0,0,0,6556.455,3253.362Z" transform="translate(-4793.989 -2328.959)"/><path class="c" d="M6251.98,3315.2V3145.78H6265.4V3315.2Z" transform="translate(-4751.504 -2390.793)"/><path class="c" d="M4730.48,3877.415V3866.8c0-8.347,8.748-15.123,19.541-15.123h.23c2.861,7.719,9.924,13.181,18.178,13.181h60.451c8.256,0,15.316-5.462,18.18-13.181h26.6a173.623,173.623,0,0,0,62.578,6.252s1.272-2.244,3.161-6.252h17.177a92.981,92.981,0,0,0,9.854,10.385,102.647,102.647,0,0,0,29.964-10.385h361.234c2.861,7.719,9.924,13.181,18.177,13.181h60.454c8.256,0,15.316-5.462,18.177-13.181h.233c10.79,0,19.541,6.775,19.541,15.123v10.613H4730.481Z" transform="translate(-3595.165 -2927.277)"/><path class="h" d="M4906.713,3691.325c0,11.506-8.748,20.837-19.541,20.837h-60.451c-10.788,0-19.541-9.331-19.541-20.837V3671.6c0-11.51,8.752-20.842,19.541-20.842h60.451a19.222,19.222,0,0,1,16.14,9.091,123.821,123.821,0,0,0,.569,27.026q1.407.832,2.832,1.613Z" transform="translate(-3653.457 -2774.577)"/><path class="c" d="M7437.465,3691.325c0,11.506-8.75,20.837-19.541,20.837h-60.453c-10.789,0-19.541-9.331-19.541-20.837V3671.6c0-11.51,8.752-20.842,19.541-20.842h60.453c10.791,0,19.541,9.331,19.541,20.842Z" transform="translate(-5576.827 -2774.577)"/><path class="g" d="M5471.894,4062.9H4726.02V3958.91h745.874Z" transform="translate(-3591.775 -3008.772)"/><path class="c" d="M5297.434,3530.811a154.46,154.46,0,0,0,9.645-22,135,135,0,0,1-14.19-36.9,132.184,132.184,0,0,1,23.923-19.056,117.167,117.167,0,0,0-1-12.634c-40.8-24.149-90.653-18.36-90.653-18.36s-24.745,43.632-18.375,90.591C5247.583,3536.6,5297.434,3530.811,5297.434,3530.811Z" transform="translate(-3956.357 -2600.156)"/><path class="h" d="M5666.689,3550.714s-7.293-38.352-34.737-63.024c-36.389,6.192-63.072,34.713-63.072,34.713s7.294,38.357,34.738,63.029c36.394-6.194,63.072-34.718,63.072-34.718Zm-50.106,15a4.735,4.735,0,0,1-.55-.029,7.028,7.028,0,0,1-4.92-3.012c-3.166-4.387-3.23-9.66-.219-15.749-5.29,3.74-10.716,4.716-16.214,2.926-3.485-1.138-4.135-3.113-4.209-4.188-.156-2.153,1.563-4.387,4.485-5.832a28.154,28.154,0,0,1,7.9-2.429c-5.71-1.443-14.4-4.649-13.373-10.649a4.51,4.51,0,0,1,2.419-3.4c3.513-1.8,9.676.432,11.754,1.445a49.38,49.38,0,0,1,8.688,5.65c-3.137-5.34-5.419-13.181-2.415-19.531,1.063-2.244,2.352-3.279,3.85-3.113,3.326.408,5.421,7.317,5.762,9.007a75.351,75.351,0,0,1,1.3,9.06c1.339-3.384,3.276-7.114,6.413-9.749,1.582-1.33,4.193-2.686,6.379-2.143a3.937,3.937,0,0,1,2.736,2.534c1.769,4.368-1.937,9.732-4.3,12.542-.291.346-.593.684-.9,1.015.154-.039.312-.07.468-.106,3.214-.7,13.892-2.544,16.2,3.137a4.054,4.054,0,0,1-.209,3.684c-2.134,3.66-9.607,4.68-9.924,4.721a33.018,33.018,0,0,1-6.525.159,24.574,24.574,0,0,1,2.832,1.821c2.426,1.807,6.449,5.479,6.132,9.737a4.008,4.008,0,0,1-1.687,3.175,6.248,6.248,0,0,1-5.3.432,18.723,18.723,0,0,1-9.115-6.369c.026.187.053.377.075.566.4,3.3.509,9.358-3.293,12.921a6.185,6.185,0,0,1-4.243,1.764Zm.028-23.966h0c-6.18,8.059-7.474,14.681-3.835,19.726a5,5,0,0,0,3.454,2.174,4.08,4.08,0,0,0,3.192-1.19c3.261-3.058,2.947-8.837,2.661-11.179a26.331,26.331,0,0,0-1.433-5.8c-.965-1.69-1.851-3.475-2.678-5.306Q5617.292,3541,5616.611,3541.752Zm5.911,2.865h0c2.818,4.877,6.331,8.8,11.22,10.253a4.446,4.446,0,0,0,3.555-.151,2.041,2.041,0,0,0,.806-1.644c.254-3.4-3.634-6.689-5.313-7.944-3.667-2.736-8.129-4.159-12.353-5.266A46.706,46.706,0,0,1,5622.522,3544.618Zm-11.635-5.853h0c-5.165.149-10.529.687-15.022,2.906-2.1,1.037-3.439,2.582-3.35,3.852.094,1.308,1.795,2.052,2.8,2.383,5.793,1.894,11.585.219,17.26-4.99l-.573.341,3.675-3.643c.237-.3.482-.6.732-.9A32.261,32.261,0,0,1,5610.888,3538.764Zm10.574-.794h0c5.306,1.231,10.685,2.2,15.979,1.507,2.618-.341,7.216-1.654,8.417-3.718a2,2,0,0,0,.084-1.882c-1.359-3.338-8.316-3.113-13.865-1.906a27.129,27.129,0,0,0-4.4,1.347,59.969,59.969,0,0,1-6.456,4.452l.238.2Zm-26.24-13.255h0a5.305,5.305,0,0,0-2.383.468,2.437,2.437,0,0,0-1.332,1.922c-.837,4.872,9.3,7.7,12.428,8.453a44.526,44.526,0,0,0,7,1.152c1.5-.043,2.98-.053,4.418-.062l.8-.007a8.737,8.737,0,0,1-.9-1.164c-3.91-3.276-7.963-6.617-12.492-8.829A19.988,19.988,0,0,0,5595.222,3524.715Zm21.584,9.391h0l.172.144c.276.235.552.463.828.7.252-.778.5-1.558.74-2.326.132-.427.269-.854.405-1.286a63.692,63.692,0,0,0-1.418-14.112c-.564-2.789-2.578-7.2-4-7.375-.521-.074-1.14.672-1.745,1.954-2.895,6.111-.151,13.954,3.077,18.811a19.486,19.486,0,0,1,.96,1.719C5616.125,3532.906,5616.451,3533.535,5616.806,3534.106Zm4.186-2.424h0c-.034,1.1-.1,2.174-.211,3.223a26.362,26.362,0,0,1,5.837-3.367,29.688,29.688,0,0,0,3.883-3.8c1.668-1.975,5.388-6.953,3.97-10.452a1.946,1.946,0,0,0-1.327-1.313c-1.325-.329-3.3.662-4.567,1.723-3.437,2.89-5.328,7.4-6.593,11-.348.989-.672,1.982-.991,2.981Z" transform="translate(-4232.349 -2650.644)"/><path class="i" d="M5681.565,3629.375c-.185,0-.367-.01-.552-.026a7.038,7.038,0,0,1-4.92-3.014c-3.166-4.387-3.23-9.66-.219-15.749-5.287,3.74-10.713,4.716-16.214,2.926-3.482-1.14-4.135-3.11-4.211-4.186-.154-2.155,1.564-4.392,4.488-5.837a28.319,28.319,0,0,1,7.9-2.427c-5.709-1.442-14.4-4.646-13.373-10.649a4.511,4.511,0,0,1,2.419-3.4c3.514-1.8,9.676.432,11.755,1.445a49.327,49.327,0,0,1,8.688,5.649c-3.137-5.337-5.419-13.181-2.415-19.529,1.063-2.246,2.354-3.281,3.849-3.115,3.327.408,5.422,7.318,5.763,9.007a75.459,75.459,0,0,1,1.3,9.06c1.339-3.384,3.276-7.113,6.413-9.749,1.582-1.33,4.193-2.683,6.382-2.143a3.942,3.942,0,0,1,2.733,2.534c1.769,4.368-1.937,9.732-4.3,12.542-.291.346-.593.684-.9,1.015l.468-.106c3.216-.7,13.891-2.544,16.2,3.137a4.039,4.039,0,0,1-.211,3.682c-2.131,3.662-9.6,4.682-9.922,4.723a32.815,32.815,0,0,1-6.525.158,24.575,24.575,0,0,1,2.832,1.819c2.429,1.81,6.452,5.482,6.134,9.739a4.022,4.022,0,0,1-1.689,3.175,6.249,6.249,0,0,1-5.3.432,18.738,18.738,0,0,1-9.115-6.369c.026.187.053.376.074.566.4,3.3.509,9.357-3.292,12.924A6.193,6.193,0,0,1,5681.565,3629.375Zm.026-23.966h0c-6.18,8.059-7.473,14.681-3.835,19.726a5,5,0,0,0,3.454,2.174,4.087,4.087,0,0,0,3.195-1.19c3.259-3.055,2.945-8.837,2.659-11.179a26.282,26.282,0,0,0-1.433-5.8c-.965-1.687-1.851-3.473-2.679-5.3C5682.5,3604.382,5682.045,3604.9,5681.591,3605.409Zm5.911,2.865h0c2.818,4.877,6.334,8.8,11.22,10.253a4.445,4.445,0,0,0,3.555-.151,2.039,2.039,0,0,0,.806-1.642c.254-3.4-3.634-6.691-5.313-7.947-3.667-2.736-8.129-4.159-12.353-5.266A46.276,46.276,0,0,1,5687.5,3608.274Zm-11.632-5.853h0c-5.167.149-10.532.686-15.024,2.906-2.1,1.034-3.441,2.582-3.35,3.852.093,1.308,1.8,2.054,2.8,2.381,5.8,1.9,11.587.221,17.263-4.987l-.574.341,3.674-3.643c.238-.3.482-.6.732-.9A32.48,32.48,0,0,1,5675.87,3602.421Zm10.574-.794h0c5.3,1.231,10.683,2.2,15.977,1.51,2.618-.343,7.217-1.656,8.419-3.72a2,2,0,0,0,.084-1.879c-1.361-3.341-8.318-3.115-13.867-1.908a27.1,27.1,0,0,0-4.4,1.347,59.92,59.92,0,0,1-6.458,4.449Zm-26.244-13.255h0a5.3,5.3,0,0,0-2.381.468,2.438,2.438,0,0,0-1.332,1.922c-.837,4.872,9.3,7.7,12.43,8.453a44.183,44.183,0,0,0,7,1.152c1.5-.041,2.98-.053,4.418-.065l.8,0a8.749,8.749,0,0,1-.9-1.164c-3.91-3.276-7.963-6.617-12.489-8.829A20,20,0,0,0,5660.2,3588.371Zm21.588,9.394h0l.167.144c.279.23.555.463.831.694.252-.778.5-1.558.737-2.323.134-.43.271-.857.408-1.289a63.647,63.647,0,0,0-1.418-14.112c-.563-2.789-2.58-7.2-4-7.375-.521-.074-1.14.672-1.745,1.954-2.894,6.113-.151,13.954,3.077,18.811.31.468.624,1.07.962,1.719.3.576.624,1.2.982,1.778Zm4.183-2.427h0q-.051,1.649-.211,3.223a26.457,26.457,0,0,1,5.836-3.367,29.507,29.507,0,0,0,3.883-3.8c1.666-1.975,5.388-6.953,3.969-10.452a1.949,1.949,0,0,0-1.327-1.313c-1.325-.329-3.3.663-4.564,1.723-3.439,2.89-5.333,7.4-6.6,11-.348.989-.672,1.982-.991,2.981Z" transform="translate(-4297.329 -2714.301)"/><path class="g" d="M869.371,3188.488v-10.757a42.458,42.458,0,0,1,21-36.643v-108.5a23.609,23.609,0,0,0-23.616-23.6H672.036a23.609,23.609,0,0,0-23.616,23.6v108.5a42.452,42.452,0,0,1,20.993,36.641v10.757S765.065,3167.188,869.371,3188.488Z" transform="translate(-492.799 -2286.832)"/><path class="c" d="M935.848,3787.186H735.89V3756.9H935.848Z" transform="translate(-559.276 -2855.244)"/><path class="g" d="M935.848,3981.288H735.89v-98.2H935.848Z" transform="translate(-559.276 -2951.148)"/><path class="c" d="M400.874,3613.111a42.492,42.492,0,1,1,65.786-35.551l-67.7,34.217A9.087,9.087,0,0,1,400.874,3613.111Z" transform="translate(-290.046 -2686.661)"/><path class="c" d="M453.81,3746.3s24.007,10.625,25.19,105.024h42.509V3712.08Z" transform="translate(-344.896 -2821.181)"/><path class="c" d="M1634.844,3613.106a42.492,42.492,0,1,0-65.794-35.546l67.7,34.217A9.157,9.157,0,0,0,1634.844,3613.106Z" transform="translate(-1192.478 -2686.661)"/><path class="c" d="M1636.752,3746.3s-24.01,10.625-25.191,105.024H1569.05V3712.08Z" transform="translate(-1192.478 -2821.181)"/><path class="c" d="M735.9,3726.922s95.65-21.3,199.956,0Z" transform="translate(-559.284 -2825.266)"/><path class="j" d="M1705.624,1680.617H1547.988l-7.738-12.43V1515.36h152.938l12.437,8.875Z" transform="translate(-1170.59 -1151.674)"/><path class="k" d="M1555.31,1677.818V1532.21h145.709v145.608Z" transform="translate(-1182.036 -1164.479)"/><path class="l" d="M1698.408,1675.205H1550.29V1527.19h148.118Zm-145.709-2.4H1696V1529.6H1552.7v143.2Z" transform="translate(-1178.22 -1160.664)"/><path class="c" d="M1685.961,1524.382V1662.77H1547.476V1524.382Zm7.226-7.222H1540.25v152.83h152.938Z" transform="translate(-1170.59 -1153.042)"/><g transform="translate(406.709 401.143)"><path class="c" d="M1734.04,1710.821h-39.42V1671.43h39.42Z" transform="translate(-1694.62 -1671.43)"/><path class="h" d="M1898.29,1710.821h-39.42V1671.43h39.42Z" transform="translate(-1819.45 -1671.43)"/><path d="M1734.04,1874.949h-39.42V1835.56h39.42Z" transform="translate(-1694.62 -1796.169)"/><path class="e" d="M1898.29,1874.949h-39.42V1835.56h39.42Z" transform="translate(-1819.45 -1796.169)"/></g><g transform="translate(1385.143 196.594)"><path class="e" d="M5899.185,929.478a17.334,17.334,0,0,1-17.34,17.33h-93.074a17.334,17.334,0,0,1-17.34-17.33v-93a17.336,17.336,0,0,1,17.34-17.333h93.074a17.336,17.336,0,0,1,17.34,17.333Z" transform="translate(-5771.431 -819.14)"/><path class="k" d="M5922.64,954.482a14.4,14.4,0,0,1-14.4,14.393h-77.284a14.4,14.4,0,0,1-14.4-14.393v-77.23a14.4,14.4,0,0,1,14.4-14.393h77.284a14.4,14.4,0,0,1,14.4,14.393Z" transform="translate(-5805.721 -852.367)"/><path class="e" d="M6033.945,894.112h-3.355v-13.7h3.355Z" transform="translate(-5968.392 -865.705)"/><path class="e" d="M6033.945,1236.692h-3.355v-13.7h3.355Z" transform="translate(-5968.392 -1126.066)"/><path class="e" d="M5851.329,1078.13v3.355H5837.62v-3.355Z" transform="translate(-5821.734 -1015.973)"/><path class="e" d="M6194.132,1078.13v3.355H6180.42v-3.355Z" transform="translate(-6082.263 -1015.973)"/><path class="e" d="M5928.664,896.541l-1.536.235-1.678-11.014,1.539-.233Z" transform="translate(-5888.485 -869.596)"/><path class="e" d="M6136.31,896.541l1.543.235,1.673-11.014-1.541-.233Z" transform="translate(-6048.739 -869.596)"/><path class="e" d="M5853.743,1183.78l.235,1.546-11.021,1.668-.237-1.541Z" transform="translate(-5825.611 -1096.266)"/><path class="e" d="M5853.743,976.281l.235-1.538-11.021-1.673-.237,1.538Z" transform="translate(-5825.611 -936.127)"/><path class="e" d="M6185.768,1183.78l-.238,1.546,11.023,1.668.233-1.541Z" transform="translate(-6086.146 -1096.266)"/><path class="e" d="M6185.768,976.281l-.238-1.538,11.023-1.673.233,1.538Z" transform="translate(-6086.146 -936.127)"/><path class="e" d="M5928.664,1228.333l-1.536-.233-1.678,11.014,1.539.235Z" transform="translate(-5888.485 -1129.95)"/><path class="e" d="M6136.31,1228.333l1.543-.233,1.673,11.014-1.541.235Z" transform="translate(-6048.739 -1129.95)"/><path class="m" d="M6043.317,968.668l-10.174,14.582-1.409-27.4-1.558,30.379a2.841,2.841,0,1,0,4.4,2.374,2.669,2.669,0,0,0-.051-.547Z" transform="translate(-5967.1 -923.04)"/><path class="e" d="M6041.446,1002.06l-14.016,20.1,3.9,2.215Z" transform="translate(-5965.99 -958.159)"/><path class="e" d="M6032.268,948.65l-1.678,32.75h3.355Z" transform="translate(-5968.392 -917.568)"/><path class="e" d="M6031.426,1076.112a2.843,2.843,0,1,1-2.844-2.842A2.843,2.843,0,0,1,6031.426,1076.112Z" transform="translate(-5964.706 -1012.279)"/></g><path class="e" d="M2927.348,4750.49h-883.5l-63.108,103.872H2990.456Z" transform="translate(-1505.362 -3610.373)"/><path class="e" d="M195.968,4888.98h-31.39a26.55,26.55,0,1,1,0-53.1h6.55a3.908,3.908,0,1,1,0,7.817h-6.55a18.733,18.733,0,1,0,0,37.466h31.39a3.909,3.909,0,1,1,0,7.817Z" transform="translate(-50.888 -3622.269)"/><path class="e" d="M324.4,4666.551h-1.8V4589.19h-7.541l-.043.019v-.019c-75.514,0-65.285,87.4-65.285,87.4h56.088a8.61,8.61,0,0,0-8.6-8.6h-5.5l1.246-2.158a13.612,13.612,0,0,0-11.81-20.4,1.44,1.44,0,1,1,0-2.88,16.492,16.492,0,0,1,15.35,22.56h.715a11.476,11.476,0,0,1,8.863,4.186v-32.436a1.441,1.441,0,1,1,2.882,0v39.727h25.481a10.042,10.042,0,0,0-10.044-10.037Z" transform="translate(-135.448 -3434.784)"/><path class="e" d="M518.886,4458.236c-1.037,3.708,1.409,7.63,5.462,8.76s8.179-.958,9.214-4.665,2.4-27.842.053-28.5S519.92,4454.528,518.886,4458.236Z" transform="translate(-340.172 -3316.702)"/><path class="e" d="M434.163,4491.069A24.086,24.086,0,1,1,410.076,4467,24.078,24.078,0,0,1,434.163,4491.069Z" transform="translate(-239.352 -3341.92)"/><path class="c" d="M437.465,4550.576a2.068,2.068,0,1,1-2.066-2.066A2.068,2.068,0,0,1,437.465,4550.576Z" transform="translate(-275.331 -3403.868)"/><path class="c" d="M526.435,4550.576a2.068,2.068,0,1,1-2.069-2.066A2.069,2.069,0,0,1,526.435,4550.576Z" transform="translate(-342.948 -3403.868)"/><path class="c" d="M492.541,4617.155a.823.823,0,1,1,0,1.647,4.708,4.708,0,0,1-3.338-1.382l-.046-.048a4.7,4.7,0,0,1-1.337-3.288.823.823,0,1,1,1.646,0,3.069,3.069,0,0,0,.864,2.138l.036.034a3.069,3.069,0,0,0,2.174.9Z" transform="translate(-316.743 -3453.078)"/><path class="n" d="M488.126,4613.26a.823.823,0,0,1,0,1.647h-.163a.823.823,0,0,1,0-1.647Z" transform="translate(-316.226 -3453.077)"/><path class="c" d="M474.79,4614.083a.824.824,0,0,1,1.649,0,4.725,4.725,0,0,1-4.723,4.718.823.823,0,1,1,0-1.647,3.073,3.073,0,0,0,3.074-3.072Z" transform="translate(-303.876 -3453.077)"/><path class="c" d="M438.585,4595.7a.412.412,0,0,1,0,.823H432.03a.412.412,0,0,1,0-.823Z" transform="translate(-274.031 -3439.732)"/><path class="c" d="M438.585,4606.42a.412.412,0,0,1,0,.823H432.03a.412.412,0,0,1,0-.823Z" transform="translate(-274.031 -3447.88)"/><path class="c" d="M438.075,4616.58a.412.412,0,0,1,0,.823H431.52a.412.412,0,0,1,0-.823Z" transform="translate(-273.644 -3455.601)"/><path class="c" d="M524.4,4595.7a.412.412,0,0,1,0,.823h-6.552a.412.412,0,1,1,0-.823Z" transform="translate(-339.255 -3439.732)"/><path class="c" d="M524.4,4606.42a.412.412,0,0,1,0,.823h-6.552a.412.412,0,1,1,0-.823Z" transform="translate(-339.255 -3447.88)"/><path class="c" d="M523.895,4616.58a.412.412,0,0,1,0,.823H517.34a.412.412,0,0,1,0-.823Z" transform="translate(-338.867 -3455.601)"/><path class="c" d="M480.215,4592.513l-3.641,4.728a1.182,1.182,0,0,1-1.867,0l-3.641-4.728a1.175,1.175,0,0,1,.931-1.894h7.286A1.175,1.175,0,0,1,480.215,4592.513Z" transform="translate(-303.822 -3435.871)"/><path class="o" d="M5471.894,4360.534H4726.02v-9.994h745.874Z" transform="translate(-3591.775 -3306.41)"/><path class="c" d="M843.3,4260.611H558.06v-9.991H843.3Z" transform="translate(-424.126 -3230.471)"/></svg>