<svg xmlns="http://www.w3.org/2000/svg" viewBox="0 0 228.289 325.735"><defs><style>.a{fill:#ffd4b3;}.b{fill:#f4c19c;}.c{fill:#e9ae85;}.d{fill:#fbe859;}.e{fill:#f9d831;}.f{fill:#fff;}.g{fill:#f6f4f6;}.h{fill:#54c1bc;}.i{fill:#48a8a1;}.j{fill:#95d66e;}.k{fill:#baef97;}.l{fill:#f2b344;}.m{fill:#e29a26;}.n{fill:#ff9382;}.o{fill:#e96e5d;}</style></defs><g transform="translate(0)"><g transform="translate(82.591 0.276)"><g transform="translate(0 174.088)"><path class="a" d="M4751.711,1714.23l25.177,1.882-4.386,23.415s7.495,6.779,3.469,25.107a39.912,39.912,0,0,0,2.729,9.5c1.949,4.184,4.877,12.337,5.686,14.86s.805,6.28-2.657,7.967-6.009-2.112-7.561-5.1-7.151-18.936-10.227-20.294c-1.975-.871-8.14-.468-11.415,3.4s-4.338,8.508,2.112,13.032,17.933,7.069,22.283,10.328,4.408,8.958,2.195,11.816c0,0-17.228-6.324-26.655-10.553-9.6-4.3-17.51-12.377-17.939-14.953-1.05-6.274,3.982-32.261,10.291-43.622,4.785-8.614,3.875-22.689,6.9-26.788Z" transform="translate(-4734.383 -1714.229)"/><g transform="translate(15.557 56.956)"><path class="b" d="M5182.04,3294.45c3.291-1.87,9.646-1.662,9.646-1.662-1.069-3.725.25-10.885.251-10.888a7.743,7.743,0,0,1,3.4.342c1.312.578,3.082,3.813,4.8,7.56a77.386,77.386,0,0,1-.791,11.719,4.7,4.7,0,0,1-1.332,2.81c-4.236-1.618-8.742-3.39-11.98-5.661a12.1,12.1,0,0,1-3.991-4.22Z" transform="translate(-5181.33 -3281.853)"/><path class="c" d="M5172.865,3292.554s-6.336-.206-9.632,1.653c-1.581-3.107-.392-6.142,1.865-8.8a11.735,11.735,0,0,1,7.684-3.708c.081.167.253-.2.334-.03-.28,1.724-1.145,7.775-.25,10.889Z" transform="translate(-5162.51 -3281.618)"/></g><g transform="translate(26.087 70.605)"><path class="d" d="M5480.937,3671.608a14.326,14.326,0,1,1-14.25-14.4A14.328,14.328,0,0,1,5480.937,3671.608Z" transform="translate(-5452.284 -3657.205)"/><path class="e" d="M5574,3768.332a10.678,10.678,0,1,1-10.623-10.736A10.679,10.679,0,0,1,5574,3768.332Z" transform="translate(-5548.999 -3753.948)"/><g transform="translate(9.899 7.249)"><path class="f" d="M5729.212,3856.7a.7.7,0,0,1,.7.7v.359a5.98,5.98,0,0,1,2.533.9.875.875,0,0,1,.49.784.9.9,0,0,1-.916.9.947.947,0,0,1-.491-.148,5.938,5.938,0,0,0-1.683-.719v3.138c2.484.621,3.548,1.619,3.548,3.367,0,1.8-1.406,2.992-3.481,3.188v.981a.7.7,0,0,1-.7.7.712.712,0,0,1-.719-.7v-1.014a7.078,7.078,0,0,1-3.351-1.275.9.9,0,0,1-.442-.785.9.9,0,0,1,1.438-.719,5.788,5.788,0,0,0,2.419,1.1v-3.219c-2.387-.621-3.5-1.52-3.5-3.367,0-1.749,1.39-2.959,3.433-3.122v-.344a.711.711,0,0,1,.719-.7Zm-.653,5.573h0v-2.893c-1.046.1-1.569.654-1.569,1.373C5726.99,3861.441,5727.3,3861.866,5728.559,3862.274Zm1.292,2.272h0v2.974c1.046-.114,1.618-.638,1.618-1.423C5731.468,3865.378,5731.108,3864.938,5729.85,3864.547Z" transform="translate(-5724.701 -3856.701)"/></g></g><g transform="translate(34.568 50.579)"><path class="a" d="M5690.879,3133.181c-.863-1.66-2.981-7.338-5.219-12.279.9-5.4,5.774-12.9,7.048-14.782a39.285,39.285,0,0,0,2.7,9.329c1.95,4.185,4.879,12.338,5.687,14.86s.806,6.281-2.657,7.967-6.008-2.112-7.561-5.1Z" transform="translate(-5685.661 -3106.12)"/><path class="g" d="M5853.1,3671.387s3.336,6.4-.04,8.058-5.76-3.271-6.529-4.838c0,0-.276-1.694,2.561-3.085S5853.1,3671.387,5853.1,3671.387Z" transform="translate(-5840.675 -3650.344)"/></g></g><g transform="translate(8.834)"><path class="h" d="M5016.665,55.553h-37.7l-.055-193.08h37.7Z" transform="translate(-4978.913 137.527)"/><path class="i" d="M5016.677,1883.235h-37.7V1869.9h37.7Z" transform="translate(-4978.925 -1690.155)"/></g></g><g transform="translate(0 192.293)"><path class="a" d="M2478.892,2207.62l25.177,1.882-4.385,23.414s7.494,6.779,3.468,25.107a39.9,39.9,0,0,0,2.729,9.5c1.95,4.184,4.878,12.337,5.686,14.86s.805,6.28-2.657,7.967-6.009-2.113-7.561-5.1-7.151-18.936-10.228-20.294c-1.974-.871-8.14-.467-11.413,3.395s-4.339,8.508,2.112,13.033,17.932,7.069,22.282,10.327,4.408,8.957,2.2,11.815c0,0-17.228-6.323-26.656-10.553-9.6-4.3-17.51-12.377-17.939-14.953-1.05-6.275,3.982-32.261,10.291-43.622,4.785-8.614,3.875-22.689,6.9-26.789Z" transform="translate(-2461.563 -2207.62)"/><g transform="translate(15.557 56.956)"><path class="b" d="M2909.2,3787.831c3.291-1.87,9.645-1.663,9.645-1.663-1.069-3.724.25-10.884.251-10.888a7.746,7.746,0,0,1,3.4.342c1.311.579,3.081,3.813,4.8,7.559a77.232,77.232,0,0,1-.792,11.72,4.707,4.707,0,0,1-1.331,2.81c-4.237-1.618-8.742-3.391-11.982-5.661A12.09,12.09,0,0,1,2909.2,3787.831Z" transform="translate(-2908.491 -3775.233)"/><path class="c" d="M2900.043,3785.929s-6.335-.206-9.632,1.653c-1.581-3.107-.392-6.141,1.865-8.805a11.738,11.738,0,0,1,7.684-3.708c.081.168.252-.2.335-.029-.28,1.724-1.146,7.774-.251,10.889Z" transform="translate(-2889.689 -3774.993)"/></g><g transform="translate(19.225 71.425)"><path class="j" d="M3024.01,4234.091H2990.62v-60.911h33.389Z" transform="translate(-2990.62 -4173.181)"/><path class="k" d="M3118.051,4313.514v39.761a5.593,5.593,0,0,1,5.594,5.593c0,.06-.015.113-.017.171H3136.6c0-.058-.016-.112-.016-.171a5.592,5.592,0,0,1,5.592-5.593v-39.761a5.592,5.592,0,0,1-5.592-5.594h-12.941a5.594,5.594,0,0,1-5.594,5.594Z" transform="translate(-3113.42 -4303.023)"/><path class="j" d="M3198.718,4750.09a9.849,9.849,0,1,1-9.848-9.851A9.848,9.848,0,0,1,3198.718,4750.09Z" transform="translate(-3172.174 -4719.633)"/><g transform="translate(10.495 26.648)"><path class="k" d="M3279.43,4910.166a.611.611,0,0,1,.617-.616h.314a5.218,5.218,0,0,1,.788-2.22.768.768,0,0,1,.686-.429.789.789,0,0,1,.789.8.829.829,0,0,1-.128.43,5.233,5.233,0,0,0-.631,1.475h2.75c.545-2.177,1.418-3.107,2.95-3.107,1.575,0,2.621,1.231,2.792,3.05h.859a.612.612,0,0,1,.616.616.624.624,0,0,1-.616.629h-.888a6.206,6.206,0,0,1-1.118,2.936.793.793,0,0,1-1.473-.4.775.775,0,0,1,.157-.472,5.1,5.1,0,0,0,.96-2.119h-2.821c-.545,2.091-1.332,3.064-2.949,3.064-1.532,0-2.593-1.218-2.735-3.007h-.3a.623.623,0,0,1-.617-.629Zm4.884.572h-2.535c.085.917.573,1.374,1.2,1.374C3283.583,4912.112,3283.955,4911.84,3284.314,4910.738Zm1.99-1.131h2.605c-.1-.916-.558-1.418-1.245-1.418C3287.034,4908.189,3286.647,4908.5,3286.3,4909.607Z" transform="translate(-3279.43 -4906.5)"/></g></g><g transform="translate(34.568 50.579)"><path class="a" d="M3418.059,3626.56c-.863-1.66-2.982-7.338-5.219-12.279.9-5.4,5.775-12.9,7.048-14.781a39.352,39.352,0,0,0,2.7,9.329c1.95,4.184,4.878,12.336,5.686,14.86s.806,6.28-2.657,7.967-6.009-2.113-7.561-5.1Z" transform="translate(-3412.84 -3599.5)"/><path class="g" d="M3580.3,4164.77s3.336,6.4-.04,8.057-5.761-3.271-6.53-4.836c0,0-.275-1.694,2.561-3.086s4.009-.135,4.009-.135Z" transform="translate(-3567.873 -4143.727)"/></g></g><g transform="translate(8.888)"><path class="l" d="M2743.858,73.418h-37.7l.466-211.285h37.584Z" transform="translate(-2706.16 137.867)"/><path class="m" d="M2743.858,2376.616h-37.7v-13.335h37.7Z" transform="translate(-2706.16 -2165.331)"/></g><g transform="translate(157.561 0.393)"><g transform="translate(0 191.9)"><path class="a" d="M6814.819,2207.62,6840,2209.5l-4.385,23.414s7.494,6.779,3.468,25.107a39.878,39.878,0,0,0,2.729,9.5c1.951,4.184,4.879,12.337,5.686,14.86s.807,6.28-2.656,7.967-6.009-2.113-7.562-5.1-7.15-18.936-10.226-20.294c-1.976-.871-8.141-.467-11.414,3.395s-4.34,8.508,2.111,13.033,17.933,7.069,22.282,10.327,4.409,8.957,2.194,11.815c0,0-17.228-6.323-26.655-10.553-9.6-4.3-17.509-12.377-17.939-14.953-1.049-6.275,3.983-32.261,10.292-43.622,4.784-8.614,3.875-22.689,6.9-26.789Z" transform="translate(-6797.491 -2207.62)"/><g transform="translate(15.557 56.956)"><path class="b" d="M7245.12,3787.831c3.292-1.87,9.646-1.663,9.646-1.663-1.069-3.724.25-10.884.251-10.888a7.745,7.745,0,0,1,3.4.342c1.312.579,3.082,3.813,4.8,7.559a77.365,77.365,0,0,1-.792,11.72,4.711,4.711,0,0,1-1.331,2.81c-4.236-1.618-8.743-3.391-11.98-5.661A12.1,12.1,0,0,1,7245.12,3787.831Z" transform="translate(-7244.411 -3775.233)"/><path class="c" d="M7235.959,3785.929s-6.336-.206-9.631,1.653c-1.582-3.107-.392-6.141,1.866-8.805a11.731,11.731,0,0,1,7.683-3.708c.079.168.251-.2.333-.029-.28,1.724-1.144,7.774-.25,10.889Z" transform="translate(-7225.605 -3774.993)"/></g><g transform="translate(2.854 63.499)"><path class="j" d="M6906.69,4024.2l-30.668-13.2,24.083-55.948,30.669,13.2Z" transform="translate(-6876.021 -3955.05)"/><path class="k" d="M7124.811,4192.977l-15.72,36.521a5.593,5.593,0,0,1,2.926,7.349c-.023.054-.058.1-.083.151l11.918,5.129c.02-.055.029-.109.053-.163a5.591,5.591,0,0,1,7.348-2.927l15.719-36.521a5.591,5.591,0,0,1-2.924-7.349l-11.888-5.117A5.592,5.592,0,0,1,7124.811,4192.977Z" transform="translate(-7100.621 -4181.51)"/><path class="j" d="M7377.2,4649.153a9.849,9.849,0,1,1-5.151-12.942,9.85,9.85,0,0,1,5.151,12.942Z" transform="translate(-7340.777 -4610.683)"/><g transform="translate(21.687 29.88)"><path class="k" d="M7472.87,4779.443a.61.61,0,0,1,.808-.323l.289.125a5.23,5.23,0,0,1,1.6-1.728.768.768,0,0,1,.8-.123.787.787,0,0,1,.408,1.048.816.816,0,0,1-.288.344,5.256,5.256,0,0,0-1.164,1.1l2.526,1.088c1.361-1.784,2.531-2.294,3.939-1.687,1.447.622,1.92,2.166,1.358,3.905l.788.338a.612.612,0,0,1,.323.81.623.623,0,0,1-.813.334l-.817-.351a6.19,6.19,0,0,1-2.187,2.254.791.791,0,1,1-.864-1.323,5.087,5.087,0,0,0,1.72-1.566l-2.591-1.116c-1.327,1.7-2.436,2.288-3.921,1.648-1.406-.605-1.9-2.143-1.322-3.843l-.277-.118a.624.624,0,0,1-.315-.822Zm4.257,2.457h0l-2.328-1c-.285.875-.017,1.489.56,1.738C7475.912,4782.872,7476.363,4782.771,7477.127,4781.9Zm2.274-.252h0l2.394,1.029c.269-.881.049-1.523-.584-1.794C7480.635,4780.634,7480.153,4780.77,7479.4,4781.648Z" transform="translate(-7472.817 -4777.331)"/></g></g><g transform="translate(18.146 64.7)"><path class="j" d="M7349.443,4045.185l-31.281,11.677-21.3-57.064,31.28-11.677Z" transform="translate(-7296.86 -3988.121)"/><path class="k" d="M7517.2,4224.464l13.907,37.25A5.592,5.592,0,0,1,7538.3,4265c.021.056.026.111.044.167l12.155-4.538c-.023-.054-.055-.1-.075-.155a5.59,5.59,0,0,1,3.284-7.195l-13.908-37.25a5.589,5.589,0,0,1-7.194-3.285l-12.125,4.526a5.592,5.592,0,0,1-3.284,7.2Z" transform="translate(-7509.192 -4204.578)"/><path class="j" d="M7768.37,4669.252a9.849,9.849,0,1,1-12.671-5.786A9.849,9.849,0,0,1,7768.37,4669.252Z" transform="translate(-7732.851 -4638.325)"/><g transform="translate(20.394 29.953)"><path class="k" d="M7858.122,4818.846a.609.609,0,0,1,.362-.792l.293-.11a5.226,5.226,0,0,1-.038-2.355.766.766,0,0,1,.492-.641.787.787,0,0,1,1.021.475.824.824,0,0,1,.03.447,5.268,5.268,0,0,0-.077,1.6l2.576-.961c-.25-2.23.242-3.406,1.679-3.943,1.474-.55,2.886.237,3.681,1.882l.8-.3a.611.611,0,0,1,.792.361.623.623,0,0,1-.356.805l-.833.311a6.18,6.18,0,0,1-.02,3.141.791.791,0,1,1-1.54-.357,5.09,5.09,0,0,0,.16-2.322l-2.644.986c.222,2.149-.176,3.337-1.692,3.9-1.434.535-2.854-.234-3.613-1.862l-.282.106a.625.625,0,0,1-.8-.375Zm4.775-1.171h0l-2.375.887c.4.829,1.017,1.087,1.607.867.562-.21.816-.6.767-1.754Zm1.469-1.755h0l2.44-.912c-.417-.822-1.017-1.133-1.664-.893-.589.22-.842.651-.777,1.8Z" transform="translate(-7858.082 -4812.393)"/></g></g><g transform="translate(34.567 50.579)"><path class="a" d="M7753.969,3626.56c-.863-1.66-2.98-7.338-5.218-12.279.9-5.4,5.776-12.9,7.047-14.781a39.36,39.36,0,0,0,2.7,9.329c1.95,4.184,4.878,12.336,5.686,14.86s.806,6.28-2.656,7.967-6.01-2.113-7.562-5.1Z" transform="translate(-7748.751 -3599.5)"/><path class="g" d="M7916.224,4164.77s3.336,6.4-.04,8.057-5.762-3.271-6.529-4.836c0,0-.277-1.694,2.561-3.086s4.007-.135,4.007-.135Z" transform="translate(-7903.801 -4143.727)"/></g></g><g transform="translate(8.888)"><path class="n" d="M7079.768,73.509h-37.7V-137.383h37.7Z" transform="translate(-7042.07 137.383)"/><path class="o" d="M7079.768,2376.616h-37.7v-13.335h37.7Z" transform="translate(-7042.07 -2165.724)"/></g></g></g></svg>