<svg xmlns="http://www.w3.org/2000/svg" viewBox="0 0 396.696 121.043"><defs><style>.a{fill:#f4bd8e;}.b{fill:#ebaf74;}.c{fill:#95d66e;}.d{fill:#baef97;}.e{fill:#f9d831;}.f{fill:#fbe859;}.g{fill:#fff;}.h{fill:#ffd1aa;}.i{fill:#4b78a3;}</style></defs><g transform="translate(32.66 0)"><path class="a" d="M1840.37,5945.025l131.47,16.236v-41.489Z" transform="translate(-1806.153 -5899.533)"/><path class="b" d="M5590.487,5945.025,5458.3,5961.261v-41.489Z" transform="translate(-5292.614 -5899.533)"/><g transform="translate(74.328)"><g transform="translate(59.392)"><path class="c" d="M4624.557,5414.335l-28.24,9.712-17.716-51.516,28.241-9.712Z" transform="translate(-4578.601 -5362.82)"/><path class="d" d="M4770.361,5568.751l11.565,33.628a5,5,0,0,1,6.357,3.1c.016.051.02.1.036.148l10.973-3.773c-.019-.048-.048-.09-.062-.14a5,5,0,0,1,3.1-6.357l-11.566-33.626a5,5,0,0,1-6.356-3.1l-10.945,3.764A5,5,0,0,1,4770.361,5568.751Z" transform="translate(-4763.393 -5551.515)"/><path class="c" d="M4985.647,5968.727a8.808,8.808,0,1,1-11.194-5.468,8.809,8.809,0,0,1,11.194,5.468Z" transform="translate(-4954.338 -5940.977)"/><g transform="translate(17.664 26.695)"><path class="d" d="M5064.72,6103.059a.547.547,0,0,1,.341-.7l.267-.092a4.665,4.665,0,0,1,.02-2.106.687.687,0,0,1,.454-.562.7.7,0,0,1,.9.448.723.723,0,0,1,.018.4,4.717,4.717,0,0,0-.1,1.432l2.324-.8c-.171-2,.3-3.042,1.594-3.487,1.333-.458,2.575.281,3.248,1.768l.726-.25a.549.549,0,0,1,.7.341.558.558,0,0,1-.338.711l-.751.26a5.517,5.517,0,0,1-.092,2.806.707.707,0,0,1-1.36.09.685.685,0,0,1-.006-.445,4.541,4.541,0,0,0,.2-2.073l-2.385.82c.148,1.928-.237,2.98-1.6,3.45-1.3.445-2.546-.276-3.188-1.748l-.254.089a.559.559,0,0,1-.7-.354Zm4.3-.937h0l-2.143.739c.336.749.884,1,1.415.813.508-.176.745-.515.728-1.551Zm1.355-1.535h0l2.2-.757c-.353-.746-.884-1.038-1.465-.837C5070.577,6099.173,5070.339,6099.554,5070.372,6100.587Z" transform="translate(-5064.69 -6097.458)"/></g></g><g transform="translate(95.375 7.104)"><path class="c" d="M5598.409,5616.313l-29.589-4.025,7.344-53.978,29.591,4.026Z" transform="translate(-5568.82 -5558.311)"/><path class="d" d="M5721.934,5715.9l-4.794,35.236a5,5,0,0,1,4.284,5.629c-.009.054-.027.1-.036.15l11.5,1.564c0-.051,0-.1.006-.153a5,5,0,0,1,5.63-4.283l4.793-35.236a5,5,0,0,1-4.281-5.63l-11.469-1.562a5,5,0,0,1-5.631,4.283Z" transform="translate(-5711.75 -5706.048)"/><path class="c" d="M5852.143,6123.969a8.808,8.808,0,1,1-7.539-9.916,8.809,8.809,0,0,1,7.539,9.916Z" transform="translate(-5824.948 -6093.78)"/><g transform="translate(12.985 25.518)"><path class="d" d="M5926.171,6263.157a.546.546,0,0,1,.62-.471l.279.037a4.655,4.655,0,0,1,.966-1.872.681.681,0,0,1,.659-.3.7.7,0,0,1,.6.8.723.723,0,0,1-.165.366,4.659,4.659,0,0,0-.737,1.231l2.436.332c.747-1.864,1.631-2.583,2.991-2.4,1.4.191,2.173,1.408,2.1,3.039l.76.1a.551.551,0,0,1,.473.62.558.558,0,0,1-.622.484l-.788-.1a5.525,5.525,0,0,1-1.344,2.465.708.708,0,0,1-1.256-.532.685.685,0,0,1,.194-.4,4.575,4.575,0,0,0,1.107-1.763l-2.5-.34c-.735,1.788-1.552,2.556-2.984,2.361-1.357-.186-2.15-1.393-2.062-3l-.266-.035A.559.559,0,0,1,5926.171,6263.157Zm4.258,1.1h0l-2.246-.3c-.037.822.342,1.288.9,1.363C5929.614,6265.383,5929.979,6265.186,5930.429,6264.252Zm1.9-.761h0l2.308.315c.02-.826-.323-1.325-.933-1.407C5933.148,6262.322,5932.765,6262.556,5932.329,6263.491Z" transform="translate(-5926.166 -6260.546)"/></g></g><g transform="translate(95.087 29.202)"><path class="c" d="M5607.938,6217.467l-27.977,10.443-19.051-51.035,27.977-10.443Z" transform="translate(-5560.911 -6166.432)"/><path class="d" d="M5758,6377.824l12.438,33.315a5,5,0,0,1,6.435,2.936c.019.051.023.1.04.148l10.872-4.057c-.021-.048-.05-.088-.067-.139a5,5,0,0,1,2.937-6.436l-12.437-33.314a5,5,0,0,1-6.436-2.937l-10.843,4.046A5,5,0,0,1,5758,6377.824Z" transform="translate(-5750.839 -6360.039)"/><path class="c" d="M5982.618,6775.589a8.808,8.808,0,1,1-11.332-5.175,8.808,8.808,0,0,1,11.332,5.175Z" transform="translate(-5950.851 -6747.929)"/><g transform="translate(18.24 26.787)"><path class="d" d="M6062.891,6909.367a.549.549,0,0,1,.324-.709l.263-.1a4.657,4.657,0,0,1-.033-2.107.684.684,0,0,1,.439-.572.7.7,0,0,1,.911.424.733.733,0,0,1,.027.4,4.676,4.676,0,0,0-.067,1.434l2.3-.86c-.222-1.994.218-3.047,1.5-3.526,1.32-.493,2.581.212,3.293,1.682l.719-.269a.549.549,0,0,1,.708.324.559.559,0,0,1-.319.72l-.744.279a5.548,5.548,0,0,1-.018,2.808.7.7,0,0,1-.453.539.7.7,0,0,1-.907-.413.7.7,0,0,1-.019-.445,4.555,4.555,0,0,0,.143-2.076l-2.363.882c.2,1.922-.159,2.983-1.514,3.489-1.283.479-2.553-.209-3.231-1.663l-.252.094a.559.559,0,0,1-.713-.335Zm4.271-1.047h0l-2.124.792c.358.741.911.972,1.437.776C6066.979,6909.7,6067.206,6909.354,6067.162,6908.32Zm1.313-1.57h0l2.182-.815c-.372-.736-.91-1.014-1.487-.8C6068.644,6905.332,6068.417,6905.718,6068.476,6906.75Z" transform="translate(-6062.856 -6903.595)"/></g></g><g transform="translate(121.864 26.655)"><path class="c" d="M6327.239,6155.009l-29.448-4.946,9.024-53.723,29.448,4.947Z" transform="translate(-6297.792 -6096.34)"/><path class="d" d="M6459.542,6260.965l-5.891,35.07a5,5,0,0,1,4.1,5.76c-.009.053-.03.1-.04.149l11.443,1.922c.005-.052,0-.1.011-.153a5,5,0,0,1,5.762-4.1l5.889-35.069a5,5,0,0,1-4.1-5.761l-11.415-1.919a5,5,0,0,1-5.763,4.1Z" transform="translate(-6447.987 -6251.027)"/><path class="c" d="M6602.248,6671.414a8.808,8.808,0,1,1-7.227-10.147A8.808,8.808,0,0,1,6602.248,6671.414Z" transform="translate(-6574.324 -6640.619)"/><g transform="translate(13.783 25.757)"><path class="d" d="M6677.089,6807.694a.547.547,0,0,1,.635-.454l.278.046a4.628,4.628,0,0,1,1.022-1.839.682.682,0,0,1,.667-.277.7.7,0,0,1,.58.822.754.754,0,0,1-.177.361,4.68,4.68,0,0,0-.775,1.206l2.425.408c.8-1.839,1.71-2.53,3.063-2.3,1.389.234,2.129,1.475,2.009,3.1l.758.127a.548.548,0,0,1,.452.634.556.556,0,0,1-.636.464l-.785-.13a5.519,5.519,0,0,1-1.419,2.423.708.708,0,1,1-1.033-.965,4.56,4.56,0,0,0,1.163-1.726l-2.488-.418c-.791,1.763-1.63,2.505-3.056,2.265-1.351-.226-2.105-1.458-1.966-3.058l-.266-.043A.559.559,0,0,1,6677.089,6807.694Zm4.222,1.228h0l-2.235-.375c-.062.82.3,1.3.857,1.39.529.087.9-.1,1.378-1.015Zm1.923-.7h0l2.3.387c.046-.823-.281-1.333-.888-1.436C6684.089,6807.075,6683.7,6807.3,6683.234,6808.219Z" transform="translate(-6677.082 -6805.16)"/></g></g><g transform="translate(150.37 40.436)"><path class="c" d="M7129.278,6526.616l-27.976,10.445-19.051-51.036,27.976-10.445Z" transform="translate(-7082.251 -6475.581)"/><path class="d" d="M7279.31,6686.965l12.438,33.315a5,5,0,0,1,6.436,2.936c.019.051.022.1.039.148l10.871-4.058c-.021-.048-.048-.088-.067-.139a5,5,0,0,1,2.938-6.436l-12.438-33.314a5,5,0,0,1-6.436-2.937l-10.843,4.047A5,5,0,0,1,7279.31,6686.965Z" transform="translate(-7272.149 -6669.181)"/><path class="c" d="M7503.939,7084.748a8.809,8.809,0,1,1-11.333-5.174,8.809,8.809,0,0,1,11.333,5.174Z" transform="translate(-7472.173 -7057.088)"/><g transform="translate(18.24 26.787)"><path class="d" d="M7584.228,7218.521a.545.545,0,0,1,.323-.709l.263-.1a4.647,4.647,0,0,1-.034-2.1.684.684,0,0,1,.439-.574.7.7,0,0,1,.912.424.726.726,0,0,1,.027.4,4.689,4.689,0,0,0-.067,1.433l2.3-.86c-.224-1.995.215-3.047,1.5-3.526,1.32-.493,2.581.211,3.292,1.682l.72-.269a.549.549,0,0,1,.708.324.557.557,0,0,1-.318.721l-.745.278a5.508,5.508,0,0,1-.018,2.809.707.707,0,1,1-1.376-.32,4.54,4.54,0,0,0,.143-2.076l-2.363.882c.2,1.922-.16,2.985-1.514,3.491-1.283.479-2.552-.209-3.231-1.664l-.251.093a.56.56,0,0,1-.714-.335Zm4.27-1.047h0l-2.125.792c.357.741.911.973,1.438.776C7588.314,7218.854,7588.542,7218.508,7588.5,7217.474Zm1.314-1.57h0l2.182-.813c-.372-.737-.909-1.015-1.488-.8C7589.979,7214.485,7589.752,7214.872,7589.812,7215.9Z" transform="translate(-7584.191 -7212.749)"/></g></g><g transform="translate(60.715 29.05)"><path class="c" d="M4662.046,6213.286l-27.975,10.443-19.051-51.036L4643,6162.25Z" transform="translate(-4615.021 -6162.25)"/><path class="d" d="M4812.082,6373.644l12.437,33.315a5,5,0,0,1,6.436,2.937c.019.049.023.1.04.147l10.871-4.057c-.021-.048-.049-.088-.067-.139a5,5,0,0,1,2.937-6.436L4832.3,6366.1a5,5,0,0,1-6.436-2.937l-10.843,4.046A5,5,0,0,1,4812.082,6373.644Z" transform="translate(-4804.921 -6355.859)"/><path class="c" d="M5036.707,6771.413a8.808,8.808,0,1,1-11.332-5.173A8.808,8.808,0,0,1,5036.707,6771.413Z" transform="translate(-5004.942 -6743.754)"/><g transform="translate(18.239 26.787)"><path class="d" d="M5116.985,6905.187a.546.546,0,0,1,.323-.709l.263-.1a4.63,4.63,0,0,1-.032-2.105.683.683,0,0,1,.438-.574.7.7,0,0,1,.912.424.74.74,0,0,1,.028.4,4.623,4.623,0,0,0-.068,1.435l2.3-.861c-.224-1.995.216-3.047,1.5-3.528,1.32-.491,2.581.213,3.293,1.683l.718-.269a.55.55,0,0,1,.709.324.56.56,0,0,1-.318.721l-.746.278a5.532,5.532,0,0,1-.019,2.809.708.708,0,1,1-1.377-.32,4.551,4.551,0,0,0,.144-2.076l-2.365.883c.2,1.923-.158,2.985-1.513,3.49-1.283.478-2.553-.21-3.232-1.664l-.252.093a.556.556,0,0,1-.712-.334Zm4.271-1.048h0l-2.125.794c.357.74.911.972,1.437.776C5121.073,6905.52,5121.3,6905.175,5121.256,6904.139Zm1.313-1.57h0l2.183-.813c-.373-.736-.91-1.013-1.486-.8C5122.738,6901.151,5122.511,6901.539,5122.569,6902.569Z" transform="translate(-5116.95 -6899.415)"/></g></g><g transform="translate(33.413 26.503)"><path class="c" d="M3893.129,6150.83l-29.449-4.947,9.024-53.722,29.45,4.947Z" transform="translate(-3863.68 -6092.161)"/><path class="d" d="M4025.45,6256.776l-5.89,35.069a5,5,0,0,1,4.1,5.762c-.009.052-.03.1-.04.148l11.444,1.923c.005-.053,0-.1.011-.153a5,5,0,0,1,5.762-4.105l5.889-35.068a5,5,0,0,1-4.1-5.762l-11.414-1.918A5,5,0,0,1,4025.45,6256.776Z" transform="translate(-4013.896 -6246.838)"/><path class="c" d="M4168.145,6667.233a8.808,8.808,0,1,1-7.226-10.147A8.809,8.809,0,0,1,4168.145,6667.233Z" transform="translate(-4140.222 -6636.439)"/><g transform="translate(13.784 25.757)"><path class="d" d="M4243,6803.512a.545.545,0,0,1,.634-.452l.278.046a4.657,4.657,0,0,1,1.023-1.841.683.683,0,0,1,.666-.276.7.7,0,0,1,.579.824.745.745,0,0,1-.176.36,4.67,4.67,0,0,0-.777,1.208l2.426.408c.8-1.839,1.711-2.532,3.064-2.3,1.388.233,2.129,1.475,2.01,3.1l.757.126a.548.548,0,0,1,.452.635.555.555,0,0,1-.635.462l-.785-.129a5.516,5.516,0,0,1-1.42,2.422.708.708,0,0,1-1.239-.57.707.707,0,0,1,.207-.4,4.559,4.559,0,0,0,1.162-1.726l-2.488-.419c-.791,1.763-1.629,2.506-3.056,2.266-1.35-.227-2.1-1.459-1.967-3.058l-.264-.044a.558.558,0,0,1-.45-.646Zm4.222,1.229h0l-2.236-.375c-.062.819.3,1.3.856,1.39C4246.375,6805.844,4246.745,6805.658,4247.225,6804.741Zm1.922-.7h0l2.3.387c.046-.823-.281-1.334-.889-1.438C4250,6802.894,4249.612,6803.116,4249.146,6804.038Z" transform="translate(-4242.995 -6800.979)"/></g></g><g transform="translate(0 33.231)"><path class="c" d="M2989.942,6328.91l-28.284,9.574-17.468-51.6,28.286-9.574Z" transform="translate(-2944.19 -6277.312)"/><path class="d" d="M3134.94,6482.146l11.4,33.683a5,5,0,0,1,6.343,3.133c.017.05.019.1.034.149l10.992-3.721a1.415,1.415,0,0,1-.062-.139,5,5,0,0,1,3.133-6.343l-11.4-33.682a5,5,0,0,1-6.341-3.135l-10.962,3.711a5,5,0,0,1-3.135,6.343Z" transform="translate(-3128.008 -6465.013)"/><path class="c" d="M3348.444,6882.525a8.808,8.808,0,1,1-11.167-5.521A8.806,8.806,0,0,1,3348.444,6882.525Z" transform="translate(-3317.224 -6854.762)"/><g transform="translate(17.554 26.674)"><path class="d" d="M3427.3,7016.936a.546.546,0,0,1,.345-.7l.266-.091a4.644,4.644,0,0,1,.032-2.105.682.682,0,0,1,.455-.559.7.7,0,0,1,.9.453.749.749,0,0,1,.014.4,4.645,4.645,0,0,0-.112,1.431l2.329-.789c-.162-2,.31-3.038,1.609-3.479,1.334-.452,2.573.292,3.239,1.783l.728-.246a.549.549,0,0,1,.7.345.556.556,0,0,1-.341.709l-.753.257a5.521,5.521,0,0,1-.1,2.806.708.708,0,1,1-1.366-.362,4.567,4.567,0,0,0,.207-2.071l-2.39.809c.138,1.928-.251,2.978-1.62,3.442-1.3.439-2.545-.288-3.179-1.763l-.253.087a.56.56,0,0,1-.7-.356Zm4.3-.916h0l-2.148.727c.334.752.879,1,1.413.82C3431.377,7017.394,3431.616,7017.056,3431.6,7016.021Zm1.361-1.529h0l2.207-.745c-.349-.748-.879-1.042-1.463-.847C3433.177,7013.081,3432.939,7013.459,3432.966,7014.491Z" transform="translate(-3427.273 -7011.366)"/></g></g></g><g transform="translate(106.248 37.599)"><g transform="translate(45.835 16.531)"><path class="e" d="M5114.509,6976.454c0,1.829-6.846,3.314-15.286,3.314s-15.284-1.485-15.284-3.314,6.841-3.314,15.284-3.314S5114.509,6974.626,5114.509,6976.454Z" transform="translate(-5083.94 -6968.753)"/><path class="e" d="M5114.509,6947.91H5083.94v-4.389h30.569Z" transform="translate(-5083.94 -6940.211)"/><path class="f" d="M5114.509,6855.741c0,1.832-6.846,3.315-15.286,3.315s-15.284-1.482-15.284-3.315,6.841-3.31,15.284-3.31S5114.509,6853.914,5114.509,6855.741Z" transform="translate(-5083.94 -6852.431)"/><g transform="translate(7.277 1.255)"><path class="g" d="M5284.21,6888.949c0-.186.351-.333.795-.333h.407a2.245,2.245,0,0,1,1.017-1.2,1.47,1.47,0,0,1,.887-.231c.576,0,1.019.194,1.019.432,0,.077-.056.154-.169.23a2.652,2.652,0,0,0-.812.8h3.549c.7-1.176,1.83-1.678,3.808-1.678,2.035,0,3.384.665,3.609,1.645h1.107c.444,0,.8.148.8.334s-.352.338-.8.338h-1.144a2.85,2.85,0,0,1-1.445,1.584,1.621,1.621,0,0,1-.886.207c-.573,0-1.017-.185-1.017-.425,0-.091.072-.184.2-.254a2.742,2.742,0,0,0,1.239-1.142h-3.644c-.7,1.128-1.718,1.653-3.809,1.653-1.978,0-3.348-.656-3.531-1.624H5285c-.443,0-.794-.153-.794-.338Zm6.307.309h-3.275c.113.5.741.742,1.555.742A1.871,1.871,0,0,0,5290.517,6889.258Zm2.569-.61h3.367c-.13-.494-.723-.764-1.611-.764A1.89,1.89,0,0,0,5293.086,6888.648Z" transform="translate(-5284.21 -6886.971)"/></g></g><g transform="translate(66.654 11.024)"><path class="e" d="M5687.45,6824.9c0,1.83-6.846,3.315-15.287,3.315s-15.283-1.485-15.283-3.315,6.841-3.313,15.283-3.313S5687.45,6823.077,5687.45,6824.9Z" transform="translate(-5656.881 -6817.204)"/><path class="e" d="M5687.45,6796.361h-30.569v-4.39h30.569Z" transform="translate(-5656.881 -6788.661)"/><path class="f" d="M5687.45,6704.191c0,1.832-6.846,3.316-15.287,3.316s-15.283-1.484-15.283-3.316,6.841-3.31,15.283-3.31S5687.45,6702.363,5687.45,6704.191Z" transform="translate(-5656.881 -6700.882)"/><g transform="translate(7.277 1.255)"><path class="g" d="M5857.14,6737.4c0-.186.352-.334.8-.334h.406a2.257,2.257,0,0,1,1.017-1.2,1.475,1.475,0,0,1,.889-.232c.575,0,1.018.195,1.018.434,0,.076-.056.154-.168.229a2.7,2.7,0,0,0-.812.8h3.549c.7-1.175,1.831-1.676,3.808-1.676,2.035,0,3.385.663,3.609,1.644h1.107c.444,0,.8.148.8.334s-.352.339-.8.339h-1.143a2.845,2.845,0,0,1-1.445,1.583,1.62,1.62,0,0,1-.887.208c-.572,0-1.018-.185-1.018-.424,0-.092.074-.185.2-.254a2.743,2.743,0,0,0,1.238-1.142h-3.643c-.7,1.128-1.718,1.652-3.808,1.652-1.979,0-3.349-.655-3.532-1.623h-.389c-.444,0-.8-.154-.8-.338Zm6.307.309h-3.275c.112.5.741.742,1.555.742A1.872,1.872,0,0,0,5863.447,6737.708Zm2.569-.61h3.366c-.128-.494-.721-.764-1.61-.764A1.89,1.89,0,0,0,5866.016,6737.1Z" transform="translate(-5857.14 -6735.421)"/></g></g><g transform="translate(26.355 12.733)"><path class="e" d="M4578.439,6871.932c0,1.831-6.845,3.316-15.286,3.316s-15.283-1.486-15.283-3.316,6.841-3.313,15.283-3.313S4578.439,6870.106,4578.439,6871.932Z" transform="translate(-4547.871 -6864.232)"/><path class="e" d="M4578.44,6843.389h-30.569V6839h30.569Z" transform="translate(-4547.871 -6835.69)"/><path class="f" d="M4578.439,6751.222c0,1.832-6.845,3.315-15.286,3.315s-15.283-1.483-15.283-3.315,6.841-3.311,15.283-3.311S4578.439,6749.393,4578.439,6751.222Z" transform="translate(-4547.871 -6747.911)"/><g transform="translate(7.278 1.255)"><path class="g" d="M4748.15,6784.42c0-.187.35-.336.794-.336h.407a2.256,2.256,0,0,1,1.017-1.195,1.48,1.48,0,0,1,.888-.231c.575,0,1.017.194,1.017.433,0,.075-.055.153-.167.229a2.671,2.671,0,0,0-.813.8h3.55c.7-1.175,1.831-1.676,3.808-1.676,2.035,0,3.384.664,3.607,1.643h1.108c.443,0,.8.149.8.336s-.351.339-.8.339h-1.145a2.843,2.843,0,0,1-1.443,1.582,1.624,1.624,0,0,1-.888.208c-.572,0-1.017-.186-1.017-.425,0-.09.073-.184.2-.254a2.762,2.762,0,0,0,1.24-1.141h-3.645c-.7,1.127-1.719,1.65-3.809,1.65-1.978,0-3.348-.654-3.531-1.622h-.389c-.444,0-.8-.153-.8-.338Zm6.306.309h-3.275c.112.495.742.741,1.555.741a1.875,1.875,0,0,0,1.721-.741Zm2.569-.611h3.366c-.129-.494-.721-.764-1.609-.764A1.892,1.892,0,0,0,4757.026,6784.118Z" transform="translate(-4748.15 -6782.441)"/></g></g><g transform="translate(48.169 5.651)"><path class="e" d="M5178.76,6677.023c0,1.831-6.846,3.315-15.286,3.315s-15.284-1.484-15.284-3.315,6.841-3.312,15.284-3.312S5178.76,6675.2,5178.76,6677.023Z" transform="translate(-5148.19 -6669.325)"/><path class="e" d="M5178.76,6648.479H5148.19v-4.389h30.569Z" transform="translate(-5148.19 -6640.78)"/><path class="f" d="M5178.76,6556.32c0,1.833-6.846,3.315-15.286,3.315s-15.284-1.482-15.284-3.315,6.841-3.31,15.284-3.31S5178.76,6554.492,5178.76,6556.32Z" transform="translate(-5148.19 -6553.01)"/><g transform="translate(7.278 1.255)"><path class="g" d="M5348.462,6589.528c0-.186.349-.334.794-.334h.407a2.254,2.254,0,0,1,1.016-1.2,1.478,1.478,0,0,1,.889-.231c.575,0,1.018.193,1.018.433,0,.077-.056.155-.168.229a2.649,2.649,0,0,0-.812.8h3.551c.7-1.177,1.828-1.677,3.805-1.677,2.035,0,3.385.664,3.609,1.644h1.108c.443,0,.794.148.794.335s-.351.338-.794.338h-1.146a2.842,2.842,0,0,1-1.443,1.583,1.634,1.634,0,0,1-.887.208c-.573,0-1.019-.185-1.019-.425,0-.092.074-.184.206-.253a2.757,2.757,0,0,0,1.237-1.144h-3.644c-.7,1.128-1.717,1.652-3.809,1.652-1.978,0-3.348-.655-3.531-1.623h-.389c-.445,0-.8-.154-.8-.338Zm6.3.309h-3.273c.112.5.741.743,1.554.743A1.869,1.869,0,0,0,5354.767,6589.836Zm2.571-.611h3.365c-.128-.493-.721-.764-1.61-.764A1.893,1.893,0,0,0,5357.338,6589.226Z" transform="translate(-5348.461 -6587.55)"/></g></g><g transform="translate(94.922 10.453)"><path class="e" d="M6465.339,6809.2c0,1.831-6.846,3.316-15.286,3.316s-15.284-1.485-15.284-3.316,6.841-3.313,15.284-3.313S6465.339,6807.376,6465.339,6809.2Z" transform="translate(-6434.77 -6801.503)"/><path class="e" d="M6465.34,6780.649h-30.569v-4.389h30.569Z" transform="translate(-6434.771 -6772.951)"/><path class="f" d="M6465.339,6688.48c0,1.833-6.846,3.316-15.286,3.316s-15.284-1.483-15.284-3.316,6.841-3.311,15.284-3.311S6465.339,6686.652,6465.339,6688.48Z" transform="translate(-6434.77 -6685.17)"/><g transform="translate(7.278 1.256)"><path class="g" d="M6635.05,6721.7c0-.187.351-.336.795-.336h.407a2.258,2.258,0,0,1,1.017-1.2,1.482,1.482,0,0,1,.889-.231c.575,0,1.017.194,1.017.434,0,.076-.056.153-.167.229a2.661,2.661,0,0,0-.812.8h3.55c.7-1.175,1.831-1.677,3.807-1.677,2.036,0,3.385.664,3.609,1.644h1.107c.445,0,.8.149.8.335s-.352.337-.8.337h-1.144a2.842,2.842,0,0,1-1.444,1.583,1.619,1.619,0,0,1-.886.208c-.572,0-1.018-.186-1.018-.425,0-.091.073-.185.2-.254a2.758,2.758,0,0,0,1.239-1.143h-3.644c-.7,1.128-1.719,1.652-3.809,1.652-1.979,0-3.349-.655-3.532-1.622h-.39c-.444,0-.795-.154-.795-.338Zm6.308.307h-3.276c.113.5.741.743,1.554.743A1.874,1.874,0,0,0,6641.358,6722.007Zm2.568-.61h3.366c-.129-.493-.722-.763-1.611-.763A1.893,1.893,0,0,0,6643.926,6721.4Z" transform="translate(-6635.05 -6719.721)"/></g></g><g transform="translate(0 10.57)"><path class="e" d="M3853.179,6812.394c0,1.831-6.845,3.316-15.286,3.316s-15.284-1.485-15.284-3.316,6.841-3.313,15.284-3.313S3853.179,6810.567,3853.179,6812.394Z" transform="translate(-3822.61 -6804.693)"/><path class="e" d="M3853.18,6783.859h-30.57v-4.389h30.57Z" transform="translate(-3822.61 -6776.16)"/><path class="f" d="M3853.179,6691.682c0,1.831-6.845,3.315-15.286,3.315s-15.284-1.484-15.284-3.315,6.841-3.312,15.284-3.312S3853.179,6689.854,3853.179,6691.682Z" transform="translate(-3822.61 -6688.37)"/><g transform="translate(7.277 1.255)"><path class="g" d="M4022.879,6724.9c0-.187.351-.335.8-.335h.406a2.25,2.25,0,0,1,1.017-1.194,1.464,1.464,0,0,1,.889-.232c.575,0,1.017.194,1.017.434,0,.076-.056.154-.167.229a2.669,2.669,0,0,0-.813.8h3.55c.7-1.176,1.831-1.676,3.808-1.676,2.035,0,3.385.663,3.608,1.643h1.108c.444,0,.8.148.8.336s-.351.337-.8.337h-1.145a2.844,2.844,0,0,1-1.444,1.583,1.624,1.624,0,0,1-.886.208c-.573,0-1.018-.185-1.018-.425,0-.092.074-.185.2-.252a2.774,2.774,0,0,0,1.239-1.144H4031.4c-.7,1.128-1.719,1.651-3.809,1.651-1.979,0-3.349-.655-3.531-1.622h-.389C4023.231,6725.236,4022.879,6725.082,4022.879,6724.9Zm6.307.308h-3.275c.113.5.741.742,1.554.742A1.872,1.872,0,0,0,4029.186,6725.207Zm2.569-.61h3.366c-.129-.495-.722-.764-1.61-.764A1.891,1.891,0,0,0,4031.756,6724.6Z" transform="translate(-4022.879 -6722.921)"/></g></g><g transform="translate(85.087 5.507)"><path class="e" d="M6194.7,6673.063c0,1.832-6.846,3.316-15.287,3.316s-15.282-1.485-15.282-3.316,6.84-3.312,15.282-3.312S6194.7,6671.239,6194.7,6673.063Z" transform="translate(-6164.13 -6665.365)"/><path class="e" d="M6194.7,6644.529H6164.13v-4.388H6194.7Z" transform="translate(-6164.13 -6636.832)"/><path class="f" d="M6194.7,6552.361c0,1.833-6.846,3.315-15.287,3.315s-15.282-1.482-15.282-3.315,6.84-3.31,15.282-3.31S6194.7,6550.533,6194.7,6552.361Z" transform="translate(-6164.13 -6549.051)"/><g transform="translate(7.277 1.255)"><path class="g" d="M6364.4,6585.579c0-.187.351-.335.8-.335h.407a2.246,2.246,0,0,1,1.016-1.195,1.469,1.469,0,0,1,.889-.232c.576,0,1.017.194,1.017.433,0,.077-.055.154-.167.229a2.68,2.68,0,0,0-.813.8h3.55c.7-1.175,1.831-1.676,3.807-1.676,2.035,0,3.385.664,3.609,1.644h1.107c.443,0,.8.148.8.335s-.352.339-.8.339h-1.144a2.846,2.846,0,0,1-1.444,1.583,1.637,1.637,0,0,1-.886.208c-.572,0-1.017-.187-1.017-.425,0-.092.073-.185.2-.254a2.759,2.759,0,0,0,1.24-1.143h-3.643c-.7,1.127-1.72,1.652-3.81,1.652-1.978,0-3.348-.655-3.531-1.622h-.39c-.444,0-.8-.154-.8-.339Zm6.308.308h-3.275c.113.5.741.742,1.554.742A1.874,1.874,0,0,0,6370.707,6585.887Zm2.569-.61h3.366c-.13-.493-.721-.764-1.611-.764A1.891,1.891,0,0,0,6373.276,6585.277Z" transform="translate(-6364.399 -6583.601)"/></g></g><g transform="translate(15.285 5.648)"><path class="e" d="M4273.8,6676.953c0,1.831-6.846,3.316-15.287,3.316s-15.283-1.485-15.283-3.316,6.84-3.313,15.283-3.313S4273.8,6675.126,4273.8,6676.953Z" transform="translate(-4243.23 -6669.253)"/><path class="e" d="M4273.8,6648.41H4243.23v-4.389H4273.8Z" transform="translate(-4243.23 -6640.71)"/><path class="f" d="M4273.8,6556.231c0,1.832-6.846,3.315-15.287,3.315s-15.283-1.482-15.283-3.315,6.84-3.311,15.283-3.311S4273.8,6554.4,4273.8,6556.231Z" transform="translate(-4243.23 -6552.92)"/><g transform="translate(7.277 1.256)"><path class="g" d="M4443.5,6589.45c0-.187.35-.334.795-.334h.407a2.254,2.254,0,0,1,1.016-1.2,1.472,1.472,0,0,1,.889-.232c.574,0,1.018.194,1.018.434,0,.076-.056.154-.168.229a2.683,2.683,0,0,0-.812.8h3.55c.7-1.175,1.831-1.676,3.808-1.676,2.035,0,3.385.664,3.609,1.644h1.107c.444,0,.8.147.8.334s-.351.338-.8.338h-1.145a2.841,2.841,0,0,1-1.444,1.583,1.616,1.616,0,0,1-.886.208c-.572,0-1.018-.186-1.018-.425,0-.092.074-.184.206-.254a2.759,2.759,0,0,0,1.239-1.143h-3.644c-.7,1.128-1.719,1.652-3.809,1.652-1.979,0-3.349-.655-3.532-1.623h-.39c-.444,0-.794-.154-.794-.337Zm6.306.308h-3.274c.112.495.741.742,1.555.742A1.871,1.871,0,0,0,4449.806,6589.758Zm2.57-.61h3.366c-.129-.494-.722-.764-1.611-.764A1.89,1.89,0,0,0,4452.376,6589.147Z" transform="translate(-4443.5 -6587.471)"/></g></g><g transform="translate(69.803)"><path class="e" d="M5774.1,6521.514c0,1.831-6.845,3.315-15.287,3.315s-15.282-1.484-15.282-3.315,6.84-3.312,15.282-3.312S5774.1,6519.688,5774.1,6521.514Z" transform="translate(-5743.531 -6513.815)"/><path class="e" d="M5774.1,6492.979h-30.568v-4.39H5774.1Z" transform="translate(-5743.531 -6485.28)"/><path class="f" d="M5774.1,6400.81c0,1.833-6.845,3.316-15.287,3.316s-15.282-1.483-15.282-3.316,6.84-3.31,15.282-3.31S5774.1,6398.982,5774.1,6400.81Z" transform="translate(-5743.531 -6397.5)"/><g transform="translate(7.277 1.255)"><path class="g" d="M5943.8,6434.019c0-.187.35-.335.8-.335H5945a2.257,2.257,0,0,1,1.017-1.195,1.476,1.476,0,0,1,.889-.231c.575,0,1.017.194,1.017.433,0,.076-.056.153-.167.229a2.678,2.678,0,0,0-.812.8h3.55c.7-1.175,1.831-1.677,3.807-1.677,2.036,0,3.386.665,3.609,1.644h1.107c.444,0,.8.148.8.335s-.353.338-.8.338h-1.144a2.851,2.851,0,0,1-1.445,1.584,1.635,1.635,0,0,1-.886.207c-.573,0-1.018-.185-1.018-.424,0-.092.074-.185.2-.253a2.77,2.77,0,0,0,1.24-1.144h-3.644c-.7,1.127-1.718,1.652-3.809,1.652-1.977,0-3.348-.655-3.531-1.623h-.39c-.444,0-.794-.153-.794-.338Zm6.307.308h-3.275c.112.5.741.743,1.554.743a1.874,1.874,0,0,0,1.721-.743Zm2.569-.61h3.366c-.129-.493-.722-.763-1.611-.763A1.891,1.891,0,0,0,5952.676,6433.716Z" transform="translate(-5943.8 -6432.04)"/></g></g></g><g transform="translate(0 45.492)"><g transform="translate(34.217)"><path class="b" d="M1971.84,6682.1H1840.37V6614.73l131.47,16.235Z" transform="translate(-1840.37 -6614.73)"/></g><path class="h" d="M932.967,6614.73l-34.217,21.646,135.15,17.588,30.536-23Z" transform="translate(-898.75 -6614.73)"/><g transform="translate(165.687)"><path class="a" d="M5458.3,6682.1h131.949V6614.73L5458.3,6630.966Z" transform="translate(-5458.3 -6614.73)"/><path class="h" d="M5589.773,6614.73l34.216,21.646-135.149,17.588-30.54-23Z" transform="translate(-5458.3 -6614.73)"/></g></g><path class="i" d="M396.676,8472.859a4.089,4.089,0,0,1-4.088,4.09H4.069a4.089,4.089,0,0,1,0-8.178H392.588A4.089,4.089,0,0,1,396.676,8472.859Z" transform="translate(-32.64 -8355.906)"/></g></svg>