<svg xmlns="http://www.w3.org/2000/svg" viewBox="0 0 1921.396 835"><defs><style>.a,.c,.e{fill-rule:evenodd;}.b{fill:#141414;}.c,.d{fill:#1f1f1f;}.e{fill:#242323;}.f{font-size:33px;font-family:ArialMT, Arial;}</style></defs><g transform="translate(116.599)"><path class="a" d="M1.42,0h1920.8V835H1.42Z" transform="translate(-117.42)"/><path class="b" d="M1921.4,3287.836H0V3109H1921.4Z" transform="translate(-116.599 -2452.836)"/><g transform="translate(234.867 394.293)"><path class="c" d="M1632.89,2626.027h1119.5V2612.15H1632.89Z" transform="translate(-1523.131 -2455.14)"/><path class="c" d="M2192.651,2576.684c308.3,0,559.751-5.819,559.751-12.952s-251.453-12.952-559.751-12.952S1632.9,2556.6,1632.9,2563.732,1884.349,2576.684,2192.651,2576.684Z" transform="translate(-1523.139 -2406.722)"/><path class="c" d="M2192.651,2642.434c308.3,0,559.751-5.819,559.751-12.952s-251.453-12.952-559.751-12.952-559.751,5.817-559.751,12.952S1884.349,2642.434,2192.651,2642.434Z" transform="translate(-1523.139 -2458.595)"/><path class="c" d="M5955.339,1961.214c-2.009-1.182-2.6-1.773-2.484,0s-2.009,1.539-3.545.827-1.657.12-1.657,1.3-3.191,1.655-4.612,1.418-1.182,1.3-1.3,2.127-1.655,2.6-4.257,2.366-2.127,1.42-.945,2.246.709,3.666,1.536,3.666-2.245,7.923-3.193,9.814.357,5.084-.825,7.332-.593,11.7.709,16.316,2.246,8.75,4.493,10.051,3.428,1.418,3.073,4.255a17.727,17.727,0,0,1-2.246,5.914s-7.923,4.375-8.278,5.323-12.072,9.023-15.837,14.293-7.982,12.8-7.982,12.8-2.106-1.2-3.463.452-.9-.452-2.86.754-2.11,1.807-3.767,2.408-1.655,3.012-3.461,2.86a3.514,3.514,0,0,0-2.712.753s-4.818-1.657-8.282,0-6.627,9.789-8.284,13.1,1.657,12.952,3.466,14.005,3.915,4.217,3.915,4.217-6.741,9.384-12.418,13.229-10.625,8.792-21.065,7.877-36.814-8.244-43.409-9.525-20.147-1.465-24.911,10.441-15.571,28.581-22.722,39.549-7.868,15.736-11.207,20.029-4.529,7.391-2.621,8.82-2.862,4.77-13.354,7.153a94.945,94.945,0,0,1-23.842,2.148c-2.383-.24-5.243,5.006-1.667,8.1s22.173,12.638,28.133,12.161,8.822-4.293,14.305-1.431,13.83,3.337,17.883,2.621,4.292-3.575,4.768-8.106a40.657,40.657,0,0,0,.238-7.152,16.691,16.691,0,0,0,4.293-2.145c1.429-1.192-.716,26.464-1.431,34.571s-4.529,27.658-1.669,27.895,5.006-.954.954,4.293-10.253,8.583-15.021,8.583-12.159,0-12.159,2.862,5.483,6.914,17.642,7.391,17.645-1.192,20.506-2.385,7.391-.239,9.061,1.908,16.211.954,18.119,0,2.624-7.153,1.669-10.491-5.244-13.828-5.008-17.883-.477-34.571.238-41.008.955-22.175.239-27.42-2.862-9.535.716-9.535,5.006.477,10.491-1.431,16.928-8.822,32.188-6.2,47.09,6.269,55.881,2.05,8.79-12.657,14.415-17.581,4.569-5.975,8.791-9.491,10.546-22.15,17.226-34.457,16.525-29.532,21.8-36.915,9.494-10.9,9.494-18.986-4.219-19.689-4.219-27.074.351-14.062-1.408-14.062-2.109-4.219,1.408-9.141,5.625-16.173,6.327-22.15-.012-9.717-3.6-14.5-13.44-9.955-14.934-10.952-3.187-2.687-3.187-1.494-1.293,1.695-4.132,1.226Z" transform="translate(-4734.734 -1940.296)"/><path class="c" d="M6267.827,2930.451c32.631,0,59.245-7.174,59.245-15.968s-26.614-15.972-59.245-15.972-59.247,7.176-59.247,15.972S6235.193,2930.451,6267.827,2930.451Z" transform="translate(-5133.107 -2681.063)"/><path class="c" d="M6799.787,2544.445c7.568,2.982,7.857,20.238.644,38.547s-19.2,30.725-26.766,27.743-7.857-20.24-.644-38.544S6792.218,2541.461,6799.787,2544.445Z" transform="translate(-5574.297 -2401.376)"/><path class="c" d="M6493.3,2962.29h0a4.649,4.649,0,0,1,4.634,4.635v67.615a4.649,4.649,0,0,1-4.634,4.637h0a4.649,4.649,0,0,1-4.635-4.637v-67.615A4.649,4.649,0,0,1,6493.3,2962.29Z" transform="translate(-5354.083 -2731.382)"/><path class="d" d="M6344.688,3289.894l-.124-2.883c-.209-5.356-.384-9.77-6-14.4-3.7-3.045-8.447-5.131-14.354-6.7-6.456-1.716-14.25-2.811-23.454-3.805-7.157-.774-16.3-1.245-24.357-.07-4.675.682-8.881,1.891-11.832,3.892a8.937,8.937,0,0,0-4.12,6.663,16.341,16.341,0,0,0,.133,4.076l-14.142,2.013a30.06,30.06,0,0,1-.19-7.6,22.629,22.629,0,0,1,10.325-16.952c4.961-3.364,11.2-5.276,17.814-6.239,9.436-1.376,19.818-.859,27.878.012,9.854,1.066,18.292,2.262,25.577,4.2,7.836,2.083,14.347,5.021,19.776,9.5,10.572,8.71,10.858,16,11.2,24.854.028.715.055,1.425.125,2.662Z" transform="translate(-5162.697 -2956.037)"/><path class="d" d="M6423.914,3228.351a28.692,28.692,0,0,0-6.125-5.144l-.017,1.26c-.034,2.617-.044,5.154,0,5.612l-14.2,1.288c-.084-.937-.091-4.048-.053-7.066.04-3.322.14-6.72.245-7.408h.027a12.147,12.147,0,0,1,2.391-5.77l-.017-.013c2.627-3.333,6.152-4.337,10.095-3.788a21.3,21.3,0,0,1,7.317,2.714,47.691,47.691,0,0,1,11.853,9.875Z" transform="translate(-5286.885 -2924.587)"/><path class="d" d="M6426.363,3310.144c0-.667-.046-1.336-.1-2.085-.532-7.661-1.456-21,15.082-35.079l9.225,10.844c-11.017,9.379-10.4,18.212-10.052,23.286.083,1.184.156,2.233.156,3.035Z" transform="translate(-5304.671 -2976.5)"/><path class="d" d="M6547.967,3252c-.032-.612-.42-3.923-.811-6.866-.247-1.857-.469-3.423-.528-3.625a8.831,8.831,0,0,0-.58-1.495,5.653,5.653,0,0,0-3.122-2.809c-2.119-.776-5.278-.781-9.869.576a54.68,54.68,0,0,0-9.333,3.852l-6.485-12.688a69.27,69.27,0,0,1,11.794-4.859c7.876-2.326,14.05-2.042,18.811-.295a19.62,19.62,0,0,1,10.893,9.74,22.946,22.946,0,0,1,1.584,3.953,54.893,54.893,0,0,1,.977,5.808c.437,3.288.878,7.152.923,7.98Z" transform="translate(-5376.623 -2936.605)"/><path class="c" d="M6680.621,3435.814a6.121,6.121,0,1,0-5.792-6.112A5.97,5.97,0,0,0,6680.621,3435.814Z" transform="translate(-5500.953 -3095.323)"/><path class="c" d="M6709.079,3421.584a6.121,6.121,0,1,0-5.789-6.112A5.971,5.971,0,0,0,6709.079,3421.584Z" transform="translate(-5523.407 -3084.096)"/><path class="c" d="M6687.009,3415.665l6.706-3.425,6.234,10.194-7.123,3.778Z" transform="translate(-5510.563 -3086.369)"/><path class="c" d="M6479.341,3462.441c-2.938.277-5.321,3.24-5.321,6.615s2.383,5.888,5.321,5.61,5.323-3.24,5.323-6.616S6482.281,3462.162,6479.341,3462.441Z" transform="translate(-5342.525 -3125.958)"/><path class="c" d="M6446.612,3442.141c-2.939.279-5.323,3.24-5.323,6.615s2.383,5.888,5.323,5.61,5.321-3.24,5.321-6.614S6449.55,3441.862,6446.612,3442.141Z" transform="translate(-5316.702 -3109.942)"/><path class="c" d="M6448.669,3455.147l6.437-10.217,7.733,4.888-6.716,10.109Z" transform="translate(-5322.525 -3112.159)"/><path class="c" d="M6256.5,3355.781c-2.94.279-5.322,3.24-5.322,6.615s2.382,5.886,5.322,5.61,5.321-3.242,5.321-6.614S6259.44,3355.5,6256.5,3355.781Z" transform="translate(-5166.716 -3041.809)"/><path class="c" d="M6230.041,3362.951c-2.94.279-5.32,3.238-5.32,6.615s2.38,5.886,5.32,5.608,5.321-3.24,5.321-6.615S6232.979,3362.673,6230.041,3362.951Z" transform="translate(-5145.841 -3047.466)"/><path class="c" d="M6245.52,3357.552l6.517-1.692,1.246,11.948-5.616,1.513Z" transform="translate(-5162.251 -3041.888)"/><path class="c" d="M6397.128,3297.941c-1.469.277-2.659,3.24-2.659,6.615s1.19,5.886,2.659,5.61,2.661-3.24,2.661-6.616S6398.6,3297.663,6397.128,3297.941Z" transform="translate(-5279.764 -2996.176)"/><path class="c" d="M6436.472,3302.641c-1.471.276-2.661,3.24-2.661,6.614s1.19,5.886,2.661,5.608,2.659-3.24,2.659-6.614S6437.94,3302.362,6436.472,3302.641Z" transform="translate(-5310.802 -2999.884)"/><path class="c" d="M6414.065,3311.163l-8.655-.977.631-12.256,8.379,1Z" transform="translate(-5288.395 -2996.184)"/><path class="c" d="M6647.3,3327.152c-1.469.279-2.661,3.24-2.661,6.616s1.192,5.886,2.661,5.608,2.662-3.24,2.662-6.615S6648.771,3326.876,6647.3,3327.152Z" transform="translate(-5477.136 -3019.223)"/><path class="c" d="M6686.651,3331.851c-1.469.279-2.661,3.24-2.661,6.615s1.192,5.886,2.661,5.61,2.662-3.24,2.662-6.617S6688.121,3331.572,6686.651,3331.851Z" transform="translate(-5508.181 -3022.929)"/><path class="c" d="M6664.246,3340.373l-8.656-.975.631-12.258,8.381,1Z" transform="translate(-5485.774 -3019.229)"/><path class="c" d="M6552.814,2341.038c1.07-1.934,5.99-13.543,3.364-13.07S6548.011,2341.038,6552.814,2341.038Z" transform="translate(-5403.196 -2230.924)"/><path class="c" d="M6459.68,2172.578l1.03,40.246,22.368-.758-1.033-40.246Z" transform="translate(-5331.211 -2107.743)"/><path class="c" d="M6458.6,2297.735c-1.536-5.515-7.332-20.143-4.909-20.943s4.989,10.354,7.29,9.042-5.057-15.639-2.6-16.77,5.382,13.815,7.319,12.807-2.467-16.652-.378-17.48,3.909,16.275,6.522,14.962.32-13.431,2.735-14.037c3.024-.758,2.8,13.693,1.243,24.505S6465.466,2305.9,6458.6,2297.735Z" transform="translate(-5326.03 -2180.753)"/><path class="c" d="M6487.726,2425.2c-.739-5.194-2.767-19.419-5.454-25.539s-1.357-2.43-2.522-5.925,18.037-12.382,16.433-5.234-3.824,15.453,2.634,15.534S6504.567,2431.136,6487.726,2425.2Z" transform="translate(-5347.005 -2276.557)"/><path class="c" d="M6502.737,2486.479c-.918-2.838-8.062-18.4-3.862-19.9a40.632,40.632,0,0,0,10.668-5.988c3.13-2.313,4.369,1.587,8.547,2.6S6514.244,2481.665,6502.737,2486.479Z" transform="translate(-5361.099 -2335)"/><path class="c" d="M3405.29,2612.15a5.287,5.287,0,0,1,5.27,5.27v185.811a5.27,5.27,0,0,1-10.54,0V2617.42A5.286,5.286,0,0,1,3405.29,2612.15Z" transform="translate(-2917.302 -2455.14)"/><path class="c" d="M5125.45,2612.15a5.285,5.285,0,0,1,5.27,5.27v185.811a5.27,5.27,0,0,1-10.54,0V2617.42A5.286,5.286,0,0,1,5125.45,2612.15Z" transform="translate(-4274.417 -2455.14)"/><path class="c" d="M3976.641,1976.338q3.717,2.127,8.048,4.489c5.9,3.221,9.723,3.656,11.082,5.625,1.173-2.824,11.846,5.2,12.868,6.935,1.65,2.8,1.513,5.373-.137,6.6,0,0,10.1,11.456,8.216,16.637s-3.3,32.5-7.064,41.92-8.948,22.61-11.3,25.907-2.355,2.355-2.355,2.355,9.892,7.066,8.948,18.841-6.123,73.48-6.593,81.488-.471,23.079-.471,23.079-4.24,3.3-7.066,3.3-4.24,7.537.941,17.427,8.48,18.841-3.3,17.9c-6.087-.488-9.255-2.784-11.817-5.449V2071.846c4.388,1.781,8.653,3.657,8.653,3.657s3.578-.51,5.11-6.644,2.043-30.151,2.043-35.774.563-16.07-1.532-18.4c-2.212,4.192-14.164-3.77-13.468-7.2q-.408-.317-.806-.612Zm-84.742-10.112h0s-3.767-7.537-6.123-12.718-1.885-7.537-1.885-7.537-4.238-2.826-4.238-7.535a17.547,17.547,0,0,1,1.883-8.007c-1.655-7.655,2.1-19.13,8.478-20.728,12.3-3.075,19.784-8.005,31.559,0s7.537,24.024,7.537,24.024a56.036,56.036,0,0,1-2.473,8.02c2.463,4.711-3.478,10.648-5.238,10.3-1.235,2.642-4.065,6.178-2.651,8.533s6.125-3.769,10.363-1.885,20.255-.941,25.434,3.3c4.219,3.449,11.245,8.149,22.1,14.35v30.539c-8.826-6.541-15.877-6.5-15.877-6.5s.511,9.2.511,19.932,4.6,18.908,4.6,28.619-1.532,18.908,2.556,19.93a79.376,79.376,0,0,1,8.212,2.986v171.544c-2.4-2.492-4.265-5.306-7.494-7.269-6.684-4.059-5.4-13.624-2.826-18.841a15.7,15.7,0,0,0,1.412-9.89s1.885-26.377,2.826-44.277.47-33.441.47-33.441-14.6,5.179-27.319,5.179-20.253-1.885-29.2-1.885-20.727-2.826-24.022-4.238.941,24.022,5.65,41.449,8.951,34.385,8.951,34.385l-2.355,1.885s1.669,9.348,3.552,13.585,4.546,13.157-2.425,17.986c-5.329,3.693-11.061,15.373-20.866,17.2s-12.864-5.114-7.623-15.162,9.9-13.459,10.616-20.181a33.445,33.445,0,0,0-1.049-12.3l-14.233.758s-4.711-24.022-7.537-40.98-9.892-56.522-8.949-66.885,2.826-16.486,7.066-18.841,5.652-4.238,5.652-4.238-5.652-3.3-5.652-7.066-.118-5.179-.473-6.123c-3.478,1.769-5.832-16.224-1.648-15.675,1.718-10.736-1.648-5.051-.234-10.7s1.883-12.245,0-16.485-.471-16.487,1.412-22.61-.471-8.007,6.123-13.659a51.235,51.235,0,0,1,15.073-8.478s2.355-10.363,10.363-10.363Z" transform="translate(-3275.573 -1897.519)"/><path class="c" d="M4177.679,2806.94a4.992,4.992,0,0,1,4.977,4.979v94.031a4.978,4.978,0,0,1-9.956,0v-94.031A4.992,4.992,0,0,1,4177.679,2806.94Z" transform="translate(-3526.906 -2608.819)"/><path class="d" d="M3924.71,3256.746c.072-1.29.1-2.075.133-2.862.367-9.382.682-17.112,11.838-26.306,5.764-4.753,12.69-7.874,21.031-10.093,7.79-2.07,16.827-3.351,27.384-4.493,8.619-.93,19.719-1.483,29.8-.015,7.026,1.026,13.655,3.052,18.908,6.615a23.781,23.781,0,0,1,10.854,17.821,31.966,31.966,0,0,1-.2,8.052l-14.143-2.068a17.849,17.849,0,0,0,.144-4.474,10.108,10.108,0,0,0-4.649-7.537c-3.242-2.2-7.834-3.522-12.927-4.265-8.7-1.269-18.56-.762-26.276.072-9.907,1.07-18.3,2.25-25.259,4.1-6.414,1.705-11.581,3.974-15.612,7.3-6.22,5.126-6.41,9.959-6.638,15.825l-.133,3.113-14.255-.781Z" transform="translate(-3331.255 -2928.448)"/><path class="d" d="M4167.01,3182.711a50.362,50.362,0,0,1,12.537-10.426,22.22,22.22,0,0,1,7.667-2.85c4.033-.563,7.638.467,10.323,3.869a12.5,12.5,0,0,1,2.472,5.965l.027.027c.112.733.218,4.371.262,7.915.04,3.208.032,6.494-.059,7.472l-14.2-1.288c.048-.506.038-3.217,0-6.017l-.035-2.343a32.48,32.48,0,0,0-7.537,6.173Z" transform="translate(-3522.417 -2894.695)"/><path class="d" d="M4190.752,3278.821c0-.851.078-1.967.165-3.223.384-5.542,1.056-15.19-10.977-25.434l9.225-10.844c17.553,14.947,16.569,29.1,16.006,37.228-.057.821-.107,1.549-.107,2.273Z" transform="translate(-3532.618 -2949.944)"/><path class="d" d="M3978.869,3216.115c.047-.88.515-5,.984-8.511a59.08,59.08,0,0,1,1.034-6.171,24.032,24.032,0,0,1,1.667-4.158,20.547,20.547,0,0,1,11.405-10.2c5.013-1.838,11.526-2.134,19.856.327a73.478,73.478,0,0,1,12.583,5.181l-6.484,12.688a59.332,59.332,0,0,0-10.124-4.177c-5.044-1.488-8.543-1.473-10.914-.6a6.566,6.566,0,0,0-3.634,3.267,9.956,9.956,0,0,0-.661,1.7c-.072.245-.317,1.965-.586,3.991-.422,3.164-.838,6.729-.872,7.393Z" transform="translate(-3373.984 -2907.582)"/><path class="c" d="M3983.316,3412.245a6.572,6.572,0,1,0-6.216-6.562A6.409,6.409,0,0,0,3983.316,3412.245Z" transform="translate(-3372.588 -3076.018)"/><path class="c" d="M3952.765,3396.975a6.572,6.572,0,1,0-6.215-6.562A6.409,6.409,0,0,0,3952.765,3396.975Z" transform="translate(-3348.486 -3063.97)"/><path class="c" d="M3971,3390.626l-7.2-3.677-6.692,10.943,7.648,4.056Z" transform="translate(-3356.817 -3066.416)"/><path class="c" d="M4203.184,3440.845c3.153.3,5.711,3.476,5.711,7.1s-2.558,6.319-5.711,6.021-5.713-3.478-5.713-7.1S4200.026,3440.545,4203.184,3440.845Z" transform="translate(-3546.448 -3108.918)"/><path class="c" d="M4238.313,3419.046c3.156.3,5.713,3.478,5.713,7.1s-2.558,6.321-5.713,6.023-5.713-3.478-5.713-7.1S4235.158,3418.748,4238.313,3419.046Z" transform="translate(-3574.164 -3091.72)"/><path class="c" d="M4221.942,3433.019l-6.907-10.969-8.305,5.245,7.209,10.854Z" transform="translate(-3553.754 -3094.108)"/><path class="c" d="M4442.423,3326.326c3.155.3,5.713,3.478,5.713,7.1s-2.558,6.319-5.713,6.021-5.713-3.478-5.713-7.1S4439.268,3326.028,4442.423,3326.326Z" transform="translate(-3735.196 -3018.569)"/><path class="c" d="M4470.833,3334.025c3.155.3,5.715,3.478,5.715,7.1s-2.56,6.319-5.715,6.021-5.713-3.478-5.713-7.1S4467.678,3333.726,4470.833,3334.025Z" transform="translate(-3757.61 -3024.644)"/><path class="c" d="M4465.772,3328.229l-6.994-1.819-1.338,12.828,6.03,1.623Z" transform="translate(-3751.551 -3018.653)"/><path class="c" d="M4312.806,3264.226c1.577.3,2.855,3.478,2.855,7.1s-1.279,6.321-2.855,6.021-2.855-3.478-2.855-7.1S4311.227,3263.928,4312.806,3264.226Z" transform="translate(-3635.189 -2969.576)"/><path class="c" d="M4270.558,3269.266c1.579.3,2.855,3.478,2.855,7.1s-1.277,6.321-2.855,6.021-2.858-3.476-2.858-7.1S4268.979,3268.969,4270.558,3269.266Z" transform="translate(-3601.856 -2973.552)"/><path class="c" d="M4279.812,3278.418l9.292-1.049-.677-13.159-9,1.07Z" transform="translate(-3611.11 -2969.581)"/><path class="c" d="M4044.205,3295.586c1.579.3,2.855,3.48,2.855,7.1s-1.277,6.321-2.855,6.023-2.856-3.478-2.856-7.1S4042.626,3295.288,4044.205,3295.586Z" transform="translate(-3423.277 -2994.317)"/><path class="c" d="M4001.957,3300.635c1.576.3,2.855,3.478,2.855,7.1s-1.279,6.321-2.855,6.021-2.858-3.478-2.858-7.1S4000.378,3300.335,4001.957,3300.635Z" transform="translate(-3389.945 -2998.3)"/><path class="c" d="M4011.2,3309.788l9.293-1.049-.677-13.159-9,1.07Z" transform="translate(-3399.191 -2994.33)"/><path class="c" d="M3969.569,2840.472c35.033,0,63.607-7.7,63.607-17.146s-28.574-17.146-63.607-17.146-63.609,7.7-63.609,17.146S3934.534,2840.472,3969.569,2840.472Z" transform="translate(-3316.462 -2608.219)"/><path class="c" d="M4018.11,2262.154l54.521-16.833,10.759,34.845L4028.87,2297Z" transform="translate(-3404.942 -2165.731)"/><path class="c" d="M4071.129,2400.357c2.961-5.673,12.686-20.331,10.219-21.766s-7.851,10.169-10.063,8.2,9.816-15.4,7.4-17.209-9.752,13.334-11.638,11.781,7.885-16.583,5.792-17.971-9.8,13.708-11.148,12.408,6.258-12.473,3.757-13.691c-3.132-1.53-12,15.434-12.581,25.63s8.87,19.959,18.264,12.619Z" transform="translate(-3432.342 -2257.794)"/><path class="c" d="M4127.267,1908.19c5.513.832,15.5,6.865,17.576,10.816s-.1-.416-3.432-1.87,3.016,3.223,3.746,7.383-.105.312-3.849-2.079-2.4,3.6-1.355,7.655-.272,10.109-1.832,6.885-18.448-22.965-10.855-28.79Z" transform="translate(-3489.521 -1899.753)"/><path class="c" d="M3983.427,1928.417c-2.138-.15-8.558,4.6-9.477,7.389s1.326-.281,2.651-.562-2.14,3.109-2.651,5.247,1.938-1.053,1.938.882S3994.737,1935.525,3983.427,1928.417Z" transform="translate(-3369.934 -1915.709)"/><path class="c" d="M1176.8,2003.653c-3.06-1.912-12.908-12.893-28.444-7.9-28.4,9.128-17.9,38.578-5.766,53.905-6.768,16.289-20.069,12.1-27,19.026-7.649,7.651,2.3,39.018,9.181,43.606s10.711,7.651,10.711,7.651,13.389,12.625,17.214,23.334,8.035,35.957,10.711,45.9,11.093,14.155,36.339,14.155,54.7-4.208,68.09-12.241,14.917-8.417,14.917-8.417-1.528,14.919-2.678,25.63-1.883,23.86-1.469,31.713.825,19.841-2.482,19.841-8.267-2.482-11.986,3.307-6.614,43.813-6.614,43.813l6.2.827,3.307-27.693s7.44,10.333,8.681,16.946,2.48,19.014,14.466,18.6,17.775,0,19.841-5.375,3.721-7.026-3.307-9.092-9.092-7.442-9.092-14.054-2.068-11.988-2.068-22.734.825-17.361,4.135-33.479,5.785-18.188,5.785-18.188,9.922,20.255,14.054,28.108a57.8,57.8,0,0,1,5.373,16.534s-11.572,13.227-10.747,17.362,4.546,31.413,4.546,31.413h4.135s-2.48-19.841-.825-23.974,7.44,2.894,11.159,8.267,5.375,20.252,13.227,21.08,19.016,2.48,22.735-2.066,2.48-7.026-4.546-10.333-10.333-13.229-13.227-22.321-11.986-23.973-13.64-34.722-9.508-61.174-11.988-71.921-6.2-21.907-20.666-21.907-10.333-.413-10.333-.413l3.719-3.305,4.548-.416,13.227-62.415-30.174-.411-14.468,65.72-53.734,10.335a85.25,85.25,0,0,0-5.373-19.014c-4.135-9.922-8.681-16.948-8.681-24.387s7.44-19.014-6.614-25.628-15.707-11.986-18.6-16.534-5.371-6.2-8.265-6.2-11.773-2.617-11.773-2.617-2.723-2.2-.658-4.51,8.3,3.822,10.363,2.167,1.775-4.953,1.775-4.953,2.486,0,2.075-2.068,3.052.1,1.832-3.647c-.521-1.6,1.75-2.161,3.8-1.952s2.52-1.342,2.117-4.747a13.28,13.28,0,0,1,3.206-10.542c2.894-3.305,2.516-16.357.372-21.477s-3.109-4.956-6.621-7.585Z" transform="translate(-1112.835 -1967.817)"/><path class="c" d="M1512.213,2508.85c5.24,5.57,20.639,18.022,25.881,23.589s11.8,15.071,15.726,12.45,10.485-8.845,12.45-6.88,1.638,2.951,4.259,2.621,2.948,2.621,5.243,5.243,1.98,2.866.072,2.974a4.142,4.142,0,0,1-4.029-2.121c-.635-1.273-1.695,0-3.073-.424s-.848,1.378.211,2.438,3.71,4.135,1.167,4.135a7.151,7.151,0,0,1-4.77-2.013c-.635-.532-1.695.317-3.6,2.013s-5.618,5.192-9.012,5.616-6.678.213-9.751-3.708-8.9-9.329-13.037-12.931-17.171-11.45-21.941-13.885-2.969-25.122,4.206-19.115Z" transform="translate(-1422.508 -2372.846)"/><path class="c" d="M1638,2472.438l.015,0h.01l.021,0,.01,0h.008l.013,0h0l0,0h0l3.719-3.3,4.548-.416,13.227-62.415-30.174-.412-14.468,65.72-53.734,10.335-13.163,2.894,9.035,4.413,61.984-11.135s-.629-1.051,3.362-2.731c3.788-1.6,14.491-2.817,15.574-2.938Z" transform="translate(-1456.189 -2292.404)"/><path class="c" d="M1442.167,2948.261c32.631,0,59.245-7.176,59.245-15.971s-26.614-15.97-59.245-15.97-59.247,7.174-59.247,15.97S1409.536,2948.261,1442.167,2948.261Z" transform="translate(-1325.918 -2695.114)"/><path class="c" d="M1225.39,2556.087c-7.915,1.883-10.641,18.925-6.089,38.068s14.658,33.135,22.57,31.253,10.641-18.925,6.091-38.068S1233.3,2554.206,1225.39,2556.087Z" transform="translate(-1195.092 -2410.776)"/><path class="c" d="M1624.967,2980.09h0a4.65,4.65,0,0,0-4.637,4.637v67.612a4.65,4.65,0,0,0,4.637,4.637h0a4.652,4.652,0,0,0,4.637-4.637v-67.612A4.652,4.652,0,0,0,1624.967,2980.09Z" transform="translate(-1513.222 -2745.425)"/><path class="d" d="M1462.606,3307.706l-.125-2.885c-.209-5.359-.382-9.772-6-14.4-3.694-3.045-8.446-5.131-14.354-6.7-6.458-1.716-14.25-2.809-23.454-3.8-7.159-.775-16.3-1.246-24.358-.07-4.675.679-8.881,1.889-11.832,3.89a8.934,8.934,0,0,0-4.118,6.663,16.346,16.346,0,0,0,.133,4.076l-14.143,2.014a30.111,30.111,0,0,1-.19-7.6,22.63,22.63,0,0,1,10.323-16.948c4.962-3.364,11.2-5.276,17.813-6.238,9.436-1.376,19.818-.859,27.878.013,9.856,1.063,18.294,2.26,25.582,4.2,7.834,2.081,14.345,5.019,19.776,9.493,10.572,8.712,10.859,16,11.2,24.855.027.715.057,1.425.124,2.664Z" transform="translate(-1310.995 -2970.088)"/><path class="d" d="M1541.825,3246.162a28.771,28.771,0,0,0-6.125-5.145l-.019,1.292c-.032,2.59-.042,5.1,0,5.555l-14.2,1.34c-.087-.933-.093-4.039-.055-7.062.042-3.318.141-6.72.247-7.41l.027-.03a12.147,12.147,0,0,1,2.4-5.783c2.63-3.328,6.144-4.335,10.067-3.786a21.2,21.2,0,0,1,7.317,2.714,47.639,47.639,0,0,1,11.853,9.875l-11.515,8.44Z" transform="translate(-1435.175 -2938.639)"/><path class="d" d="M1544.283,3327.952c0-.669-.046-1.336-.1-2.085-.532-7.659-1.458-21,15.08-35.077l9.225,10.844c-11.015,9.379-10.4,18.211-10.05,23.283.082,1.184.156,2.235.156,3.035Z" transform="translate(-1452.969 -2990.551)"/><path class="d" d="M1665.885,3269.807c-.032-.614-.418-3.919-.808-6.857-.247-1.861-.469-3.432-.53-3.636a8.852,8.852,0,0,0-.58-1.494,5.642,5.642,0,0,0-3.119-2.807c-2.119-.777-5.274-.781-9.863.572a54.778,54.778,0,0,0-9.341,3.856l-6.484-12.691a69.076,69.076,0,0,1,11.8-4.858c7.874-2.326,14.043-2.041,18.8-.3a19.63,19.63,0,0,1,10.89,9.74,23.025,23.025,0,0,1,1.587,3.953,55.115,55.115,0,0,1,.977,5.817c.437,3.286.878,7.148.92,7.974Z" transform="translate(-1524.922 -2950.651)"/><path class="c" d="M1798.539,3453.616a6.122,6.122,0,1,0-5.789-6.114A5.97,5.97,0,0,0,1798.539,3453.616Z" transform="translate(-1649.252 -3109.367)"/><path class="c" d="M1826.991,3439.394a6.121,6.121,0,1,0-5.791-6.112A5.969,5.969,0,0,0,1826.991,3439.394Z" transform="translate(-1671.698 -3098.148)"/><path class="c" d="M1804.93,3433.475l6.7-3.425,6.237,10.194-7.123,3.776Z" transform="translate(-1658.861 -3100.42)"/><path class="c" d="M1597.261,3480.25c-2.938.277-5.321,3.238-5.321,6.614s2.383,5.886,5.321,5.608,5.323-3.24,5.323-6.614S1600.2,3479.969,1597.261,3480.25Z" transform="translate(-1490.823 -3140.008)"/><path class="c" d="M1564.531,3459.941c-2.938.279-5.321,3.24-5.321,6.617s2.383,5.886,5.321,5.608,5.323-3.24,5.323-6.615S1567.471,3459.663,1564.531,3459.941Z" transform="translate(-1465.001 -3123.986)"/><path class="c" d="M1566.6,3472.957l6.433-10.217,7.735,4.888-6.714,10.109Z" transform="translate(-1470.831 -3126.211)"/><path class="c" d="M1374.421,3373.59c-2.938.276-5.321,3.238-5.321,6.612s2.383,5.888,5.321,5.61,5.323-3.24,5.323-6.615S1377.361,3373.309,1374.421,3373.59Z" transform="translate(-1315.015 -3055.859)"/><path class="c" d="M1347.953,3380.751c-2.94.279-5.323,3.24-5.323,6.614s2.383,5.888,5.323,5.61,5.321-3.24,5.321-6.615S1350.891,3380.473,1347.953,3380.751Z" transform="translate(-1294.131 -3061.509)"/><path class="c" d="M1363.44,3375.36l6.515-1.69,1.247,11.948-5.616,1.513Z" transform="translate(-1310.549 -3055.939)"/><path class="c" d="M1515.039,3315.742c-1.469.279-2.659,3.24-2.659,6.614s1.19,5.887,2.659,5.61,2.661-3.239,2.661-6.614S1516.51,3315.466,1515.039,3315.742Z" transform="translate(-1428.055 -3010.221)"/><path class="c" d="M1554.391,3320.441c-1.471.279-2.661,3.24-2.661,6.614s1.19,5.889,2.661,5.61,2.659-3.24,2.659-6.617S1555.86,3320.162,1554.391,3320.441Z" transform="translate(-1459.1 -3013.927)"/><path class="c" d="M1531.985,3328.965l-8.655-.977.631-12.258,8.379,1Z" transform="translate(-1436.694 -3010.228)"/><path class="c" d="M1765.229,3344.961c-1.471.277-2.659,3.238-2.659,6.615s1.188,5.886,2.659,5.61,2.659-3.242,2.659-6.614S1766.7,3344.682,1765.229,3344.961Z" transform="translate(-1625.441 -3033.272)"/><path class="c" d="M1804.561,3349.652c-1.469.279-2.661,3.242-2.661,6.617s1.192,5.886,2.661,5.608,2.661-3.238,2.661-6.614S1806.032,3349.376,1804.561,3349.652Z" transform="translate(-1656.471 -3036.974)"/><path class="c" d="M1782.163,3358.175l-8.653-.977.629-12.258,8.381,1Z" transform="translate(-1634.072 -3033.272)"/><path class="c" d="M1414.853,2595.9c6.923,3.257,25.816,9.185,32.737,12.439s16.5,9.69,19.2,5.806,6.5-12.076,9.056-10.969,2.6,2.14,4.922.874,3.706,1.355,6.8,2.951,2.9,1.939,1.159,2.739a4.132,4.132,0,0,1-4.525-.494c-1.06-.95-1.579.623-3.016.735s-.283,1.593,1.093,2.191,4.968,2.482,2.6,3.415a7.16,7.16,0,0,1-5.177-.12c-.785-.262-1.458.916-2.613,3.2s-3.318,6.9-6.319,8.535-6.133,2.646-10.432.129-11.705-5.409-16.874-7.243-20.175-4.344-25.508-4.861-11.984-22.277-3.1-19.322Z" transform="translate(-1347.689 -2442.101)"/><path class="c" d="M1371.182,2049.263c6.066,0,15.637,9.573,11.26,22.771-3.59,10.821-24.25,6.75-24.634,6.211C1354.671,2073.853,1358.428,2045.082,1371.182,2049.263Z" transform="translate(-1305.28 -2010.726)"/><path class="c" d="M1164.1,1973.828c0-4.892-13.049-13.049-22.836-6.794s-16.88,15.7-9.514,35.611c10.291,27.817,1.56,34.592-2.963,33.743-4.611-.863-3.926,1.479-.964,4.772s9.909,4.713,15.618.906,16.312-25.012,16.312-33.712-3.807-29.36,4.348-34.526Z" transform="translate(-1122.8 -1944.39)"/><path class="c" d="M2662.186,1914.66c-10.135-.608-16.067,4.643-18.566,10.356s-3.071,13.854-3.071,13.854c-4.531,1.435-2.571,14.721,2.286,16,0,0,1.5,4.787.785,8.358s-1.572,5.686-3.668,5.04-2.9,3.062-6.608,5.8-7.414,2.9-12.247,2.9-14.506,3.706-14.506,24.659,4.183,34.638,8.467,41.366,11.931,32.12,11.931,43.437,5.962,28.771,7.338,32.439,2.75,4.124,5.96,3.208,11,19.254,25.214,19.714,32.091-.46,49.053,2.75,27.507,7.334,28.88,13.752,8.254,30.257,11.462,33.467,6.876,5.042,5.044,9.168a21.293,21.293,0,0,0-1.378,14.212c1.378,5.042-2.75,11-5.5,17.42s-6.876,19.713,5.5,22.463,15.13.916,15.13.916.458-5.04,7.792-2.748,15.13,9.168,27.049,4.584a87.037,87.037,0,0,0,19.254-10.086s16.5,1.376,27.964-8.71,5.96-13.754-9.17-16.962-21.086,1.832-29.338,0-6.418-5.5-13.294-9.626-9.17-6.876-11.46-12.838-4.128-1.834-.918-17.878,10.544-34.843,9.626-45.385.918-20.17-15.586-25.214-49.511-13.294-54.1-14.67,2.752-3.668-8.25-7.794-20.559-5.929-18.011-11.929c15.038-7.522,6.711-35.664-1.714-33.68-1.182-5.91-5.905-16.924-5.724-23.687.232-8.8-4.025-21.679-13.193-25.672s-11.787-4.483-15.453-8.609-2.752-8.282-2.294-10.574,8.252-7.334,9.628-11.462,2.609-7.077,2.9-8.079c3.2-2.094,3.588-9.533,2.15-11.87-.143-4.008,2.714-27.068-19.364-28.391Z" transform="translate(-2291.328 -1904.82)"/><path class="c" d="M2800.245,2911.661c34.4,0,62.455-7.564,62.455-16.838s-28.055-16.834-62.455-16.834-62.455,7.562-62.455,16.834S2765.845,2911.661,2800.245,2911.661Z" transform="translate(-2394.838 -2664.873)"/><path class="c" d="M2557.206,2504.739c-7.98,3.145-8.282,21.338-.677,40.634s20.236,32.392,28.214,29.248,8.284-21.335.679-40.634S2565.184,2501.6,2557.206,2504.739Z" transform="translate(-2247.485 -2370.031)"/><path class="c" d="M2992.956,2945.22a4.9,4.9,0,0,0-4.886,4.886v71.275a4.887,4.887,0,1,0,9.774,0v-71.275A4.9,4.9,0,0,0,2992.956,2945.22Z" transform="translate(-2592.296 -2717.915)"/><path class="d" d="M2728.23,3291.21c.072-1.29.1-2.049.133-2.815.361-9.238.671-16.851,11.669-25.917,5.675-4.677,12.492-7.752,20.7-9.932,7.657-2.037,16.536-3.294,26.907-4.415,8.472-.916,19.381-1.458,29.29-.015,6.914,1.007,13.444,3,18.619,6.513a23.479,23.479,0,0,1,10.715,17.592,31.335,31.335,0,0,1-.2,7.91l-14.143-2.013a17.561,17.561,0,0,0,.141-4.388,9.792,9.792,0,0,0-4.51-7.3c-3.166-2.146-7.657-3.44-12.638-4.166-8.533-1.243-18.2-.747-25.77.072-9.719,1.049-17.952,2.206-24.782,4.021-6.279,1.669-11.338,3.892-15.278,7.14-6.061,5-6.247,9.713-6.469,15.436l-.133,3.065Z" transform="translate(-2387.296 -2956.181)"/><path class="d" d="M2966.27,3218.447a49.632,49.632,0,0,1,12.349-10.276,21.947,21.947,0,0,1,7.573-2.811c4.005-.56,7.585.46,10.255,3.847a12.425,12.425,0,0,1,2.455,5.914c.131.844.24,4.371.283,7.754.04,3.172.034,6.441-.055,7.412l-14.2-1.288c.044-.5.036-3.187,0-5.958l-.027-2.013a31.6,31.6,0,0,0-7.174,5.916Z" transform="translate(-2575.097 -2923.037)"/><path class="d" d="M2989.637,3313.012c0-.844.076-1.94.163-3.176.376-5.416,1.03-14.848-10.73-24.862l9.223-10.844c17.283,14.715,16.316,28.653,15.761,36.658-.055.8-.105,1.517-.105,2.224Z" transform="translate(-2585.195 -2977.407)"/><path class="d" d="M2781.42,3251.315c.044-.865.507-4.918.967-8.375a57.75,57.75,0,0,1,1.019-6.072,23.773,23.773,0,0,1,1.644-4.105,20.3,20.3,0,0,1,11.27-10.075c4.945-1.815,11.365-2.108,19.575.317a72.252,72.252,0,0,1,12.378,5.1l-6.484,12.688a58.1,58.1,0,0,0-9.919-4.092c-4.922-1.452-8.331-1.439-10.633-.595a6.324,6.324,0,0,0-3.5,3.147,9.754,9.754,0,0,0-.64,1.644c-.068.236-.308,1.912-.57,3.892-.414,3.107-.821,6.6-.855,7.256Z" transform="translate(-2429.26 -2935.693)"/><path class="c" d="M2786.394,3444.387a6.453,6.453,0,1,0-6.1-6.443A6.293,6.293,0,0,0,2786.394,3444.387Z" transform="translate(-2428.368 -3101.564)"/><path class="c" d="M2756.4,3429.387a6.453,6.453,0,1,0-6.106-6.444A6.293,6.293,0,0,0,2756.4,3429.387Z" transform="translate(-2404.7 -3089.73)"/><path class="c" d="M2774.3,3423.151l-7.068-3.611-6.572,10.745,7.509,3.983Z" transform="translate(-2412.881 -3092.128)"/><path class="c" d="M3002.27,3472.448c3.1.293,5.608,3.417,5.608,6.975s-2.51,6.205-5.608,5.912-5.61-3.415-5.61-6.973S2999.171,3472.157,3002.27,3472.448Z" transform="translate(-2599.073 -3133.853)"/><path class="c" d="M3036.77,3451.057c3.1.293,5.61,3.415,5.61,6.973s-2.511,6.2-5.61,5.912-5.61-3.415-5.61-6.973S3033.672,3450.763,3036.77,3451.057Z" transform="translate(-2626.292 -3116.976)"/><path class="c" d="M3020.7,3464.77l-6.785-10.77-8.153,5.151,7.079,10.659Z" transform="translate(-2606.252 -3119.315)"/><path class="c" d="M3237.177,3360.017c3.1.293,5.61,3.415,5.61,6.973s-2.512,6.205-5.61,5.914-5.608-3.417-5.608-6.975S3234.081,3359.723,3237.177,3360.017Z" transform="translate(-2784.404 -3045.15)"/><path class="c" d="M3265.08,3367.568c3.1.293,5.609,3.417,5.609,6.975s-2.514,6.205-5.609,5.912-5.61-3.415-5.61-6.973S3261.981,3367.277,3265.08,3367.568Z" transform="translate(-2806.416 -3051.108)"/><path class="c" d="M3260.1,3361.883l-6.87-1.783-1.313,12.6,5.92,1.594Z" transform="translate(-2800.459 -3045.233)"/><path class="c" d="M3109.913,3299.038c1.549.293,2.805,3.417,2.805,6.975s-1.256,6.2-2.805,5.912-2.8-3.415-2.8-6.973S3108.364,3298.747,3109.913,3299.038Z" transform="translate(-2686.212 -2997.041)"/><path class="c" d="M3068.435,3304c1.549.293,2.8,3.415,2.8,6.973s-1.256,6.2-2.8,5.911-2.8-3.415-2.8-6.971S3066.886,3303.7,3068.435,3304Z" transform="translate(-2653.487 -3000.953)"/><path class="c" d="M3077.508,3312.98l9.122-1.03-.663-12.921-8.837,1.051Z" transform="translate(-2662.559 -2997.052)"/><path class="c" d="M2846.183,3329.837c1.551.293,2.8,3.415,2.8,6.973s-1.254,6.205-2.8,5.914-2.8-3.415-2.8-6.973S2844.634,3329.544,2846.183,3329.837Z" transform="translate(-2478.143 -3021.34)"/><path class="c" d="M2804.7,3334.787c1.549.293,2.8,3.415,2.8,6.973s-1.256,6.207-2.8,5.914-2.807-3.415-2.807-6.973S2803.148,3334.493,2804.7,3334.787Z" transform="translate(-2445.409 -3025.245)"/><path class="c" d="M2813.778,3343.773l9.122-1.03-.663-12.923-8.837,1.053Z" transform="translate(-2454.49 -3021.344)"/><path class="c" d="M3065.434,2258.278l4.122-56.524-36.124-2.634-4.122,56.522Z" transform="translate(-2624.832 -2129.281)"/><path class="c" d="M2967.043,2377.318c4.322-4.213,14.923-16.969,16.888-15.13s-7.058,9.85-4.679,11.312,11.249-13.039,13.537-11.344-9.4,12.422-7.486,13.7,12.838-11.614,14.66-10.1-9.721,12.564-8.183,13.431,9.567-9.031,11.346-7.1c2.233,2.415-10.686,15.025-19.736,18.311S2962.959,2387.79,2967.043,2377.318Z" transform="translate(-2575.032 -2257.791)"/><path class="c" d="M2826.7,1938.953c-11.779-.213-39.336-8.178-42.426-18.9s8.875-15.55,12.193-13.889C2799.66,1902.545,2828.4,1901.905,2826.7,1938.953Z" transform="translate(-2431.112 -1896.881)"/><path class="c" d="M4920.75,1868.218c-22.519,4.288-35.708,65.562-25.337,78.039,0,0-7.342,6.074-2.788,13.174.15.232,6.529,33.329,4.816,36.487s.914,5.264,1.927,10.333,1.1,11.2,3.649,11.2c-2.8,5.852-7.6,19.514-7.6,26.608a115.009,115.009,0,0,1-1.013,14.189l-.506,7.094s-11.654,16.217-19.763,27.872-13.87,20.071-19.355,28.3-12.568,13.761-18.142,18.322-16.216,13.174-15.2,17.735,5.576,12.163,10.137,14.7,8.107-3.548,12.667-11.655,9.012-15.094,13.881-20.578,27.671-26.044,35.78-32.124,10.135-5.576,10.135-5.576,19.476,7.454,29.828,16.994,12.739,15.947,15.272,21.521,3.039,22.8,10.135,26.856,13.176,1.52,13.683-6.587-2.028-11.656-6.589-17.737-3.039-12.667-4.052-19.256-5-3.829-9.049-7.883-6.66-11.88-10.713-16.946-11.148-9.628-11.148-9.628a18.233,18.233,0,0,0,2.533-7.1,44.369,44.369,0,0,0-.506-10.137s20.022,4.474,36.484-2.026c24.516-9.677,30.5-27.492,17.737-57.261,0,0,5.574-.507,9.628-7.1s-4.174-32.331-4.979-45.406-6.435-27.555-12.26-31.363-22.975-.04-29.575-7.15C4953.513,1924.5,4969.015,1867.731,4920.75,1868.218Z" transform="translate(-4038.666 -1868.215)"/><path class="c" d="M5158.484,2773.617c32.1,0,58.276-7.058,58.276-15.708s-26.179-15.709-58.276-15.709-58.274,7.055-58.274,15.709S5126.387,2773.617,5158.484,2773.617Z" transform="translate(-4258.662 -2557.743)"/><path class="c" d="M5356.878,2859.85a4.572,4.572,0,0,0-4.559,4.559v86.15a4.56,4.56,0,0,0,9.12,0v-86.15A4.573,4.573,0,0,0,5356.878,2859.85Z" transform="translate(-4457.563 -2650.563)"/><path class="d" d="M5195.479,3270.451l-.123-2.866c-.2-5.226-.374-9.529-5.865-14.056-3.619-2.982-8.279-5.025-14.075-6.566-6.344-1.687-14-2.763-23.051-3.74-7.032-.76-16.012-1.222-23.927-.07-4.584.669-8.706,1.853-11.591,3.81a8.678,8.678,0,0,0-4,6.473,15.872,15.872,0,0,0,.131,3.976l-14.143,2.014a29.907,29.907,0,0,1-.187-7.5,22.373,22.373,0,0,1,10.206-16.76c4.895-3.317,11.055-5.207,17.573-6.156,9.292-1.355,19.513-.844,27.447.013,9.7,1.049,18.007,2.225,25.178,4.132,7.722,2.054,14.143,4.949,19.5,9.362,10.428,8.594,10.72,15.8,11.062,24.535l.122,2.617Z" transform="translate(-4257.307 -2941.152)"/><path class="d" d="M5273.423,3209.986a27.842,27.842,0,0,0-5.817-4.917l-.015,1.053c-.034,2.56-.042,5.036,0,5.485l-14.2,1.288c-.087-.918-.093-3.972-.055-6.94.04-3.265.137-6.614.243-7.3l.027-.027a12.059,12.059,0,0,1,2.387-5.743c2.612-3.312,6.107-4.312,10.01-3.768a20.99,20.99,0,0,1,7.237,2.683,46.96,46.96,0,0,1,11.7,9.747Z" transform="translate(-4379.454 -2910.226)"/><path class="d" d="M5275.811,3290.473c0-.659-.046-1.311-.1-2.043-.525-7.556-1.437-20.713,14.875-34.6l9.224,10.844c-10.79,9.185-10.188,17.838-9.844,22.8.08,1.169.154,2.21.154,2.995Z" transform="translate(-4396.951 -2961.392)"/><path class="d" d="M5395.659,3233.178c-.032-.6-.41-3.85-.794-6.737-.245-1.822-.462-3.36-.519-3.554a8.579,8.579,0,0,0-.561-1.452,5.437,5.437,0,0,0-3.006-2.7c-2.06-.755-5.139-.758-9.626.566a53.728,53.728,0,0,0-9.17,3.784l-6.484-12.689a67.813,67.813,0,0,1,11.629-4.789c7.773-2.3,13.864-2.014,18.568-.287a19.4,19.4,0,0,1,10.777,9.635,22.924,22.924,0,0,1,1.568,3.911,53.39,53.39,0,0,1,.964,5.734c.433,3.238.866,7.041.908,7.855l-14.254.726Z" transform="translate(-4467.96 -2922.041)"/><path class="c" d="M5526.456,3414.414a6.021,6.021,0,1,0-5.7-6.013A5.871,5.871,0,0,0,5526.456,3414.414Z" transform="translate(-4590.453 -3078.598)"/><path class="c" d="M5554.446,3400.414a6.021,6.021,0,1,0-5.7-6.013A5.872,5.872,0,0,0,5554.446,3400.414Z" transform="translate(-4612.537 -3067.552)"/><path class="c" d="M5532.74,3394.6l6.6-3.368,6.133,10.025-7.006,3.717Z" transform="translate(-4599.906 -3069.793)"/><path class="c" d="M5328.484,3440.6c-2.894.272-5.234,3.187-5.234,6.5s2.341,5.791,5.234,5.517,5.232-3.185,5.232-6.5S5331.374,3440.328,5328.484,3440.6Z" transform="translate(-4434.629 -3108.728)"/><path class="c" d="M5296.284,3420.633c-2.892.274-5.234,3.187-5.234,6.507s2.343,5.791,5.234,5.517,5.234-3.187,5.234-6.507S5299.174,3420.361,5296.284,3420.633Z" transform="translate(-4409.225 -3092.974)"/><path class="c" d="M5298.32,3433.423l6.33-10.052,7.606,4.81-6.606,9.945Z" transform="translate(-4414.96 -3095.15)"/><path class="c" d="M5109.293,3335.692c-2.891.272-5.234,3.185-5.234,6.506s2.343,5.79,5.234,5.517,5.232-3.187,5.232-6.509S5112.183,3335.418,5109.293,3335.692Z" transform="translate(-4261.699 -3025.96)"/><path class="c" d="M5083.254,3342.733c-2.892.274-5.234,3.187-5.234,6.507s2.343,5.792,5.234,5.517,5.233-3.185,5.233-6.5S5086.146,3342.461,5083.254,3342.733Z" transform="translate(-4241.155 -3031.515)"/><path class="c" d="M5098.49,3337.435l6.41-1.665,1.224,11.751-5.523,1.488Z" transform="translate(-4257.305 -3026.038)"/><path class="c" d="M5247.607,3278.793c-1.446.274-2.617,3.187-2.617,6.507s1.171,5.791,2.617,5.517,2.617-3.185,2.617-6.507S5249.051,3278.521,5247.607,3278.793Z" transform="translate(-4372.886 -2981.07)"/><path class="c" d="M5286.307,3283.413c-1.446.272-2.617,3.187-2.617,6.507s1.171,5.791,2.617,5.517,2.617-3.187,2.617-6.507S5287.753,3283.141,5286.307,3283.413Z" transform="translate(-4403.418 -2984.715)"/><path class="c" d="M5264.271,3291.8l-8.512-.96.619-12.057,8.244.981Z" transform="translate(-4381.383 -2981.076)"/><path class="c" d="M5493.688,3307.523c-1.446.274-2.617,3.187-2.617,6.509s1.171,5.789,2.617,5.517,2.617-3.187,2.617-6.509S5495.133,3307.251,5493.688,3307.523Z" transform="translate(-4567.03 -3003.737)"/><path class="c" d="M5532.387,3312.152c-1.446.272-2.617,3.187-2.617,6.507s1.171,5.789,2.617,5.515,2.617-3.185,2.617-6.5S5533.833,3311.878,5532.387,3312.152Z" transform="translate(-4597.562 -3007.388)"/><path class="c" d="M5510.352,3320.536l-8.512-.96.621-12.055,8.242.979Z" transform="translate(-4575.527 -3003.75)"/><path class="c" d="M5207.378,2346.5l46.731,1.671-1.842,33.3c-1.294-.04-41.185-1.349-46-1.541Z" transform="translate(-4342.338 -2245.556)"/><path class="c" d="M5179.659,1926.35c-20.43,25.765-15.1,60.75-13.676,65.581,1.087-4.831-3.67-39,13.676-65.58Z" transform="translate(-4309.223 -1914.08)"/><path class="c" d="M5150.06,2366.29c19-2.127,27.939-2.127,27.939-2.127l1.106-33.433s-10.05,2.127-27.937,2.127Z" transform="translate(-4297.991 -2233.115)"/><path class="c" d="M5216.445,2453.726l18.963,3.478.152-15.764,1.575-6.239a83.868,83.868,0,0,1,7.83-4.356c4.926-2.541,6.832-3.5,3.972-4.447s-6.036,1.112-7.625,1.906,2.7-6.99-.158-7.148-5.561,10.962-5.24,7.944,2.223-9.691,0-9.691-3.814,9.691-6.2,9.691.793-11.12-2.7-11.12-.477,8.1-6.99,9.371-8.1-3.972-11.439-3.972-5.717.954-2.7,2.543a29.107,29.107,0,0,1,7.271,5.724l2.917,9.006v4.631Z" transform="translate(-4340.943 -2301.95)"/></g><g transform="translate(214.145 274.916)"><path class="e" d="M1219.766,1302.59H1035.012a20.767,20.767,0,0,0-20.362,20.759c0,.089,0,.181,0,.268l0,52.565c0,11.566,9.162,21.027,19.09,21.027h61.334c12.853,0,21.249,20.894,28.629,20.894,7.636,0,17.306-20.894,28.758-20.894h67.3a20.766,20.766,0,0,0,20.36-20.759c0-.089,0-.181,0-.268l0-52.565c0-.087,0-.179,0-.268a20.763,20.763,0,0,0-20.362-20.757Z" transform="translate(-1014.65 -1302.59)"/></g><g transform="translate(239.932 304.347)"><path class="a" d="M1183.486,1442.044c-.108,0-.222,0-.331,0a10.256,10.256,0,1,0,10.257,10.255v-.148a10.106,10.106,0,0,0-9.926-10.1Z" transform="translate(-1165.287 -1442.04)"/><path class="a" d="M1137.721,1567.348h-.034a.861.861,0,0,1-.857-.787v-2.368c0-4.86,2.545-8.8,7.254-8.8h21.886c4.708,0,7.254,3.943,7.254,8.8v2.237a.3.3,0,0,1,0,.044.745.745,0,0,1-.745.745h-34.758l0,.129Z" transform="translate(-1136.83 -1531.467)"/></g><g transform="translate(289.54 300.563)"><text class="f" transform="translate(0 30)"><tspan x="0" y="0">200 000</tspan></text></g><g transform="translate(1255.762 274.916)"><path class="e" d="M6155.1,1302.59H5970.34a20.764,20.764,0,0,0-20.36,20.757c0,.089,0,.183,0,.27l0,52.565c0,11.563,9.162,21.027,19.088,21.027H6030.4c12.853,0,21.251,20.894,28.631,20.894,7.636,0,17.307-20.894,28.758-20.894H6155.1a20.766,20.766,0,0,0,20.36-20.759c0-.089,0-.181,0-.268v-52.565c0-.087,0-.182,0-.27a20.765,20.765,0,0,0-20.364-20.757Z" transform="translate(-5949.98 -1302.59)"/></g><g transform="translate(1281.548 304.345)"><path class="a" d="M6118.817,1442.036c-.108,0-.222-.006-.332-.006a10.257,10.257,0,1,0,10.257,10.257v-.148a10.1,10.1,0,0,0-9.926-10.1Z" transform="translate(-6100.617 -1442.03)"/><path class="a" d="M6073.051,1567.34h-.034a.862.862,0,0,1-.857-.789v-2.366c0-4.86,2.545-8.805,7.254-8.805H6101.3c4.709,0,7.254,3.945,7.254,8.805v2.235c0,.015,0,.032,0,.046a.743.743,0,0,1-.745.743h-34.758Z" transform="translate(-6072.16 -1531.457)"/></g><g transform="translate(1331.156 300.773)"><text class="f" transform="translate(0 30)"><tspan x="0" y="0">200 000</tspan></text></g><g transform="translate(732.382 194.422)"><path class="e" d="M3675.246,921.2H3490.49a20.765,20.765,0,0,0-20.361,20.757c0,.089,0,.184,0,.27v52.565c0,11.566,9.162,21.027,19.088,21.027h61.334c12.853,0,21.251,20.894,28.632,20.894,7.635,0,17.3-20.894,28.758-20.894h67.3a20.766,20.766,0,0,0,20.36-20.759c0-.089,0-.181,0-.268V942.227c0-.087,0-.182,0-.27a20.766,20.766,0,0,0-20.365-20.757h0Z" transform="translate(-3470.13 -921.2)"/></g><g transform="translate(758.168 223.853)"><path class="a" d="M3638.964,1060.654c-.105,0-.22,0-.33,0a10.256,10.256,0,1,0,10.257,10.255v-.148a10.1,10.1,0,0,0-9.928-10.1Z" transform="translate(-3620.767 -1060.65)"/><path class="a" d="M3593.2,1185.95h-.034a.858.858,0,0,1-.857-.789V1182.8c0-4.86,2.545-8.805,7.254-8.805h21.886c4.708,0,7.254,3.945,7.254,8.805v2.235c0,.017,0,.032,0,.047a.745.745,0,0,1-.745.745.074.074,0,0,1-.021,0l-34.737,0Z" transform="translate(-3592.31 -1150.069)"/></g><g transform="translate(807.776 220.28)"><text class="f" transform="translate(0 30)"><tspan x="0" y="0">200 000</tspan></text></g><g transform="translate(471.978 233.007)"><path class="e" d="M2441.416,1104.02H2256.66a20.764,20.764,0,0,0-20.36,20.757c0,.089,0,.184,0,.27v52.565c0,11.563,9.162,21.027,19.087,21.027h61.334c12.853,0,21.251,20.894,28.631,20.894,7.636,0,17.3-20.894,28.758-20.894h67.3a20.767,20.767,0,0,0,20.36-20.759c0-.089,0-.181,0-.268v-52.567c0-.085,0-.179,0-.268a20.763,20.763,0,0,0-20.364-20.757h0Z" transform="translate(-2236.3 -1104.02)"/></g><g transform="translate(497.765 262.436)"><path class="a" d="M2405.126,1243.466c-.105,0-.219-.006-.329-.006a10.257,10.257,0,1,0,10.257,10.257c0-.047,0-.1,0-.148a10.1,10.1,0,0,0-9.928-10.1Z" transform="translate(-2386.929 -1243.46)"/><path class="a" d="M2359.371,1368.77h-.034a.86.86,0,0,1-.857-.789v-2.366c0-4.861,2.545-8.805,7.254-8.805h21.886c4.709,0,7.254,3.944,7.254,8.805v2.235c0,.015,0,.03,0,.047a.746.746,0,0,1-.745.743h-34.758Z" transform="translate(-2358.48 -1332.887)"/></g><g transform="translate(547.373 258.864)"><text class="f" transform="translate(0 30)"><tspan x="0" y="0">200 000</tspan></text></g><g transform="translate(992.785 233.007)"><path class="e" d="M4909.076,1104.02H4724.32a20.765,20.765,0,0,0-20.36,20.757c0,.089,0,.184,0,.27l0,52.565c0,11.566,9.162,21.027,19.087,21.027h61.334c12.853,0,21.25,20.894,28.631,20.894,7.636,0,17.306-20.894,28.758-20.894h67.3a20.766,20.766,0,0,0,20.36-20.759c0-.089,0-.181,0-.268v-52.565c0-.087,0-.182,0-.27a20.762,20.762,0,0,0-20.362-20.755v0Z" transform="translate(-4703.96 -1104.02)"/></g><g transform="translate(1018.572 262.438)"><path class="a" d="M4872.8,1243.474c-.107,0-.221,0-.331,0a10.256,10.256,0,1,0,10.257,10.255v-.148a10.105,10.105,0,0,0-9.926-10.1Z" transform="translate(-4854.597 -1243.47)"/><path class="a" d="M4827.03,1368.77H4827a.86.86,0,0,1-.857-.789v-2.366c0-4.861,2.545-8.805,7.254-8.805h21.886c4.708,0,7.254,3.944,7.254,8.805v2.237a.336.336,0,0,1,0,.044.745.745,0,0,1-.745.745h-34.758Z" transform="translate(-4826.14 -1332.889)"/></g><g transform="translate(1068.18 258.864)"><text class="f" transform="translate(0 30)"><tspan x="0" y="0">200 000</tspan></text></g></g></svg>