<svg xmlns="http://www.w3.org/2000/svg" xmlns:xlink="http://www.w3.org/1999/xlink" viewBox="0 0 298.336 593.5"><defs><style>.a{fill:none;}.b{fill:#d1d3d4;}.c{fill:url(#a);}.d{fill:#6a6a6a;}.e{fill:#898a8c;}.f{fill:#d7d7d7;}.g{fill:#212121;}.ae,.ag,.h{fill:#fff;}.i{fill:#fafafa;}.ab,.j,.y{fill:#262627;}.k{fill:#333;}.l{fill:#3d3d3d;}.m{fill:#0c46a1;}.n{fill:url(#b);}.o{fill:url(#c);}.p{fill:#7496c9;}.q{fill:url(#d);}.r{fill:#858585;}.af,.s{fill:#db565a;}.t{fill:#b2b2b2;}.af,.u{fill-rule:evenodd;}.v{font-size:7px;}.v,.y{font-family:Arial-BoldMT, Arial;font-weight:700;}.w{fill:#595959;}.x{fill:#dcdcdc;}.y{font-size:10px;}.z{clip-path:url(#e);}.aa{fill:url(#f);}.ab,.ac{font-size:8px;}.ab,.ac,.ae,.ag{font-family:ArialMT, Arial;}.ac{fill:#b7b7b7;}.ad{fill:#4d95f8;}.ae{font-size:9px;}.ag{font-size:20px;}</style><radialGradient id="a" cx="148.189" cy="599.433" r="147.297" gradientTransform="translate(-143.471 -608.218) scale(2.015 2.015)" gradientUnits="userSpaceOnUse"><stop offset="0" stop-color="#a3a5a5"/><stop offset="0.651" stop-color="#babcbd"/><stop offset="0.969" stop-color="#d1d3d4"/><stop offset="1" stop-color="#d1d3d4"/></radialGradient><radialGradient id="b" cx="338.349" cy="43.594" r="3.981" gradientUnits="userSpaceOnUse"><stop offset="0" stop-color="#2b4492"/><stop offset="0.722" stop-color="#2b4492"/><stop offset="1" stop-color="#2b4492"/></radialGradient><radialGradient id="c" cx="342.408" cy="46.941" r="3.981" xlink:href="#b"/><radialGradient id="d" cx="349.89" cy="37.788" r="3.981" xlink:href="#b"/><clipPath id="e"><rect class="a" width="236" height="428.293"/></clipPath><linearGradient id="f" x1="0.759" y1="0.141" x2="0.133" y2="1.009" gradientUnits="objectBoundingBox"><stop offset="0" stop-color="#a844a1"/><stop offset="0.071" stop-color="#ab429a"/><stop offset="0.172" stop-color="#b43c88"/><stop offset="0.292" stop-color="#c33269"/><stop offset="0.423" stop-color="#d7243f"/><stop offset="0.426" stop-color="#d7243e"/><stop offset="0.799" stop-color="#f9a326"/><stop offset="1" stop-color="#f9dd26"/></linearGradient></defs><g transform="translate(-1900 -243)"><g transform="translate(752 -262)"><g transform="translate(1148 505)"><path class="b" d="M259.162,593.5H49.01a42.219,42.219,0,0,1-42.22-42.22V42.22A42.219,42.219,0,0,1,49.01,0H259.162a42.219,42.219,0,0,1,42.22,42.22V551.281A42.219,42.219,0,0,1,259.162,593.5Z" transform="translate(-3.046 0)"/><path class="c" d="M259.162,593.5H49.01a42.219,42.219,0,0,1-42.22-42.22V42.22A42.219,42.219,0,0,1,49.01,0H259.162a42.219,42.219,0,0,1,42.22,42.22V551.281A42.219,42.219,0,0,1,259.162,593.5Z" transform="translate(-3.046 0)"/><path class="d" d="M259.861,592.416H58.377A40.365,40.365,0,0,1,18.01,552.054V50.917A40.369,40.369,0,0,1,58.377,10.55H259.861a40.369,40.369,0,0,1,40.367,40.367V552.054A40.365,40.365,0,0,1,259.861,592.416Z" transform="translate(-8.079 -4.733)"/><path class="b" d="M262.119,591.816H60.767A37.575,37.575,0,0,1,23.19,554.244V53.967A37.576,37.576,0,0,1,60.767,16.39H262.119A37.576,37.576,0,0,1,299.7,53.967V554.244a37.575,37.575,0,0,1-37.577,37.572Z" transform="translate(-10.403 -7.353)"/><path class="e" d="M3.744,153.613H1.886A1.886,1.886,0,0,1,0,151.721v-19.69a1.89,1.89,0,0,1,1.886-1.891H3.744v23.473Z" transform="translate(0 -58.382)"/><path class="f" d="M3.744,153.367H1.886A1.885,1.885,0,0,1,0,151.481V134.416a1.885,1.885,0,0,1,1.886-1.886H3.744Z" transform="translate(0 -59.454)"/><path class="e" d="M3.744,276.437H1.886A1.885,1.885,0,0,1,0,274.551v-42.22a1.886,1.886,0,0,1,1.886-1.891H3.744Z" transform="translate(0 -103.378)"/><path class="f" d="M3.744,276.185H1.886A1.885,1.885,0,0,1,0,274.3V234.776a1.885,1.885,0,0,1,1.886-1.886H3.744Z" transform="translate(0 -104.477)"/><path class="e" d="M3.744,398.267H1.886A1.89,1.89,0,0,1,0,396.376v-42.22a1.885,1.885,0,0,1,1.886-1.886H3.744Z" transform="translate(0 -158.032)"/><path class="f" d="M3.744,397.954H1.886A1.885,1.885,0,0,1,0,396.068V357.151a1.89,1.89,0,0,1,1.886-1.891H3.744Z" transform="translate(0 -159.373)"/><path class="d" d="M266.715,588.417H66.776A31.764,31.764,0,0,1,35.01,556.651v-503A31.767,31.767,0,0,1,66.776,21.89h199.94a31.771,31.771,0,0,1,31.766,31.766v503A31.767,31.767,0,0,1,266.715,588.417Z" transform="translate(-15.706 -9.82)"/><path class="g" d="M267.084,587.856H70.938A30.881,30.881,0,0,1,40.06,556.972V58.278A30.876,30.876,0,0,1,70.938,27.4H267.084a30.876,30.876,0,0,1,30.878,30.878V556.972A30.881,30.881,0,0,1,267.084,587.856Z" transform="translate(-17.971 -12.292)"/><path class="h" d="M269.821,587.234H74.535A27.415,27.415,0,0,1,47.12,559.819V60.805A27.415,27.415,0,0,1,74.535,33.39H269.821a27.415,27.415,0,0,1,27.415,27.415V559.819A27.415,27.415,0,0,1,269.821,587.234Z" transform="translate(-21.138 -14.979)"/><g transform="translate(25.991 18.387)"><path class="i" d="M40.011-3.685,222.6-3.677s6.47.2,9.642,1.668S240.8.8,245.356,8.461c5.875,9.87,4.8,20.109,4.71,37.985s.163,29.938.163,29.938H.017S-.159,53.771.017,36.2c-.067-7.3-.71-14.722.977-20.055C7.758.257,18.531-3.407,27.253-3.692,32.251-3.719,40.011-3.685,40.011-3.685Z" transform="translate(0.061 3.72)"/><g transform="translate(8.219 25.759)"><path class="j" d="M33.236,63.667a1.211,1.211,0,0,1,.867.367l.7.7a3.253,3.253,0,0,0,2.3.934h.233a2.006,2.006,0,0,1,2,2v6.669a1.866,1.866,0,0,1-.6,1.4,2,2,0,0,1-1.4.6H26.667a2.006,2.006,0,0,1-2-2V67.668a1.866,1.866,0,0,1,.6-1.4,2,2,0,0,1,1.4-.6h.267a3.312,3.312,0,0,0,2.3-.934l.7-.7a1.211,1.211,0,0,1,.867-.367h2.434m0-.667H30.8a1.869,1.869,0,0,0-1.334.567l-.7.7a2.609,2.609,0,0,1-1.8.767h-.3A2.675,2.675,0,0,0,24,67.7V74.37a2.675,2.675,0,0,0,2.667,2.667h10.67A2.675,2.675,0,0,0,40,74.37V67.7a2.675,2.675,0,0,0-2.667-2.667h-.267a2.472,2.472,0,0,1-1.8-.767l-.7-.7A1.869,1.869,0,0,0,33.236,63Z" transform="translate(-24 -63)"/><path class="j" d="M40,74.667A3.334,3.334,0,1,1,36.667,78,3.344,3.344,0,0,1,40,74.667M40,74a4,4,0,1,0,4,4,4.013,4.013,0,0,0-4-4Z" transform="translate(-31.999 -70.332)"/></g><g transform="translate(226.884 26.724)"><path class="j" d="M687.3,79.371h-.067a.5.5,0,0,1-.4-.367l-1.367-7.469-5.5-4.7a.461.461,0,0,1-.133-.534.43.43,0,0,1,.433-.3H694.34a.463.463,0,0,1,.4.233.4.4,0,0,1,0,.467L687.7,79.137A.424.424,0,0,1,687.3,79.371ZM681.569,66.9l4.668,3.968a.459.459,0,0,1,.167.267l1.167,6.369,6-10.6Z" transform="translate(-679.803 -65.965)"/><path class="j" d="M697.264,71.632a.462.462,0,0,1-.4-.233.44.44,0,0,1,.167-.634l8.436-4.8a.463.463,0,0,1,.467.8L697.5,71.6A.651.651,0,0,1,697.264,71.632Z" transform="translate(-691.13 -65.896)"/></g></g><path class="g" d="M203.686,27.4H117.36s13.487.27,14.3,5.393.54,16.459,13.757,16.459H261.962c13.217,0,12.947-11.331,13.757-16.459s14.3-5.393,14.3-5.393Z" transform="translate(-52.649 -12.292)"/><g transform="translate(125.447 18.411)"><path class="k" d="M275.8,43.37H229.87a2.36,2.36,0,1,1,0-4.72H275.8a2.36,2.36,0,0,1,0,4.72Z" transform="translate(-227.51 -35.75)"/><g transform="translate(60.934)"><path class="l" d="M348.541,38.65a5.26,5.26,0,1,1-5.26-5.26A5.259,5.259,0,0,1,348.541,38.65Z" transform="translate(-338.02 -33.39)"/><path class="m" d="M348.3,39.7a3.978,3.978,0,1,1-3.975-3.976A3.978,3.978,0,0,1,348.3,39.7Z" transform="translate(-339.061 -34.435)"/><path class="n" d="M348.3,39.7a3.978,3.978,0,1,1-3.975-3.976A3.978,3.978,0,0,1,348.3,39.7Z" transform="translate(-339.061 -34.435)"/><path class="o" d="M348.3,39.7a3.978,3.978,0,1,1-3.975-3.976A3.978,3.978,0,0,1,348.3,39.7Z" transform="translate(-339.061 -34.435)"/><path class="p" d="M343.04,39.269a.807.807,0,0,1-.673-1.263,3.505,3.505,0,0,1,5.536-.347.809.809,0,0,1-1.213,1.07,1.906,1.906,0,0,0-1.538-.64,1.937,1.937,0,0,0-1.445.827A.81.81,0,0,1,343.04,39.269Z" transform="translate(-339.908 -34.77)"/><path class="q" d="M348.3,39.7a3.978,3.978,0,1,1-3.975-3.976A3.978,3.978,0,0,1,348.3,39.7Z" transform="translate(-339.061 -34.435)"/></g></g><g transform="translate(3.744 44.867)"><path class="r" d="M14.614,977.518H6.79V974.48h7.824Z" transform="translate(-6.79 -482.027)"/><path class="r" d="M14.614,84.4H6.79V81.37h7.824Z" transform="translate(-6.79 -81.37)"/></g><g transform="translate(290.511 44.867)"><path class="r" d="M534.694,977.518H526.87V974.48h7.824Z" transform="translate(-526.87 -482.027)"/><path class="r" d="M534.694,84.4H526.87V81.37h7.824Z" transform="translate(-526.87 -81.37)"/></g></g><g transform="translate(1173.943 1038.37)"><path class="i" d="M-.186-.05l250.2-.077V7.426s-.009.117-.075.734c.441,9.741-2.067,18.132-11.143,25.02-9.8,7.921-22.335,5.837-34.467,5.806-9.1-.023-174.339,0-174.339,0s-12.824.707-21.581-7.958S-.148,14.4-.178,9.681C-.239-.078-.186-.05-.186-.05Z" transform="translate(0.207 0.331)"/><path class="j" d="M217.2,1281.671l-3.134-3.134a6.468,6.468,0,1,0-.467.467l3.134,3.134ZM209.335,1280a5.668,5.668,0,1,1,5.668-5.668A5.664,5.664,0,0,1,209.335,1280Z" transform="translate(-135.049 -1255.799)"/><path class="j" d="M14.038,13.671v-.934A2.761,2.761,0,0,0,11.27,9.97H3.434A2.761,2.761,0,0,0,.667,12.737v.934A.315.315,0,0,1,.333,14,.315.315,0,0,1,0,13.671v-.934A3.429,3.429,0,0,1,3.434,9.3H11.27A3.429,3.429,0,0,1,14.7,12.737v.934a.333.333,0,0,1-.667,0ZM3.368,4a4,4,0,1,1,4,4A4.013,4.013,0,0,1,3.368,4Zm.667,0A3.334,3.334,0,1,0,7.369.667,3.344,3.344,0,0,0,4.034,4Z" transform="translate(217.895 12.267)"/><path class="j" d="M513.733,1270.867a3.154,3.154,0,0,1,1.7.5,3.956,3.956,0,0,1,1.267,5.2c-.7,1.3-3.6,3.734-6.069,5.6a.164.164,0,0,1-.1.033.122.122,0,0,1-.1-.033c-2.467-1.834-5.368-4.3-6.068-5.6a3.99,3.99,0,0,1,1.267-5.2,3.154,3.154,0,0,1,1.7-.5,3.262,3.262,0,0,1,2.667,1.4l.534.734.534-.734a3.351,3.351,0,0,1,2.667-1.4m0-.667a4.061,4.061,0,0,0-3.234,1.667,4.061,4.061,0,0,0-3.234-1.667,4,4,0,0,0-2.067.6,4.684,4.684,0,0,0-1.5,6.1c.934,1.734,4.868,4.768,6.268,5.8a.992.992,0,0,0,.5.167.9.9,0,0,0,.5-.167c1.434-1.067,5.335-4.068,6.268-5.8a4.684,4.684,0,0,0-1.5-6.1,3.608,3.608,0,0,0-2-.6Z" transform="translate(-335.116 -1257.266)"/><ellipse class="s" cx="1.367" cy="1.367" rx="1.367" ry="1.367" transform="translate(174.016 28.839)"/><path class="j" d="M5.035,16A5.052,5.052,0,0,1,0,10.97V5.035A5.052,5.052,0,0,1,5.035,0H10.97A5.052,5.052,0,0,1,16,5.035V10.97A5.051,5.051,0,0,1,10.97,16ZM.667,5.035V10.97a4.383,4.383,0,0,0,4.368,4.368H10.97a4.383,4.383,0,0,0,4.368-4.368V5.035A4.383,4.383,0,0,0,10.97.667H5.035A4.383,4.383,0,0,0,.667,5.035Zm7,6.635V8.336H4.334V7.669H7.669V4.334h.667V7.669H11.67v.667H8.336V11.67Z" transform="translate(117.299 11.2)"/><path class="j" d="M60.335,1268.7a1.059,1.059,0,0,0-.667.267l-6.168,6.2a1.715,1.715,0,0,0-.5,1.2v4.968a1,1,0,0,0,1,1h4a1,1,0,0,0,1-1v-3a1.334,1.334,0,1,1,2.667,0v3a1,1,0,0,0,1,1h4a1,1,0,0,0,1-1v-4.968a1.692,1.692,0,0,0-.5-1.2L61,1269a.943.943,0,0,0-.667-.3" transform="translate(-35.064 -1256.266)"/><path class="t" d="M0,.007,249.963-.025V.358L0,.34Z" transform="translate(0.265 0.025)"/></g><g transform="translate(1193.988 530.549)"><path class="u" d="M706.838,14.668a1.048,1.048,0,0,1-1,1.167V13.5A1.048,1.048,0,0,1,706.838,14.668ZM705.5,12.5v4.335h0a.983.983,0,0,1-1,1h-13a.982.982,0,0,1-1-1h0V12.5a.982.982,0,0,1,1-1h13A.983.983,0,0,1,705.5,12.5Zm-14-.667a.669.669,0,0,0-.667.667v4.335a.669.669,0,0,0,.667.667h13a.669.669,0,0,0,.667-.667V12.5a.669.669,0,0,0-.667-.667Zm-.333.667v4.335a.315.315,0,0,0,.333.333h13a.315.315,0,0,0,.333-.333V12.5a.315.315,0,0,0-.333-.333h-13A.315.315,0,0,0,691.167,12.5Z" transform="translate(-492.821 -11.352)"/><text class="v" transform="translate(0 6)"><tspan x="0" y="0">11:11</tspan></text><path d="M220.3,11.5a6.242,6.242,0,0,1,4,1.567l-.534.6a5.379,5.379,0,0,0-6.935,0l-.533-.6A6.311,6.311,0,0,1,220.3,11.5Zm0,2.067a4.088,4.088,0,0,1,2.667,1l-.567.634a3.4,3.4,0,0,0-2.067-.734,3.259,3.259,0,0,0-2.067.734l-.567-.634A4.027,4.027,0,0,1,220.3,13.567Zm0,2.034a2.051,2.051,0,0,1,1.267.467L220.3,17.5l-1.267-1.434A2.051,2.051,0,0,1,220.3,15.6Z" transform="translate(-33.851 -11.352)"/></g></g><g transform="translate(1068 -20.477)"><rect class="h" width="246.688" height="380.372" transform="translate(859.928 363.071)"/><g transform="translate(857.978 362.056)"><rect class="w" width="124.109" height="1.001"/></g><g transform="translate(985.087 362.056)"><rect class="x" width="126.028" height="1.001" transform="translate(-3)"/></g><text class="y" transform="translate(958.921 318.019)"><tspan x="0" y="0">Подписки</tspan></text><text class="y" transform="translate(908.961 350.05)"><tspan x="0" y="0">Люди</tspan></text><text class="y" transform="translate(1029.865 350.05)"><tspan x="0" y="0">Хэштеги</tspan></text></g><g class="z" transform="translate(1932.991 348.376)"><g transform="translate(-794 -401.774)"><g transform="translate(794 401.774)"><circle class="j" cx="18.637" cy="18.637" r="18.637" transform="translate(3.509 3.509)"/><path class="aa" d="M369.647,196.293a22.147,22.147,0,1,1,22.147-22.147A22.19,22.19,0,0,1,369.647,196.293Zm0-42.555a20.409,20.409,0,1,0,20.409,20.409A20.445,20.445,0,0,0,369.647,153.738Z" transform="translate(-347.5 -152)"/><text class="ab" transform="translate(51.965 18.438)"><tspan x="0" y="0">Happy_partner</tspan></text><text class="ac" transform="translate(51.965 30.927)"><tspan x="0" y="0">Happy Рartner</tspan></text></g><rect class="ad" width="82" height="21" rx="5" transform="translate(948 413)"/><text class="ae" transform="translate(962 427)"><tspan x="0" y="0">Подписаться</tspan></text></g><g transform="translate(-794 -336.774)"><g transform="translate(794 401.774)"><circle class="j" cx="18.637" cy="18.637" r="18.637" transform="translate(3.509 3.509)"/><path class="aa" d="M369.647,196.293a22.147,22.147,0,1,1,22.147-22.147A22.19,22.19,0,0,1,369.647,196.293Zm0-42.555a20.409,20.409,0,1,0,20.409,20.409A20.445,20.445,0,0,0,369.647,153.738Z" transform="translate(-347.5 -152)"/><text class="ab" transform="translate(51.965 18.438)"><tspan x="0" y="0">Happy_partner</tspan></text><text class="ac" transform="translate(51.965 30.927)"><tspan x="0" y="0">Happy Рartner</tspan></text></g><rect class="ad" width="82" height="21" rx="5" transform="translate(948 413)"/><text class="ae" transform="translate(962 427)"><tspan x="0" y="0">Подписаться</tspan></text></g><g transform="translate(-794 -271.774)"><g transform="translate(794 401.774)"><circle class="j" cx="18.637" cy="18.637" r="18.637" transform="translate(3.509 3.509)"/><path class="aa" d="M369.647,196.293a22.147,22.147,0,1,1,22.147-22.147A22.19,22.19,0,0,1,369.647,196.293Zm0-42.555a20.409,20.409,0,1,0,20.409,20.409A20.445,20.445,0,0,0,369.647,153.738Z" transform="translate(-347.5 -152)"/><text class="ab" transform="translate(51.965 18.438)"><tspan x="0" y="0">Happy_partner</tspan></text><text class="ac" transform="translate(51.965 30.927)"><tspan x="0" y="0">Happy Рartner</tspan></text></g><rect class="ad" width="82" height="21" rx="5" transform="translate(948 413)"/><text class="ae" transform="translate(962 427)"><tspan x="0" y="0">Подписаться</tspan></text></g><g transform="translate(-794 -206.774)"><g transform="translate(794 401.774)"><circle class="j" cx="18.637" cy="18.637" r="18.637" transform="translate(3.509 3.509)"/><path class="aa" d="M369.647,196.293a22.147,22.147,0,1,1,22.147-22.147A22.19,22.19,0,0,1,369.647,196.293Zm0-42.555a20.409,20.409,0,1,0,20.409,20.409A20.445,20.445,0,0,0,369.647,153.738Z" transform="translate(-347.5 -152)"/><text class="ab" transform="translate(51.965 18.438)"><tspan x="0" y="0">Happy_partner</tspan></text><text class="ac" transform="translate(51.965 30.927)"><tspan x="0" y="0">Happy Рartner</tspan></text></g><rect class="ad" width="82" height="21" rx="5" transform="translate(948 413)"/><text class="ae" transform="translate(962 427)"><tspan x="0" y="0">Подписаться</tspan></text></g><g transform="translate(-794 -141.774)"><g transform="translate(794 401.774)"><circle class="j" cx="18.637" cy="18.637" r="18.637" transform="translate(3.509 3.509)"/><path class="aa" d="M369.647,196.293a22.147,22.147,0,1,1,22.147-22.147A22.19,22.19,0,0,1,369.647,196.293Zm0-42.555a20.409,20.409,0,1,0,20.409,20.409A20.445,20.445,0,0,0,369.647,153.738Z" transform="translate(-347.5 -152)"/><text class="ab" transform="translate(51.965 18.438)"><tspan x="0" y="0">Happy_partner</tspan></text><text class="ac" transform="translate(51.965 30.927)"><tspan x="0" y="0">Happy Рartner</tspan></text></g><rect class="ad" width="82" height="21" rx="5" transform="translate(948 413)"/><text class="ae" transform="translate(962 427)"><tspan x="0" y="0">Подписаться</tspan></text></g><g transform="translate(-794 -76.774)"><g transform="translate(794 401.774)"><circle class="j" cx="18.637" cy="18.637" r="18.637" transform="translate(3.509 3.509)"/><path class="aa" d="M369.647,196.293a22.147,22.147,0,1,1,22.147-22.147A22.19,22.19,0,0,1,369.647,196.293Zm0-42.555a20.409,20.409,0,1,0,20.409,20.409A20.445,20.445,0,0,0,369.647,153.738Z" transform="translate(-347.5 -152)"/><text class="ab" transform="translate(51.965 18.438)"><tspan x="0" y="0">Happy_partner</tspan></text><text class="ac" transform="translate(51.965 30.927)"><tspan x="0" y="0">Happy Рartner</tspan></text></g><rect class="ad" width="82" height="21" rx="5" transform="translate(948 413)"/><text class="ae" transform="translate(962 427)"><tspan x="0" y="0">Подписаться</tspan></text></g><g transform="translate(-794 -11.774)"><g transform="translate(794 401.774)"><circle class="j" cx="18.637" cy="18.637" r="18.637" transform="translate(3.509 3.509)"/><path class="aa" d="M369.647,196.293a22.147,22.147,0,1,1,22.147-22.147A22.19,22.19,0,0,1,369.647,196.293Zm0-42.555a20.409,20.409,0,1,0,20.409,20.409A20.445,20.445,0,0,0,369.647,153.738Z" transform="translate(-347.5 -152)"/><text class="ab" transform="translate(51.965 18.438)"><tspan x="0" y="0">Happy_partner</tspan></text><text class="ac" transform="translate(51.965 30.927)"><tspan x="0" y="0">Happy Рartner</tspan></text></g><rect class="ad" width="82" height="21" rx="5" transform="translate(948 413)"/><text class="ae" transform="translate(962 427)"><tspan x="0" y="0">Подписаться</tspan></text></g></g><g transform="translate(1899.617 653.353)"><g transform="translate(137.767 63.567)"><g transform="translate(0)"><path class="af" d="M181.1,40H72.471C65.887,40,60.5,45.754,60.5,52.787V84.755c0,7.033,5.387,12.787,11.223,12.787h36.062c7.557,0,12.495,12.707,16.834,12.707,4.489,0,10.175-12.707,16.909-12.707H181.1c6.584,0,11.971-5.754,11.971-12.787V52.787C193.072,45.754,187.685,40,181.1,40Z" transform="translate(-60.5 -40)"/></g><g transform="translate(15.16 16.856)"><path class="h" d="M168.936,62.4a6.247,6.247,0,1,0,5.836,6.234,6.052,6.052,0,0,0-5.836-6.234Z" transform="translate(-158.237 -62.4)"/><path class="h" d="M157.124,87.873a.513.513,0,0,1-.524-.479V85.955c0-2.957,1.5-5.355,4.265-5.355h12.869C176.5,80.6,178,83,178,85.955v1.359a.446.446,0,0,1-.449.48H157.124Z" transform="translate(-156.6 -66.055)"/></g><text class="ag" transform="translate(47.361 34.815)"><tspan x="0" y="0">200 000</tspan></text></g></g></g></svg>