<?xml version="1.0" encoding="UTF-8"?>
<!DOCTYPE svg PUBLIC "-//W3C//DTD SVG 1.1//EN" "http://www.w3.org/Graphics/SVG/1.1/DTD/svg11.dtd">
<!-- Creator: CorelDRAW 2018 (64-Bit) -->
<svg xmlns="http://www.w3.org/2000/svg" xml:space="preserve" width="982px" height="206px" version="1.1" style="shape-rendering:geometricPrecision; text-rendering:geometricPrecision; image-rendering:optimizeQuality; fill-rule:evenodd; clip-rule:evenodd"
viewBox="0 0 1048.13 219.61"
 xmlns:xlink="http://www.w3.org/1999/xlink">
 <defs>
  <style type="text/css">
   <![CDATA[
    .fil9 {fill:none}
    .fil0 {fill:#3B3B3B;fill-rule:nonzero}
    .fil5 {fill:#608754;fill-rule:nonzero}
    .fil7 {fill:#67442A;fill-rule:nonzero}
    .fil2 {fill:#737373;fill-rule:nonzero}
    .fil8 {fill:#774F33;fill-rule:nonzero}
    .fil6 {fill:#7BA166;fill-rule:nonzero}
    .fil3 {fill:#8A8A8A;fill-rule:nonzero}
    .fil1 {fill:#B3B3B3;fill-rule:nonzero}
    .fil4 {fill:#CCCCCC;fill-rule:nonzero}
   ]]>
  </style>
 </defs>
 <g id="Слой_x0020_1">
  <metadata id="CorelCorpID_0Corel-Layer"/>
  <g id="_2276975084512">
   <polygon class="fil0" points="971.33,190.62 890.2,190.62 890.2,63.63 971.33,63.63 "/>
   <g>
    <polygon class="fil1" points="903.48,89.76 919.74,89.76 919.74,80.47 903.48,80.47 "/>
    <polygon class="fil1" points="922.64,89.76 938.89,89.76 938.89,80.47 922.64,80.47 "/>
    <polygon class="fil1" points="941.79,80.47 941.79,89.76 958.05,89.76 958.05,80.47 "/>
    <polygon class="fil1" points="903.48,106.56 919.74,106.56 919.74,97.28 903.48,97.28 "/>
    <polygon class="fil1" points="922.64,106.56 938.89,106.56 938.89,97.28 922.64,97.28 "/>
    <polygon class="fil1" points="941.79,106.56 958.05,106.56 958.05,97.28 941.79,97.28 "/>
    <polygon class="fil1" points="903.48,123.37 919.74,123.37 919.74,114.08 903.48,114.08 "/>
    <polygon class="fil1" points="922.64,123.37 938.89,123.37 938.89,114.08 922.64,114.08 "/>
    <polygon class="fil1" points="941.79,123.37 958.05,123.37 958.05,114.08 941.79,114.08 "/>
    <polygon class="fil1" points="903.48,140.17 919.74,140.17 919.74,130.89 903.48,130.89 "/>
    <polygon class="fil1" points="922.64,140.17 938.89,140.17 938.89,130.89 922.64,130.89 "/>
    <polygon class="fil1" points="941.79,140.17 958.05,140.17 958.05,130.89 941.79,130.89 "/>
    <polygon class="fil1" points="903.48,156.98 919.74,156.98 919.74,147.69 903.48,147.69 "/>
    <polygon class="fil1" points="922.64,156.98 938.89,156.98 938.89,147.69 922.64,147.69 "/>
    <polygon class="fil1" points="941.79,156.98 958.05,156.98 958.05,147.69 941.79,147.69 "/>
    <polygon class="fil1" points="903.48,173.78 919.74,173.78 919.74,164.5 903.48,164.5 "/>
    <polygon class="fil1" points="922.64,173.78 938.89,173.78 938.89,164.5 922.64,164.5 "/>
    <polygon class="fil1" points="941.79,173.78 958.05,173.78 958.05,164.5 941.79,164.5 "/>
   </g>
   <polygon class="fil2" points="63.49,42.31 63.49,198.38 144.1,198.38 144.1,42.31 "/>
   <polygon class="fil1" points="73.81,60.76 73.81,65.71 131.75,65.71 131.75,60.76 "/>
   <polygon class="fil1" points="73.81,82.44 131.75,82.44 131.75,77.48 73.81,77.48 "/>
   <polygon class="fil1" points="73.81,99.17 131.75,99.17 131.75,94.22 73.81,94.22 "/>
   <polygon class="fil1" points="73.81,115.9 131.75,115.9 131.75,110.95 73.81,110.95 "/>
   <polygon class="fil1" points="73.81,132.64 131.75,132.64 131.75,127.68 73.81,127.68 "/>
   <polygon class="fil1" points="73.81,149.36 131.75,149.36 131.75,144.41 73.81,144.41 "/>
   <polygon class="fil1" points="73.81,166.1 131.75,166.1 131.75,161.14 73.81,161.14 "/>
   <polygon class="fil1" points="73.81,182.83 131.75,182.83 131.75,177.87 73.81,177.87 "/>
   <polygon class="fil3" points="705.52,198.63 598.63,198.63 598.63,46.52 705.52,46.52 "/>
   <g>
    <polygon class="fil1" points="616.13,73.84 637.55,73.84 637.55,62.42 616.13,62.42 "/>
    <polygon class="fil1" points="641.37,73.84 662.79,73.84 662.79,62.42 641.37,62.42 "/>
    <polygon class="fil1" points="666.6,62.42 666.6,73.84 688.02,73.84 688.02,62.42 "/>
    <polygon class="fil1" points="616.13,94.51 637.55,94.51 637.55,83.09 616.13,83.09 "/>
    <polygon class="fil1" points="641.37,94.51 662.79,94.51 662.79,83.09 641.37,83.09 "/>
    <polygon class="fil1" points="666.6,94.51 688.02,94.51 688.02,83.09 666.6,83.09 "/>
    <polygon class="fil1" points="616.13,115.19 637.55,115.19 637.55,103.77 616.13,103.77 "/>
    <polygon class="fil1" points="641.37,115.19 662.79,115.19 662.79,103.77 641.37,103.77 "/>
    <polygon class="fil1" points="666.6,115.19 688.02,115.19 688.02,103.77 666.6,103.77 "/>
    <polygon class="fil1" points="616.13,135.86 637.55,135.86 637.55,124.44 616.13,124.44 "/>
    <polygon class="fil1" points="641.37,135.86 662.79,135.86 662.79,124.44 641.37,124.44 "/>
    <polygon class="fil1" points="666.6,135.86 688.02,135.86 688.02,124.44 666.6,124.44 "/>
    <polygon class="fil1" points="616.13,156.54 637.55,156.54 637.55,145.11 616.13,145.11 "/>
    <polygon class="fil1" points="641.37,156.54 662.79,156.54 662.79,145.11 641.37,145.11 "/>
    <polygon class="fil1" points="666.6,156.54 688.02,156.54 688.02,145.11 666.6,145.11 "/>
    <polygon class="fil1" points="616.13,177.21 637.55,177.21 637.55,165.79 616.13,165.79 "/>
    <polygon class="fil1" points="641.37,177.21 662.79,177.21 662.79,165.79 641.37,165.79 "/>
    <polygon class="fil1" points="666.6,177.21 688.02,177.21 688.02,165.79 666.6,165.79 "/>
   </g>
   <polygon class="fil0" points="815.32,52.31 815.32,42.44 802.24,42.44 802.24,18.65 783.66,18.65 783.66,0 777.11,0 777.11,18.65 758.53,18.65 758.53,42.44 745.45,42.44 745.45,52.31 758.53,52.31 758.53,62.69 745.45,62.69 745.45,76.4 774.04,76.4 774.04,86.78 745.45,86.78 745.45,100.49 774.04,100.49 774.04,110.86 745.45,110.86 745.45,124.57 774.04,124.57 774.04,134.95 745.45,134.95 745.45,148.66 774.04,148.66 774.04,159.04 745.45,159.04 745.45,172.75 774.04,172.75 774.04,183.13 745.45,183.13 745.45,190.53 815.32,190.53 815.32,183.13 786.73,183.13 786.73,172.75 815.32,172.75 815.32,159.04 786.73,159.04 786.73,148.66 815.32,148.66 815.32,134.95 786.73,134.95 786.73,124.57 815.32,124.57 815.32,110.86 786.73,110.86 786.73,100.49 815.32,100.49 815.32,86.78 786.73,86.78 786.73,76.4 815.32,76.4 815.32,62.69 802.24,62.69 802.24,52.31 "/>
   <g>
    <polygon class="fil1" points="774.04,52.35 745.45,52.35 745.45,62.72 774.04,62.72 "/>
    <polygon class="fil1" points="786.73,52.35 786.73,62.72 815.32,62.72 815.32,52.35 "/>
    <polygon class="fil1" points="774.04,76.44 745.45,76.44 745.45,86.81 774.04,86.81 "/>
    <polygon class="fil1" points="786.73,86.81 815.32,86.81 815.32,76.44 786.73,76.44 "/>
    <polygon class="fil1" points="774.04,100.52 745.45,100.52 745.45,110.9 774.04,110.9 "/>
    <polygon class="fil1" points="786.73,110.9 815.32,110.9 815.32,100.52 786.73,100.52 "/>
    <polygon class="fil1" points="774.04,124.61 745.45,124.61 745.45,134.99 774.04,134.99 "/>
    <polygon class="fil1" points="786.73,134.99 815.32,134.99 815.32,124.61 786.73,124.61 "/>
    <polygon class="fil1" points="774.04,148.7 745.45,148.7 745.45,159.08 774.04,159.08 "/>
    <polygon class="fil1" points="786.73,159.08 815.32,159.08 815.32,148.7 786.73,148.7 "/>
    <polygon class="fil1" points="743.59,183.13 773.86,183.13 773.86,172.75 743.59,172.75 "/>
    <polygon class="fil1" points="786.73,183.6 818.19,183.6 818.19,172.75 786.73,172.75 "/>
   </g>
   <polygon class="fil3" points="472.57,0 472.57,198.47 575.49,198.47 575.49,0 "/>
   <polygon class="fil1" points="485.75,21.72 485.75,28.07 559.73,28.07 559.73,21.72 "/>
   <polygon class="fil1" points="485.75,49.5 559.73,49.5 559.73,43.15 485.75,43.15 "/>
   <polygon class="fil1" points="485.75,70.92 559.73,70.92 559.73,64.57 485.75,64.57 "/>
   <polygon class="fil1" points="485.75,92.35 559.73,92.35 559.73,86 485.75,86 "/>
   <polygon class="fil1" points="485.75,113.78 559.73,113.78 559.73,107.43 485.75,107.43 "/>
   <polygon class="fil1" points="485.75,135.2 559.73,135.2 559.73,128.85 485.75,128.85 "/>
   <polygon class="fil1" points="485.75,156.63 559.73,156.63 559.73,150.28 485.75,150.28 "/>
   <polygon class="fil1" points="485.75,178.05 559.73,178.05 559.73,171.7 485.75,171.7 "/>
   <polygon class="fil0" points="240.16,0.02 142.31,0.02 142.31,190.62 240.16,190.62 "/>
   <polygon class="fil1" points="152.2,10.43 152.2,12.5 230.27,12.5 230.27,10.43 "/>
   <polygon class="fil1" points="152.2,19.79 230.27,19.79 230.27,17.72 152.2,17.72 "/>
   <polygon class="fil1" points="152.2,27.08 230.27,27.08 230.27,25.01 152.2,25.01 "/>
   <polygon class="fil1" points="152.2,34.38 230.27,34.38 230.27,32.31 152.2,32.31 "/>
   <polygon class="fil1" points="152.2,41.67 230.27,41.67 230.27,39.6 152.2,39.6 "/>
   <polygon class="fil1" points="152.2,48.96 230.27,48.96 230.27,46.89 152.2,46.89 "/>
   <polygon class="fil1" points="152.2,56.25 230.27,56.25 230.27,54.18 152.2,54.18 "/>
   <polygon class="fil1" points="152.2,63.54 230.27,63.54 230.27,61.47 152.2,61.47 "/>
   <polygon class="fil1" points="152.2,70.83 230.27,70.83 230.27,68.76 152.2,68.76 "/>
   <polygon class="fil1" points="152.2,78.13 230.27,78.13 230.27,76.06 152.2,76.06 "/>
   <polygon class="fil1" points="152.2,85.42 230.27,85.42 230.27,83.35 152.2,83.35 "/>
   <polygon class="fil1" points="152.2,92.71 230.27,92.71 230.27,90.64 152.2,90.64 "/>
   <polygon class="fil1" points="152.2,100 230.27,100 230.27,97.93 152.2,97.93 "/>
   <polygon class="fil1" points="152.2,107.29 230.27,107.29 230.27,105.23 152.2,105.23 "/>
   <polygon class="fil1" points="152.2,114.59 230.27,114.59 230.27,112.52 152.2,112.52 "/>
   <polygon class="fil1" points="152.2,121.88 230.27,121.88 230.27,119.81 152.2,119.81 "/>
   <polygon class="fil1" points="152.2,129.17 230.27,129.17 230.27,127.1 152.2,127.1 "/>
   <polygon class="fil1" points="152.2,136.46 230.27,136.46 230.27,134.39 152.2,134.39 "/>
   <polygon class="fil1" points="152.2,143.75 230.27,143.75 230.27,141.68 152.2,141.68 "/>
   <polygon class="fil1" points="152.2,151.05 230.27,151.05 230.27,148.98 152.2,148.98 "/>
   <polygon class="fil1" points="152.2,158.34 230.27,158.34 230.27,156.27 152.2,156.27 "/>
   <polygon class="fil1" points="152.2,165.63 230.27,165.63 230.27,163.56 152.2,163.56 "/>
   <polygon class="fil1" points="152.2,172.92 230.27,172.92 230.27,170.85 152.2,170.85 "/>
   <polygon class="fil1" points="152.2,180.21 230.27,180.21 230.27,178.14 152.2,178.14 "/>
   <polygon class="fil3" points="370.82,30.19 370.82,20.1 351.53,6.86 332.24,20.1 332.24,30.19 316.76,30.19 316.76,198.51 386.3,198.51 386.3,30.19 "/>
   <g>
    <polygon class="fil1" points="348.46,27.57 341.53,27.57 341.53,40.21 348.46,40.21 "/>
    <polygon class="fil1" points="354.59,40.21 361.53,40.21 361.53,27.57 354.59,27.57 "/>
    <polygon class="fil1" points="328.57,60.65 335.51,60.65 335.51,48.01 328.57,48.01 "/>
    <polygon class="fil1" points="341.64,60.65 348.57,60.65 348.57,48.01 341.64,48.01 "/>
    <polygon class="fil1" points="354.48,60.65 361.42,60.65 361.42,48.01 354.48,48.01 "/>
    <polygon class="fil1" points="367.55,48.01 367.55,60.65 374.48,60.65 374.48,48.01 "/>
    <polygon class="fil1" points="328.57,78.05 335.51,78.05 335.51,65.41 328.57,65.41 "/>
    <polygon class="fil1" points="341.64,78.05 348.57,78.05 348.57,65.41 341.64,65.41 "/>
    <polygon class="fil1" points="354.48,78.05 361.42,78.05 361.42,65.41 354.48,65.41 "/>
    <polygon class="fil1" points="367.55,78.05 374.48,78.05 374.48,65.41 367.55,65.41 "/>
    <polygon class="fil1" points="328.57,95.45 335.51,95.45 335.51,82.82 328.57,82.82 "/>
    <polygon class="fil1" points="341.64,95.45 348.57,95.45 348.57,82.82 341.64,82.82 "/>
    <polygon class="fil1" points="354.48,95.45 361.42,95.45 361.42,82.82 354.48,82.82 "/>
    <polygon class="fil1" points="367.55,95.45 374.48,95.45 374.48,82.82 367.55,82.82 "/>
    <polygon class="fil1" points="328.57,112.86 335.51,112.86 335.51,100.22 328.57,100.22 "/>
    <polygon class="fil1" points="341.64,112.86 348.57,112.86 348.57,100.22 341.64,100.22 "/>
    <polygon class="fil1" points="354.48,112.86 361.42,112.86 361.42,100.22 354.48,100.22 "/>
    <polygon class="fil1" points="367.55,112.86 374.48,112.86 374.48,100.22 367.55,100.22 "/>
    <polygon class="fil1" points="328.57,130.26 335.51,130.26 335.51,117.62 328.57,117.62 "/>
    <polygon class="fil1" points="341.64,130.26 348.57,130.26 348.57,117.62 341.64,117.62 "/>
    <polygon class="fil1" points="354.48,130.26 361.42,130.26 361.42,117.62 354.48,117.62 "/>
    <polygon class="fil1" points="367.55,130.26 374.48,130.26 374.48,117.62 367.55,117.62 "/>
    <polygon class="fil1" points="328.57,147.66 335.51,147.66 335.51,135.02 328.57,135.02 "/>
    <polygon class="fil1" points="341.64,147.66 348.57,147.66 348.57,135.02 341.64,135.02 "/>
    <polygon class="fil1" points="354.48,147.66 361.42,147.66 361.42,135.02 354.48,135.02 "/>
    <polygon class="fil1" points="367.55,147.66 374.48,147.66 374.48,135.02 367.55,135.02 "/>
    <polygon class="fil1" points="328.57,165.06 335.51,165.06 335.51,152.42 328.57,152.42 "/>
    <polygon class="fil1" points="341.64,165.06 348.57,165.06 348.57,152.42 341.64,152.42 "/>
    <polygon class="fil1" points="354.48,165.06 361.42,165.06 361.42,152.42 354.48,152.42 "/>
    <polygon class="fil1" points="367.55,165.06 374.48,165.06 374.48,152.42 367.55,152.42 "/>
    <polygon class="fil1" points="328.57,182.46 335.51,182.46 335.51,169.82 328.57,169.82 "/>
    <polygon class="fil1" points="341.64,182.46 348.57,182.46 348.57,169.82 341.64,169.82 "/>
    <polygon class="fil1" points="354.48,182.46 361.42,182.46 361.42,169.82 354.48,169.82 "/>
    <polygon class="fil1" points="367.55,182.46 374.48,182.46 374.48,169.82 367.55,169.82 "/>
   </g>
   <polygon class="fil0" points="611.42,55.56 611.42,44.1 605.65,44.1 605.65,33.17 567.45,33.17 567.45,44.1 561.68,44.1 561.68,55.56 555.91,55.56 555.91,206.63 618.62,206.63 618.62,55.56 "/>
   <g>
    <polygon class="fil1" points="564.58,76.95 572.32,76.95 572.32,62.87 564.58,62.87 "/>
    <polygon class="fil1" points="576.65,76.95 584.39,76.95 584.39,62.87 576.65,62.87 "/>
    <polygon class="fil1" points="588.71,76.95 596.45,76.95 596.45,62.87 588.71,62.87 "/>
    <polygon class="fil1" points="600.78,62.87 600.78,76.95 608.52,76.95 608.52,62.87 "/>
    <polygon class="fil1" points="564.58,96.16 572.32,96.16 572.32,82.08 564.58,82.08 "/>
    <polygon class="fil1" points="576.65,96.16 584.39,96.16 584.39,82.08 576.65,82.08 "/>
    <polygon class="fil1" points="588.71,96.16 596.45,96.16 596.45,82.08 588.71,82.08 "/>
    <polygon class="fil1" points="600.78,96.16 608.52,96.16 608.52,82.08 600.78,82.08 "/>
    <polygon class="fil1" points="564.58,115.37 572.32,115.37 572.32,101.29 564.58,101.29 "/>
    <polygon class="fil1" points="576.65,115.37 584.39,115.37 584.39,101.29 576.65,101.29 "/>
    <polygon class="fil1" points="588.71,115.37 596.45,115.37 596.45,101.29 588.71,101.29 "/>
    <polygon class="fil1" points="600.78,115.37 608.52,115.37 608.52,101.29 600.78,101.29 "/>
    <polygon class="fil1" points="564.58,134.57 572.32,134.57 572.32,120.5 564.58,120.5 "/>
    <polygon class="fil1" points="576.65,134.57 584.39,134.57 584.39,120.5 576.65,120.5 "/>
    <polygon class="fil1" points="588.71,134.57 596.45,134.57 596.45,120.5 588.71,120.5 "/>
    <polygon class="fil1" points="600.78,134.57 608.52,134.57 608.52,120.5 600.78,120.5 "/>
   </g>
   <polygon class="fil2" points="1048.13,198.51 970.57,198.51 970.57,120.93 1009.35,77.94 1048.13,120.93 "/>
   <g>
    <path class="fil4" d="M991.81 126.38c0,-2.74 -2.55,-4.97 -5.68,-4.97 -3.14,0 -5.69,2.23 -5.69,4.97 0,0.05 0.01,0.09 0.01,0.13l-0.01 0 0 15.8 11.37 0 0 -15.8 -0.01 0c0,-0.04 0.01,-0.08 0.01,-0.13z"/>
    <path class="fil4" d="M1007.29 126.38c0,-2.74 -2.54,-4.97 -5.68,-4.97 -3.14,0 -5.69,2.23 -5.69,4.97 0,0.05 0.01,0.09 0.01,0.13l-0.01 0 0 15.8 11.37 0 0 -15.8 -0.01 0c0.01,-0.04 0.01,-0.08 0.01,-0.13z"/>
    <path class="fil4" d="M1022.77 126.38c0,-2.74 -2.54,-4.97 -5.68,-4.97 -3.14,0 -5.69,2.23 -5.69,4.97 0,0.05 0.01,0.09 0.01,0.13l-0.01 0 0 15.8 11.38 0 0 -15.8 -0.01 0c0,-0.04 0,-0.08 0,-0.13z"/>
    <path class="fil4" d="M1038.25 126.51c0,-0.04 0,-0.08 0,-0.13 0,-2.74 -2.54,-4.97 -5.68,-4.97 -3.14,0 -5.69,2.23 -5.69,4.97 0,0.05 0.01,0.09 0.01,0.13l-0.01 0 0 15.8 11.38 0 0 -15.8 -0.01 0z"/>
    <path class="fil4" d="M991.81 152.11c0,-2.75 -2.55,-4.98 -5.68,-4.98 -3.14,0 -5.69,2.23 -5.69,4.98 0,0.04 0.01,0.08 0.01,0.12l-0.01 0 0 15.81 11.37 0 0 -15.81 -0.01 0c0,-0.04 0.01,-0.08 0.01,-0.12z"/>
    <path class="fil4" d="M1007.29 152.11c0,-2.75 -2.54,-4.98 -5.68,-4.98 -3.14,0 -5.69,2.23 -5.69,4.98 0,0.04 0.01,0.08 0.01,0.12l-0.01 0 0 15.81 11.37 0 0 -15.81 -0.01 0c0.01,-0.04 0.01,-0.08 0.01,-0.12z"/>
    <path class="fil4" d="M1022.77 152.11c0,-2.75 -2.54,-4.98 -5.68,-4.98 -3.14,0 -5.69,2.23 -5.69,4.98 0,0.04 0.01,0.08 0.01,0.12l-0.01 0 0 15.81 11.38 0 0 -15.81 -0.01 0c0,-0.04 0,-0.08 0,-0.12z"/>
    <path class="fil4" d="M1038.25 152.11c0,-2.75 -2.54,-4.98 -5.68,-4.98 -3.14,0 -5.69,2.23 -5.69,4.98 0,0.04 0.01,0.08 0.01,0.12l-0.01 0 0 15.81 11.38 0 0 -15.81 -0.01 0c0,-0.04 0,-0.08 0,-0.12z"/>
   </g>
   <polygon class="fil0" points="472.63,198.34 375.62,198.34 375.62,50.83 472.63,50.83 "/>
   <g>
    <polygon class="fil1" points="391.5,83.41 410.94,83.41 410.94,75.66 391.5,75.66 "/>
    <polygon class="fil1" points="414.41,83.41 433.85,83.41 433.85,75.66 414.41,75.66 "/>
    <polygon class="fil1" points="437.31,75.66 437.31,83.41 456.75,83.41 456.75,75.66 "/>
    <polygon class="fil1" points="391.5,97.43 410.94,97.43 410.94,89.69 391.5,89.69 "/>
    <polygon class="fil1" points="414.41,97.43 433.85,97.43 433.85,89.69 414.41,89.69 "/>
    <polygon class="fil1" points="437.31,97.43 456.75,97.43 456.75,89.69 437.31,89.69 "/>
    <polygon class="fil1" points="391.5,111.46 410.94,111.46 410.94,103.71 391.5,103.71 "/>
    <polygon class="fil1" points="414.41,111.46 433.85,111.46 433.85,103.71 414.41,103.71 "/>
    <polygon class="fil1" points="437.31,111.46 456.75,111.46 456.75,103.71 437.31,103.71 "/>
    <polygon class="fil1" points="391.5,125.49 410.94,125.49 410.94,117.74 391.5,117.74 "/>
    <polygon class="fil1" points="414.41,125.49 433.85,125.49 433.85,117.74 414.41,117.74 "/>
    <polygon class="fil1" points="437.31,125.49 456.75,125.49 456.75,117.74 437.31,117.74 "/>
    <polygon class="fil1" points="391.5,139.52 410.94,139.52 410.94,131.77 391.5,131.77 "/>
    <polygon class="fil1" points="414.41,139.52 433.85,139.52 433.85,131.77 414.41,131.77 "/>
    <polygon class="fil1" points="437.31,139.52 456.75,139.52 456.75,131.77 437.31,131.77 "/>
    <polygon class="fil1" points="391.5,153.54 410.94,153.54 410.94,145.79 391.5,145.79 "/>
    <polygon class="fil1" points="414.41,153.54 433.85,153.54 433.85,145.79 414.41,145.79 "/>
    <polygon class="fil1" points="437.31,153.54 456.75,153.54 456.75,145.79 437.31,145.79 "/>
   </g>
   <polygon class="fil2" points="748,206.59 685.39,206.59 685.39,130.18 716.69,87.85 748,130.18 "/>
   <polygon class="fil1" points="704.79,150.39 713.14,150.39 713.14,131.92 704.79,131.92 "/>
   <polygon class="fil1" points="717.81,131.92 717.81,150.39 726.16,150.39 726.16,131.92 "/>
   <polygon class="fil1" points="704.79,179.24 713.14,179.24 713.14,160.77 704.79,160.77 "/>
   <polygon class="fil1" points="717.81,179.24 726.16,179.24 726.16,160.77 717.81,160.77 "/>
   <polygon class="fil3" points="61.46,119.11 61.46,107.88 55.11,107.88 55.11,98.09 13.2,98.09 13.2,107.88 6.49,107.88 6.49,119.11 0,119.11 0,206.63 71.93,206.63 71.93,119.11 "/>
   <g>
    <polygon class="fil1" points="12.3,139.74 19.44,139.74 19.44,126.64 12.3,126.64 "/>
    <polygon class="fil1" points="25.76,139.74 32.91,139.74 32.91,126.64 25.76,126.64 "/>
    <polygon class="fil1" points="39.01,139.74 46.16,139.74 46.16,126.64 39.01,126.64 "/>
    <polygon class="fil1" points="52.48,126.64 52.48,139.74 59.63,139.74 59.63,126.64 "/>
    <polygon class="fil1" points="12.3,157.79 19.44,157.79 19.44,144.68 12.3,144.68 "/>
    <polygon class="fil1" points="25.76,157.79 32.91,157.79 32.91,144.68 25.76,144.68 "/>
    <polygon class="fil1" points="39.01,157.79 46.16,157.79 46.16,144.68 39.01,144.68 "/>
    <polygon class="fil1" points="52.48,157.79 59.63,157.79 59.63,144.68 52.48,144.68 "/>
    <polygon class="fil1" points="12.3,175.83 19.44,175.83 19.44,162.72 12.3,162.72 "/>
    <polygon class="fil1" points="25.76,175.83 32.91,175.83 32.91,162.72 25.76,162.72 "/>
    <polygon class="fil1" points="39.01,175.83 46.16,175.83 46.16,162.72 39.01,162.72 "/>
    <polygon class="fil1" points="52.48,175.83 59.63,175.83 59.63,162.72 52.48,162.72 "/>
   </g>
   <polygon class="fil2" points="897.36,198.29 811.22,198.29 811.22,74.66 854.29,6.16 897.36,74.66 "/>
   <g>
    <path class="fil1" d="M839.08 73.5c-5.73,0 -10.38,4.65 -10.38,10.38 0,5.74 4.65,10.39 10.38,10.39 5.74,0 10.39,-4.65 10.39,-10.39 0,-5.73 -4.65,-10.38 -10.39,-10.38z"/>
    <path class="fil1" d="M869.5 94.27c5.73,0 10.38,-4.65 10.38,-10.39 0,-5.73 -4.65,-10.38 -10.38,-10.38 -5.74,0 -10.39,4.65 -10.39,10.38 0,5.74 4.65,10.39 10.39,10.39z"/>
    <path class="fil1" d="M839.08 103.05c-5.73,0 -10.38,4.65 -10.38,10.38 0,5.74 4.65,10.39 10.38,10.39 5.74,0 10.39,-4.65 10.39,-10.39 0,-5.73 -4.65,-10.38 -10.39,-10.38z"/>
    <path class="fil1" d="M869.5 103.05c-5.74,0 -10.39,4.65 -10.39,10.38 0,5.74 4.65,10.39 10.39,10.39 5.73,0 10.38,-4.65 10.38,-10.39 0,-5.73 -4.65,-10.38 -10.38,-10.38z"/>
    <path class="fil1" d="M839.08 132.6c-5.73,0 -10.38,4.65 -10.38,10.38 0,5.74 4.65,10.39 10.38,10.39 5.74,0 10.39,-4.65 10.39,-10.39 0,-5.73 -4.65,-10.38 -10.39,-10.38z"/>
    <path class="fil1" d="M869.5 132.6c-5.74,0 -10.39,4.65 -10.39,10.38 0,5.74 4.65,10.39 10.39,10.39 5.73,0 10.38,-4.65 10.38,-10.39 0,-5.73 -4.65,-10.38 -10.38,-10.38z"/>
   </g>
   <polygon class="fil2" points="417.67,206.76 365.62,206.76 365.62,140.35 376.25,128.09 406.62,128.09 417.67,140.35 "/>
   <g>
    <polygon class="fil1" points="377.34,151.63 384.29,151.63 384.29,141.78 377.34,141.78 "/>
    <polygon class="fil1" points="388.17,151.63 395.12,151.63 395.12,141.78 388.17,141.78 "/>
    <polygon class="fil1" points="398.99,141.78 398.99,151.63 405.94,151.63 405.94,141.78 "/>
    <polygon class="fil1" points="377.34,163.98 384.29,163.98 384.29,154.13 377.34,154.13 "/>
    <polygon class="fil1" points="388.17,163.98 395.12,163.98 395.12,154.13 388.17,154.13 "/>
    <polygon class="fil1" points="398.99,163.98 405.94,163.98 405.94,154.13 398.99,154.13 "/>
    <polygon class="fil1" points="377.34,176.33 384.29,176.33 384.29,166.48 377.34,166.48 "/>
    <polygon class="fil1" points="388.17,176.33 395.12,176.33 395.12,166.48 388.17,166.48 "/>
    <polygon class="fil1" points="398.99,176.33 405.94,176.33 405.94,166.48 398.99,166.48 "/>
   </g>
   <path class="fil5" d="M100.94 157.24c-7.14,-5.13 -18.22,-2.67 -21.34,5.51 -0.15,0.4 -0.41,0.77 -0.54,1.18 0,0.01 -0.01,0.03 -0.01,0.04 -3.12,0.68 -6.22,2.88 -6.5,5.63 -0.01,0.18 -0.02,0.34 -0.02,0.51 -1.65,3.64 -1.46,7.19 1.03,10.64 2.6,3.6 6.39,5.38 11.1,5.45 0.09,0.12 0.18,0.24 0.28,0.35l4.1 1.04c-0.07,-0.08 -0.14,-0.17 -0.21,-0.26 0.12,0.1 0.24,0.2 0.36,0.3l0.15 0.04 -0.15 -0.04c1.05,0.87 2.08,1.77 2.98,2.75l3.59 0.58c-0.01,-0.01 -0.02,-0.02 -0.02,-0.03 1.65,-0.09 3.33,-0.17 5.05,-0.26l0.24 -33.52c-0.03,0.03 -0.06,0.06 -0.09,0.09z"/>
   <path class="fil6" d="M129.35 158.29c0,-0.07 0,-0.15 -0.01,-0.23 -0.12,-1.21 -0.46,-2.35 -0.98,-3.4 -1.26,-5.15 -6.05,-8.03 -10.96,-7.31 -1.44,-1.87 -3.39,-3.35 -5.84,-4.22 -3.84,-1.36 -7.96,-0.05 -10.53,2.8l-0.24 38.58c0.66,-0.04 1.31,-0.08 1.98,-0.12l2.69 -0.36c0.24,-0.51 0.49,-1 0.75,-1.47 0.23,-0.4 0.49,-0.62 0.8,-0.72 1.25,0.62 2.5,1.1 3.77,1.38 0,0.01 -0.01,0.01 -0.01,0.02l2.61 0.54c0.03,-0.12 0.08,-0.22 0.11,-0.34 1.46,-0.09 2.94,-0.53 4.44,-1.46 2.26,-1.42 3.58,-3.8 3.92,-6.33 0.3,-0.61 0.67,-0.9 1.45,-1.01 4.48,-0.66 7.24,-3.52 7.85,-7.98 0.41,-3.03 -0.45,-5.74 -1.8,-8.37z"/>
   <g>
    <path class="fil7" d="M99.53 195.25c-0.92,0.14 -3.02,-4.51 -3.77,-6.08l-3.59 -0.67c0.02,0.04 0.05,0.07 0.08,0.1 0.59,0.74 1.06,2.23 1.51,3.73 -1.52,-2.38 -3.1,-4.72 -4.72,-7.04l-4.1 -1.2c4.36,6.01 8.36,12.27 12,18.75 -0.18,1.03 -0.54,2.15 -1.03,3.51 -1.12,3.07 -0.1,4.63 3.17,4.75 0.49,0.01 0.99,0.03 1.48,-0.01 0.03,0 0.06,-0.01 0.09,-0.02l0.1 -16.76c-0.33,0.5 -0.73,0.86 -1.22,0.94z"/>
   </g>
   <g>
    <path class="fil8" d="M110.77 187.58c-0.75,2.53 -2.08,4.88 -3.97,6.89 -1.35,1.43 -2.89,2.64 -4.29,3.95 0.53,-3.05 1.45,-6.83 2.95,-10.06l-2.69 0.37c0.05,-0.01 0.1,-0.01 0.15,-0.01 -0.06,0.16 -0.09,0.35 -0.19,0.51 -0.59,1.01 -1.03,3.65 -1.98,5.08l-0.1 16.76c1.84,-0.19 2.8,-1.57 2.3,-3.37 -0.34,-1.23 -0.95,-2.41 -1.11,-3.66 0,-0.06 0.01,-0.35 0.04,-0.81 1.87,-3.49 6.01,-5.53 8.35,-8.69 1.45,-1.96 2.5,-4.14 3.15,-6.43l-2.61 -0.53z"/>
   </g>
   <path class="fil5" d="M135.11 166.37c-5.31,-4.32 -13.5,-2.18 -15.76,4.77 -0.11,0.35 -0.3,0.66 -0.4,1.01 0,0.01 -0.01,0.02 -0.01,0.03 -2.3,0.6 -4.59,2.48 -4.77,4.82 -0.01,0.14 -0.02,0.29 -0.02,0.43 -1.2,3.09 -1.04,6.11 0.83,9.02 1.94,3.04 4.75,4.54 8.24,4.57 0.07,0.1 0.14,0.2 0.21,0.3l3.04 0.86c-0.05,-0.07 -0.1,-0.15 -0.15,-0.22 0.09,0.09 0.18,0.17 0.26,0.25l0.11 0.03 -0.11 -0.03c0.79,0.74 1.55,1.49 2.22,2.32l2.66 0.48c0,-0.01 -0.01,-0.02 -0.01,-0.03 1.22,-0.08 2.46,-0.16 3.73,-0.24l0 -28.45c-0.03,0.03 -0.05,0.05 -0.07,0.08z"/>
   <path class="fil6" d="M156.19 175.27c0,-0.05 0.01,-0.1 0,-0.17 -0.1,-0.89 -0.36,-1.73 -0.74,-2.5 -0.96,-3.79 -4.52,-5.89 -8.16,-5.34 -1.07,-1.37 -2.52,-2.45 -4.34,-3.08 -2.85,-0.98 -5.88,0.01 -7.77,2.11l0 28.45c0.49,-0.03 0.97,-0.06 1.47,-0.09l1.99 -0.28c0.17,-0.38 0.35,-0.74 0.55,-1.09 0.16,-0.3 0.36,-0.46 0.59,-0.54 0.92,0.46 1.85,0.81 2.79,1 0,0.01 0,0.01 -0.01,0.02l1.94 0.38c0.02,-0.08 0.05,-0.16 0.08,-0.25 1.08,-0.07 2.17,-0.4 3.28,-1.1 1.67,-1.05 2.63,-2.81 2.87,-4.68 0.22,-0.45 0.49,-0.66 1.07,-0.75 3.31,-0.51 5.34,-2.63 5.77,-5.92 0.29,-2.24 -0.36,-4.23 -1.38,-6.17z"/>
   <g>
    <path class="fil7" d="M134.28 199.47c-0.68,0.11 -2.25,-3.31 -2.82,-4.46l-2.66 -0.48c0.02,0.03 0.04,0.05 0.06,0.07 0.44,0.55 0.8,1.64 1.14,2.75 -1.14,-1.75 -2.32,-3.47 -3.53,-5.17l-3.04 -0.86c3.26,4.41 6.25,9 8.97,13.76 -0.13,0.76 -0.39,1.59 -0.75,2.59 -0.81,2.27 -0.05,3.41 2.37,3.49 0.37,0.01 0.74,0.02 1.1,-0.01 0.02,-0.01 0.04,-0.01 0.07,-0.02l0 -12.36c-0.25,0.38 -0.55,0.64 -0.91,0.7z"/>
   </g>
   <g>
    <path class="fil8" d="M142.56 193.76c-0.54,1.87 -1.51,3.61 -2.9,5.1 -1,1.07 -2.13,1.96 -3.16,2.93 0.38,-2.24 1.05,-5.04 2.14,-7.42l-1.99 0.28c0.04,-0.01 0.08,-0.01 0.11,-0.01 -0.04,0.12 -0.06,0.26 -0.14,0.38 -0.43,0.75 -0.74,2.69 -1.43,3.75l0 12.36c1.36,-0.15 2.06,-1.17 1.69,-2.5 -0.26,-0.9 -0.72,-1.77 -0.84,-2.69 -0.01,-0.04 0,-0.25 0.02,-0.6 1.37,-2.58 4.42,-4.1 6.14,-6.45 1.06,-1.45 1.83,-3.06 2.3,-4.75l-1.94 -0.38z"/>
   </g>
   <path class="fil5" d="M367.15 168.65c-5.31,-4.32 -13.5,-2.17 -15.76,4.78 -0.11,0.34 -0.3,0.66 -0.4,1 0,0.02 -0.01,0.03 -0.01,0.04 -2.3,0.6 -4.59,2.47 -4.77,4.81 -0.01,0.15 -0.02,0.29 -0.02,0.43 -1.2,3.09 -1.04,6.11 0.82,9.03 1.95,3.04 4.76,4.53 8.25,4.57 0.07,0.09 0.14,0.19 0.21,0.29l3.04 0.87c-0.05,-0.08 -0.1,-0.15 -0.16,-0.22 0.1,0.08 0.18,0.16 0.27,0.25l0.11 0.03 -0.11 -0.03c0.78,0.73 1.55,1.49 2.22,2.32l2.66 0.47c0,-0.01 -0.01,-0.02 -0.02,-0.03 1.23,-0.07 2.47,-0.16 3.74,-0.24l-0.01 -28.44c-0.02,0.02 -0.04,0.05 -0.06,0.07z"/>
   <path class="fil6" d="M388.23 177.56c0,-0.06 0,-0.11 0,-0.17 -0.1,-0.89 -0.36,-1.73 -0.74,-2.51 -0.97,-3.78 -4.52,-5.88 -8.16,-5.33 -1.07,-1.37 -2.52,-2.45 -4.34,-3.08 -2.85,-0.99 -5.89,0 -7.78,2.11l0.01 28.44c0.49,-0.03 0.97,-0.06 1.47,-0.09l1.99 -0.28c0.17,-0.37 0.35,-0.74 0.55,-1.09 0.16,-0.29 0.36,-0.46 0.59,-0.53 0.92,0.45 1.85,0.8 2.79,1 0,0 -0.01,0.01 -0.01,0.01l1.94 0.39c0.02,-0.09 0.05,-0.17 0.07,-0.25 1.09,-0.07 2.18,-0.41 3.29,-1.1 1.66,-1.06 2.63,-2.82 2.87,-4.69 0.21,-0.45 0.49,-0.66 1.07,-0.75 3.31,-0.51 5.34,-2.63 5.76,-5.92 0.29,-2.24 -0.35,-4.23 -1.37,-6.16z"/>
   <g>
    <path class="fil7" d="M366.32 201.75c-0.68,0.11 -2.25,-3.3 -2.82,-4.46l-2.66 -0.47c0.02,0.02 0.04,0.04 0.06,0.07 0.44,0.54 0.8,1.64 1.13,2.75 -1.13,-1.76 -2.31,-3.48 -3.52,-5.17l-3.04 -0.87c3.26,4.41 6.25,9.01 8.97,13.76 -0.13,0.76 -0.39,1.59 -0.75,2.6 -0.81,2.27 -0.05,3.41 2.37,3.48 0.37,0.01 0.74,0.02 1.1,-0.01 0.02,0 0.04,-0.01 0.07,-0.01l-0.01 -12.36c-0.24,0.37 -0.54,0.64 -0.9,0.69z"/>
   </g>
   <g>
    <path class="fil8" d="M374.6 196.04c-0.54,1.88 -1.51,3.62 -2.9,5.11 -1,1.06 -2.13,1.96 -3.16,2.93 0.38,-2.25 1.04,-5.05 2.14,-7.43l-1.99 0.28c0.04,0 0.07,0 0.11,-0.01 -0.04,0.12 -0.07,0.27 -0.14,0.38 -0.43,0.75 -0.74,2.7 -1.44,3.76l0.01 12.36c1.36,-0.15 2.06,-1.18 1.68,-2.5 -0.26,-0.9 -0.71,-1.78 -0.83,-2.69 -0.01,-0.05 0,-0.26 0.02,-0.6 1.37,-2.59 4.42,-4.11 6.14,-6.45 1.06,-1.45 1.82,-3.06 2.3,-4.75l-1.94 -0.39z"/>
   </g>
   <path class="fil5" d="M608.12 165.17c-5.32,-4.31 -13.5,-2.17 -15.77,4.78 -0.11,0.34 -0.3,0.66 -0.39,1.01 -0.01,0.01 -0.01,0.02 -0.01,0.03 -2.3,0.6 -4.59,2.48 -4.78,4.81 -0.01,0.15 -0.01,0.29 -0.01,0.43 -1.2,3.1 -1.04,6.12 0.82,9.03 1.95,3.04 4.76,4.53 8.24,4.57 0.08,0.1 0.14,0.2 0.22,0.3l3.04 0.86c-0.06,-0.07 -0.11,-0.15 -0.16,-0.22 0.09,0.08 0.18,0.17 0.27,0.25l0.11 0.03 -0.11 -0.03c0.78,0.74 1.54,1.49 2.22,2.32l2.66 0.48c-0.01,-0.01 -0.01,-0.02 -0.02,-0.03 1.22,-0.08 2.47,-0.16 3.74,-0.24l-0.01 -28.45c-0.02,0.03 -0.04,0.05 -0.06,0.07z"/>
   <path class="fil6" d="M629.2 174.08c0,-0.05 0,-0.11 0,-0.17 -0.1,-0.89 -0.36,-1.73 -0.75,-2.5 -0.96,-3.79 -4.52,-5.89 -8.15,-5.34 -1.07,-1.37 -2.52,-2.45 -4.34,-3.08 -2.85,-0.99 -5.89,0 -7.78,2.11l0.01 28.45c0.49,-0.03 0.97,-0.06 1.47,-0.1l1.99 -0.27c0.17,-0.38 0.35,-0.74 0.54,-1.09 0.17,-0.3 0.36,-0.46 0.59,-0.54 0.93,0.46 1.86,0.81 2.8,1 0,0.01 -0.01,0.01 -0.01,0.02l1.93 0.38c0.03,-0.08 0.06,-0.16 0.08,-0.25 1.09,-0.07 2.18,-0.4 3.28,-1.1 1.67,-1.05 2.63,-2.81 2.87,-4.68 0.22,-0.45 0.5,-0.67 1.07,-0.75 3.31,-0.51 5.35,-2.63 5.77,-5.92 0.29,-2.24 -0.35,-4.24 -1.37,-6.17z"/>
   <g>
    <path class="fil7" d="M607.29 198.28c-0.68,0.1 -2.26,-3.31 -2.82,-4.46l-2.66 -0.48c0.02,0.03 0.04,0.05 0.06,0.07 0.44,0.55 0.79,1.64 1.13,2.75 -1.13,-1.75 -2.31,-3.47 -3.52,-5.17l-3.04 -0.86c3.25,4.4 6.25,9 8.97,13.76 -0.13,0.76 -0.39,1.59 -0.75,2.59 -0.81,2.27 -0.05,3.41 2.37,3.49 0.36,0.01 0.73,0.02 1.1,-0.02 0.02,0 0.04,0 0.06,-0.01l0 -12.36c-0.25,0.37 -0.54,0.64 -0.9,0.7z"/>
   </g>
   <g>
    <path class="fil8" d="M615.57 192.57c-0.54,1.87 -1.51,3.61 -2.91,5.1 -0.99,1.06 -2.12,1.96 -3.15,2.93 0.38,-2.25 1.04,-5.04 2.14,-7.42l-1.99 0.27c0.03,0 0.07,0 0.11,0 -0.05,0.12 -0.07,0.26 -0.14,0.38 -0.43,0.74 -0.75,2.69 -1.44,3.75l0 12.36c1.36,-0.15 2.07,-1.17 1.69,-2.5 -0.26,-0.9 -0.71,-1.77 -0.84,-2.69 0,-0.04 0,-0.25 0.03,-0.6 1.37,-2.58 4.42,-4.1 6.13,-6.45 1.07,-1.45 1.83,-3.06 2.3,-4.75l-1.93 -0.38z"/>
   </g>
   <path class="fil5" d="M818.68 165.17c-5.32,-4.31 -13.5,-2.17 -15.77,4.78 -0.11,0.34 -0.3,0.66 -0.39,1.01 -0.01,0.01 -0.01,0.02 -0.01,0.03 -2.31,0.6 -4.59,2.48 -4.78,4.81 -0.01,0.15 -0.01,0.29 -0.01,0.43 -1.2,3.1 -1.05,6.12 0.82,9.03 1.95,3.04 4.76,4.53 8.24,4.57 0.08,0.1 0.14,0.2 0.22,0.3l3.03 0.86c-0.05,-0.07 -0.1,-0.15 -0.15,-0.22 0.09,0.08 0.18,0.17 0.27,0.25l0.11 0.03 -0.11 -0.03c0.78,0.74 1.54,1.49 2.21,2.32l2.66 0.48c0,-0.01 -0.01,-0.02 -0.01,-0.03 1.22,-0.08 2.47,-0.16 3.74,-0.24l-0.01 -28.45c-0.02,0.03 -0.04,0.05 -0.06,0.07z"/>
   <path class="fil6" d="M839.76 174.08c0,-0.05 0,-0.11 -0.01,-0.17 -0.09,-0.89 -0.35,-1.73 -0.74,-2.5 -0.96,-3.79 -4.52,-5.89 -8.15,-5.34 -1.07,-1.37 -2.52,-2.45 -4.35,-3.08 -2.84,-0.99 -5.88,0 -7.77,2.11l0.01 28.45c0.49,-0.03 0.97,-0.06 1.47,-0.1l1.98 -0.27c0.18,-0.38 0.36,-0.74 0.55,-1.09 0.17,-0.3 0.36,-0.46 0.59,-0.54 0.93,0.46 1.86,0.81 2.8,1 -0.01,0.01 -0.01,0.01 -0.01,0.02l1.93 0.38c0.03,-0.08 0.06,-0.16 0.08,-0.25 1.08,-0.07 2.18,-0.4 3.28,-1.1 1.67,-1.05 2.63,-2.81 2.87,-4.68 0.22,-0.45 0.49,-0.67 1.07,-0.75 3.31,-0.51 5.34,-2.63 5.77,-5.92 0.29,-2.24 -0.36,-4.24 -1.37,-6.17z"/>
   <g>
    <path class="fil7" d="M817.84 198.28c-0.67,0.1 -2.25,-3.31 -2.82,-4.46l-2.66 -0.48c0.03,0.03 0.05,0.05 0.07,0.07 0.43,0.55 0.79,1.64 1.13,2.75 -1.14,-1.75 -2.32,-3.47 -3.53,-5.17l-3.03 -0.86c3.25,4.4 6.24,9 8.97,13.76 -0.13,0.76 -0.39,1.59 -0.75,2.59 -0.81,2.27 -0.05,3.41 2.37,3.49 0.36,0.01 0.73,0.02 1.09,-0.02 0.03,0 0.05,0 0.07,-0.01l0 -12.36c-0.25,0.37 -0.54,0.64 -0.91,0.7z"/>
   </g>
   <g>
    <path class="fil8" d="M826.13 192.57c-0.54,1.87 -1.52,3.61 -2.91,5.1 -0.99,1.06 -2.12,1.96 -3.15,2.93 0.38,-2.25 1.04,-5.04 2.13,-7.42l-1.98 0.27c0.03,0 0.07,0 0.1,0 -0.04,0.12 -0.06,0.26 -0.13,0.38 -0.44,0.74 -0.75,2.69 -1.44,3.75l0 12.36c1.36,-0.15 2.07,-1.17 1.69,-2.5 -0.26,-0.9 -0.72,-1.77 -0.84,-2.69 0,-0.04 0,-0.25 0.03,-0.6 1.36,-2.58 4.42,-4.1 6.13,-6.45 1.07,-1.45 1.83,-3.06 2.3,-4.75l-1.93 -0.38z"/>
   </g>
   <path class="fil5" d="M844.27 165.17c-5.32,-4.31 -13.5,-2.17 -15.77,4.78 -0.11,0.34 -0.3,0.66 -0.39,1.01 -0.01,0.01 -0.01,0.02 -0.01,0.03 -2.31,0.6 -4.59,2.48 -4.78,4.81 -0.01,0.15 -0.02,0.29 -0.01,0.43 -1.2,3.1 -1.05,6.12 0.82,9.03 1.95,3.04 4.76,4.53 8.24,4.57 0.07,0.1 0.14,0.2 0.21,0.3l3.04 0.86c-0.05,-0.07 -0.1,-0.15 -0.15,-0.22 0.09,0.08 0.18,0.17 0.27,0.25l0.11 0.03 -0.11 -0.03c0.78,0.74 1.54,1.49 2.21,2.32l2.66 0.48c0,-0.01 -0.01,-0.02 -0.01,-0.03 1.22,-0.08 2.47,-0.16 3.74,-0.24l-0.01 -28.45c-0.02,0.03 -0.04,0.05 -0.06,0.07z"/>
   <path class="fil6" d="M865.35 174.08c0,-0.05 0,-0.11 -0.01,-0.17 -0.09,-0.89 -0.35,-1.73 -0.74,-2.5 -0.96,-3.79 -4.52,-5.89 -8.15,-5.34 -1.07,-1.37 -2.52,-2.45 -4.34,-3.08 -2.85,-0.99 -5.89,0 -7.78,2.11l0.01 28.45c0.49,-0.03 0.97,-0.06 1.47,-0.1l1.98 -0.27c0.18,-0.38 0.36,-0.74 0.55,-1.09 0.17,-0.3 0.36,-0.46 0.59,-0.54 0.93,0.46 1.86,0.81 2.8,1 -0.01,0.01 -0.01,0.01 -0.01,0.02l1.93 0.38c0.03,-0.08 0.06,-0.16 0.08,-0.25 1.08,-0.07 2.18,-0.4 3.28,-1.1 1.67,-1.05 2.63,-2.81 2.87,-4.68 0.22,-0.45 0.49,-0.67 1.07,-0.75 3.31,-0.51 5.34,-2.63 5.77,-5.92 0.29,-2.24 -0.36,-4.24 -1.37,-6.17z"/>
   <g>
    <path class="fil7" d="M843.43 198.28c-0.68,0.1 -2.25,-3.31 -2.82,-4.46l-2.66 -0.48c0.03,0.03 0.05,0.05 0.07,0.07 0.43,0.55 0.79,1.64 1.13,2.75 -1.14,-1.75 -2.32,-3.47 -3.53,-5.17l-3.04 -0.86c3.26,4.4 6.25,9 8.98,13.76 -0.13,0.76 -0.39,1.59 -0.75,2.59 -0.81,2.27 -0.05,3.41 2.37,3.49 0.36,0.01 0.73,0.02 1.1,-0.02 0.02,0 0.04,0 0.06,-0.01l0 -12.36c-0.25,0.37 -0.54,0.64 -0.91,0.7z"/>
   </g>
   <g>
    <path class="fil8" d="M851.72 192.57c-0.55,1.87 -1.52,3.61 -2.91,5.1 -0.99,1.06 -2.12,1.96 -3.15,2.93 0.38,-2.25 1.04,-5.04 2.13,-7.42l-1.98 0.27c0.03,0 0.07,0 0.1,0 -0.04,0.12 -0.06,0.26 -0.13,0.38 -0.44,0.74 -0.75,2.69 -1.44,3.75l0 12.36c1.36,-0.15 2.07,-1.17 1.69,-2.5 -0.26,-0.9 -0.72,-1.77 -0.84,-2.69 0,-0.04 0,-0.25 0.03,-0.6 1.36,-2.58 4.42,-4.1 6.13,-6.45 1.07,-1.45 1.83,-3.06 2.3,-4.75l-1.93 -0.38z"/>
   </g>
   <path class="fil5" d="M683.56 157.1c-6.27,-5.09 -15.93,-2.56 -18.6,5.64 -0.13,0.41 -0.35,0.78 -0.47,1.19 0,0.01 0,0.03 -0.01,0.04 -2.71,0.7 -5.41,2.92 -5.63,5.68 -0.02,0.17 -0.02,0.34 -0.02,0.51 -1.42,3.65 -1.23,7.21 0.97,10.65 2.3,3.59 5.61,5.35 9.73,5.39 0.08,0.11 0.17,0.23 0.25,0.35l3.59 1.02c-0.07,-0.09 -0.12,-0.17 -0.19,-0.26 0.11,0.1 0.22,0.2 0.32,0.3l0.13 0.03 -0.13 -0.03c0.92,0.86 1.82,1.76 2.62,2.73l3.14 0.57c-0.01,-0.01 -0.02,-0.03 -0.02,-0.04 1.44,-0.09 2.91,-0.18 4.41,-0.28l-0.01 -33.57c-0.03,0.03 -0.05,0.05 -0.08,0.08z"/>
   <path class="fil6" d="M708.44 167.62c0,-0.07 0.01,-0.13 0,-0.2 -0.11,-1.05 -0.42,-2.05 -0.87,-2.96 -1.14,-4.47 -5.34,-6.95 -9.63,-6.3 -1.26,-1.62 -2.97,-2.89 -5.12,-3.63 -3.36,-1.17 -6.95,0 -9.18,2.49l0.01 33.57c0.58,-0.04 1.14,-0.07 1.73,-0.11l2.35 -0.33c0.2,-0.44 0.42,-0.87 0.65,-1.28 0.19,-0.35 0.42,-0.55 0.69,-0.64 1.09,0.54 2.19,0.95 3.3,1.18 0,0.01 -0.01,0.02 -0.01,0.02l2.28 0.46c0.03,-0.1 0.07,-0.2 0.09,-0.3 1.28,-0.08 2.57,-0.48 3.88,-1.3 1.97,-1.24 3.1,-3.32 3.39,-5.53 0.25,-0.53 0.58,-0.78 1.26,-0.88 3.9,-0.6 6.3,-3.1 6.8,-6.99 0.35,-2.64 -0.41,-4.99 -1.62,-7.27z"/>
   <g>
    <path class="fil7" d="M682.58 196.17c-0.8,0.13 -2.65,-3.9 -3.32,-5.26l-3.14 -0.57c0.02,0.03 0.05,0.06 0.07,0.09 0.52,0.64 0.94,1.93 1.34,3.24 -1.34,-2.07 -2.74,-4.1 -4.16,-6.1l-3.59 -1.02c3.84,5.2 7.37,10.63 10.59,16.24 -0.15,0.9 -0.46,1.88 -0.89,3.07 -0.96,2.67 -0.06,4.02 2.8,4.1 0.43,0.02 0.87,0.03 1.3,-0.01 0.02,0 0.05,-0.01 0.08,-0.01l-0.01 -14.59c-0.29,0.44 -0.64,0.75 -1.07,0.82z"/>
   </g>
   <g>
    <path class="fil8" d="M692.36 189.43c-0.64,2.21 -1.79,4.27 -3.43,6.03 -1.17,1.25 -2.51,2.31 -3.72,3.46 0.45,-2.66 1.23,-5.96 2.52,-8.77l-2.35 0.33c0.05,0 0.09,-0.01 0.13,-0.01 -0.05,0.14 -0.08,0.31 -0.16,0.45 -0.51,0.88 -0.88,3.18 -1.7,4.43l0.01 14.59c1.6,-0.18 2.43,-1.39 1.99,-2.95 -0.31,-1.07 -0.85,-2.1 -0.99,-3.18 -0.01,-0.05 0,-0.3 0.03,-0.71 1.61,-3.04 5.21,-4.84 7.24,-7.61 1.25,-1.71 2.16,-3.61 2.71,-5.6l-2.28 -0.46z"/>
   </g>
   <g>
    <path class="fil5" d="M343.23 191.97c-3.25,-2.64 -8.27,-1.33 -9.66,2.93 -0.07,0.21 -0.18,0.4 -0.24,0.62 -0.01,0 -0.01,0.01 -0.01,0.02 -1.41,0.36 -2.81,1.52 -2.93,2.95 -0.01,0.09 -0.01,0.18 -0.01,0.26 -0.73,1.9 -0.63,3.75 0.51,5.54 1.19,1.86 2.91,2.78 5.05,2.8 0.05,0.06 0.09,0.12 0.13,0.18l1.87 0.53c-0.04,-0.05 -0.07,-0.09 -0.1,-0.13 0.06,0.05 0.11,0.1 0.17,0.15l0.06 0.02 -0.06 -0.02c0.48,0.45 0.94,0.91 1.35,1.42l1.64 0.29c-0.01,0 -0.01,-0.01 -0.01,-0.02 0.75,-0.04 1.51,-0.09 2.29,-0.14l-0.01 -17.44c-0.01,0.01 -0.02,0.03 -0.04,0.04z"/>
    <path class="fil6" d="M356.16 197.43c0,-0.03 0,-0.06 0,-0.1 -0.06,-0.55 -0.22,-1.06 -0.46,-1.54 -0.59,-2.32 -2.77,-3.61 -5,-3.27 -0.65,-0.84 -1.54,-1.5 -2.66,-1.89 -1.74,-0.6 -3.61,0 -4.77,1.3l0.01 17.44c0.3,-0.02 0.59,-0.04 0.9,-0.06l1.22 -0.17c0.1,-0.23 0.22,-0.45 0.33,-0.67 0.11,-0.18 0.22,-0.28 0.37,-0.33 0.56,0.28 1.13,0.5 1.71,0.62 0,0 0,0 -0.01,0.01l1.19 0.23c0.02,-0.05 0.03,-0.1 0.05,-0.15 0.66,-0.04 1.33,-0.25 2.01,-0.68 1.02,-0.64 1.61,-1.72 1.76,-2.87 0.13,-0.27 0.3,-0.4 0.66,-0.46 2.03,-0.31 3.27,-1.61 3.53,-3.63 0.18,-1.37 -0.22,-2.59 -0.84,-3.78z"/>
    <g>
     <path class="fil7" d="M342.73 212.27c-0.42,0.06 -1.39,-2.03 -1.73,-2.74l-1.64 -0.29c0.02,0.02 0.03,0.03 0.04,0.04 0.27,0.34 0.49,1.01 0.7,1.69 -0.7,-1.07 -1.42,-2.13 -2.16,-3.17l-1.87 -0.53c2,2.7 3.83,5.52 5.5,8.44 -0.07,0.47 -0.23,0.97 -0.46,1.59 -0.49,1.39 -0.03,2.09 1.46,2.13 0.22,0.01 0.45,0.02 0.67,0 0.02,0 0.03,-0.01 0.04,-0.01l0 -7.58c-0.15,0.23 -0.33,0.39 -0.55,0.43z"/>
    </g>
    <g>
     <path class="fil8" d="M347.8 208.77c-0.33,1.15 -0.92,2.21 -1.78,3.13 -0.61,0.65 -1.3,1.2 -1.93,1.79 0.23,-1.37 0.64,-3.09 1.31,-4.55l-1.22 0.17c0.02,0 0.04,0 0.07,0 -0.03,0.07 -0.04,0.16 -0.09,0.23 -0.26,0.46 -0.46,1.65 -0.88,2.3l0 7.58c0.83,-0.09 1.27,-0.72 1.04,-1.53 -0.16,-0.56 -0.44,-1.09 -0.52,-1.65 0,-0.03 0,-0.16 0.02,-0.37 0.84,-1.58 2.71,-2.52 3.76,-3.95 0.65,-0.89 1.12,-1.88 1.41,-2.92l-1.19 -0.23z"/>
    </g>
   </g>
   <path class="fil5" d="M61.35 179.36c-3.25,-2.65 -8.27,-1.33 -9.66,2.93 -0.07,0.21 -0.19,0.4 -0.24,0.61 -0.01,0.01 -0.01,0.02 -0.01,0.03 -1.41,0.36 -2.81,1.51 -2.93,2.95 0,0.09 -0.01,0.17 -0.01,0.26 -0.73,1.9 -0.64,3.75 0.51,5.54 1.19,1.86 2.91,2.77 5.05,2.8 0.05,0.06 0.09,0.12 0.13,0.18l1.87 0.53c-0.04,-0.05 -0.07,-0.09 -0.1,-0.14 0.06,0.05 0.11,0.1 0.16,0.16l0.07 0.02 -0.07 -0.02c0.49,0.45 0.95,0.91 1.36,1.42l1.64 0.29c-0.01,0 -0.01,-0.01 -0.01,-0.02 0.75,-0.04 1.51,-0.09 2.29,-0.14l-0.01 -17.44c-0.01,0.01 -0.02,0.02 -0.04,0.04z"/>
   <path class="fil6" d="M74.28 184.82c0,-0.03 0,-0.07 0,-0.1 -0.06,-0.55 -0.22,-1.07 -0.46,-1.54 -0.59,-2.32 -2.77,-3.61 -5,-3.27 -0.65,-0.84 -1.54,-1.5 -2.66,-1.89 -1.74,-0.6 -3.61,0 -4.77,1.3l0.01 17.44c0.3,-0.02 0.59,-0.04 0.9,-0.06l1.22 -0.17c0.1,-0.23 0.21,-0.46 0.33,-0.67 0.11,-0.18 0.22,-0.28 0.36,-0.33 0.57,0.28 1.14,0.5 1.72,0.62 0,0 0,0 -0.01,0.01l1.19 0.23c0.01,-0.05 0.03,-0.1 0.05,-0.15 0.66,-0.05 1.33,-0.25 2.01,-0.68 1.02,-0.64 1.61,-1.72 1.76,-2.87 0.13,-0.28 0.3,-0.41 0.65,-0.46 2.03,-0.31 3.28,-1.61 3.54,-3.63 0.18,-1.37 -0.22,-2.59 -0.84,-3.78z"/>
   <g>
    <path class="fil7" d="M60.85 203.99c-0.42,0.07 -1.39,-2.03 -1.73,-2.73l-1.64 -0.3c0.02,0.02 0.03,0.03 0.04,0.05 0.27,0.33 0.49,1 0.7,1.68 -0.7,-1.07 -1.42,-2.13 -2.16,-3.17l-1.87 -0.53c2,2.71 3.83,5.53 5.5,8.44 -0.08,0.47 -0.24,0.98 -0.46,1.59 -0.5,1.4 -0.03,2.09 1.46,2.14 0.22,0 0.45,0.01 0.67,-0.01 0.01,0 0.03,0 0.04,-0.01l0 -7.58c-0.15,0.23 -0.33,0.4 -0.55,0.43z"/>
   </g>
   <g>
    <path class="fil8" d="M65.92 200.49c-0.33,1.15 -0.92,2.22 -1.78,3.13 -0.61,0.65 -1.3,1.2 -1.93,1.8 0.23,-1.38 0.64,-3.1 1.31,-4.56l-1.22 0.17c0.02,0 0.04,0 0.07,0 -0.03,0.08 -0.04,0.16 -0.09,0.23 -0.27,0.46 -0.46,1.65 -0.88,2.3l0 7.58c0.83,-0.09 1.27,-0.72 1.03,-1.53 -0.15,-0.55 -0.43,-1.09 -0.51,-1.65 0,-0.02 0,-0.16 0.02,-0.36 0.84,-1.59 2.71,-2.52 3.76,-3.96 0.65,-0.89 1.12,-1.88 1.41,-2.91l-1.19 -0.24z"/>
   </g>
   <path class="fil5" d="M626.6 182.5c-3.26,-2.64 -8.28,-1.33 -9.67,2.93 -0.06,0.21 -0.18,0.41 -0.24,0.62 0,0.01 0,0.01 -0.01,0.02 -1.41,0.37 -2.81,1.52 -2.92,2.95 -0.01,0.09 -0.01,0.18 -0.01,0.26 -0.74,1.9 -0.64,3.75 0.5,5.54 1.19,1.86 2.92,2.78 5.05,2.8 0.05,0.06 0.09,0.12 0.14,0.18l1.86 0.53c-0.03,-0.04 -0.06,-0.09 -0.09,-0.13 0.05,0.05 0.11,0.1 0.16,0.15l0.07 0.02 -0.07 -0.02c0.48,0.45 0.95,0.92 1.36,1.42l1.63 0.3c0,-0.01 -0.01,-0.02 -0.01,-0.02 0.75,-0.05 1.51,-0.1 2.29,-0.15l0 -17.44c-0.01,0.01 -0.03,0.03 -0.04,0.04z"/>
   <path class="fil6" d="M639.52 187.96c0,-0.03 0.01,-0.06 0,-0.1 -0.06,-0.54 -0.22,-1.06 -0.45,-1.53 -0.59,-2.33 -2.77,-3.61 -5,-3.28 -0.66,-0.84 -1.55,-1.5 -2.66,-1.89 -1.75,-0.6 -3.61,0.01 -4.77,1.3l0 17.44c0.3,-0.02 0.6,-0.04 0.9,-0.06l1.22 -0.17c0.11,-0.23 0.22,-0.45 0.34,-0.66 0.1,-0.19 0.22,-0.29 0.36,-0.33 0.57,0.27 1.14,0.49 1.71,0.61 0,0 0,0.01 0,0.01l1.18 0.24c0.02,-0.06 0.04,-0.11 0.05,-0.16 0.67,-0.04 1.34,-0.25 2.01,-0.67 1.03,-0.65 1.62,-1.73 1.76,-2.88 0.14,-0.27 0.31,-0.4 0.66,-0.46 2.03,-0.31 3.28,-1.61 3.54,-3.62 0.17,-1.38 -0.22,-2.6 -0.85,-3.79z"/>
   <g>
    <path class="fil7" d="M626.09 202.8c-0.42,0.07 -1.38,-2.03 -1.73,-2.73l-1.63 -0.3c0.01,0.02 0.02,0.03 0.04,0.05 0.27,0.33 0.48,1 0.69,1.68 -0.69,-1.07 -1.42,-2.13 -2.16,-3.17l-1.86 -0.53c1.99,2.71 3.83,5.52 5.5,8.44 -0.08,0.47 -0.24,0.97 -0.46,1.59 -0.5,1.39 -0.03,2.09 1.45,2.14 0.22,0 0.45,0.01 0.67,-0.01 0.02,0 0.03,0 0.04,-0.01l0 -7.58c-0.15,0.23 -0.33,0.4 -0.55,0.43z"/>
   </g>
   <g>
    <path class="fil8" d="M631.17 199.3c-0.33,1.15 -0.93,2.21 -1.78,3.13 -0.61,0.65 -1.31,1.2 -1.94,1.8 0.24,-1.38 0.64,-3.1 1.31,-4.56l-1.22 0.17c0.03,0 0.05,0 0.07,0 -0.03,0.07 -0.04,0.16 -0.08,0.23 -0.27,0.46 -0.46,1.65 -0.89,2.3l0 7.58c0.84,-0.09 1.27,-0.72 1.04,-1.53 -0.16,-0.55 -0.44,-1.09 -0.51,-1.65 -0.01,-0.03 0,-0.16 0.01,-0.37 0.84,-1.58 2.71,-2.51 3.76,-3.95 0.66,-0.89 1.12,-1.88 1.41,-2.91l-1.18 -0.24z"/>
   </g>
   <path class="fil5" d="M803.06 182.5c-3.25,-2.64 -8.27,-1.33 -9.66,2.93 -0.07,0.21 -0.18,0.41 -0.24,0.62 0,0.01 -0.01,0.01 -0.01,0.02 -1.41,0.37 -2.81,1.52 -2.93,2.95 0,0.09 -0.01,0.18 0,0.26 -0.74,1.9 -0.65,3.75 0.5,5.54 1.19,1.86 2.91,2.78 5.05,2.8 0.05,0.06 0.09,0.12 0.13,0.18l1.87 0.53c-0.04,-0.04 -0.07,-0.09 -0.1,-0.13 0.06,0.05 0.11,0.1 0.16,0.15l0.07 0.02 -0.07 -0.02c0.49,0.45 0.95,0.92 1.36,1.42l1.64 0.3c-0.01,-0.01 -0.01,-0.02 -0.01,-0.02 0.75,-0.05 1.51,-0.1 2.29,-0.15l-0.01 -17.44c-0.01,0.01 -0.02,0.03 -0.04,0.04z"/>
   <path class="fil6" d="M815.99 187.96c0,-0.03 0,-0.06 0,-0.1 -0.06,-0.54 -0.22,-1.06 -0.46,-1.53 -0.59,-2.33 -2.77,-3.61 -4.99,-3.28 -0.66,-0.84 -1.55,-1.5 -2.67,-1.89 -1.74,-0.6 -3.61,0.01 -4.77,1.3l0.01 17.44c0.3,-0.02 0.59,-0.04 0.9,-0.06l1.22 -0.17c0.1,-0.23 0.21,-0.45 0.33,-0.66 0.11,-0.19 0.22,-0.29 0.37,-0.33 0.56,0.27 1.13,0.49 1.71,0.61 0,0 0,0.01 0,0.01l1.18 0.24c0.01,-0.06 0.03,-0.11 0.05,-0.16 0.66,-0.04 1.33,-0.25 2.01,-0.67 1.02,-0.65 1.61,-1.73 1.76,-2.88 0.13,-0.27 0.3,-0.4 0.66,-0.46 2.02,-0.31 3.27,-1.61 3.53,-3.62 0.18,-1.38 -0.22,-2.6 -0.84,-3.79z"/>
   <g>
    <path class="fil7" d="M802.55 202.8c-0.41,0.07 -1.38,-2.03 -1.72,-2.73l-1.64 -0.3c0.02,0.02 0.03,0.03 0.04,0.05 0.27,0.33 0.49,1 0.7,1.68 -0.7,-1.07 -1.42,-2.13 -2.16,-3.17l-1.87 -0.53c2,2.71 3.83,5.52 5.5,8.44 -0.08,0.47 -0.24,0.97 -0.46,1.59 -0.49,1.39 -0.03,2.09 1.46,2.14 0.22,0 0.45,0.01 0.67,-0.01 0.01,0 0.03,0 0.04,-0.01l0 -7.58c-0.15,0.23 -0.33,0.4 -0.56,0.43z"/>
   </g>
   <g>
    <path class="fil8" d="M807.64 199.3c-0.34,1.15 -0.93,2.21 -1.79,3.13 -0.61,0.65 -1.3,1.2 -1.93,1.8 0.23,-1.38 0.64,-3.1 1.31,-4.56l-1.22 0.17c0.02,0 0.04,0 0.07,0 -0.03,0.07 -0.05,0.16 -0.09,0.23 -0.26,0.46 -0.46,1.65 -0.88,2.3l0 7.58c0.83,-0.09 1.27,-0.72 1.03,-1.53 -0.15,-0.55 -0.43,-1.09 -0.51,-1.65 0,-0.03 0,-0.16 0.02,-0.37 0.84,-1.58 2.71,-2.51 3.76,-3.95 0.65,-0.89 1.12,-1.88 1.41,-2.91l-1.18 -0.24z"/>
   </g>
   <path class="fil5" d="M870.01 182.5c-3.26,-2.64 -8.28,-1.33 -9.67,2.93 -0.06,0.21 -0.18,0.41 -0.24,0.62 0,0.01 0,0.01 0,0.02 -1.42,0.37 -2.82,1.52 -2.93,2.95 -0.01,0.09 -0.01,0.18 -0.01,0.26 -0.74,1.9 -0.64,3.75 0.5,5.54 1.2,1.86 2.92,2.78 5.06,2.8 0.04,0.06 0.08,0.12 0.13,0.18l1.86 0.53c-0.03,-0.04 -0.06,-0.09 -0.09,-0.13 0.05,0.05 0.11,0.1 0.16,0.15l0.07 0.02 -0.07 -0.02c0.48,0.45 0.95,0.92 1.36,1.42l1.63 0.3c0,-0.01 -0.01,-0.02 -0.01,-0.02 0.75,-0.05 1.51,-0.1 2.3,-0.15l-0.01 -17.44c-0.01,0.01 -0.03,0.03 -0.04,0.04z"/>
   <path class="fil6" d="M882.94 187.96c0,-0.03 0,-0.06 -0.01,-0.1 -0.05,-0.54 -0.21,-1.06 -0.45,-1.53 -0.59,-2.33 -2.77,-3.61 -5,-3.28 -0.66,-0.84 -1.54,-1.5 -2.66,-1.89 -1.75,-0.6 -3.61,0.01 -4.77,1.3l0.01 17.44c0.29,-0.02 0.59,-0.04 0.9,-0.06l1.21 -0.17c0.11,-0.23 0.22,-0.45 0.34,-0.66 0.1,-0.19 0.22,-0.29 0.36,-0.33 0.57,0.27 1.14,0.49 1.71,0.61 0,0 0,0.01 0,0.01l1.18 0.24c0.02,-0.06 0.04,-0.11 0.05,-0.16 0.67,-0.04 1.34,-0.25 2.02,-0.67 1.02,-0.65 1.61,-1.73 1.76,-2.88 0.13,-0.27 0.3,-0.4 0.65,-0.46 2.03,-0.31 3.28,-1.61 3.54,-3.62 0.18,-1.38 -0.22,-2.6 -0.84,-3.79z"/>
   <g>
    <path class="fil7" d="M869.5 202.8c-0.42,0.07 -1.38,-2.03 -1.73,-2.73l-1.63 -0.3c0.01,0.02 0.03,0.03 0.04,0.05 0.27,0.33 0.49,1 0.69,1.68 -0.69,-1.07 -1.42,-2.13 -2.16,-3.17l-1.86 -0.53c1.99,2.71 3.83,5.52 5.5,8.44 -0.08,0.47 -0.24,0.97 -0.46,1.59 -0.5,1.39 -0.03,2.09 1.45,2.14 0.23,0 0.45,0.01 0.67,-0.01 0.02,0 0.03,0 0.05,-0.01l0 -7.58c-0.16,0.23 -0.34,0.4 -0.56,0.43z"/>
   </g>
   <g>
    <path class="fil8" d="M874.58 199.3c-0.33,1.15 -0.93,2.21 -1.78,3.13 -0.61,0.65 -1.31,1.2 -1.94,1.8 0.24,-1.38 0.64,-3.1 1.31,-4.56l-1.21 0.17c0.02,0 0.04,0 0.06,0 -0.02,0.07 -0.04,0.16 -0.08,0.23 -0.27,0.46 -0.46,1.65 -0.88,2.3l0 7.58c0.83,-0.09 1.26,-0.72 1.03,-1.53 -0.16,-0.55 -0.44,-1.09 -0.51,-1.65 -0.01,-0.03 0,-0.16 0.01,-0.37 0.84,-1.58 2.71,-2.51 3.77,-3.95 0.65,-0.89 1.12,-1.88 1.4,-2.91l-1.18 -0.24z"/>
   </g>
   <path class="fil5" d="M166.84 218.94l55.69 0c0,0 5,-5.93 -1.61,-11.75 -4.36,-3.84 -8.72,1.93 -8.72,1.93 0,0 2.06,-14.16 -15.02,-14.16 -16.29,0 -14.15,11.9 -14.15,11.9 0,0 -18.46,-5.29 -16.19,12.08z"/>
   <path class="fil5" d="M654.54 211.13l32.63 0c0,0 2.93,-3.47 -0.94,-6.88 -2.56,-2.25 -5.11,1.13 -5.11,1.13 0,0 1.2,-8.3 -8.8,-8.3 -9.55,0 -8.3,6.98 -8.3,6.98 0,0 -10.81,-3.1 -9.48,7.07z"/>
   <path class="fil5" d="M832.2 211.47l32.64 0c0,0 2.93,-3.48 -0.94,-6.89 -2.56,-2.25 -5.12,1.14 -5.12,1.14 0,0 1.21,-8.3 -8.8,-8.3 -9.54,0 -8.29,6.97 -8.29,6.97 0,0 -10.81,-3.1 -9.49,7.08z"/>
   <path class="fil6" d="M681.7 213.54l21.79 0c0,0 1.95,-2.32 -0.63,-4.6 -1.71,-1.5 -3.42,0.76 -3.42,0.76 0,0 0.81,-5.54 -5.87,-5.54 -6.37,0 -5.53,4.65 -5.53,4.65 0,0 -7.22,-2.06 -6.34,4.73z"/>
   <path class="fil6" d="M818.48 212.55l21.78 0c0,0 1.96,-2.32 -0.63,-4.59 -1.7,-1.51 -3.41,0.75 -3.41,0.75 0,0 0.8,-5.54 -5.87,-5.54 -6.37,0 -5.54,4.66 -5.54,4.66 0,0 -7.22,-2.07 -6.33,4.72z"/>
   <path class="fil5" d="M410.71 219.61l28.94 0c0,0 2.6,-3.08 -0.84,-6.1 -2.26,-2 -4.53,1 -4.53,1 0,0 1.07,-7.36 -7.8,-7.36 -8.47,0 -7.36,6.19 -7.36,6.19 0,0 -9.58,-2.75 -8.41,6.27z"/>
   <path class="fil6" d="M437.83 216.31l55.69 0c0,0 5,-5.93 -1.61,-11.75 -4.36,-3.84 -8.72,1.93 -8.72,1.93 0,0 2.05,-14.16 -15.02,-14.16 -16.29,0 -14.16,11.89 -14.16,11.89 0,0 -18.45,-5.28 -16.18,12.09z"/>
   <path class="fil6" d="M68.41 216.3l37.17 0c0,0 3.34,-3.96 -1.07,-7.84 -2.92,-2.57 -5.83,1.29 -5.83,1.29 0,0 1.38,-9.46 -10.02,-9.46 -10.87,0 -9.45,7.95 -9.45,7.95 0,0 -12.31,-3.53 -10.8,8.06z"/>
   <polygon class="fil2" points="310.1,99.43 242.78,99.43 234.83,99.43 234.83,206.63 322.92,206.63 322.92,99.43 "/>
   <polygon class="fil1" points="249.89,129.24 258.64,129.24 258.64,113.19 249.89,113.19 "/>
   <polygon class="fil1" points="266.38,129.24 275.14,129.24 275.14,113.19 266.38,113.19 "/>
   <polygon class="fil1" points="282.61,129.24 291.36,129.24 291.36,113.19 282.61,113.19 "/>
   <polygon class="fil1" points="299.1,113.19 299.1,129.24 307.86,129.24 307.86,113.19 "/>
   <polygon class="fil1" points="249.89,151.34 258.64,151.34 258.64,135.29 249.89,135.29 "/>
   <polygon class="fil1" points="266.38,151.34 275.14,151.34 275.14,135.29 266.38,135.29 "/>
   <polygon class="fil1" points="282.61,151.34 291.36,151.34 291.36,135.29 282.61,135.29 "/>
   <polygon class="fil1" points="299.1,151.34 307.86,151.34 307.86,135.29 299.1,135.29 "/>
   <polygon class="fil1" points="249.89,173.44 258.64,173.44 258.64,157.39 249.89,157.39 "/>
   <polygon class="fil1" points="266.38,173.44 275.14,173.44 275.14,157.39 266.38,157.39 "/>
   <polygon class="fil1" points="282.61,173.44 291.36,173.44 291.36,157.39 282.61,157.39 "/>
   <polygon class="fil1" points="299.1,173.44 307.86,173.44 307.86,157.39 299.1,157.39 "/>
   <path class="fil5" d="M907.38 205.12l28.94 0c0,0 2.6,-3.08 -0.84,-6.1 -2.26,-2 -4.53,1 -4.53,1 0,0 1.07,-7.36 -7.8,-7.36 -8.46,0 -7.36,6.19 -7.36,6.19 0,0 -9.58,-2.75 -8.41,6.27z"/>
   <path class="fil6" d="M935.19 208.29l55.7 0c0,0 5,-5.93 -1.61,-11.75 -4.36,-3.84 -8.73,1.93 -8.73,1.93 0,0 2.06,-14.16 -15.01,-14.16 -16.29,0 -14.16,11.9 -14.16,11.9 0,0 -18.45,-5.28 -16.19,12.08z"/>
   <path class="fil6" d="M274.41 214.28l37.17 0c0,0 3.34,-3.96 -1.07,-7.84 -2.92,-2.57 -5.83,1.29 -5.83,1.29 0,0 1.38,-9.46 -10.02,-9.46 -10.87,0 -9.45,7.95 -9.45,7.95 0,0 -12.32,-3.53 -10.8,8.06z"/>
   <rect class="fil9" width="1048.13" height="219.61"/>
  </g>
 </g>
</svg>
