<?xml version="1.0" encoding="UTF-8"?>
<!DOCTYPE svg PUBLIC "-//W3C//DTD SVG 1.1//EN" "http://www.w3.org/Graphics/SVG/1.1/DTD/svg11.dtd">
<!-- Creator: CorelDRAW 2018 (64-Bit) -->
<svg xmlns="http://www.w3.org/2000/svg" xml:space="preserve" width="982px" height="313px" version="1.1" style="shape-rendering:geometricPrecision; text-rendering:geometricPrecision; image-rendering:optimizeQuality; fill-rule:evenodd; clip-rule:evenodd"
viewBox="0 0 1048.13 333.78"
 xmlns:xlink="http://www.w3.org/1999/xlink">
 <defs>
  <style type="text/css">
   <![CDATA[
    .fil2 {fill:none}
    .fil0 {fill:#C4C4C4;fill-rule:nonzero}
    .fil1 {fill:#EBEBEB;fill-rule:nonzero}
   ]]>
  </style>
 </defs>
 <g id="Слой_x0020_1">
  <metadata id="CorelCorpID_0Corel-Layer"/>
  <g id="_2276969404864">
   <path class="fil0" d="M344.74 223.37c-1.91,0 -3.66,0.73 -4.98,1.91 -2,-3.69 -5.9,-6.2 -10.39,-6.2 -2.46,0 -4.75,0.76 -6.64,2.05 -3.3,-5.43 -9.27,-9.07 -16.1,-9.07 -6.07,0 -11.48,2.89 -14.91,7.36 -0.89,-0.22 -1.82,-0.34 -2.77,-0.34 -6.52,0 -11.79,5.28 -11.79,11.79l75.08 0c0,-4.14 -3.36,-7.5 -7.5,-7.5z"/>
   <path class="fil0" d="M1004.93 290.48c-2.1,0 -4.02,0.8 -5.47,2.09 -2.19,-4.05 -6.47,-6.8 -11.4,-6.8 -2.71,0 -5.22,0.83 -7.3,2.25 -3.61,-5.97 -10.17,-9.96 -17.66,-9.96 -6.67,0 -12.6,3.17 -16.38,8.08 -0.97,-0.24 -1.99,-0.37 -3.04,-0.37 -7.15,0 -12.94,5.79 -12.94,12.94l82.42 0c0,-4.55 -3.69,-8.23 -8.23,-8.23z"/>
   <path class="fil1" d="M187.85 57.79c-2.63,0 -5.02,1 -6.83,2.62 -2.74,-5.06 -8.09,-8.51 -14.24,-8.51 -3.39,0 -6.53,1.05 -9.12,2.82 -4.52,-7.46 -12.72,-12.44 -22.08,-12.44 -8.33,0 -15.74,3.96 -20.45,10.09 -1.22,-0.29 -2.49,-0.47 -3.8,-0.47 -8.93,0 -16.18,7.24 -16.18,16.17l102.99 0c0,-5.67 -4.61,-10.28 -10.29,-10.28z"/>
   <path class="fil1" d="M726.92 35.16c-1.77,0 -3.38,0.67 -4.61,1.77 -1.84,-3.42 -5.45,-5.74 -9.6,-5.74 -2.28,0 -4.39,0.71 -6.15,1.9 -3.04,-5.02 -8.57,-8.39 -14.87,-8.39 -5.62,0 -10.62,2.67 -13.8,6.81 -0.82,-0.2 -1.67,-0.32 -2.56,-0.32 -6.02,0 -10.9,4.88 -10.9,10.9l69.42 0c0,-3.82 -3.1,-6.93 -6.93,-6.93z"/>
   <path class="fil0" d="M747.93 156.79c-1.92,0 -3.66,0.72 -4.99,1.9 -1.99,-3.69 -5.89,-6.2 -10.38,-6.2 -2.47,0 -4.76,0.76 -6.65,2.06 -3.3,-5.44 -9.27,-9.07 -16.09,-9.07 -6.08,0 -11.48,2.88 -14.92,7.35 -0.89,-0.21 -1.82,-0.34 -2.77,-0.34 -6.51,0 -11.79,5.28 -11.79,11.79l75.08 0c0,-4.14 -3.35,-7.49 -7.49,-7.49z"/>
   <path class="fil1" d="M366.65 118.57c-1.77,0 -3.38,0.68 -4.6,1.77 -1.85,-3.42 -5.45,-5.74 -9.6,-5.74 -2.28,0 -4.4,0.71 -6.15,1.91 -3.05,-5.03 -8.57,-8.39 -14.88,-8.39 -5.62,0 -10.61,2.67 -13.79,6.8 -0.82,-0.2 -1.68,-0.32 -2.56,-0.32 -6.02,0 -10.9,4.89 -10.9,10.9l69.42 0c0,-3.82 -3.11,-6.93 -6.94,-6.93z"/>
   <path class="fil1" d="M932.37 10.46c-1.77,0 -3.38,0.67 -4.61,1.76 -1.84,-3.41 -5.45,-5.73 -9.6,-5.73 -2.28,0 -4.39,0.7 -6.14,1.9 -3.05,-5.03 -8.58,-8.39 -14.88,-8.39 -5.62,0 -10.61,2.67 -13.79,6.8 -0.83,-0.2 -1.68,-0.31 -2.57,-0.31 -6.01,0 -10.9,4.88 -10.9,10.9l69.42 0c0,-3.83 -3.1,-6.93 -6.93,-6.93z"/>
   <rect class="fil2" width="1048.13" height="333.78"/>
  </g>
 </g>
</svg>
