<svg xmlns="http://www.w3.org/2000/svg" xmlns:xlink="http://www.w3.org/1999/xlink" viewBox="0 0 1920 722.566"><defs><style>.a{fill-rule:evenodd;}.b{opacity:0.7;}.c{fill:#2b2a2a;}.d{fill:#1a1a1a;}.e,.n{fill:#333;}.f{fill:#f8bb99;}.g{fill:#4d4d4d;}.h{fill:#5c2b24;}.i{fill:#fefefe;}.j{fill:#d94e28;}.k{fill:#53baaa;}.l{fill:#f1a47c;}.m{fill:#ed9166;}.n{stroke:#333;stroke-miterlimit:2.613;stroke-width:0.9px;}.o{fill:#99482c;}.p{fill:#2cb7be;}.q{fill:#e52730;}.r{fill:#bf7353;}.s{fill:#562822;}.t{fill:#e1242d;}.u{fill:#60a68d;}.v{fill:#303030;}.w{font-size:29px;font-family:ArialMT, Arial;}.x{fill:url(#a);}.y{fill:url(#b);}</style><linearGradient id="a" x1="0.582" y1="0.528" x2="0.498" y2="0.5" gradientUnits="objectBoundingBox"><stop offset="0" stop-color="#bb9228"/><stop offset="0.188" stop-color="#fbf5cb"/><stop offset="0.471" stop-color="#d6bb70"/><stop offset="0.769" stop-color="#fbf5cb"/><stop offset="0.969" stop-color="#af8219"/><stop offset="1" stop-color="#af8219"/></linearGradient><linearGradient id="b" x1="0.581" y1="0.526" x2="0.502" y2="0.5" xlink:href="#a"/></defs><path class="a" d="M0,0H1920V722.566H0Z"/><g class="b" transform="translate(369.897 97.024)"><path class="c" d="M2010.045,1227.692a11.942,11.942,0,0,1-16.319,4.374l-152.234-87.892a11.948,11.948,0,0,1-4.374-16.321l174.374-302.022a11.947,11.947,0,0,1,16.319-4.372l152.234,87.892a11.944,11.944,0,0,1,4.372,16.319l-174.372,302.022Z" transform="translate(-1722.527 -736.034)"/><path class="d" d="M1940.31,1199.083l155.781,89.939,153.249-265.434L2093.559,933.65Z" transform="translate(-1804.205 -824.725)"/><path class="c" d="M2244.959,1017.007,2086.985,925.8,1932.47,1193.426l157.974,91.207Zm-3.459.926-151.982,263.241L1935.931,1192.5l151.98-263.241Z" transform="translate(-1798.094 -818.607)"/><path d="M2222.377,2378.738a11.123,11.123,0,1,1-4.07-15.2A11.123,11.123,0,0,1,2222.377,2378.738Z" transform="translate(-2007.875 -1938.043)"/><path d="M2231.662,2389.756l-.81-.468a5.47,5.47,0,1,1,.545-4.147,5.466,5.466,0,0,1-.545,4.147l1.621.935a7.338,7.338,0,1,0-10.023,2.689,7.339,7.339,0,0,0,10.023-2.689Z" transform="translate(-2021.248 -1951.421)"/><path d="M2914.265,1029.731a3.841,3.841,0,0,1-5.25,1.405l-38-21.937a3.841,3.841,0,1,1,3.843-6.653l38,21.937A3.842,3.842,0,0,1,2914.265,1029.731Z" transform="translate(-2528.115 -878.022)"/><path d="M3112.441,1139.949a6.653,6.653,0,1,1-2.435-9.088A6.652,6.652,0,0,1,3112.441,1139.949Z" transform="translate(-2708.105 -977.74)"/><path class="c" d="M3120.446,1149.049a3.652,3.652,0,1,1-1.337-4.99A3.651,3.651,0,0,1,3120.446,1149.049Z" transform="translate(-2718.708 -988.34)"/><path d="M3119.524,1138.045a1.957,1.957,0,1,1-.717-2.674A1.958,1.958,0,0,1,3119.524,1138.045Z" transform="translate(-2720.456 -981.746)"/><path class="e" d="M2551.12,1007.679c.137-.071.271-.146.406-.223l12.525-7.288a9.437,9.437,0,0,0,.6-15.928Z" transform="translate(-2280.28 -864.156)"/><path class="f" d="M2752.564,1430.818a9.436,9.436,0,0,0,9.492,16.312l12.525-7.288a9.435,9.435,0,0,0-9.492-16.31Z" transform="translate(-2433.632 -1205.548)"/><path class="e" d="M2376.97,1060.232a56.877,56.877,0,0,0,81.722,28.908l40.281-23.433a56.835,56.835,0,0,0,28.228-51.277L2443.84,966.3c-.684.362-1.365.735-2.041,1.127l-16.937,9.854Z" transform="translate(-2144.545 -850.173)"/><path class="d" d="M2714.732,1335.144a8.68,8.68,0,1,0,11.865,3.141A8.676,8.676,0,0,0,2714.732,1335.144Z" transform="translate(-2404.438 -1136.739)"/><path class="g" d="M2747.808,1360.421a3.534,3.534,0,1,0,4.835,1.275A3.539,3.539,0,0,0,2747.808,1360.421Z" transform="translate(-2432.212 -1156.983)"/><path class="h" d="M2584.659,1111.558a8.679,8.679,0,1,0,11.865,3.139A8.676,8.676,0,0,0,2584.659,1111.558Z" transform="translate(-2303.057 -962.471)"/><path class="i" d="M2617.734,1136.823a3.537,3.537,0,1,0,4.835,1.277A3.54,3.54,0,0,0,2617.734,1136.823Z" transform="translate(-2330.829 -982.708)"/><path class="e" d="M2419.753,1061.117l-8.3-14.276-1.048.611,40.517-70.177,16.939-9.856h0q1.013-.589,2.036-1.129l9.267,5.349c-2.382,12.569-1.952,27.968,6.944,43.257a67.568,67.568,0,0,0,4.736,7.081l-30.463,27.1-5.038-8.66Zm41.159-61.876a8.68,8.68,0,1,0,3.156,3.15A8.673,8.673,0,0,0,2460.912,999.241Z" transform="translate(-2170.601 -850.165)"/><path class="d" d="M2584.679,1126.573a8.678,8.678,0,1,1,8.707-.011A8.642,8.642,0,0,1,2584.679,1126.573Zm8.834-9.99a3.538,3.538,0,1,0,1.284,1.282A3.541,3.541,0,0,0,2593.513,1116.583Z" transform="translate(-2303.057 -962.471)"/><path class="g" d="M2617.738,1142.94a3.536,3.536,0,1,1,3.552,0A3.523,3.523,0,0,1,2617.738,1142.94Z" transform="translate(-2330.829 -982.709)"/><path class="j" d="M2800.484,1320s2.468,6.9-6.558,12.015c-4.074,2.31-20.967,10.279-28.255,14-22.517,11.481-30.679,15.357-30.679,15.357s-3.1-4.63,5.062-9.375,32.36-25.286,31.012-38.053Z" transform="translate(-2423.143 -1121.129)"/><path class="d" d="M2586.646,958.06c-4.8,3.289-9.719,6.677-12.858,8.744l-1.019.673-8.539,14.79c12.262-4.859,32.011-10.107,40.1-4.3l2.649-8.162-20.336-11.742Z" transform="translate(-2290.498 -843.751)"/><path class="d" d="M2488.263,1289.922a21.9,21.9,0,0,1-22.019-37.852Z" transform="translate(-2205.893 -1072.907)"/><path class="g" d="M2477.42,1257.17a21.882,21.882,0,0,1,5.768-5.1l22.019,37.852a21.818,21.818,0,0,1-7.283,2.488Z" transform="translate(-2222.837 -1072.907)"/><path class="e" d="M2463.5,1322.27a15.679,15.679,0,0,1,13.03,22.4Z" transform="translate(-2211.988 -1127.622)"/><path class="g" d="M2471.558,1339.894a21.843,21.843,0,0,1-15.222-26.164l15.223,26.164Z" transform="translate(-2205.919 -1120.965)"/><path class="k" d="M2150.958,1437.47l1.754,3.02,7.034,12.086,13.048,56.772s4.352,13.619-5.634,23.464c-8.406,8.287-40.031,34.1-49.821,42.043l-22.938-39.427,56.558-97.957Z" transform="translate(-1924.305 -1217.41)"/><path class="e" d="M2299.79,1374.333l8.947,5.056,33.158-19.29-16.658-28.639-1.046.611Z" transform="translate(-2084.389 -1134.784)"/><path class="l" d="M2452.824,1396.224l-.024-.044h0Z" transform="translate(-2203.648 -1185.228)"/><path class="m" d="M2423.455,1345.736l-8.3-14.276Z" transform="translate(-2174.303 -1134.784)"/><path class="n" d="M2334.87,1360.928l16.661-28.857,1.048-.611,8.305,14.276.024.044Z" transform="translate(-2111.731 -1134.784)"/><path class="d" d="M2795.164,1035.249a78.225,78.225,0,0,1-8.64,32.7s-41.218,1.306-61.839-34.14c-8.9-15.291-9.326-30.685-6.939-43.254Z" transform="translate(-2409.183 -869.074)"/><path class="d" d="M2144.316,1490.664s-11.726-12.02-25.107-14.812c-12.247-2.557-23.369,1.74-31.1,5.848l-63.3,109.635.024.047,16.266,28.808s13.383,23.7,41.637,7.745c18.461-10.42,69.407-39.182,69.407-39.182,14.552-8.219,24.2-28.5,24.456-46.627C2176.817,1526.479,2167.563,1497.044,2144.316,1490.664Z" transform="translate(-1870.066 -1246.726)"/><path class="g" d="M1961.541,2119.259l-13.381-7.725.166-.291.022.013,11.208-6.327Z" transform="translate(-1810.323 -1737.639)"/><path class="f" d="M2351.664,2057.534a6.564,6.564,0,1,1-6.454-11.431l8.779-4.959a6.565,6.565,0,0,1,6.454,11.435Z" transform="translate(-2117.187 -1687.263)"/><path class="e" d="M2088.9,1651.98a55.444,55.444,0,0,1-74.145-18.692l57.2-99.067,5.439-3.071a55.438,55.438,0,0,1,54.509,96.552Z" transform="translate(-1862.224 -1284.837)"/><path class="o" d="M2119.68,2112.55a55.412,55.412,0,0,0,45.979.684h0A55.39,55.39,0,0,1,2119.68,2112.55Z" transform="translate(-1944.009 -1743.578)"/><path class="e" d="M2068.036,1850.085a55.178,55.178,0,0,1-9.457-6.891l11.117-6.276-8.581-15.2,33.915-19.147-4.8-8.506,45.626-15.56c-2.594,10.877-3.4,23.726-.986,38.682a56.6,56.6,0,0,0-14.508,26.174l-2.327,9.512a55.412,55.412,0,0,1-45.979-.684q-2.048-.97-4.021-2.109Z" transform="translate(-1896.386 -1483.222)"/><path class="d" d="M2064.7,1857.942a23.148,23.148,0,0,0,33.939,17.148l-21.675-38.391Z" transform="translate(-1901.156 -1528.576)"/><path class="g" d="M2117.888,1877.627a22.981,22.981,0,0,0,7.727-2.537L2103.94,1836.7l-4.63,8.02Z" transform="translate(-1928.132 -1528.576)"/><path class="e" d="M2089.712,1926.548a16.057,16.057,0,0,0-.424-15.472,16.316,16.316,0,0,0-10.859-8.087l-1.019,1.767Z" transform="translate(-1911.063 -1580.244)"/><path class="g" d="M2064.73,1915.836a23.084,23.084,0,0,0,16.233,18.95l-13.436-23.8Z" transform="translate(-1901.18 -1586.479)"/><path class="e" d="M1948.932,1989.543l-.022-.013,23.534-40.76,11.775,20.852Z" transform="translate(-1810.908 -1615.926)"/><path class="m" d="M2078.661,1989.606l-8.581-15.2h0Z" transform="translate(-1905.35 -1635.91)"/><path class="e" d="M1948.932,2009.395l-.022-.013,17.188-29.768,9.518-5.374.022.038,8.581,15.2-11.118,6.276,0,0Z" transform="translate(-1810.908 -1635.777)"/><path class="d" d="M2231.544,1504.747c1.491-.726,3.011-1.405,4.559-2.025,16.33-6.549,35.622-5.68,52.325,9.573,0,0-10.18,27.119-47.108,30.705a58.423,58.423,0,0,1-29.13-4.734l19.354-33.52Z" transform="translate(-2016.112 -1265.252)"/><path class="d" d="M2184.432,1735.024a8.124,8.124,0,1,1,3.077-11.071A8.126,8.126,0,0,1,2184.432,1735.024Z" transform="translate(-1985.032 -1437.482)"/><path class="g" d="M2202.773,1736.626a3.31,3.31,0,1,1,1.259-4.509A3.305,3.305,0,0,1,2202.773,1736.626Z" transform="translate(-2004.929 -1445.75)"/><path class="d" d="M2303.462,1945.858a8.122,8.122,0,1,1,3.08-11.067A8.118,8.118,0,0,1,2303.462,1945.858Z" transform="translate(-2077.807 -1601.812)"/><path class="g" d="M2321.806,1947.462a3.309,3.309,0,1,1,1.257-4.506A3.309,3.309,0,0,1,2321.806,1947.462Z" transform="translate(-2097.703 -1610.08)"/><path class="p" d="M2334.7,2100.553a4.738,4.738,0,1,1,1.8-6.459A4.737,4.737,0,0,1,2334.7,2100.553Z" transform="translate(-2106.087 -1727.318)"/><path class="d" d="M2433.164,1559.8s-59.924,35.649-23.563,121.385c0,0,4.855-14.746,12.474-19.05s55.492-28.25,36.394-75.912C2455.07,1577.734,2448.164,1564.031,2433.164,1559.8Z" transform="translate(-2160.85 -1312.756)"/><path class="d" d="M2742.894,1173.157c-13.844-.783-58.382,1.083-65.933,56.359-9.836,72.041-17.892,131.02-17.892,131.02l57.665,7.877,83.478-144.589a53.336,53.336,0,0,0-2.638-19.1Z" transform="translate(-2364.418 -1011.314)"/><path class="q" d="M2629.779,1943.15l-4.994-.682-11.49-1.568-48.2,11.825s-11.914,1.661-16.725,15.485c-4.048,11.638-15.071,53.1-18.454,65.922l43.872,5.991Z" transform="translate(-2263.756 -1609.792)"/><path class="e" d="M2820.018,1943.15l-4.994-.682-11.49-1.568-18.977,4.654-10.557,77.3Z" transform="translate(-2453.996 -1609.792)"/><path class="i" d="M2779.276,2137.29,2774,2175.928l21.062-36.48Z" transform="translate(-2453.996 -1762.861)"/><path class="e" d="M2886.983,1872.886l-11.472-9,5.481-40.144,31.855,4.35Z" transform="translate(-2533.115 -1518.475)"/><path class="r" d="M2740.922,1540.219a6.564,6.564,0,1,1-13.008-1.776l1.363-9.992a6.564,6.564,0,1,1,13.008,1.778Z" transform="translate(-2418.029 -1283.897)"/><path class="e" d="M2808.552,1342.122a55.484,55.484,0,0,1-55.989-62.939l6.679-48.926a55.439,55.439,0,0,1,59.86-47.714l40.413,23.331a55.268,55.268,0,0,1,10.078,30.52l-61.042,105.728Z" transform="translate(-2436.885 -1018.54)"/><path class="s" d="M3251.733,1321.986v0Zm0-.029a55.227,55.227,0,0,0-9.317-28.274A55.261,55.261,0,0,1,3251.731,1321.957Zm-9.348-28.325s0,0,0,0S3242.38,1293.632,3242.382,1293.632Z" transform="translate(-2819.059 -1105.299)"/><path class="e" d="M2961.471,1351.17l7.379-54.028-9.679-1.321,15.686-47.17a89.559,89.559,0,0,1,28.929,1.176l-18.955-55.256,36.13,20.859c.229.331.459.66.682.993,0,0,0,0,0,0,.009.018.02.033.031.051a55.227,55.227,0,0,1,9.317,28.275.018.018,0,0,0,0,.011v.018c.015.386.031.77.04,1.16L2969.99,1351.67A55.9,55.9,0,0,1,2961.471,1351.17Z" transform="translate(-2598.321 -1028.09)"/><path class="d" d="M2889.583,1709.88a23.129,23.129,0,0,0,41.734,16.25l2.327-4.032a23.212,23.212,0,0,0,1.763-5.958Z" transform="translate(-2543.956 -1429.731)"/><path class="g" d="M2933.559,1722.29a22.916,22.916,0,0,0,1.873-6.15l-45.824-6.26a23.1,23.1,0,0,0,.5,8.118l42.577,5.814Z" transform="translate(-2543.98 -1429.731)"/><path class="e" d="M2949.677,1773.207a16.553,16.553,0,0,0-27.117-3.7Z" transform="translate(-2569.786 -1471.93)"/><path class="g" d="M2912.22,1787.46a23.08,23.08,0,0,0,31.68,4.323Z" transform="translate(-2561.727 -1490.198)"/><path class="d" d="M2869.219,1564.431a8.123,8.123,0,1,1-6.951-9.148A8.119,8.119,0,0,1,2869.219,1564.431Z" transform="translate(-2515.607 -1309.177)"/><path class="g" d="M2874.77,1571.069a3.309,3.309,0,1,1-2.828-3.728A3.305,3.305,0,0,1,2874.77,1571.069Z" transform="translate(-2527.402 -1318.61)"/><path class="d" d="M3109.117,1597.195a8.267,8.267,0,0,1-.238,1.132l-1.972,3.417a8.124,8.124,0,1,1,2.21-4.548Z" transform="translate(-2702.588 -1334.712)"/><path class="g" d="M3114.667,1603.832a3.308,3.308,0,1,1-2.832-3.73A3.311,3.311,0,0,1,3114.667,1603.832Z" transform="translate(-2714.383 -1344.144)"/><path class="i" d="M2734.7,1610.265a4.739,4.739,0,1,1-4.052-5.34A4.737,4.737,0,0,1,2734.7,1610.265Z" transform="translate(-2416.008 -1347.893)"/><path class="d" d="M2673.44,1354.258l18.759-4.813,8.737-63.963c9.47-69.345,80.147-52.369,80.147-52.369l-18.955-55.256-7.884-4.551c-57.546-3.77-63.345,53.117-63.345,53.117l-17.459,127.835Z" transform="translate(-2375.618 -1011.377)"/><path class="d" d="M3094.455,1249.826s-3.113,21.057,5.133,34.418l22.237-38.516c-.119-6.5-1.227-17.6-6.541-28.188L3075.5,1194.57Z" transform="translate(-2688.99 -1028.09)"/><path class="f" d="M2761.2,2265.063l3.068-12.529a9.438,9.438,0,0,1,8.3-7.154Z" transform="translate(-2444.02 -1847.108)"/><path class="e" d="M2276.136,2148.378a9.435,9.435,0,0,1-18.328-4.487l3.445-14.08a9.436,9.436,0,1,1,18.331,4.489Z" transform="translate(-2051.456 -1751.423)"/><path class="e" d="M2281.28,1975.538a57.217,57.217,0,0,1,1.579-10.906l11.08-45.271a56.857,56.857,0,0,1,110.453,27.037l-.382,1.559-42.626,73.827h0Z" transform="translate(-2069.962 -1559.218)"/><path class="d" d="M2409.312,2204.538a8.679,8.679,0,1,1-6.366-10.5A8.679,8.679,0,0,1,2409.312,2204.538Z" transform="translate(-2156.416 -1806.899)"/><path class="g" d="M2416.459,2210.435a3.536,3.536,0,1,1-2.592-4.273A3.535,3.535,0,0,1,2416.459,2210.435Z" transform="translate(-2169.89 -1816.462)"/><path class="h" d="M2660.592,2266.048a8.679,8.679,0,1,1-6.369-10.5A8.676,8.676,0,0,1,2660.592,2266.048Z" transform="translate(-2352.268 -1854.841)"/><path class="i" d="M2667.744,2271.938a3.534,3.534,0,1,1-2.594-4.271A3.533,3.533,0,0,1,2667.744,2271.938Z" transform="translate(-2365.746 -1864.399)"/><path class="t" d="M2809.851,2000.994q-.731-1.337-1.531-2.634Q2809.121,1999.657,2809.851,2000.994Z" transform="translate(-2480.746 -1654.577)"/><path class="e" d="M2527.1,2027.645l-29.728-17.164,6.256-25.561-9.732-2.382,21.479-45.595,13.074-53.412a56.68,56.68,0,0,1,34.8,25.33q.8,1.3,1.531,2.636a56.66,56.66,0,0,1,5.325,40.762h0l-.379,1.555Zm12.818-60.943a8.681,8.681,0,1,0,4.083,9.582A8.737,8.737,0,0,0,2539.923,1966.7Z" transform="translate(-2235.682 -1565.077)"/><path class="d" d="M2647.814,2271.5a8.687,8.687,0,1,1,2.283.915A8.676,8.676,0,0,1,2647.814,2271.5Zm4.785-13.014a3.439,3.439,0,0,0-.929-.373,3.533,3.533,0,1,0,.929.373Z" transform="translate(-2352.267 -1854.841)"/><path class="g" d="M2662.54,2274.159a3.534,3.534,0,0,1,2.609-6.492,3.439,3.439,0,0,1,.929.373,3.534,3.534,0,0,1-3.538,6.119Z" transform="translate(-2365.745 -1864.399)"/><path class="d" d="M2312.125,1931.849s-10.151-5.424-15.121,18.176c-.966,4.588-3.571,18.456-5.076,26.5-4.643,24.853-6.048,33.778-6.048,33.778s5.312,1.657,7.557-7.511,15.1-38.192,27.725-40.512Z" transform="translate(-2073.548 -1602.318)"/><path class="c" d="M2769.161,2067.78s6.681,3.015,4.1,13.068c-.25.973-.722,2.548-1.33,4.5l-20.016,34.669c.675-12.906-.516-29.79-7.533-35.256Z" transform="translate(-2430.909 -1708.684)"/><path class="d" d="M2372.123,2270.5a8.913,8.913,0,0,1-2.4.516c-12.43.838-16.588-12.152-34.228-16.469l-.007.026,0-.029c-17.64-4.319-27.328,5.283-37.965-1.2-10.039-6.128-5.883-32.735-5.883-32.735l-8.6,6.688a79.581,79.581,0,0,0-2.691,16.7l80.313,46.369h0Z" transform="translate(-2069.23 -1827.802)"/><path class="d" d="M2437.106,2404.32a18.129,18.129,0,0,0-.406,2.782l28.074,16.206a18.019,18.019,0,0,0,7.412-10.4Z" transform="translate(-2191.099 -1970.988)"/><path class="g" d="M2469.527,2418.66a18.029,18.029,0,0,0,2.689-5.755l-35.08-8.585a17.7,17.7,0,0,0-.4,2.786l10.61,6.126Z" transform="translate(-2191.13 -1970.988)"/><path class="e" d="M2509.888,2459.185a12.854,12.854,0,0,0-7.851-5.543,13.618,13.618,0,0,0-2.378-.362l10.229,5.905Z" transform="translate(-2240.171 -2009.149)"/><path class="d" d="M2400.126,1870.734s11.567-26.527,59.152-14.876c37.288,9.126,49.823,31.063,44.132,60.553l-14.292,24.754c-5.374-1.837-13.575-6.227-19.646-16.632,0,0-.7,8.369,2.2,13.681,0,0-13.52-6.909-19.043-17.869,0,0-5.111,6.156-2.3,12.648,0,0-26.347-17.459-31.131-31.435,0,0,.821,13.806,5.418,18.736C2424.622,1920.293,2391.85,1907,2400.126,1870.734Z" transform="translate(-2161.548 -1541.203)"/><g transform="translate(187.429)"><path class="u" d="M2702.94,1014q1.009-.586,2.034-1.129Q2703.951,1013.413,2702.94,1014Zm2.034-1.129Z" transform="translate(-2586.04 -886.47)"/><path class="v" d="M2231.182,547.765a54.031,54.031,0,1,0-31.171-7.076q2.362,1.363,4.8,2.46l21.933,31.416Z" transform="translate(-2172.983 -439.849)"/><path d="M2325.076,583.061v0l.011,0a3.177,3.177,0,0,1,.353.062c6.77,1.138,11.711-1.191,15.426-5.777a4.39,4.39,0,0,1,5.442-1.273c1.791,1.015,2.107,3.825.364,5.976a41.373,41.373,0,0,1-8.645,8.179l21.214,12.247a3.874,3.874,0,0,1-3.874,6.71l-2.135-1.233a3.874,3.874,0,0,1-3.873,6.71l-2.135-1.233a3.875,3.875,0,0,1-3.876,6.71l-2.135-1.233a3.873,3.873,0,1,1-3.874,6.708l-26.512-15.306a3.194,3.194,0,0,1-1.171-4.365l12.3-21.3a3.193,3.193,0,0,1,3.121-1.577Z" transform="translate(-2279.173 -545.647)"/><path d="M2264.466,603.48a2.326,2.326,0,0,0,.851,3.179l5.082,2.934a2.324,2.324,0,0,0,3.177-.851L2288.15,583.5a2.322,2.322,0,0,0-.852-3.177l-5.08-2.934a2.327,2.327,0,0,0-3.179.849Z" transform="translate(-2244.042 -546.805)"/></g><g transform="translate(53.047 97.174)"><path class="v" d="M1597.249,881.844l131.57,75.963a10.92,10.92,0,0,1,4,14.916l-17.1,29.611a10.92,10.92,0,0,1-14.916,3.995l-9.108-5.259-2.045,12.335-15.8-22.641-104.614-60.4a10.919,10.919,0,0,1-4-14.916l17.1-29.609A10.921,10.921,0,0,1,1597.249,881.844Z" transform="translate(-1563.772 -880.379)"/><g transform="translate(66.562 35.911) rotate(30)"><text class="w" transform="translate(0 26.491)"><tspan x="0" y="0">200 000</tspan></text></g><g transform="translate(17.287 22.274)"><path class="a" d="M1713.967,982.514l-.212-.128a7.674,7.674,0,1,0,2.81,10.484l.055-.095a7.564,7.564,0,0,0-2.651-10.264Z" transform="translate(-1688.985 -981.358)"/><path class="a" d="M1642.484,1041.094l-.022-.013a.644.644,0,0,1-.26-.832l.885-1.533c1.818-3.15,4.943-4.754,7.994-2.991l14.184,8.188c3.053,1.763,3.227,5.27,1.407,8.42l-.836,1.449c0,.011-.011.02-.015.031a.558.558,0,0,1-.761.2l-.013-.007-22.513-13Z" transform="translate(-1642.14 -1023.164)"/></g></g><g transform="translate(0 201.691)"><path class="l" d="M2095.522,1776.47l-.022-.04v0l.022.035Z" transform="translate(-1925.162 -1683.292)"/><path class="v" d="M1356.766,1355.664l128.175,74a10.918,10.918,0,0,1,4,14.916l-17.1,29.611a10.92,10.92,0,0,1-14.916,3.995l-9.108-5.259-2.042,12.335-15.807-22.639-101.215-58.439a10.917,10.917,0,0,1-4-14.916l17.1-29.609a10.918,10.918,0,0,1,14.916-4Z" transform="translate(-1323.29 -1354.199)"/><path class="a" d="M1452.412,1460.354a7.668,7.668,0,0,1-10.811-6.245,7.706,7.706,0,0,0-4.034-.993,9.032,9.032,0,0,0-8.4,8.746c-.11,3.8,3.538,12.664,4.881,15.741a1.959,1.959,0,0,0,.677.761,1.731,1.731,0,0,0,.995.205c3.426-.4,12.842-1.648,16.074-3.642a9.035,9.035,0,0,0,3.377-11.643,6.966,6.966,0,0,0-2.753-2.927.036.036,0,0,0-.013-.007Z" transform="translate(-1405.814 -1431.294)"/><g transform="translate(63.152 33.972) rotate(30)"><text class="w" transform="translate(0 26.491)"><tspan x="0" y="0">200 000</tspan></text></g></g><g transform="translate(356.961 314.224)"><path class="v" d="M2964.364,1948.512a58.765,58.765,0,1,1,23.616,25.508q-2.568-1.482-4.928-3.181l-41.512-3.573Z" transform="translate(-2941.54 -1864.354)"/><path class="a" d="M3222.679,2019.387a15.241,15.241,0,0,1-21.485-12.408,15.3,15.3,0,0,0-8.021-1.976,17.953,17.953,0,0,0-16.68,17.38c-.221,7.551,7.032,25.167,9.7,31.281a3.829,3.829,0,0,0,1.343,1.511,3.44,3.44,0,0,0,1.981.41c6.807-.792,25.52-3.273,31.94-7.24a17.95,17.95,0,0,0,6.71-23.135,13.842,13.842,0,0,0-5.469-5.817c-.006,0-.017-.009-.026-.013l0,.007Z" transform="translate(-3124.662 -1973.972)"/></g><g transform="translate(456.197 170.08)"><path class="v" d="M3563.4,1292.328l-138.51-79.971a10.921,10.921,0,0,0-14.916,4l-17.1,29.611a10.92,10.92,0,0,0,4,14.914l9.108,5.259-9.659,7.939,27.507,2.367,111.554,64.406a10.922,10.922,0,0,0,14.918-3.995l17.1-29.611a10.919,10.919,0,0,0-4-14.916Z" transform="translate(-3391.418 -1210.893)"/><path d="M3505.316,1314.5a2.684,2.684,0,0,0-.757-3.7l-13.727-7.926a33.2,33.2,0,0,0,6.068-6.115c1.242-1.588,1.131-3.569-.029-4.224a3.006,3.006,0,0,0-3.681,1.1c-2.645,3.388-6.029,5.221-10.509,4.656l-.234-.033h-.007l0,0a2.366,2.366,0,0,0-2.142,1.231l.971-1.679a1.612,1.612,0,0,0-.454-2.224l-3.287-1.9a1.615,1.615,0,0,0-2.155.719l-10.643,18.436a1.61,1.61,0,0,0,.454,2.224l3.289,1.9a1.608,1.608,0,0,0,2.151-.719l.693-1.2a2.216,2.216,0,0,0,.627,3.057l17.155,9.9a2.85,2.85,0,0,0,2.83-4.9l1.381.8a2.851,2.851,0,0,0,2.83-4.9l1.383.8a2.849,2.849,0,0,0,2.828-4.9l1.383.8A2.682,2.682,0,0,0,3505.316,1314.5Z" transform="translate(-3448.36 -1274.308)"/><g transform="translate(69.624 38.204) rotate(30)"><text class="w" transform="translate(0 26.491)"><tspan x="0" y="0">200 000</tspan></text></g></g><g transform="translate(813.888 91.755)"><path class="c" d="M5012.98,1086.094,5147.4,855.81l143.567,20.15,88.781,114L5245.326,1220.24l-163.577,14.137Z" transform="translate(-5012.98 -855.81)"/><path class="e" d="M5092.36,1149.367,5214.2,940.65l128.923,18.092,79.723,102.369L5301,1269.83l-146.892,12.695Z" transform="translate(-5074.85 -921.936)"/><path d="M5112.19,1165.18l118.692-203.33,125.259,17.583,77.46,99.459L5314.912,1282.22l-142.72,12.335Z" transform="translate(-5090.306 -938.459)"/></g><g transform="translate(771.902 212.752)"><path class="e" d="M6056.146,2079.35s-2.195,3.763,7.892,9.587a130.665,130.665,0,0,0,29.1,11.771s22.376,7.89,21.346,17.353l-38.909,12.737,3.776,47.448c1.03-9.463-21.344-17.354-21.344-17.354a130.589,130.589,0,0,1-29.1-11.77c-10.09-5.826-7.892-9.587-7.892-9.587Z" transform="translate(-5756.516 -1930.453)"/><path class="e" d="M4822.64,1465.739c7.754-5.579,25.736,9.829,25.736,9.829a130.16,130.16,0,0,0,24.707,19.3c10.09,5.823,12.284,2.06,12.284,2.06l35.133-60.182s-2.2,3.763-12.284-2.062a130.124,130.124,0,0,1-24.708-19.295s-17.982-15.41-25.737-9.829l8.172,39.919Z" transform="translate(-4822.64 -1404.339)"/><g transform="translate(297.005 151.557)"><path d="M6177.179,2102.49a130.643,130.643,0,0,0,29.1,11.771s17.5,6.174,20.83,14.148l1.05-.329c-4.514-10.411-21.009-15.311-21.009-15.311a130.653,130.653,0,0,1-29.1-11.772c-10.09-5.826-7.895-9.587-7.895-9.587l-.872,1.493S6167.092,2096.664,6177.179,2102.49Z" transform="translate(-6169.084 -2091.41)"/></g><g transform="translate(265.606 205.344)"><path d="M6034.837,2346.332a130.58,130.58,0,0,0,29.1,11.771s14.08,4.966,19.385,11.744l-.214-2.74c-5.918-6.132-18.3-10.5-18.3-10.5a130.662,130.662,0,0,1-29.1-11.772c-10.09-5.823-7.9-9.584-7.9-9.584l-.871,1.493S6024.748,2340.506,6034.837,2346.332Z" transform="translate(-6026.743 -2335.25)"/></g><g transform="translate(35.183 1.538)"><path d="M5004.391,1423.89a130.129,130.129,0,0,0,24.708,19.295c10.087,5.823,12.284,2.063,12.284,2.063l.872-1.5s-2.195,3.763-12.285-2.062a130.22,130.22,0,0,1-24.708-19.295s-12.761-10.482-23.122-11.084l.344,1.542C4991.14,1412.539,5004.391,1423.89,5004.391,1423.89Z" transform="translate(-4982.14 -1411.31)"/></g><g transform="translate(7.312 56.849)"><path d="M4875.316,1674.08a130.174,130.174,0,0,0,24.708,19.3c10.087,5.823,12.284,2.06,12.284,2.06l.872-1.493s-2.195,3.761-12.282-2.065a130.2,130.2,0,0,1-24.71-19.292s-9.732-8.338-17.964-10.526l-2.434,1.154C4864.3,1664.639,4875.316,1674.08,4875.316,1674.08Z" transform="translate(-4855.79 -1662.06)"/></g><path d="M6094.883,2085.447s-4.393,7.522-29.1-11.773c0,0-6.726-3.882-8.923-.121l-35.13,60.184c2.194-3.761,8.92.121,8.92.121,24.71,19.295,29.1,11.772,29.1,11.772Z" transform="translate(-5757.23 -1924.656)"/><path d="M5008.757,1429.12s-4.39,7.522,24.71,19.292c0,0,6.726,3.884,4.531,7.645l-35.133,60.182c2.195-3.759-4.531-7.643-4.531-7.643-29.1-11.772-24.708-19.294-24.708-19.294Z" transform="translate(-4940.137 -1423.654)"/><path class="e" d="M5009.125,1429.093c2.2-3.763,15.65,4,15.65,4,120.311,109.7,216.184,130.5,238.765,137.852,20.5,6.675,14.618,13.469,14.618,13.469l-34.667,59.388s6.4-6.549-14.618-13.471c-22.555-7.425-118.451-28.153-238.765-137.85,0,0-13.454-7.767-15.648-4.006Z" transform="translate(-4940.971 -1422.831)"/><path d="M5254.056,1829.6c.79-2.19.335-7.134-15.312-12.287-22.555-7.425-118.449-28.155-238.765-137.85,0,0-13.451-7.767-15.648-4.006l-.981,1.681c2.2-3.761,15.648,4.006,15.648,4.006,120.313,109.694,216.213,130.423,238.765,137.852,15.648,5.148,16.1,10.092,15.311,12.287Z" transform="translate(-4947.899 -1614.851)"/><path d="M5387.994,1600.146l-.69,1.184A3.587,3.587,0,0,0,5387.994,1600.146ZM5133.92,1450.01h0c120.312,109.7,216.21,130.423,238.765,137.85,15.646,5.151,16.1,10.1,15.309,12.287l.291-.5.69-1.182c.79-2.19.335-7.136-15.311-12.286-22.553-7.425-118.452-28.156-238.765-137.85,0,0-13.451-7.767-15.646-4.008l-.984,1.683C5120.467,1442.243,5133.92,1450.01,5133.92,1450.01Z" transform="translate(-5053.058 -1434.701)"/><g transform="translate(304.256 167.792)"><path class="x" d="M6202.65,2386.69l-.69,1.182A3.6,3.6,0,0,0,6202.65,2386.69Z" transform="translate(-6201.96 -2337.791)"/><path class="y" d="M6332.051,2165.01l-.69,1.182A3.543,3.543,0,0,0,6332.051,2165.01Z" transform="translate(-6302.817 -2165.01)"/></g></g><path class="e" d="M5518.428,1327.336l-11.058-6.426,37.967-42.048-7.294-4.24,2.978-3.013c4.222,2.453,10.5,5.484,23,5.356Zm76.894-5.576h0c-8.88,15.282-30.906,33.2-46.643,24.057-13.213-7.677-11.585-16.689-4.176-29.444,12.178-20.962,32.273-32.2,48.8-22.6,9.6,5.574,9.518,15.079,2.022,27.983Zm-40.32,3.6h0c-3.3,5.676-5.89,12.1-2.208,14.237,8.772,5.1,24.974-10.765,35.331-28.592,3.655-6.289,5.921-11.439,2.306-13.542-4.61-2.678-19.273,4.008-30.62,20.53C5558.457,1319.967,5556.646,1322.525,5555,1325.355Zm83.786,21.659h0c-8.878,15.282-30.879,33.216-46.644,24.057-13.211-7.676-11.559-16.676-4.15-29.43,12.179-20.96,32.274-32.2,48.771-22.61C5646.365,1324.608,5646.283,1334.113,5638.787,1347.015Zm-40.29,3.611h0c-3.3,5.678-5.894,12.1-2.214,14.234,8.746,5.082,24.95-10.778,35.309-28.605,3.652-6.289,5.918-11.442,2.329-13.526-4.619-2.682-19.294,3.995-30.641,20.517C5601.928,1345.221,5600.141,1347.8,5598.5,1350.625Zm52.2,54.054h0c-6.418-3.73-5.625-8.157-2.437-13.643,5.752-9.9,15.028-13.738,22.585-9.346,4.74,2.753,5.532,7.606,2.18,13.376C5669.083,1401.856,5659.891,1410.02,5650.7,1404.68Zm16.985-20h0c-2-1.165-7.306.794-11.984,7.535-.519.75-1.3,1.9-2.06,3.2-1.213,2.087-2.385,4.756-1,5.563,3.483,2.023,9.238-2.265,13.991-10.449C5668.39,1387.507,5668.792,1385.321,5667.684,1384.679Zm-42.948,4.915h0l63.947-40.923,6.4,3.719-63.954,40.921Zm23.6-24.688h0c-6.441-3.741-5.623-8.155-2.437-13.641,5.755-9.9,15.037-13.767,22.594-9.375,4.5,2.616,4.963,6.843,1.423,12.937C5665.893,1361.752,5655.912,1369.309,5648.337,1364.906Zm17.929-19.681h0c-1.895-1.1-7.689.452-12.558,7.431-.52.743-1.306,1.89-2.051,3.172-1.229,2.115-2.374,4.8-.979,5.607,3.5,2.034,9.739-2.636,14.534-10.888C5667.02,1347.438,5667.333,1345.845,5666.266,1345.226Z" transform="translate(-4584.427 -1088.136)"/><path class="e" d="M6078.738,1127.386c.611,5.226-1.348,12.465-1.348,12.465l9.044,5.155,0,0,8.984,5.252s5.349-5.283,10.215-7.341c-.02.117.984.048-.084-.766a3.162,3.162,0,0,0-2.23.271c-.053-.159.144-1.734-1.509-1.132a1.536,1.536,0,0,0-.351,2.005c-.159.106.309.377-1.083.867-.774.331-3.75,1.793-3.262-2.012a4.333,4.333,0,0,1,.938-2.184,2.006,2.006,0,0,0,2.1-2.616c-.234-.265-1.264-1.057-2.358.653a1.46,1.46,0,0,0-.269,1.207c-.242.249-.766,1.31-3.339.6-.426-.181-2.506-1.577-.975-4.524a1.379,1.379,0,0,0,1.983.565,2.564,2.564,0,0,0,1.218-3.322,4.3,4.3,0,0,0-.814-.342s-.163-.547.5-.684c.121-.126,1.3-1.4,1.471-5.579h0c-3.564,2.226-4.092,3.869-4.14,4.034a.546.546,0,0,1-.353.772,4.293,4.293,0,0,0-.7-.536,2.571,2.571,0,0,0-2.3,2.7c.186,1.665,1.432,1.346,1.476,1.436-1.815,2.779-4.065,1.674-4.434,1.4-1.895-1.873-1.226-2.85-1.129-3.183a1.469,1.469,0,0,0,.92-.832c.949-1.789-.256-2.29-.6-2.358a1.993,1.993,0,0,0-1.237,3.112,4.382,4.382,0,0,1-1.443,1.893c-3.083,2.31-3.282-.984-3.375-1.818-.262-1.449.208-1.178.219-1.365a1.55,1.55,0,0,0,1.577-1.3c-.293-1.727-1.573-.776-1.736-.741a3.142,3.142,0,0,0-.869-2.063C6078.206,1126.563,6078.643,1127.463,6078.738,1127.386Z" transform="translate(-5028.71 -974.591)"/><path class="e" d="M5999.54,1075.626l.81.468,21.756-.845,9.909,19.127.951.549,22.014-37.709,5.548-9.507-.547-.7-.55-.7-5.711,9.783-21.041,36.048-9.108-17.583-.247-.479-.246-.476-.539.022-.54.018-19.828.772,20.855-35.726,5.851-10.021-.887-.124-.887-.126-5.7,9.763Z" transform="translate(-4968.033 -898.583)"/></g></svg>