<svg xmlns="http://www.w3.org/2000/svg" xmlns:xlink="http://www.w3.org/1999/xlink" viewBox="0 0 293.5 464.602"><defs><style>.a{fill:#d1d3d4;}.b{fill:url(#a);}.c{fill:#6a6a6a;}.d{fill:#898a8c;}.e{fill:#d7d7d7;}.f{fill:#212121;}.ah,.ak,.g{fill:#fff;}.h{fill:#fafafa;}.i,.t,.u,.y{fill:#262627;}.j{fill:#333;}.k{fill:#3d3d3d;}.l{fill:#0c46a1;}.m{fill:url(#b);}.n{fill:url(#c);}.o{fill:#7496c9;}.p{fill:url(#d);}.q{fill:#858585;}.aj,.r{fill:#db565a;}.s{fill:#b2b2b2;}.t,.u{font-size:4px;}.ae,.ak,.t,.y{font-family:Arial-BoldMT, Arial;font-weight:700;}.ac,.u,.w{font-family:ArialMT, Arial;}.v{fill:#294b76;}.w{fill:#ababac;font-size:2px;}.x{fill:#dbdbdb;}.ae,.y{font-size:6px;}.z{fill:url(#e);}.aa{fill:#a7a7a7;}.ab{fill:#c8c8c8;}.ac{fill:#9e9e9e;font-size:7px;}.ad,.ag,.ai,.aj{fill-rule:evenodd;}.af{fill:url(#f);}.ag{fill:url(#g);}.ah,.al{font-size:12px;}.ah{font-family:Montserrat-SemiBold, Montserrat;font-weight:600;}.ai{fill:url(#h);}.ak{font-size:38px;}.al{fill:#99b2d1;font-family:Montserrat-Regular, Montserrat;}.am{fill:#edbb98;}.an{fill:#d4145a;}.ao{fill:#110102;}.ap{fill:#3f2820;}.aq{fill:#f4c5a2;}.ar{fill:#e2b291;}.as{fill:#1b1464;}.at{fill:#2e3192;}.au{filter:url(#i);}</style><radialGradient id="a" cx="117.479" cy="469.247" r="115.307" gradientTransform="translate(-112.311 -476.124) scale(2.015 2.015)" gradientUnits="userSpaceOnUse"><stop offset="0" stop-color="#a3a5a5"/><stop offset="0.651" stop-color="#babcbd"/><stop offset="0.969" stop-color="#d1d3d4"/><stop offset="1" stop-color="#d1d3d4"/></radialGradient><radialGradient id="b" cx="338.782" cy="41.884" r="3.116" gradientUnits="userSpaceOnUse"><stop offset="0" stop-color="#2b4492"/><stop offset="0.722" stop-color="#2b4492"/><stop offset="1" stop-color="#2b4492"/></radialGradient><radialGradient id="c" cx="341.959" cy="44.504" r="3.116" xlink:href="#b"/><radialGradient id="d" cx="347.816" cy="37.339" r="3.116" xlink:href="#b"/><linearGradient id="e" x1="0.759" y1="0.141" x2="0.133" y2="1.009" gradientUnits="objectBoundingBox"><stop offset="0" stop-color="#a844a1"/><stop offset="0.071" stop-color="#ab429a"/><stop offset="0.172" stop-color="#b43c88"/><stop offset="0.292" stop-color="#c33269"/><stop offset="0.423" stop-color="#d7243f"/><stop offset="0.426" stop-color="#d7243e"/><stop offset="0.799" stop-color="#f9a326"/><stop offset="1" stop-color="#f9dd26"/></linearGradient><linearGradient id="f" x1="0.5" y1="-0.127" x2="0.5" y2="1" gradientUnits="objectBoundingBox"><stop offset="0" stop-color="#4b4b5c" stop-opacity="0.431"/><stop offset="1" stop-color="#02021e" stop-opacity="0.62"/></linearGradient><linearGradient id="g" x1="0.532" x2="0.539" y2="1" gradientUnits="objectBoundingBox"><stop offset="0" stop-color="#13629f"/><stop offset="0.62" stop-color="#2b527a" stop-opacity="0.651"/><stop offset="1" stop-color="#0a2a38"/></linearGradient><linearGradient id="h" x1="0.148" y1="0.185" x2="0.868" y2="0.85" gradientUnits="objectBoundingBox"><stop offset="0" stop-color="#fcec94"/><stop offset="0.169" stop-color="#f0c46c"/><stop offset="0.502" stop-color="#fffabd"/><stop offset="0.82" stop-color="#f0c46c"/><stop offset="1" stop-color="#fce79a"/></linearGradient><filter id="i" x="27.809" y="283.5" width="265.691" height="156.14" filterUnits="userSpaceOnUse"><feOffset dy="10" input="SourceAlpha"/><feGaussianBlur stdDeviation="4.5" result="j"/><feFlood flood-opacity="0.161"/><feComposite operator="in" in2="j"/><feComposite in="SourceGraphic"/></filter></defs><g transform="translate(-1148 -505)"><g transform="translate(1148 505)"><path class="a" d="M204.351,464.6H39.841A33.05,33.05,0,0,1,6.79,431.552V33.051A33.05,33.05,0,0,1,39.841,0h164.51A33.05,33.05,0,0,1,237.4,33.051v398.5A33.05,33.05,0,0,1,204.351,464.6Z" transform="translate(-3.859 0)"/><path class="b" d="M204.351,464.6H39.841A33.05,33.05,0,0,1,6.79,431.552V33.051A33.05,33.05,0,0,1,39.841,0h164.51A33.05,33.05,0,0,1,237.4,33.051v398.5A33.05,33.05,0,0,1,204.351,464.6Z" transform="translate(-3.859 0)"/><path class="c" d="M207.335,466.045H49.61a31.6,31.6,0,0,1-31.6-31.6V42.15a31.6,31.6,0,0,1,31.6-31.6H207.335a31.6,31.6,0,0,1,31.6,31.6v392.3a31.6,31.6,0,0,1-31.6,31.6Z" transform="translate(-10.236 -5.996)"/><path class="a" d="M210.227,466.843H52.606A29.414,29.414,0,0,1,23.19,437.431V45.806A29.415,29.415,0,0,1,52.606,16.39H210.227a29.415,29.415,0,0,1,29.416,29.416V437.431a29.414,29.414,0,0,1-29.416,29.412Z" transform="translate(-13.18 -9.315)"/><path class="d" d="M2.931,148.515H1.476A1.476,1.476,0,0,1,0,147.034V131.621a1.479,1.479,0,0,1,1.476-1.481H2.931v18.375Z" transform="translate(0 -73.967)"/><path class="e" d="M2.931,148.842H1.476A1.476,1.476,0,0,1,0,147.365V134.006a1.476,1.476,0,0,1,1.476-1.476H2.931Z" transform="translate(0 -75.325)"/><path class="d" d="M2.931,266.447H1.476A1.476,1.476,0,0,1,0,264.971V231.921a1.476,1.476,0,0,1,1.476-1.481H2.931Z" transform="translate(0 -130.973)"/><path class="e" d="M2.931,266.782H1.476A1.476,1.476,0,0,1,0,265.306v-30.94a1.476,1.476,0,0,1,1.476-1.476H2.931Z" transform="translate(0 -132.366)"/><path class="d" d="M2.931,388.277H1.476A1.479,1.479,0,0,1,0,386.8V353.746a1.476,1.476,0,0,1,1.476-1.476H2.931Z" transform="translate(0 -200.217)"/><path class="e" d="M2.931,388.682H1.476A1.476,1.476,0,0,1,0,387.206V356.741a1.479,1.479,0,0,1,1.476-1.48H2.931Z" transform="translate(0 -201.916)"/><path class="c" d="M216.393,465.377H59.877A24.865,24.865,0,0,1,35.01,440.51V46.757A24.868,24.868,0,0,1,59.877,21.89H216.393A24.871,24.871,0,0,1,241.26,46.757V440.51A24.868,24.868,0,0,1,216.393,465.377Z" transform="translate(-19.898 -12.441)"/><path class="f" d="M217.778,466.134H64.232A24.174,24.174,0,0,1,40.06,441.958V51.572A24.171,24.171,0,0,1,64.232,27.4H217.778A24.171,24.171,0,0,1,241.95,51.572V441.958A24.174,24.174,0,0,1,217.778,466.134Z" transform="translate(-22.769 -15.573)"/><path class="g" d="M221.454,466.949H68.581A21.461,21.461,0,0,1,47.12,445.488V54.851A21.461,21.461,0,0,1,68.581,33.39H221.454a21.461,21.461,0,0,1,21.461,21.461V445.488A21.461,21.461,0,0,1,221.454,466.949Z" transform="translate(-26.781 -18.978)"/><g transform="translate(20.515 18.114)"><path class="h" d="M31.308-3.7l142.934,0a20.571,20.571,0,0,1,15.093,6.189c6.928,6.892,6.391,14.523,6.408,17.044s.127,13.877.127,13.877H0S-.138,22.928,0,14.783C2.623,1.261,13.31-3.663,21.321-3.707,25.233-3.72,31.308-3.7,31.308-3.7Z" transform="translate(-0.108)"/><g transform="translate(71.29 15.704)"><path class="i" d="M275.859,60.227a4.934,4.934,0,0,0-2.662,3.367c-.47,2.036,1.514,2.923,1.671,2.636.183-.339-.365-.444-.47-1.514A4.4,4.4,0,0,1,275.7,61.14c.157-.131.131.052.131.365,0,.574-.026,5.742-.026,6.813a9.958,9.958,0,0,1-.157,2.375c-.1.47-.287.783-.157.887.157.131.783-.183,1.148-.7a3.834,3.834,0,0,0,.626-2.166c.026-.966.026-2.506.026-3.393,0-.809.026-3.158-.026-4.594C277.269,60.383,276.3,60.018,275.859,60.227Z" transform="translate(-273.125 -60.166)"/><path class="i" d="M341.431,67.894c-.157,0-.235.157-.287.444-.209.966-.418,1.175-.7,1.175-.313,0-.6-.47-.679-1.409a31.36,31.36,0,0,1,.026-3.472c.026-.287-.052-.548-.809-.835-.313-.131-.783-.287-1.018.287a15.52,15.52,0,0,0-.992,3.367c0,.026-.026.026-.052-.026-.026-.418-.131-1.148-.131-2.741a.817.817,0,0,0-.418-.783c-.209-.131-.887-.392-1.122-.1a6.5,6.5,0,0,0-.7,1.644c-.209.626-.339,1.044-.339,1.044v-2.3a.35.35,0,0,0-.209-.339,6.108,6.108,0,0,0-.835-.183c-.235,0-.287.131-.287.313,0,.026-.026,2.193-.026,3.706v.209c-.131.7-.548,1.644-.992,1.644s-.653-.392-.653-2.219c0-1.044.026-1.514.052-2.271,0-.444.026-.783.026-.861,0-.235-.418-.365-.6-.392a1.78,1.78,0,0,0-.5-.052.3.3,0,0,0-.313.287v.261a1.873,1.873,0,0,0-.861-.7,1.623,1.623,0,0,0-1.905.731,4.478,4.478,0,0,0-.783,2.219,6.572,6.572,0,0,0,.078,2.036c-.157.679-.444.966-.783.966-.47,0-.809-.757-.757-2.088a12.612,12.612,0,0,1,.392-2.349.727.727,0,0,0-.157-.757c-.157-.183-.47-.261-.94-.157-.339.078-.809.157-1.227.235,0,0,.026-.1.052-.287.1-.966-.94-.887-1.253-.574a1.128,1.128,0,0,0-.392.783.935.935,0,0,0,.418.914,8.975,8.975,0,0,1-.992,2.454,10.361,10.361,0,0,1-.626.966v-.339c0-1.592.026-2.819.026-3.289,0-.444.026-.757.026-.835,0-.183-.1-.235-.313-.313a1.577,1.577,0,0,0-.626-.131c-.287-.026-.47.131-.444.313v.235a1.873,1.873,0,0,0-.861-.7,1.623,1.623,0,0,0-1.905.731,4.915,4.915,0,0,0-.783,2.219,6.423,6.423,0,0,0,.052,1.905c-.1.522-.418,1.1-.757,1.1-.444,0-.7-.392-.7-2.219,0-1.044.026-1.514.052-2.271,0-.444.026-.783.026-.861,0-.235-.418-.365-.6-.392a1.875,1.875,0,0,0-.5-.052.307.307,0,0,0-.287.287v.261a1.873,1.873,0,0,0-.861-.7,1.668,1.668,0,0,0-1.932.731,4.449,4.449,0,0,0-.783,2.219,6.323,6.323,0,0,0-.052.966c-.131.861-.757,1.827-1.253,1.827-.287,0-.574-.574-.574-1.8,0-1.618.1-3.941.1-4.176h.757c.313,0,.6,0,1.018-.026.209,0,.418-.783.209-.861a5.988,5.988,0,0,0-1.07-.078c-.235,0-.887-.052-.887-.052s.052-1.54.078-1.7c0-.131-.157-.209-.261-.235a3.368,3.368,0,0,0-.731-.209c-.365-.078-.522,0-.548.313-.052.47-.078,1.8-.078,1.8-.261,0-1.148-.052-1.409-.052-.235,0-.5,1.044-.183,1.07.392.026,1.07.026,1.514.052,0,0-.026,2.349-.026,3.08v.235a3.515,3.515,0,0,1-1.122,1.984,1.927,1.927,0,0,0-.887-2.036c-.261-.209-.757-.574-1.305-.992a3.384,3.384,0,0,0,.6-.966c.209-.444.209-.966-.287-1.1a1.468,1.468,0,0,0-1.7,1.07,1.216,1.216,0,0,0,.235,1.253l.078.078c-.183.365-.444.835-.653,1.227-.6,1.044-1.044,1.853-1.409,1.853-.287,0-.261-.835-.261-1.618,0-.679.052-1.7.078-2.741a.763.763,0,0,0-.444-.731,2.06,2.06,0,0,0-.783-.313c-.339,0-1.279.052-2.166,2.636-.1.313-.339.914-.339.914l.026-3.106c0-.078-.026-.131-.131-.183a2.249,2.249,0,0,0-.914-.261c-.183,0-.261.078-.261.235l-.026,4.829a5.239,5.239,0,0,0,.052.992,1.451,1.451,0,0,0,.157.444.549.549,0,0,0,.287.183c.13.026.835.131.861-.157a11.468,11.468,0,0,1,.418-1.984,7.846,7.846,0,0,1,1.7-3.393c.052-.052.131-.052.131.026-.026.444-.078,1.566-.1,2.506-.1,2.532.365,3,1.018,3,.5,0,1.227-.5,1.984-1.775.47-.783.94-1.566,1.279-2.114.235.209.5.444.757.679a1.684,1.684,0,0,1,.679,1.618.7.7,0,0,1-1.148.418,3.079,3.079,0,0,1-.47-.339.368.368,0,0,0-.365-.026,1.237,1.237,0,0,0-.47.731c-.078.287.209.444.522.574a4.921,4.921,0,0,0,1.175.235c1.383.052,2.506-.679,3.263-2.506.13,1.592.731,2.506,1.749,2.506.679,0,1.383-.887,1.67-1.749a2.424,2.424,0,0,0,.392.914,1.8,1.8,0,0,0,3.08-.078,1.871,1.871,0,0,0,.261-.444,1.452,1.452,0,0,0,1.383,1.357,1.532,1.532,0,0,0,1.436-1.1,2.3,2.3,0,0,0,.157.261,1.8,1.8,0,0,0,3.08-.078.569.569,0,0,1,.1-.131l.026.653s-.444.392-.7.653c-1.175,1.1-2.088,1.905-2.166,2.871a1.651,1.651,0,0,0,1.67,1.749,2.112,2.112,0,0,0,1.905-.992,5.959,5.959,0,0,0,.6-2.871c0-.47-.026-1.044-.026-1.671a13.436,13.436,0,0,0,1.305-1.8,14.1,14.1,0,0,0,1.227-2.636s.444,0,.914-.026c.157,0,.183.026.157.131a7.538,7.538,0,0,0-.078,3.706,1.771,1.771,0,0,0,1.592,1.305,1.62,1.62,0,0,0,1.357-1.018,1.135,1.135,0,0,0,.1.183,1.8,1.8,0,0,0,3.08-.078,1.887,1.887,0,0,0,.261-.444,1.484,1.484,0,0,0,1.436,1.357c.47,0,.94-.209,1.305-1.07a7.412,7.412,0,0,0,.078.809.746.746,0,0,0,.261.183,2.1,2.1,0,0,0,1.044.052c.1-.026.209-.1.209-.365a11.973,11.973,0,0,1,.209-2.454,7.117,7.117,0,0,1,.757-2.062c.078-.131.157-.157.183-.026a23.779,23.779,0,0,0,.157,2.375,4.688,4.688,0,0,0,.313,1.566.864.864,0,0,0,.861.5c.183,0,.522-.052.5-.339a8.768,8.768,0,0,1,.313-2.349,10.49,10.49,0,0,1,.679-1.879c.052-.1.078-.026.078,0a17.152,17.152,0,0,0,.157,3.524c.313,1.409,1.253,1.566,1.566,1.566.679,0,1.253-.522,1.436-1.905C341.718,68.155,341.64,67.894,341.431,67.894Zm-28.947-.835a4.819,4.819,0,0,1-.418,1.8c-.418.809-1.227,1.07-1.592-.1a5.917,5.917,0,0,1-.052-2.61c.157-.914.574-1.566,1.2-1.514C312.275,64.683,312.589,65.519,312.484,67.059Zm6.317,0a4.552,4.552,0,0,1-.418,1.775c-.392.809-1.253,1.07-1.592-.1a5.718,5.718,0,0,1-.052-2.48c.157-.835.522-1.618,1.2-1.618C318.592,64.631,318.905,65.336,318.8,67.059Zm.183,4.724c0,1.253-.209,2.375-.626,2.688a.769.769,0,0,1-1.253-.809A6.04,6.04,0,0,1,318.984,71Zm10.884-4.724a4.324,4.324,0,0,1-.418,1.775c-.392.809-1.253,1.07-1.592-.1a6.493,6.493,0,0,1-.052-2.584c.131-.914.548-1.592,1.2-1.514C329.659,64.683,329.946,65.519,329.868,67.059Z" transform="translate(-288.477 -60.185)"/></g><g transform="translate(6.264 16.444)"><path class="i" d="M31.23,63.522a.948.948,0,0,1,.679.287l.548.548a2.547,2.547,0,0,0,1.8.731h.183a1.571,1.571,0,0,1,1.566,1.566v5.22a1.461,1.461,0,0,1-.47,1.1,1.563,1.563,0,0,1-1.1.47H26.088a1.571,1.571,0,0,1-1.566-1.566v-5.22a1.461,1.461,0,0,1,.47-1.1,1.563,1.563,0,0,1,1.1-.47H26.3a2.593,2.593,0,0,0,1.8-.731l.548-.548a.948.948,0,0,1,.679-.287H31.23m0-.522H29.325a1.463,1.463,0,0,0-1.044.444l-.548.548a2.042,2.042,0,0,1-1.409.6h-.235A2.094,2.094,0,0,0,24,66.68V71.9a2.094,2.094,0,0,0,2.088,2.088h8.353A2.094,2.094,0,0,0,36.529,71.9V66.68a2.094,2.094,0,0,0-2.088-2.088h-.209a1.935,1.935,0,0,1-1.409-.6l-.548-.548A1.463,1.463,0,0,0,31.23,63Z" transform="translate(-24 -63)"/><path class="i" d="M39.132,74.522a2.61,2.61,0,1,1-2.61,2.61,2.618,2.618,0,0,1,2.61-2.61m0-.522a3.132,3.132,0,1,0,3.132,3.132A3.141,3.141,0,0,0,39.132,74Z" transform="translate(-32.868 -71.129)"/></g><g transform="translate(177.439 17.2)"><path class="i" d="M685.675,76.467h-.052a.4.4,0,0,1-.313-.287l-1.07-5.847-4.307-3.68a.361.361,0,0,1-.1-.418.337.337,0,0,1,.339-.235h11.015a.362.362,0,0,1,.313.183.314.314,0,0,1,0,.365l-5.507,9.736A.332.332,0,0,1,685.675,76.467Zm-4.49-9.762,3.654,3.106a.359.359,0,0,1,.13.209l.914,4.985,4.7-8.3Z" transform="translate(-679.803 -65.973)"/><path class="i" d="M697.163,70.387a.362.362,0,0,1-.313-.183.345.345,0,0,1,.13-.5l6.6-3.759a.363.363,0,0,1,.365.626l-6.6,3.785A.51.51,0,0,1,697.163,70.387Z" transform="translate(-692.361 -65.896)"/></g></g><path class="f" d="M184.937,27.4H117.36s10.558.212,11.192,4.221.423,12.884,10.769,12.884h91.235c10.346,0,10.135-8.87,10.769-12.884S252.519,27.4,252.519,27.4H184.937Z" transform="translate(-66.703 -15.573)"/><g transform="translate(98.202 14.412)"><path class="j" d="M265.309,42.345H229.357a1.847,1.847,0,1,1,0-3.695h35.951a1.847,1.847,0,0,1,0,3.695Z" transform="translate(-227.51 -36.38)"/><g transform="translate(47.7)"><path class="k" d="M346.256,37.508a4.118,4.118,0,1,1-4.118-4.118A4.117,4.117,0,0,1,346.256,37.508Z" transform="translate(-338.02 -33.39)"/><path class="l" d="M346.569,38.832a3.114,3.114,0,1,1-3.112-3.112A3.114,3.114,0,0,1,346.569,38.832Z" transform="translate(-339.339 -34.714)"/><path class="m" d="M346.569,38.832a3.114,3.114,0,1,1-3.112-3.112A3.114,3.114,0,0,1,346.569,38.832Z" transform="translate(-339.339 -34.714)"/><path class="n" d="M346.569,38.832a3.114,3.114,0,1,1-3.112-3.112A3.114,3.114,0,0,1,346.569,38.832Z" transform="translate(-339.339 -34.714)"/><path class="o" d="M342.864,38.661a.632.632,0,0,1-.527-.988,2.744,2.744,0,0,1,4.334-.272.633.633,0,0,1-.95.837,1.492,1.492,0,0,0-1.2-.5,1.516,1.516,0,0,0-1.131.647A.634.634,0,0,1,342.864,38.661Z" transform="translate(-340.412 -35.139)"/><path class="p" d="M346.569,38.832a3.114,3.114,0,1,1-3.112-3.112A3.114,3.114,0,0,1,346.569,38.832Z" transform="translate(-339.339 -34.714)"/></g></g><g transform="translate(2.931 35.122)"><path class="q" d="M12.915,976.858H6.79V974.48h6.125Z" transform="translate(-6.79 -588.98)"/><path class="q" d="M12.915,83.744H6.79V81.37h6.125Z" transform="translate(-6.79 -81.37)"/></g><g transform="translate(227.417 35.122)"><path class="q" d="M532.995,976.858H526.87V974.48h6.125Z" transform="translate(-526.87 -588.98)"/><path class="q" d="M532.995,83.744H526.87V81.37h6.125Z" transform="translate(-526.87 -81.37)"/></g></g><g transform="translate(1168.515 858.557)"><path class="h" d="M-.191-.067l195.858-.06V5.786s-.007.092-.058.575c.346,7.625-1.618,14.194-8.723,19.586-7.669,6.2-17.484,4.569-26.981,4.545-7.123-.018-136.475,0-136.475,0s-10.039.553-16.894-6.23S-.161,11.241-.184,7.551C-.232-.088-.191-.067-.191-.067Z" transform="translate(0 64.261)"/><path class="i" d="M214.119,1278.7l-2.454-2.453a5.064,5.064,0,1,0-.365.365l2.454,2.453Zm-6.16-1.3a4.437,4.437,0,1,1,4.437-4.437A4.434,4.434,0,0,1,207.959,1277.4Z" transform="translate(-150.014 -1194.474)"/><path class="i" d="M10.989,10.7V9.971A2.161,2.161,0,0,0,8.822,7.8H2.688A2.161,2.161,0,0,0,.522,9.971V10.7a.247.247,0,0,1-.261.261A.247.247,0,0,1,0,10.7V9.971A2.685,2.685,0,0,1,2.688,7.282H8.822a2.685,2.685,0,0,1,2.688,2.688V10.7a.261.261,0,1,1-.522,0ZM2.636,3.132A3.132,3.132,0,1,1,5.769,6.264,3.141,3.141,0,0,1,2.636,3.132Zm.522,0A2.61,2.61,0,1,0,5.769.522,2.618,2.618,0,0,0,3.158,3.132Z" transform="translate(170.365 73.578)"/><path class="i" d="M511.433,1270.722a2.469,2.469,0,0,1,1.331.392,3.1,3.1,0,0,1,.992,4.072c-.548,1.018-2.819,2.923-4.751,4.385a.129.129,0,0,1-.078.026.1.1,0,0,1-.078-.026c-1.932-1.436-4.2-3.367-4.751-4.385a3.123,3.123,0,0,1,.992-4.072,2.469,2.469,0,0,1,1.331-.392,2.553,2.553,0,0,1,2.088,1.1l.418.574.418-.574a2.624,2.624,0,0,1,2.088-1.1m0-.522a3.179,3.179,0,0,0-2.532,1.305,3.179,3.179,0,0,0-2.532-1.305,3.129,3.129,0,0,0-1.618.47,3.666,3.666,0,0,0-1.175,4.777c.731,1.357,3.811,3.733,4.907,4.542a.777.777,0,0,0,.392.13.7.7,0,0,0,.392-.13c1.122-.835,4.176-3.185,4.907-4.542A3.666,3.666,0,0,0,513,1270.67a2.825,2.825,0,0,0-1.566-.47Z" transform="translate(-371.816 -1196.1)"/><ellipse class="r" cx="1.07" cy="1.07" rx="1.07" ry="1.07" transform="translate(136.015 86.55)"/><path class="i" d="M3.941,12.529A3.955,3.955,0,0,1,0,8.588V3.941A3.955,3.955,0,0,1,3.941,0H8.588a3.955,3.955,0,0,1,3.941,3.941V8.588a3.954,3.954,0,0,1-3.941,3.941ZM.522,3.941V8.588a3.431,3.431,0,0,0,3.419,3.419H8.588a3.431,3.431,0,0,0,3.419-3.419V3.941A3.431,3.431,0,0,0,8.588.522H3.941A3.431,3.431,0,0,0,.522,3.941ZM6,9.136V6.525H3.393V6H6V3.393h.522V6h2.61v.522H6.525v2.61Z" transform="translate(91.617 72.742)"/><path class="i" d="M58.742,1268.7a.83.83,0,0,0-.522.209l-4.829,4.855a1.343,1.343,0,0,0-.392.94v3.889a.785.785,0,0,0,.783.783h3.132a.785.785,0,0,0,.783-.783v-2.349a1.044,1.044,0,1,1,2.088,0v2.349a.785.785,0,0,0,.783.783H63.7a.785.785,0,0,0,.783-.783V1274.7a1.325,1.325,0,0,0-.392-.94l-4.829-4.829a.738.738,0,0,0-.522-.235" transform="translate(-39.166 -1194.992)"/><path class="s" d="M0,0,195.675-.025v.3L0,.261Z" transform="translate(0 64)"/></g><g transform="translate(1176 872)"><path class="i" d="M116.541,975.822h0A4.856,4.856,0,0,1,117.9,976a4.79,4.79,0,0,1,3.419,3.5,4.968,4.968,0,0,1-.365,3.471.968.968,0,0,0-.078.757l.47,1.749-1.671-.444a.978.978,0,0,0-.287-.026,1.188,1.188,0,0,0-.522.131,4.893,4.893,0,0,1-3.576.444,5.475,5.475,0,0,1-3.55-3.472,5.071,5.071,0,0,1,.861-4.359,5,5,0,0,1,3.941-1.932m0-.522a5.487,5.487,0,0,0-5.273,6.943,6.006,6.006,0,0,0,3.941,3.863,6.2,6.2,0,0,0,1.357.156,5.347,5.347,0,0,0,2.584-.652.526.526,0,0,1,.287-.078.2.2,0,0,1,.131.026l2.3.626h.026a.142.142,0,0,0,.131-.183l-.626-2.375a.506.506,0,0,1,.052-.392,5.617,5.617,0,0,0,.392-3.837,5.385,5.385,0,0,0-3.785-3.889,6.39,6.39,0,0,0-1.514-.209Z" transform="translate(-89.395 -975.222)"/><text class="t" transform="translate(0.783 22.38)"><tspan x="0" y="0">Нравится: 200 000</tspan></text><text class="t" transform="translate(1.044 34.126)"><tspan x="0" y="0">permial_partner</tspan></text><text class="u" transform="translate(48.96 34.126)"><tspan x="0" y="0">Участвуйте в розыгрыше квартиры!!</tspan><tspan class="v" y="0"> </tspan><tspan class="v"><tspan x="0" y="5">#квартираВМоскве #Первый #Москва</tspan></tspan></text><path class="i" d="M6.118,11.041a.389.389,0,0,1-.313-.313L4.683,4.568.141.7a.362.362,0,0,1-.1-.444A.392.392,0,0,1,.4,0H12.023a.357.357,0,0,1,.257.1.474.474,0,0,1,.077.08A.354.354,0,0,1,12.4.47a.355.355,0,0,1-.084.171L6.536,10.832a.316.316,0,0,1-.339.209Zm.287-1.514,4.567-8.095L5.492,4.564ZM5.113,3.879l5.438-3.1H1.472Z" transform="translate(41.726 0.522)"/><path class="i" d="M695.435,987.223a.335.335,0,0,1-.261-.1l-3.811-3.341-3.811,3.341a.354.354,0,0,1-.418.052.409.409,0,0,1-.235-.365v-9.814a.4.4,0,0,1,.392-.392h8.118a.4.4,0,0,1,.391.392v9.814a.394.394,0,0,1-.235.365A.2.2,0,0,1,695.435,987.223Zm-4.046-4.359a.335.335,0,0,1,.261.1l3.419,2.976v-8.561h-7.361v8.561l3.419-2.976A.335.335,0,0,1,691.39,982.864Z" transform="translate(-514.917 -976.182)"/><text class="w" transform="translate(1.044 45.067)"><tspan x="0" y="0">10 МИНУТ НАЗАД</tspan></text><path class="r" d="M9.032,0A3.414,3.414,0,0,0,6.292,1.409,3.414,3.414,0,0,0,3.551,0,3.3,3.3,0,0,0,1.8.5,3.875,3.875,0,0,0,.523,5.638c.783,1.462,4.15,4.02,5.351,4.907a.707.707,0,0,0,.887,0c1.2-.887,4.568-3.445,5.351-4.907A3.928,3.928,0,0,0,10.833.5a3.612,3.612,0,0,0-1.8-.5Z" transform="translate(-0.037 0)"/></g><g transform="translate(1168.515 618.341)"><rect class="x" width="195.762" height="0.261" transform="translate(0 23.752)"/><text class="y" transform="translate(27.485 7.659)"><tspan x="0" y="0">premial_partner</tspan></text><text class="u" transform="translate(27.485 15.659)"><tspan x="0" y="0">Moscow, Russia</tspan></text><g transform="translate(180.806 9.214)"><ellipse class="i" cx="0.783" cy="0.783" rx="0.783" ry="0.783"/><ellipse class="i" cx="0.783" cy="0.783" rx="0.783" ry="0.783" transform="translate(2.636)"/><ellipse class="i" cx="0.783" cy="0.783" rx="0.783" ry="0.783" transform="translate(5.299)"/></g><path class="z" d="M23.919,172.837a9.919,9.919,0,1,1,9.919-9.919A9.914,9.914,0,0,1,23.919,172.837Zm0-19.054a9.136,9.136,0,1,0,9.136,9.136A9.146,9.146,0,0,0,23.919,153.783Z" transform="translate(-10.346 -153)"/></g><rect class="s" width="196.023" height="0.261" transform="translate(1168.385 556.524)"/><g transform="translate(1168.515 562.788)"><rect class="s" width="195.762" height="0.261" transform="translate(0.131 47.322)"/><g transform="translate(5.09)"><ellipse class="aa" cx="14.278" cy="14.278" rx="14.278" ry="14.278" transform="translate(2.688 2.688)"/><path class="ab" d="M36.466,185.932a16.966,16.966,0,1,1,16.966-16.966A17,17,0,0,1,36.466,185.932Zm0-32.6A15.635,15.635,0,1,0,52.1,168.966,15.662,15.662,0,0,0,36.466,153.331Z" transform="translate(-19.5 -152)"/><text class="ac" transform="translate(16.395 43.212)"><tspan x="-11.478" y="0">Partner</tspan></text></g></g><g transform="translate(1171.909 536.811)"><path class="ad" d="M703.29,13.98a.821.821,0,0,1-.783.914V13.066A.821.821,0,0,1,703.29,13.98Zm-1.044-1.7v3.393h0a.769.769,0,0,1-.783.783h-10.18a.769.769,0,0,1-.783-.783h0V12.283a.769.769,0,0,1,.783-.783h10.18A.769.769,0,0,1,702.246,12.283Zm-10.963-.522a.524.524,0,0,0-.522.522v3.393a.524.524,0,0,0,.522.522h10.18a.524.524,0,0,0,.522-.522V12.283a.524.524,0,0,0-.522-.522Zm-.261.522v3.393a.247.247,0,0,0,.261.261h10.18a.247.247,0,0,0,.261-.261V12.283a.247.247,0,0,0-.261-.261h-10.18A.247.247,0,0,0,691.022,12.283Z" transform="translate(-523.662 -23.195)"/><text class="ae" transform="translate(12.091 -6.811)"><tspan x="0" y="0">11:11</tspan></text><path d="M219.432,11.5a4.886,4.886,0,0,1,3.132,1.227l-.418.47a4.211,4.211,0,0,0-5.429,0l-.418-.47A4.94,4.94,0,0,1,219.432,11.5Zm0,1.618a3.2,3.2,0,0,1,2.088.783l-.444.5a2.662,2.662,0,0,0-1.618-.574,2.551,2.551,0,0,0-1.618.574l-.444-.5A3.152,3.152,0,0,1,219.432,13.118Zm0,1.592a1.606,1.606,0,0,1,.992.365l-.992,1.122-.992-1.122A1.606,1.606,0,0,1,219.432,14.71Z" transform="translate(-61.385 -23.195)"/></g><g transform="translate(1168.055 642.85)"><path class="af" d="M17.751,298.547h-7.1V265.571h3.07v-10.6H14.1l.576-1.855v-9.807h.576v-.53l.384-1.06h.384l.384,1.06v.53h.576v9.542l.576,2.12h.192V260.8h3.07v7.687h1.151V257.354h.959v-1.325H26v1.325h.768V247.282h3.262v4.506l3.838,5.566v3.976l2.686,5.566,1.343-1.59V248.342h.768v-5.036h.576V239.33h.192l.192-6.1.192,6.1h.192v3.976h.576v5.036h.576v9.012h2.878v15.108h1.727V266.1h.959V245.956h3.07V266.1h.959v2.651H52.1V255.5h3.262v-4.506h.959v-10.6h4.413v10.6h.959v14.578h2.686v-10.6h.384l.576-1.855v-9.807h.576v-.53l.384-1.06h.384l.384,1.06v.53h.576v9.542l.576,2.12h.192V260.8h3.07v7.687h1.151V257.354h.959v-1.325h3.07v1.325h.768V247.282h3.262v4.506l3.838,5.566v3.976L87.21,266.9l1.343-1.59V233.5h.768v-5.036H89.9v-3.976h.768v3.976h.576V233.5h.576v23.855h2.878v15.108h1.535V266.1h1.151V245.956h3.07V266.1h.576v2.651h1.727V255.5h3.07v-4.506h1.151v-10.6h4.413v10.6h.959V260.8h1.343v7.687h1.343V257.354h.768v-1.325h3.262v1.325h.767V247.282h3.07v4.506l4.029,5.566v3.976l2.686,5.566,1.343-1.59V249.667h.576v-5.036h.576v-3.976h.192l.192-6.1.384,6.1h.192v3.976h.576v5.036h.576v7.687H137.1v15.108h1.727V266.1h.768V245.956h3.262V266.1h.959v2.651h1.151V255.5h3.262v-4.506h.959v-10.6h4.605v10.6h.959v14.578h2.686v-10.6h.192l.768-1.855v-9.807h.384v-.53l.384-1.06h.576l.384,1.06v.53h.384v9.542l.767,2.12h.192V260.8h2.878v7.687h1.343V257.354h.767v-1.325h3.262v1.325h.768V247.282h3.07v4.506l4.029,5.566v3.976l2.494,5.566,1.535-1.59V241.98h.576v-5.036h.576v-3.976h.768v3.976h.768v5.036h.576v15.373h2.878v15.108H189.1V266.1h1.151V245.956h3.262V266.1h.576v2.651h1.535V255.5h3.262v-4.506h.959v-10.6h4.605v10.6h.959l.544,47.875C139.076,298.868,78.1,298.547,17.751,298.547Zm161.56-30.591-1.727-3.711v5.566Zm-1.727-4.771,2.111,4.241.192-.265-2.3-4.771Zm-50.655-.8v.8l2.111,4.241.192-.265Zm0,1.855v5.566l1.727-1.855Zm-40.678,3.711-1.727-3.711v5.566Zm-1.727-4.771,2.111,4.241.192-.265-2.3-4.771Zm-50.655-.8v.8l2.111,4.241.192-.265Zm0,1.855v5.566l1.727-1.855Z" transform="translate(-10.593 -77.718)"/><path class="ag" d="M-.369,0H195.979V221.15H-.369Z" transform="translate(0.314)"/><text class="ah" transform="translate(97.945 28.488)"><tspan x="-65.904" y="0">Твой шанс выиграть</tspan><tspan x="-63.006" y="15">квартиру в Москве!</tspan><tspan x="0" y="30"></tspan></text><g transform="translate(47.945 94.15)"><circle cx="48" cy="48" r="48" transform="translate(0 0)"/><path class="ai" d="M86.507,76.693A47.979,47.979,0,0,1,4.533,27.754L4.5,27.74l0-.008,0-.008,0-.008,0-.006v0l0-.008,0-.006,0-.01,0-.006v0l0-.006,0-.008,0-.01,0-.006v0l0-.006,0-.008,0-.01,0,0v0l.008-.017,0-.008,0-.006v0l0-.008,0-.006,0-.01,0-.006v0l0-.006,0-.008,0-.01,0-.006h0l0-.008,0-.008,0-.01,0,0v0l0-.008,0-.008,0-.008,0-.006v0l0-.008,0-.006,0-.01,0-.006v0l0-.006,0-.008,0-.01,0-.006h0l0-.008,0-.008,0-.01,0-.006,0-.008,0-.008,0-.006,0-.008v0l0-.008,0-.006,0-.008,0-.008v0l0-.006,0-.008,0-.008,0-.008h0l0-.008,0-.008,0-.008,0-.006,0-.006,0,0,0,0,0,0,0,0,0,0,0,0,0,0v0l0,0,0,0v0l0,0,0,0,0,0,0-.006,0,0v0l0,0,0,0,0,0,0,0,0,0,0-.006,0,0,0,0v0l0,0,0,0,0,0,0,0,0,0,0-.006,0,0,0,0v0l0,0,0,0,0,0,0-.006v0l0,0,0,0,0,0v0l0,0,0,0,0,0,0,0,0,0,0,0,0,0v0l0,0,0,0,0-.006,0,0,0,0,0,0,0,0v0h0l0-.01,0,0,0,0,0,0,0,0,0,0v0l.006-.014.006-.012,0,0,0-.008,0-.012.006-.012.008-.012.006-.015,0-.006,0,0,.006-.015.006-.01,0,0,.006-.012.006-.01,0-.01,0,0,.006-.012.008-.012v0l.006-.008,0-.012.006-.012h0L5,26.714,5,26.7l0,0,0-.01.008-.012.006-.01v0l.006-.012,0-.012,0-.006,0-.008.006-.01.006-.015.006-.01.006-.015,0-.006,0,0,.006-.015.006-.012,0,0,0-.01.006-.012L5.1,26.5v0l.008-.012,0-.015,0,0,0-.008.008-.012,0-.012h0l0-.015.006-.01,0-.006,0-.008.006-.01,0-.015.008-.012.006-.012,0-.006,0-.006.006-.012L5.2,26.31,5.2,26.3l.008-.015,0-.006,0,0,.006-.015.008-.01v0l.01-.021.006-.012,0,0,.006-.01.006-.015,0,0,0-.006.006-.015.006-.01v0l.037.019A47.982,47.982,0,1,1,86.507,76.693h0ZM56.122,22.408a.538.538,0,1,1,.539-.539A.537.537,0,0,1,56.122,22.408Zm20.831,44.5V56.49l-2.315-3.141V66.906Zm-4.4,0V50.9L69,46.067V66.906Zm-5.767,0V40.276l-5.912-8.033V66.906Zm-48.126,0V56.49l2.306-3.141V66.906Zm4.387,0V50.9l3.541-4.83V66.906Zm5.748,0V40.276l5.891-8.033V66.906H28.791ZM29.8,28.446,38.157,21.2l-.006-3.133.317-.037.684,2.584s5.6-3.788,10.431-6.359a69.981,69.981,0,0,1,6.931-3.407l.607,0,0,8.473-.595,0,0-7.658L41.369,20.773l-.6.964L40,22.949v28.68l-.808,15.28-1.046,0-.091-43.464-6,4.637-2.263.361h0ZM55.355,65.655a.538.538,0,1,1,.537-.539A.539.539,0,0,1,55.355,65.655Zm-.74-41.278h.97V60.856h-.97ZM52.751,65.655a.538.538,0,1,1,.541-.539A.539.539,0,0,1,52.751,65.655Zm-2.59,0a.538.538,0,1,1,.537-.539A.539.539,0,0,1,50.16,65.655Zm-2.472-1.343H46.449V63.191h1.239Zm0,1.363H46.449V64.556h1.239Zm-1.517-1.363H44.933V63.191h1.239Zm0,1.363H44.933V64.556h1.239Zm7.7-37.783H50.639V24.977h3.228Zm-.039,25.528H50.6V50.508h3.228Zm.006-14.606H50.606V35.9h3.228Zm.01-7.263H50.616V28.637h3.228v2.915Zm.012,3.6H50.629V32.242h3.228Zm-3.224,4.43h3.228V42.5H50.633V39.586Zm-.023,3.659h3.23v2.913H50.61V43.245h0Zm.012,3.605h3.228v2.911H50.623Zm3.222,13.726H50.616V57.665h3.228Zm-3.228-6.463h3.228v2.913H50.616Zm-.734-.692H46.654V50.508h3.228Zm0-14.606H46.661V35.9h3.226Zm.012-7.263H46.671V28.637H49.9v2.915h0Zm-3.206-6.575h3.228v2.915H46.694V24.977ZM49.91,35.156H46.683V32.242H49.91Zm-3.222,4.43h3.228V42.5H46.688Zm-.023,3.659h3.228v2.913H46.665Zm.012,3.605H49.9v2.911H46.677ZM49.9,60.576H46.671V57.665H49.9Zm-3.228-6.463H49.9v2.913H46.671ZM44.933,24.377H45.9V60.856h-.968Zm-.543-1.968a.538.538,0,1,1,.537-.539A.538.538,0,0,1,44.39,22.408Zm2.074,0h7.588a1.539,1.539,0,0,1,1.533,1.533H44.933a1.536,1.536,0,0,1,1.531-1.533h0ZM43.4,66.906H57.119v-46H43.4v46Zm0-46v0ZM25.451,74.983H32.1V81H30.534V76.537H27.015V81H25.451V74.983ZM33.229,81V74.983H38.7v1.455h-3.91v.841h3.732v1.444H34.794v.827H38.7V81H33.229Zm6.96-6.021h3.825a2.591,2.591,0,0,1,1.649.361,3.918,3.918,0,0,1,.006,3.817,2.564,2.564,0,0,1-1.656.371H41.754V81H40.19V74.983h0Zm1.564,2.994h2.261a.553.553,0,0,0,.421-.147.791.791,0,0,0,.17-.574.828.828,0,0,0-.17-.576.568.568,0,0,0-.421-.143H41.754Zm6.954.63h2.708a.484.484,0,0,1,.34.106.516.516,0,0,1,.116.392.4.4,0,0,1-.456.452H48.708v-.949h0Zm-1.564-3.624V81h4.729a1.61,1.61,0,0,0,1.2-.379,1.84,1.84,0,0,0,.361-1.289,1.459,1.459,0,0,0-.7-1.424.886.886,0,0,0,.369-.439,1.867,1.867,0,0,0,.149-.792,1.733,1.733,0,0,0-.5-1.448,1.772,1.772,0,0,0-1.067-.251H47.143Zm1.564,1.463H51.48a.415.415,0,0,1,.292.091.42.42,0,0,1,.1.311.357.357,0,0,1-.392.406H48.708v-.808h0ZM61.37,74.983h1.564V81H61.37ZM54.539,81V74.983H56.1v1.479h2.263a2.548,2.548,0,0,1,1.647.371,3.893,3.893,0,0,1,.008,3.8A2.572,2.572,0,0,1,58.364,81H54.539ZM56.1,78.017v1.432h2.263a.574.574,0,0,0,.419-.135.8.8,0,0,0,.164-.572.832.832,0,0,0-.149-.57.574.574,0,0,0-.433-.155ZM64,74.983h1.564v4.144l-.122.632.184-.329L68.3,74.983h2.559v6.011H69.3V76.842l.128-.632-.184.327-2.681,4.457H64Zm4.849-1.162H66.333v.825h2.518ZM25.9,72.577h-.454V69.444H27.73v.644h-1.7v2.489Zm1.925-.128v-3h1.933a.7.7,0,0,1,.319.07.606.606,0,0,1,.245.209.855.855,0,0,1,.147.332,1.84,1.84,0,0,1,.048.435,1.255,1.255,0,0,1-.2.767.667.667,0,0,1-.249.209.74.74,0,0,1-.323.068H28.412v1.042h-.586v-.128Zm.586-1.558h1.334a.128.128,0,0,0,.064-.015.17.17,0,0,0,.056-.054.436.436,0,0,0,.044-.12,1.015,1.015,0,0,0,.017-.211.7.7,0,0,0-.06-.336.159.159,0,0,0-.054-.052.153.153,0,0,0-.07-.015h-1.33v.8h0Zm3.6,1.04a.352.352,0,0,0,.168-.031.2.2,0,0,0,.044-.041c0-.006.01-.01.015-.017l-1.712-2.4H31.3l1.245,1.778.779-1.778h.659l-1.123,2.547a1.225,1.225,0,0,1-.145.253.881.881,0,0,1-.189.184.754.754,0,0,1-.24.112,1.034,1.034,0,0,1-.284.037h-.854v-.646h.866Zm2.149-2.487h2.692v3.133h-.588V70.089H34.622v2.489h-.588V69.444h.128Zm3.108,0h2.692v3.133h-.586V70.089H37.732v2.489h-.591V69.444Zm4.768.081,1.235,3.052h-.651l-.261-.638h-1.4l-.259.638h-.651l1.268-3.133H42l.033.081h0Zm.079,1.77-.456-1.138-.454,1.138Zm2.839,1.154v-3h.586v1.167H45.7l1.341-1.167h.957l-1.7,1.488,1.79,1.645h-.922L45.7,71.253h-.153v1.324h-.586Zm4.538.17a4.974,4.974,0,0,1-.6-.031,1.564,1.564,0,0,1-.412-.093.708.708,0,0,1-.276-.207.8.8,0,0,1-.149-.323,2.012,2.012,0,0,1-.041-.363c-.01-.16-.015-.354-.015-.586s0-.429.012-.591a2.369,2.369,0,0,1,.039-.356.787.787,0,0,1,.151-.325v0a.7.7,0,0,1,.278-.207,1.586,1.586,0,0,1,.414-.1,5.431,5.431,0,0,1,.6-.031,2.891,2.891,0,0,1,1.013.126.7.7,0,0,1,.276.205.852.852,0,0,1,.151.327,2.255,2.255,0,0,1,.041.365c.008.16.015.354.015.586s-.006.431-.015.591a1.917,1.917,0,0,1-.039.354.838.838,0,0,1-.147.325.715.715,0,0,1-.278.209,1.562,1.562,0,0,1-.414.093,4.988,4.988,0,0,1-.6.031h0Zm0-.644a3.851,3.851,0,0,0,.586-.035.443.443,0,0,0,.218-.068.588.588,0,0,0,.07-.242,4.366,4.366,0,0,0,.031-.613,4.445,4.445,0,0,0-.031-.62.565.565,0,0,0-.068-.242.443.443,0,0,0-.218-.068,3.883,3.883,0,0,0-.588-.035,1.621,1.621,0,0,0-.806.1.574.574,0,0,0-.066.242,4.391,4.391,0,0,0-.033.62,4.28,4.28,0,0,0,.033.611.566.566,0,0,0,.068.242.439.439,0,0,0,.22.07,3.86,3.86,0,0,0,.584.035h0Zm2.627-2.457,1.028,2.124,1.065-2.2h.8v3.133h-.588v-2.2l-1.094,2.2h-.367l-1.09-2.192v2.192h-.586V69.445h.8Zm3.411-.073h2.692v3.133h-.591V70.089H55.989v2.489H55.4V69.445Zm4.766.081,1.235,3.052h-.649l-.263-.638h-1.4l-.259.638h-.651l1.27-3.133h.688l.033.081h0Zm.077,1.77-.452-1.138-.456,1.138h.908Zm1.33-1.85h.458v1.22h1.647v-1.22H64.4v3.133h-.588V71.309H62.162v1.268h-.586V69.445Zm5.292,0h.613v3.133h-.591V70.336L65.33,72.578h-.692V69.445h.588v2.265l1.705-2.265Zm3.268,0h.611v3.133h-.588V70.336L68.6,72.578h-.692V69.445h.588v2.261L70.2,69.445h.064Zm-1.388-.425h1.119v.644H68.747V69.02Zm22.451-21a43.151,43.151,0,1,1-12.64-30.509,43.008,43.008,0,0,1,12.64,30.509ZM77.547,77.387A41.543,41.543,0,1,0,48.175,89.552,41.417,41.417,0,0,0,77.547,77.387Zm12.515-14A44.728,44.728,0,1,0,49.269,92.766,44.628,44.628,0,0,0,90.063,63.39Z" transform="translate(-0.016 -0.019)"/></g></g><g transform="translate(1189.309 792)"><g transform="translate(0 0)"><g class="au" transform="matrix(1, 0, 0, 1, -41.31, -287)"><path class="aj" d="M277.638,40H82.053A21.617,21.617,0,0,0,60.5,61.553v53.883c0,11.854,9.7,21.553,20.206,21.553h64.929c13.605,0,20.067,32.047,30.878,32.151,11.591.069,17.751-32.151,29.875-32.151h71.249a21.617,21.617,0,0,0,21.553-21.553V61.553A21.617,21.617,0,0,0,277.638,40Z" transform="translate(-19.19 247)"/></g><g transform="translate(22.772 29.174)"><path class="g" d="M173.607,62.4a10.507,10.507,0,1,0,10.507,10.507A10.521,10.521,0,0,0,173.607,62.4Z" transform="translate(-154.344 -62.4)"/><path class="g" d="M157.543,92.858a.9.9,0,0,1-.943-.808V89.625c0-4.984,2.694-9.025,7.678-9.025h23.17c4.984,0,7.678,4.041,7.678,9.025v2.29a.776.776,0,0,1-.808.808H157.543Z" transform="translate(-156.6 -56.083)"/></g><text class="ak" transform="translate(77.286 60.578)"><tspan x="0" y="0">200 000</tspan></text></g></g><text class="al" transform="translate(1264 716)"><tspan x="-48.288" y="0">#ХочуКвартиру</tspan></text><g transform="translate(1176.533 621.033)"><g transform="translate(0 7.21)"><path class="am" d="M206.789,280.229h-.666a1.023,1.023,0,0,1-1.023-1.023v-1.484a1.023,1.023,0,0,1,1.023-1.023h.666a1.023,1.023,0,0,1,1.023,1.023v1.484A1.023,1.023,0,0,1,206.789,280.229Z" transform="translate(-200.86 -276.7)"/><path class="am" d="M52.949,369.9v.024a1.023,1.023,0,0,1-1.023,1.023H51.26a1.023,1.023,0,0,1-1.023-1.023V369.9A5.38,5.38,0,0,0,46,373.514c-.005.024,2.823,0,5.594,0s5.6.024,5.594,0A5.38,5.38,0,0,0,52.949,369.9Z" transform="translate(-45.997 -367.417)"/><path class="an" d="M45.905,432.5h0c.045.008.381.011.882.011h0c1.052,0,2.893-.011,4.707-.011s3.657.011,4.707.011h0c.5,0,.836,0,.879-.008h.008c-.019-.077-.043-.154-.067-.229,0-.011-.008-.024-.011-.037h0c-.027-.08-.056-.16-.088-.237h0q-.048-.116-.1-.232h0c-.037-.077-.077-.152-.117-.226h0c-.043-.075-.085-.149-.133-.221h0c-.045-.072-.1-.144-.146-.216h0q-.076-.108-.16-.208h0c-.112-.136-.229-.269-.357-.4-.128,1.774-2.624-.416-4.331.205-1.707-.618-4.36,1.569-4.488-.205a4.542,4.542,0,0,0-.357.4h0q-.084.1-.16.208h0c-.051.072-.1.141-.146.216h0c-.045.072-.091.146-.133.221h0c-.043.075-.08.149-.117.226h0q-.056.116-.1.232h0c-.032.077-.061.157-.088.237s-.056.173-.08.266c0,0,0,0,.005,0Z" transform="translate(-45.9 -426.403)"/><path class="ao" d="M267.6,429.3" transform="translate(-261.695 -425.235)"/><path class="ao" d="M258.9,433.2" transform="translate(-253.227 -429.031)"/></g><path class="ap" d="M114.137,249.6c.069.088-.069.5-.091.586-.088.37-.413.666-.567,1.01a2.577,2.577,0,0,0-.205,1.3s.932,2.871.759,3.511a4.019,4.019,0,0,0,.1-1.761,9.556,9.556,0,0,1,.216,2.182,4.257,4.257,0,0,0,.125-2.2,3.834,3.834,0,0,1,.567,1.763,5.944,5.944,0,0,0-.1-1.99,3.79,3.79,0,0,1,.57,1.745,6.685,6.685,0,0,0-.125-2.072,5.64,5.64,0,0,1,.538,1.278c-.011-.184.024-.376.013-.562a4.789,4.789,0,0,0-.173-.924,1.191,1.191,0,0,1,.027-.874,1.766,1.766,0,0,0,.133-.73S114.139,249.6,114.137,249.6Z" transform="translate(-111.468 -243.112)"/><path class="ap" d="M116.09,50.149c-.083-4.307-3.127-4.717-3.937-4.749h-.021c-.8.032-3.849.442-3.931,4.749,0,0,3.1,2.831,3.886,1.028l-.168,2.118.218-.005h.011l.218.005.826-2.552C113.988,52.546,116.09,50.149,116.09,50.149Z" transform="translate(-106.541 -44.351)"/><path class="ap" d="M116.09,50.149c-.083-4.307-3.127-4.717-3.937-4.749h-.021c-.8.032-3.849.442-3.931,4.749,0,0,3.1,2.831,3.886,1.028l1.108-.434C113.988,52.546,116.09,50.149,116.09,50.149Z" transform="translate(-106.541 -44.351)"/><path class="ap" d="M204.058,7.39a.673.673,0,0,0,.061-.29c0-.607-.653-1.1-1.46-1.1s-1.46.493-1.46,1.1a.653.653,0,0,0,.064.3A3.459,3.459,0,0,1,204.058,7.39Z" transform="translate(-197.063 -6)"/><ellipse class="aq" cx="0.727" cy="1.004" rx="0.727" ry="1.004" transform="translate(8.32 4.727) rotate(12.263)"/><ellipse class="aq" cx="0.727" cy="1.004" rx="0.727" ry="1.004" transform="translate(3.3 6.69) rotate(167.737)"/><ellipse class="aq" cx="3.124" cy="3.646" rx="3.124" ry="3.646" transform="translate(2.48 2.088)"/><path class="ap" d="M158.9,67.324a3.325,3.325,0,0,0,1.721,1s.919.117,1.023.453a.992.992,0,0,0-.674-.724s1-.027,1.191.661c0,0,.021-.828-.669-1,0,0,.914.021,1.175.634a1.164,1.164,0,0,0-.679-.882s1.132.141,1.177,1.036a1.1,1.1,0,0,0-.376-1.063,1.106,1.106,0,0,1,.812.778,5.837,5.837,0,0,0,.53,1.145,1.9,1.9,0,0,1,0,1.172,2.12,2.12,0,0,0,.194-1.172s-.256-.663-.362-1.041a6.032,6.032,0,0,1,.586,1.231,13.476,13.476,0,0,0-.312-2.227L161.207,66.2l-1.619.674Z" transform="translate(-155.89 -64.597)"/></g><g transform="translate(1183.376 568.707)"><g transform="translate(0 10.32)"><path class="ar" d="M208.93,295.226h-.481a1.55,1.55,0,0,1-1.549-1.549v-3.028a1.55,1.55,0,0,1,1.549-1.549h.481a1.55,1.55,0,0,1,1.549,1.549v3.028A1.552,1.552,0,0,1,208.93,295.226Z" transform="translate(-201.357 -289.1)"/><path class="as" d="M69.464,383.532a7.144,7.144,0,0,0-5.543-4.632v.033a15.606,15.606,0,0,1-1.775,2.591,15.6,15.6,0,0,1-1.8-2.591V378.9a7.144,7.144,0,0,0-5.546,4.632Z" transform="translate(-54.8 -375.628)"/><g transform="translate(4.743 3.272)"><path class="at" d="M258.075,378.9s.062.248-1.775,2.62a6.568,6.568,0,0,1,2.38.711S259.408,379.527,258.075,378.9Z" transform="translate(-253.7 -378.9)"/><path class="at" d="M185.75,378.9s-.044.248,1.8,2.62a6.615,6.615,0,0,0-2.4.711S184.416,379.527,185.75,378.9Z" transform="translate(-184.946 -378.9)"/></g></g><path class="ap" d="M121.371,66.444c-.109-5.75-4.18-6.3-5.258-6.344h-.022c-1.079.044-5.178.59-5.291,6.344,0,0,4.169,3.783,5.226,1.374l1.479-.579C118.562,69.651,121.371,66.444,121.371,66.444Z" transform="translate(-108.759 -58.125)"/><ellipse class="aq" cx="0.973" cy="1.345" rx="0.973" ry="1.345" transform="translate(10.967 6.886) rotate(12.263)"/><ellipse class="aq" cx="0.973" cy="1.345" rx="0.973" ry="1.345" transform="translate(4.265 9.514) rotate(167.737)"/><ellipse class="aq" cx="4.176" cy="4.872" rx="4.176" ry="4.872" transform="translate(3.167 3.363)"/><path class="ap" d="M172.74,10.459c1.068.324,5.758,1.436,6.741-3.553,0,0-.456.864-1.126.864,0,0,.991-.138,1.3-1.869,0,0-.5,1.523-1.753,1.418a5.568,5.568,0,0,1-1.618-.069s-3.167-.864-3.91.623a2.385,2.385,0,0,0,.044,2.307A.487.487,0,0,0,172.74,10.459Z" transform="translate(-167.846 -5.9)"/><path class="ap" d="M300.8,103.745a2.4,2.4,0,0,1,.9,1.177,4.98,4.98,0,0,0,.612,1.676,2.074,2.074,0,0,1,.277,1.25l.346-.073.131-1.337-.528-2.536-1.319-1-.62.587Z" transform="translate(-291.643 -99.365)"/><path class="ap" d="M146.57,103.745a2.4,2.4,0,0,0-.9,1.177,4.98,4.98,0,0,1-.612,1.676,2.074,2.074,0,0,0-.277,1.25l-.346-.073-.131-1.337.528-2.536,1.319-1,.619.587Z" transform="translate(-141.039 -99.365)"/><path class="ap" d="M155.051,272.6l-.332.007a1.731,1.731,0,0,1-1.432.8c-.262.026-.827-.452-.827-.452a65.869,65.869,0,0,0-2.769,0s-.565.477-.827.452a1.731,1.731,0,0,1-1.432-.8l-.332-.007a5.3,5.3,0,0,0,.929,2.441v-.23a2.624,2.624,0,0,0,.973,1.374,1.539,1.539,0,0,1-.353-.554,3.506,3.506,0,0,0,1.341,1.13,1.769,1.769,0,0,1-.758-.773,3.681,3.681,0,0,0,1.84,1.188h0a3.681,3.681,0,0,0,1.84-1.188,1.769,1.769,0,0,1-.758.773,3.506,3.506,0,0,0,1.341-1.13,1.54,1.54,0,0,1-.353.554,2.584,2.584,0,0,0,.973-1.374v.23A5.3,5.3,0,0,0,155.051,272.6Zm-3.9,2.292c-.025,0-.047,0-.073-.007h0a.45.45,0,0,1-.073.007,1.084,1.084,0,0,1-1.075-1.388.063.063,0,0,1,.084-.091,1.968,1.968,0,0,0,1.042.35h.044a1.926,1.926,0,0,0,1.042-.35.063.063,0,0,1,.084.091A1.083,1.083,0,0,1,151.148,274.892Z" transform="translate(-143.737 -262.881)"/></g></g></svg>