<svg xmlns="http://www.w3.org/2000/svg" viewBox="0 0 1920 1080"><defs><style>.a{fill:#1c1c1c;fill-rule:evenodd;}.b{fill:#2b2a2a;}.c{fill:#1f1f1f;}.d{fill:#333;}.e{fill:#595959;}</style></defs><path class="a" d="M.15,0H1919.836V1079.916H.15Z" transform="translate(-0.114)"/><path class="b" d="M72.338,1464.1H1.31V1040.278h31.3V964.167H35.3l6.326-13.354V882.226h4.8v-4.339l3.672-7.771h5.1l3.343,12.11h4.785v67l6.437,14.944h2.578v42.623h28.59v55.078h12.3V982.881h8.537V971.748h31.823v11.133h6.765V910.73h31.785v30.791l38.231,41.36v88.826c20.342-17.011,21.237-17.767,40.489-33.877V917.623h6V881.667h5.978v-28.3h1.92l2.059-43.549,2.059,43.549h1.781v28.3h5.978v35.956h6v65.259h28.691v106.067H347.73v-43.957H356.3V900.66H388.07v144.332h8.553v18.895h12.993v-95.9h31.7v-30.7h9.549V861.44h44.759v75.842h9.549v103h26.642V964.165h2.676l6.329-13.351v-68.59h4.8v-4.337l3.669-7.771h5.1l3.343,12.107h4.783v67l6.437,14.942h2.578v42.625h28.593v55.078h12.3V982.881h8.534V971.748h31.816v11.133h6.773V910.728h31.787v72.478l38.231-.324v27.885l26.234,38.992,14.256-11.93V811.913h6V775.958h5.978V747.65h7.821v28.307h5.978v35.956h6V982.881h28.691v106.067h13.61v-43.957h11.352V900.66h31.785v144.332h5.76v18.895H908.8v-95.9H940.5v-30.7h9.552V861.44h44.756v75.842h9.549v69.5h13.214v55.078h12.295V982.879h8.536V971.746h31.813v11.134h6.777V910.728h31.773v30.8l38.243,41.349.967,86.935,39.522-31.986V927.969h6V892.013h5.969v-28.3h1.93l2.059-43.549,2.059,43.549h1.781v28.3h5.969v35.956h6.01v54.911h28.691v106.069h16.4v-43.957h8.556V900.66h31.785v144.332h8.558v18.895h12.991v-95.9h31.7v-30.7h9.549V861.44h44.759v75.843h9.549v102.993h26.632V964.165h2.688l6.326-13.351v-68.59h4.785v-4.337l3.679-7.771h5.1l3.343,12.108h4.783v67l6.429,14.945h2.585v42.622h28.59v55.078h12.288V982.879h8.546V971.746H1569.4v11.133h6.775v-98.2h31.775v30.8l38.24,67.4v27.887l40.482.754V873.061h6.009V837.1h5.969V808.8h7.828v28.3h5.969v35.958h6.009V982.879h28.691v106.067h13.61v-43.955h11.349V900.66h31.785v144.332h5.762v18.892h15.786v-95.9h31.7v-30.7h9.549V861.44h44.759v75.843H1921V1464.1H72.338v0Zm674.747-407.061-17.531-26.056v40.732ZM729.556,1023.4l20.791,30.9,2.179-1.819-22.97-34.146Z" transform="translate(-0.996 -568.22)"/><path class="c" d="M1919.836,2203.559V1711.567h-56.751v69.287l-65.849,54.563V1954.4h-76.747v-72.024h-63.979v-124.44H1588.42v78.2h-34.134V1693.087h-38.773v143.051H1474.39v-99.811h-15v-17.811L1388.782,1614.9v121.432h-17.047v79.113h-46.981v-61.127h-56v61.127H1237.6v20.7H1162.73V1703.727h-36.764v-42.335h-74.287v-26.9h-11.738v46.162h-38.773v-46.162h-40.9v69.281l-27.885,23.105v-33.67H894.262v132.207H882.236v51.906h-76.03v-56.4h-52.52V1680.859H685.6v78.2H571.566v-99.812h-15l-61.5.351-1-100.991-8.107.021v100.619H468.914v79.113H421.94v-61.126H365.928v61.126H334.774v20.7H196.757V1829.2H157.674v37.2H145.547v-14.51H110.791V1616.124H72.678v235.762H55.12v-103.54H.15v455.213Z" transform="translate(-0.114 -1184.555)"/><path d="M0,2410.219V2153.582H68.444V2041.969H74.3l13.836-19.588V1921.8H98.606v-6.367l8.035-11.381h11.152l7.3,11.381v6.367H135.56v98.244l14.054,21.92h5.637v62.507h62.492v80.77h26.874V2069.412h18.667v-16.329h69.552v16.329h14.8V1963.606H417.1v45.165l83.585,60.641V2110.3l57.337,57.181,31.146-17.493V1908.368h13.125v-52.728h13.058v-41.516h4.207l4.5-63.854,4.5,63.854h3.885v41.516H645.5v52.728h13.123v161.044h62.71v155.549H757.2V2160.5h18.7V1948.843H845.37V2160.5h18.707v27.7h28.389V2047.578h69.286v-45.043h20.865V1891.33h97.838v111.205h20.875v151.047h14.611V2041.969h5.856l13.836-19.588V1921.808H1146.1v-6.37l8.035-11.381h11.152l7.3,11.381v6.37h10.471v98.243l14.052,21.918h5.65v62.507h62.482v80.77h26.884V2069.412h18.657v-16.326h69.552v16.326h14.8V1963.606h69.456v45.167l83.587,60.639V2110.3l57.337,57.181,31.146-17.493V1936.884h13.125v-52.727h13.058v-40.95h4.207l4.5-63.852,4.5,63.852h3.9v40.95H1693v52.727h13.132v132.53h62.7v155.547H1804.7V2160.5h18.7V1948.843h69.466V2160.5h26.855v249.633Q959.861,2410.135,0,2410.219Zm500.68-288.8v7.411l45.447,45.327,4.757-2.674-50.2-50.064Zm0,18.527v59.731L539,2178.156Zm1097.71,31.537-50.214-50.062v7.411l45.447,45.324Zm-11.894,6.673-38.32-38.21v59.731Z" transform="translate(0 -1330.219)"/><g transform="translate(78.252 572.339)"><path class="d" d="M1496.771,2703.374h-9.931v-9.925h9.931Z" transform="translate(-1208.261 -2619.381)"/><path class="d" d="M1581.541,2703.374h-9.931v-9.925h9.931Z" transform="translate(-1272.687 -2619.381)"/><path class="d" d="M1666.311,2703.374h-9.931v-9.925h9.931Z" transform="translate(-1337.113 -2619.381)"/><path class="d" d="M2503.081,2472.3h-9.931v-9.922h9.931Z" transform="translate(-1973.064 -2443.766)"/><path class="d" d="M2587.851,2472.3h-9.931v-9.922h9.931Z" transform="translate(-2037.49 -2443.766)"/><path class="e" d="M2672.621,2472.3h-9.931v-9.922h9.931Z" transform="translate(-2101.916 -2443.766)"/><path class="d" d="M2503.081,2578.713h-9.931v-9.923h9.931Z" transform="translate(-1973.064 -2524.638)"/><path class="d" d="M2587.851,2578.713h-9.931v-9.923h9.931Z" transform="translate(-2037.49 -2524.638)"/><path class="e" d="M2672.621,2578.713h-9.931v-9.923h9.931Z" transform="translate(-2101.916 -2524.638)"/><path class="e" d="M2503.081,2685.132h-9.931v-9.922h9.931Z" transform="translate(-1973.064 -2605.519)"/><path class="e" d="M2587.851,2685.132h-9.931v-9.922h9.931Z" transform="translate(-2037.49 -2605.519)"/><path class="d" d="M2672.621,2685.132h-9.931v-9.922h9.931Z" transform="translate(-2101.916 -2605.519)"/><path class="e" d="M2503.081,2791.552h-9.931v-9.922h9.931Z" transform="translate(-1973.064 -2686.399)"/><path class="d" d="M2587.851,2791.552h-9.931v-9.922h9.931Z" transform="translate(-2037.49 -2686.399)"/><path class="d" d="M2672.621,2791.552h-9.931v-9.922h9.931Z" transform="translate(-2101.916 -2686.399)"/><path class="d" d="M2503.081,2897.963h-9.931v-9.924h9.931Z" transform="translate(-1973.064 -2767.27)"/><path class="d" d="M2587.851,2897.963h-9.931v-9.924h9.931Z" transform="translate(-2037.49 -2767.27)"/><path class="d" d="M2672.621,2897.963h-9.931v-9.924h9.931Z" transform="translate(-2101.916 -2767.27)"/><path class="d" d="M2503.081,3004.382h-9.931v-9.922h9.931Z" transform="translate(-1973.064 -2848.151)"/><path class="d" d="M2587.851,3004.382h-9.931v-9.922h9.931Z" transform="translate(-2037.49 -2848.151)"/><path class="e" d="M2672.621,3004.382h-9.931v-9.922h9.931Z" transform="translate(-2101.916 -2848.151)"/><path class="d" d="M2503.081,3110.8h-9.931v-9.922h9.931Z" transform="translate(-1973.064 -2929.03)"/><path class="d" d="M2587.851,3110.8h-9.931v-9.922h9.931Z" transform="translate(-2037.49 -2929.03)"/><path class="d" d="M2672.621,3110.8h-9.931v-9.922h9.931Z" transform="translate(-2101.916 -2929.03)"/><path class="d" d="M3279.711,2632.11h-9.921v-9.93h9.921Z" transform="translate(-2563.316 -2565.216)"/><path class="d" d="M3364.481,2632.11h-9.921v-9.93h9.921Z" transform="translate(-2627.742 -2565.216)"/><path class="e" d="M3449.251,2632.11h-9.921v-9.93h9.921Z" transform="translate(-2692.168 -2565.216)"/><path class="d" d="M3279.711,2736.74h-9.921v-9.921h9.921Z" transform="translate(-2563.316 -2644.743)"/><path class="d" d="M3364.481,2736.74h-9.921v-9.921h9.921Z" transform="translate(-2627.742 -2644.743)"/><path class="d" d="M3449.251,2736.74h-9.921v-9.921h9.921Z" transform="translate(-2692.168 -2644.743)"/><path class="d" d="M3279.711,2841.342h-9.921v-9.922h9.921Z" transform="translate(-2563.316 -2724.239)"/><path class="e" d="M3364.481,2841.342h-9.921v-9.922h9.921Z" transform="translate(-2627.742 -2724.239)"/><path class="d" d="M3449.251,2841.342h-9.921v-9.922h9.921Z" transform="translate(-2692.168 -2724.239)"/><path class="d" d="M4160.764,2399.224h-14.4v-14.4h14.4Z" transform="translate(-3229.515 -2384.819)"/><path class="d" d="M4283.794,2399.224h-14.4v-14.4h14.4Z" transform="translate(-3323.019 -2384.819)"/><path class="d" d="M4406.825,2399.224h-14.4v-14.4h14.4Z" transform="translate(-3416.523 -2384.819)"/><path class="e" d="M4160.764,2551.055h-14.4v-14.405h14.4Z" transform="translate(-3229.515 -2500.211)"/><path class="d" d="M4283.794,2551.055h-14.4v-14.405h14.4Z" transform="translate(-3323.019 -2500.211)"/><path class="d" d="M4406.825,2551.055h-14.4v-14.405h14.4Z" transform="translate(-3416.523 -2500.211)"/><path class="e" d="M4160.764,2702.883h-14.4v-14.4h14.4Z" transform="translate(-3229.515 -2615.604)"/><path class="d" d="M4283.794,2702.883h-14.4v-14.4h14.4Z" transform="translate(-3323.019 -2615.604)"/><path class="d" d="M4406.825,2702.883h-14.4v-14.4h14.4Z" transform="translate(-3416.523 -2615.604)"/><path class="d" d="M3774.123,3046.395H3763.53V3035.8h10.593Z" transform="translate(-2938.562 -2879.571)"/><path class="d" d="M3864.624,3046.395H3854.03V3035.8h10.594Z" transform="translate(-3007.342 -2879.571)"/><path class="d" d="M3955.113,3046.395H3944.52V3035.8h10.593Z" transform="translate(-3076.116 -2879.571)"/><path class="e" d="M3774.123,3158.027H3763.53v-10.6h10.593Z" transform="translate(-2938.562 -2964.409)"/><path class="d" d="M3864.624,3158.027H3854.03v-10.6h10.594Z" transform="translate(-3007.342 -2964.409)"/><path class="d" d="M3955.113,3158.027H3944.52v-10.6h10.593Z" transform="translate(-3076.116 -2964.409)"/><path class="d" d="M3774.123,3266.016H3763.53V3255.43h10.593Z" transform="translate(-2938.562 -3046.49)"/><path class="d" d="M3864.624,3266.016H3854.03V3255.43h10.594Z" transform="translate(-3007.342 -3046.49)"/><path class="d" d="M3955.113,3266.016H3944.52V3255.43h10.593Z" transform="translate(-3076.116 -3046.49)"/><path class="d" d="M3774.123,3377.654H3763.53v-10.6h10.593Z" transform="translate(-2938.562 -3131.329)"/><path class="d" d="M3864.624,3377.654H3854.03v-10.6h10.594Z" transform="translate(-3007.342 -3131.329)"/><path class="d" d="M3955.113,3377.654H3944.52v-10.6h10.593Z" transform="translate(-3076.116 -3131.329)"/><path class="d" d="M4083.67,2876.383h-22.24v-14.4h22.24Z" transform="translate(-3164.968 -2747.463)"/><path class="d" d="M4273.68,2876.383h-22.25v-14.4h22.25Z" transform="translate(-3309.37 -2747.463)"/><path class="d" d="M4463.71,2876.383h-22.25v-14.4h22.25Z" transform="translate(-3453.793 -2747.463)"/><path class="e" d="M4083.67,3028.215h-22.24v-14.406h22.24Z" transform="translate(-3164.968 -2862.855)"/><path class="d" d="M4273.68,3028.215h-22.25v-14.406h22.25Z" transform="translate(-3309.37 -2862.855)"/><path class="d" d="M4463.71,3028.215h-22.25v-14.406h22.25Z" transform="translate(-3453.793 -2862.855)"/><path class="d" d="M4083.67,3180.043h-22.24v-14.4h22.24Z" transform="translate(-3164.968 -2978.249)"/><path class="d" d="M4273.68,3180.043h-22.25v-14.4h22.25Z" transform="translate(-3309.37 -2978.249)"/><path class="d" d="M4463.71,3180.043h-22.25v-14.4h22.25Z" transform="translate(-3453.793 -2978.249)"/><path class="d" d="M3279.711,3108.27h-9.921v-9.918h9.921Z" transform="translate(-2563.316 -2927.11)"/><path class="d" d="M3364.481,3108.27h-9.921v-9.918h9.921Z" transform="translate(-2627.742 -2927.11)"/><path class="d" d="M3449.251,3108.27h-9.921v-9.918h9.921Z" transform="translate(-2692.168 -2927.11)"/><path class="d" d="M3279.711,3212.875h-9.921v-9.926h9.921Z" transform="translate(-2563.316 -3006.604)"/><path class="d" d="M3364.481,3212.875h-9.921v-9.926h9.921Z" transform="translate(-2627.742 -3006.604)"/><path class="d" d="M3449.251,3212.875h-9.921v-9.926h9.921Z" transform="translate(-2692.168 -3006.604)"/><path class="d" d="M3279.711,3317.475h-9.921v-9.924h9.921Z" transform="translate(-2563.316 -3086.103)"/><path class="d" d="M3364.481,3317.475h-9.921v-9.924h9.921Z" transform="translate(-2627.742 -3086.103)"/><path class="d" d="M3449.251,3317.475h-9.921v-9.924h9.921Z" transform="translate(-2692.168 -3086.103)"/><path class="d" d="M2503.081,3217.222h-9.931V3207.3h9.931Z" transform="translate(-1973.064 -3009.911)"/><path class="d" d="M2587.851,3217.222h-9.931V3207.3h9.931Z" transform="translate(-2037.49 -3009.911)"/><path class="e" d="M2672.621,3217.222h-9.931V3207.3h9.931Z" transform="translate(-2101.916 -3009.911)"/><path class="d" d="M2503.081,3323.633h-9.931v-9.924h9.931Z" transform="translate(-1973.064 -3090.782)"/><path class="d" d="M2587.851,3323.633h-9.931v-9.924h9.931Z" transform="translate(-2037.49 -3090.782)"/><path class="d" d="M2672.621,3323.633h-9.931v-9.924h9.931Z" transform="translate(-2101.916 -3090.782)"/><path class="d" d="M2503.081,3430.053h-9.931v-9.922h9.931Z" transform="translate(-1973.064 -3171.664)"/><path class="d" d="M2587.851,3430.053h-9.931v-9.922h9.931Z" transform="translate(-2037.49 -3171.664)"/><path class="d" d="M2672.621,3430.053h-9.931v-9.922h9.931Z" transform="translate(-2101.916 -3171.664)"/><path class="e" d="M2767.581,3135.459h-9.931v-16.34h9.931Z" transform="translate(-2174.086 -2942.893)"/><path class="d" d="M2852.351,3135.459h-9.931v-16.34h9.931Z" transform="translate(-2238.512 -2942.893)"/><path class="d" d="M2937.121,3135.459h-9.931v-16.34h9.931Z" transform="translate(-2302.938 -2942.893)"/><path class="d" d="M2767.581,3310.617h-9.931v-16.326h9.931Z" transform="translate(-2174.086 -3076.025)"/><path class="d" d="M2852.351,3310.617h-9.931v-16.326h9.931Z" transform="translate(-2238.512 -3076.025)"/><path class="d" d="M2937.121,3310.617h-9.931v-16.326h9.931Z" transform="translate(-2302.938 -3076.025)"/><path class="d" d="M2767.581,3485.75h-9.931v-16.34h9.931Z" transform="translate(-2174.086 -3209.116)"/><path class="d" d="M2852.351,3485.75h-9.931v-16.34h9.931Z" transform="translate(-2238.512 -3209.116)"/><path class="d" d="M2937.121,3485.75h-9.931v-16.34h9.931Z" transform="translate(-2302.938 -3209.116)"/><path class="d" d="M1496.771,2802.612h-9.931v-9.932h9.931Z" transform="translate(-1208.261 -2694.797)"/><path class="e" d="M1581.541,2802.612h-9.931v-9.932h9.931Z" transform="translate(-1272.687 -2694.797)"/><path class="d" d="M1666.311,2802.612h-9.931v-9.932h9.931Z" transform="translate(-1337.113 -2694.797)"/><path class="e" d="M402.215,2500.623H395.79V2494.2h6.425Z" transform="translate(-379.055 -2467.949)"/><path class="d" d="M457.135,2500.623H450.71V2494.2h6.425Z" transform="translate(-420.795 -2467.949)"/><path class="d" d="M512.055,2500.623H505.63V2494.2h6.425Z" transform="translate(-462.535 -2467.949)"/><path class="d" d="M402.215,2577.984H395.79v-6.425h6.425Z" transform="translate(-379.055 -2526.744)"/><path class="d" d="M457.135,2577.984H450.71v-6.425h6.425Z" transform="translate(-420.795 -2526.744)"/><path class="d" d="M512.055,2577.984H505.63v-6.425h6.425Z" transform="translate(-462.535 -2526.744)"/><path class="d" d="M402.215,2655.335H395.79v-6.426h6.425Z" transform="translate(-379.055 -2585.53)"/><path class="d" d="M457.135,2655.335H450.71v-6.426h6.425Z" transform="translate(-420.795 -2585.53)"/><path class="d" d="M512.055,2655.335H505.63v-6.426h6.425Z" transform="translate(-462.535 -2585.53)"/><path class="d" d="M402.215,2732.7H395.79v-6.425h6.425Z" transform="translate(-379.055 -2644.326)"/><path class="d" d="M457.135,2732.7H450.71v-6.425h6.425Z" transform="translate(-420.795 -2644.326)"/><path class="e" d="M512.055,2732.7H505.63v-6.425h6.425Z" transform="translate(-462.535 -2644.326)"/><path class="d" d="M402.215,2810.044H395.79v-6.424h6.425Z" transform="translate(-379.055 -2703.111)"/><path class="d" d="M457.135,2810.044H450.71v-6.424h6.425Z" transform="translate(-420.795 -2703.111)"/><path class="d" d="M512.055,2810.044H505.63v-6.424h6.425Z" transform="translate(-462.535 -2703.111)"/><path class="d" d="M402.215,2887.4H395.79v-6.426h6.425Z" transform="translate(-379.055 -2761.904)"/><path class="d" d="M457.135,2887.4H450.71v-6.426h6.425Z" transform="translate(-420.795 -2761.904)"/><path class="d" d="M512.055,2887.4H505.63v-6.426h6.425Z" transform="translate(-462.535 -2761.904)"/><path class="d" d="M402.215,2964.756H395.79v-6.426h6.425Z" transform="translate(-379.055 -2820.692)"/><path class="d" d="M457.135,2964.756H450.71v-6.426h6.425Z" transform="translate(-420.795 -2820.692)"/><path class="d" d="M512.055,2964.756H505.63v-6.426h6.425Z" transform="translate(-462.535 -2820.692)"/><path class="d" d="M332.485,3035.444H326.06v-6.434h6.425Z" transform="translate(-326.06 -2874.41)"/><path class="d" d="M387.4,3035.444H380.98v-6.434H387.4Z" transform="translate(-367.8 -2874.41)"/><path class="e" d="M442.327,3035.444H435.9v-6.434h6.427Z" transform="translate(-409.539 -2874.41)"/><path class="e" d="M495.355,3035.444H488.93v-6.434h6.425Z" transform="translate(-449.842 -2874.41)"/><path class="d" d="M550.275,3035.444H543.85v-6.434h6.425Z" transform="translate(-491.582 -2874.41)"/><path class="d" d="M605.195,3035.444H598.77v-6.434h6.425Z" transform="translate(-533.322 -2874.41)"/><path class="e" d="M332.485,3100.244H326.06v-6.436h6.425Z" transform="translate(-326.06 -2923.657)"/><path class="d" d="M387.4,3100.244H380.98v-6.436H387.4Z" transform="translate(-367.8 -2923.657)"/><path class="e" d="M442.327,3100.244H435.9v-6.436h6.427Z" transform="translate(-409.539 -2923.657)"/><path class="d" d="M495.355,3100.244H488.93v-6.436h6.425Z" transform="translate(-449.842 -2923.657)"/><path class="d" d="M550.275,3100.244H543.85v-6.436h6.425Z" transform="translate(-491.582 -2923.657)"/><path class="d" d="M605.195,3100.244H598.77v-6.436h6.425Z" transform="translate(-533.322 -2923.657)"/><path class="d" d="M332.485,3165.074H326.06v-6.426h6.425Z" transform="translate(-326.06 -2972.936)"/><path class="d" d="M387.4,3165.074H380.98v-6.426H387.4Z" transform="translate(-367.8 -2972.936)"/><path class="d" d="M442.327,3165.074H435.9v-6.426h6.427Z" transform="translate(-409.539 -2972.936)"/><path class="d" d="M495.355,3165.074H488.93v-6.426h6.425Z" transform="translate(-449.842 -2972.936)"/><path class="d" d="M550.275,3165.074H543.85v-6.426h6.425Z" transform="translate(-491.582 -2972.936)"/><path class="d" d="M605.195,3165.074H598.77v-6.426h6.425Z" transform="translate(-533.322 -2972.936)"/><path class="d" d="M332.485,3229.873H326.06v-6.424h6.425Z" transform="translate(-326.06 -3022.184)"/><path class="d" d="M387.4,3229.873H380.98v-6.424H387.4Z" transform="translate(-367.8 -3022.184)"/><path class="d" d="M442.327,3229.873H435.9v-6.424h6.427Z" transform="translate(-409.539 -3022.184)"/><path class="d" d="M495.355,3229.873H488.93v-6.424h6.425Z" transform="translate(-449.842 -3022.184)"/><path class="d" d="M550.275,3229.873H543.85v-6.424h6.425Z" transform="translate(-491.582 -3022.184)"/><path class="d" d="M605.195,3229.873H598.77v-6.424h6.425Z" transform="translate(-533.322 -3022.184)"/><path class="d" d="M332.485,3294.668H326.06v-6.428h6.425Z" transform="translate(-326.06 -3071.426)"/><path class="d" d="M387.4,3294.668H380.98v-6.428H387.4Z" transform="translate(-367.8 -3071.426)"/><path class="e" d="M442.327,3294.668H435.9v-6.428h6.427Z" transform="translate(-409.539 -3071.426)"/><path class="e" d="M495.355,3294.668H488.93v-6.428h6.425Z" transform="translate(-449.842 -3071.426)"/><path class="d" d="M550.275,3294.668H543.85v-6.428h6.425Z" transform="translate(-491.582 -3071.426)"/><path class="d" d="M605.195,3294.668H598.77v-6.428h6.425Z" transform="translate(-533.322 -3071.426)"/><path class="d" d="M332.485,3359.475H326.06v-6.434h6.425Z" transform="translate(-326.06 -3120.676)"/><path class="d" d="M387.4,3359.475H380.98v-6.434H387.4Z" transform="translate(-367.8 -3120.676)"/><path class="d" d="M442.327,3359.475H435.9v-6.434h6.427Z" transform="translate(-409.539 -3120.676)"/><path class="d" d="M495.355,3359.475H488.93v-6.434h6.425Z" transform="translate(-449.842 -3120.676)"/><path class="d" d="M550.275,3359.475H543.85v-6.434h6.425Z" transform="translate(-491.582 -3120.676)"/><path class="e" d="M605.195,3359.475H598.77v-6.434h6.425Z" transform="translate(-533.322 -3120.676)"/><path class="e" d="M332.485,3424.275H326.06v-6.436h6.425Z" transform="translate(-326.06 -3169.922)"/><path class="d" d="M387.4,3424.275H380.98v-6.436H387.4Z" transform="translate(-367.8 -3169.922)"/><path class="d" d="M442.327,3424.275H435.9v-6.436h6.427Z" transform="translate(-409.539 -3169.922)"/><path class="d" d="M495.355,3424.275H488.93v-6.436h6.425Z" transform="translate(-449.842 -3169.922)"/><path class="d" d="M550.275,3424.275H543.85v-6.436h6.425Z" transform="translate(-491.582 -3169.922)"/><path class="d" d="M605.195,3424.275H598.77v-6.436h6.425Z" transform="translate(-533.322 -3169.922)"/><path class="d" d="M674.8,3294.668H668.38v-6.428H674.8Z" transform="translate(-586.226 -3071.426)"/><path class="d" d="M729.725,3294.668H723.3v-6.428h6.425Z" transform="translate(-627.965 -3071.426)"/><path class="d" d="M784.655,3294.668H778.23v-6.428h6.425Z" transform="translate(-669.712 -3071.426)"/><path class="d" d="M674.8,3359.475H668.38v-6.434H674.8Z" transform="translate(-586.226 -3120.676)"/><path class="d" d="M729.725,3359.475H723.3v-6.434h6.425Z" transform="translate(-627.965 -3120.676)"/><path class="d" d="M784.655,3359.475H778.23v-6.434h6.425Z" transform="translate(-669.712 -3120.676)"/><path class="d" d="M674.8,3424.275H668.38v-6.436H674.8Z" transform="translate(-586.226 -3169.922)"/><path class="d" d="M729.725,3424.275H723.3v-6.436h6.425Z" transform="translate(-627.965 -3169.922)"/><path class="d" d="M784.655,3424.275H778.23v-6.436h6.425Z" transform="translate(-669.712 -3169.922)"/><path class="e" d="M837.294,3294.668H830.86v-6.428h6.434Z" transform="translate(-709.712 -3071.426)"/><path class="d" d="M837.294,3359.475H830.86v-6.434h6.434Z" transform="translate(-709.712 -3120.676)"/><path class="d" d="M837.294,3424.275H830.86v-6.436h6.434Z" transform="translate(-709.712 -3169.922)"/><path class="e" d="M1496.771,2901.875h-9.931v-9.926h9.931Z" transform="translate(-1208.261 -2770.241)"/><path class="d" d="M1581.541,2901.875h-9.931v-9.926h9.931Z" transform="translate(-1272.687 -2770.241)"/><path class="d" d="M1666.311,2901.875h-9.931v-9.926h9.931Z" transform="translate(-1337.113 -2770.241)"/><path class="d" d="M1496.771,3001.112h-9.931v-9.932h9.931Z" transform="translate(-1208.261 -2845.659)"/><path class="d" d="M1581.541,3001.112h-9.931v-9.932h9.931Z" transform="translate(-1272.687 -2845.659)"/><path class="d" d="M1666.311,3001.112h-9.931v-9.932h9.931Z" transform="translate(-1337.113 -2845.659)"/><path class="d" d="M1810.821,3294.781h-9.931v-9.93h9.931Z" transform="translate(-1446.942 -3068.852)"/><path class="d" d="M1895.591,3294.781h-9.931v-9.93h9.931Z" transform="translate(-1511.367 -3068.852)"/><path class="d" d="M1980.361,3294.781h-9.931v-9.93h9.931Z" transform="translate(-1575.793 -3068.852)"/><path class="d" d="M1810.821,3395.3h-9.931v-9.924h9.931Z" transform="translate(-1446.942 -3145.253)"/><path class="d" d="M1895.591,3395.3h-9.931v-9.924h9.931Z" transform="translate(-1511.367 -3145.253)"/><path class="e" d="M1980.361,3395.3h-9.931v-9.924h9.931Z" transform="translate(-1575.793 -3145.253)"/><path class="d" d="M1089.6,3154.074h-9.921v-25.6h9.921Z" transform="translate(-898.817 -2950.006)"/><path class="d" d="M1239.691,3154.074h-9.931v-25.6h9.931Z" transform="translate(-1012.879 -2950.006)"/><path class="e" d="M1371.991,3154.074h-9.921v-25.6h9.921Z" transform="translate(-1113.435 -2950.006)"/><path class="d" d="M1089.6,3319.377h-9.921v-25.605h9.921Z" transform="translate(-898.817 -3075.63)"/><path class="d" d="M1239.691,3319.377h-9.931v-25.605h9.931Z" transform="translate(-1012.879 -3075.63)"/><path class="d" d="M1371.991,3319.377h-9.921v-25.605h9.921Z" transform="translate(-1113.435 -3075.63)"/><path class="d" d="M1089.6,3484.707h-9.921V3459.1h9.921Z" transform="translate(-898.817 -3201.282)"/><path class="e" d="M1239.691,3484.707h-9.931V3459.1h9.931Z" transform="translate(-1012.879 -3201.282)"/><path class="d" d="M1371.991,3484.707h-9.921V3459.1h9.921Z" transform="translate(-1113.435 -3201.282)"/><path class="d" d="M1496.771,3100.373h-9.931v-9.924h9.931Z" transform="translate(-1208.261 -2921.103)"/><path class="d" d="M1581.541,3100.373h-9.931v-9.924h9.931Z" transform="translate(-1272.687 -2921.103)"/><path class="d" d="M1666.311,3100.373h-9.931v-9.924h9.931Z" transform="translate(-1337.113 -2921.103)"/><path class="d" d="M1496.771,3199.612h-9.931v-9.932h9.931Z" transform="translate(-1208.261 -2996.521)"/><path class="d" d="M1581.541,3199.612h-9.931v-9.932h9.931Z" transform="translate(-1272.687 -2996.521)"/><path class="e" d="M1666.311,3199.612h-9.931v-9.932h9.931Z" transform="translate(-1337.113 -2996.521)"/><path class="d" d="M1496.771,3298.875h-9.931v-9.924h9.931Z" transform="translate(-1208.261 -3071.967)"/><path class="d" d="M1581.541,3298.875h-9.931v-9.924h9.931Z" transform="translate(-1272.687 -3071.967)"/><path class="d" d="M1666.311,3298.875h-9.931v-9.924h9.931Z" transform="translate(-1337.113 -3071.967)"/><path class="d" d="M1496.771,3398.111h-9.931v-9.932h9.931Z" transform="translate(-1208.261 -3147.381)"/><path class="d" d="M1581.541,3398.111h-9.931v-9.932h9.931Z" transform="translate(-1272.687 -3147.381)"/><path class="d" d="M1666.311,3398.111h-9.931v-9.932h9.931Z" transform="translate(-1337.113 -3147.381)"/><path class="d" d="M1845.589,3124.563H1792.08V3112.13h53.509Z" transform="translate(-1440.246 -2937.581)"/><path class="d" d="M1845.589,3215.635H1792.08v-12.443h53.509Z" transform="translate(-1440.246 -3006.788)"/><path class="d" d="M3317.259,2926.153H3263.75V2913.71h53.509Z" transform="translate(-2558.726 -2786.78)"/><path class="d" d="M3317.259,3017.242H3263.75v-12.434h53.509Z" transform="translate(-2558.726 -2856.016)"/><path class="d" d="M5861.491,2703.374h-9.921v-9.925h9.921Z" transform="translate(-4525.488 -2619.381)"/><path class="d" d="M5946.261,2703.374h-9.921v-9.925h9.921Z" transform="translate(-4589.913 -2619.381)"/><path class="e" d="M6031.031,2703.374h-9.922v-9.925h9.922Z" transform="translate(-4654.338 -2619.381)"/><path class="d" d="M6867.781,2578.713h-9.931v-9.923h9.931Z" transform="translate(-5290.268 -2524.638)"/><path class="d" d="M6952.551,2578.713h-9.931v-9.923h9.931Z" transform="translate(-5354.693 -2524.638)"/><path class="d" d="M7037.321,2578.713h-9.931v-9.923h9.931Z" transform="translate(-5419.119 -2524.638)"/><path class="d" d="M6867.781,2685.132h-9.931v-9.922h9.931Z" transform="translate(-5290.268 -2605.519)"/><path class="e" d="M6952.551,2685.132h-9.931v-9.922h9.931Z" transform="translate(-5354.693 -2605.519)"/><path class="d" d="M7037.321,2685.132h-9.931v-9.922h9.931Z" transform="translate(-5419.119 -2605.519)"/><path class="d" d="M6867.781,2791.552h-9.931v-9.922h9.931Z" transform="translate(-5290.268 -2686.399)"/><path class="d" d="M6952.551,2791.552h-9.931v-9.922h9.931Z" transform="translate(-5354.693 -2686.399)"/><path class="d" d="M7037.321,2791.552h-9.931v-9.922h9.931Z" transform="translate(-5419.119 -2686.399)"/><path class="d" d="M6867.781,2897.963h-9.931v-9.924h9.931Z" transform="translate(-5290.268 -2767.27)"/><path class="d" d="M6952.551,2897.963h-9.931v-9.924h9.931Z" transform="translate(-5354.693 -2767.27)"/><path class="e" d="M7037.321,2897.963h-9.931v-9.924h9.931Z" transform="translate(-5419.119 -2767.27)"/><path class="e" d="M6867.781,3004.382h-9.931v-9.922h9.931Z" transform="translate(-5290.268 -2848.151)"/><path class="d" d="M6952.551,3004.382h-9.931v-9.922h9.931Z" transform="translate(-5354.693 -2848.151)"/><path class="d" d="M7037.321,3004.382h-9.931v-9.922h9.931Z" transform="translate(-5419.119 -2848.151)"/><path class="e" d="M6867.781,3110.8h-9.931v-9.922h9.931Z" transform="translate(-5290.268 -2929.03)"/><path class="d" d="M6952.551,3110.8h-9.931v-9.922h9.931Z" transform="translate(-5354.693 -2929.03)"/><path class="d" d="M7037.321,3110.8h-9.931v-9.922h9.931Z" transform="translate(-5419.119 -2929.03)"/><path class="d" d="M7644.412,2632.11h-9.921v-9.93h9.921Z" transform="translate(-5880.52 -2565.216)"/><path class="d" d="M7729.181,2632.11h-9.921v-9.93h9.921Z" transform="translate(-5944.945 -2565.216)"/><path class="e" d="M7813.951,2632.11h-9.921v-9.93h9.921Z" transform="translate(-6009.371 -2565.216)"/><path class="d" d="M7644.412,2736.74h-9.921v-9.921h9.921Z" transform="translate(-5880.52 -2644.743)"/><path class="d" d="M7729.181,2736.74h-9.921v-9.921h9.921Z" transform="translate(-5944.945 -2644.743)"/><path class="d" d="M7813.951,2736.74h-9.921v-9.921h9.921Z" transform="translate(-6009.371 -2644.743)"/><path class="e" d="M7644.412,2841.342h-9.921v-9.922h9.921Z" transform="translate(-5880.52 -2724.239)"/><path class="d" d="M7729.181,2841.342h-9.921v-9.922h9.921Z" transform="translate(-5944.945 -2724.239)"/><path class="d" d="M7813.951,2841.342h-9.921v-9.922h9.921Z" transform="translate(-6009.371 -2724.239)"/><path class="d" d="M7644.412,3108.27h-9.921v-9.918h9.921Z" transform="translate(-5880.52 -2927.11)"/><path class="e" d="M7729.181,3108.27h-9.921v-9.918h9.921Z" transform="translate(-5944.945 -2927.11)"/><path class="d" d="M7813.951,3108.27h-9.921v-9.918h9.921Z" transform="translate(-6009.371 -2927.11)"/><path class="d" d="M7644.412,3212.875h-9.921v-9.926h9.921Z" transform="translate(-5880.52 -3006.604)"/><path class="d" d="M7729.181,3212.875h-9.921v-9.926h9.921Z" transform="translate(-5944.945 -3006.604)"/><path class="e" d="M7813.951,3212.875h-9.921v-9.926h9.921Z" transform="translate(-6009.371 -3006.604)"/><path class="d" d="M7644.412,3317.475h-9.921v-9.924h9.921Z" transform="translate(-5880.52 -3086.103)"/><path class="d" d="M7729.181,3317.475h-9.921v-9.924h9.921Z" transform="translate(-5944.945 -3086.103)"/><path class="d" d="M7813.951,3317.475h-9.921v-9.924h9.921Z" transform="translate(-6009.371 -3086.103)"/><path class="d" d="M6867.781,3217.222h-9.931V3207.3h9.931Z" transform="translate(-5290.268 -3009.911)"/><path class="d" d="M6952.551,3217.222h-9.931V3207.3h9.931Z" transform="translate(-5354.693 -3009.911)"/><path class="d" d="M7037.321,3217.222h-9.931V3207.3h9.931Z" transform="translate(-5419.119 -3009.911)"/><path class="d" d="M6867.781,3323.633h-9.931v-9.924h9.931Z" transform="translate(-5290.268 -3090.782)"/><path class="d" d="M6952.551,3323.633h-9.931v-9.924h9.931Z" transform="translate(-5354.693 -3090.782)"/><path class="d" d="M7037.321,3323.633h-9.931v-9.924h9.931Z" transform="translate(-5419.119 -3090.782)"/><path class="d" d="M6867.781,3430.053h-9.931v-9.922h9.931Z" transform="translate(-5290.268 -3171.664)"/><path class="d" d="M6952.551,3430.053h-9.931v-9.922h9.931Z" transform="translate(-5354.693 -3171.664)"/><path class="d" d="M7037.321,3430.053h-9.931v-9.922h9.931Z" transform="translate(-5419.119 -3171.664)"/><path class="d" d="M7132.312,3135.459h-9.921v-16.34h9.921Z" transform="translate(-5491.32 -2942.893)"/><path class="d" d="M7217.051,3135.459h-9.931v-16.34h9.931Z" transform="translate(-5555.715 -2942.893)"/><path class="d" d="M7301.821,3135.459h-9.931v-16.34h9.931Z" transform="translate(-5620.141 -2942.893)"/><path class="d" d="M7132.312,3310.617h-9.921v-16.326h9.921Z" transform="translate(-5491.32 -3076.025)"/><path class="d" d="M7217.051,3310.617h-9.931v-16.326h9.931Z" transform="translate(-5555.715 -3076.025)"/><path class="e" d="M7301.821,3310.617h-9.931v-16.326h9.931Z" transform="translate(-5620.141 -3076.025)"/><path class="d" d="M7132.312,3485.75h-9.921v-16.34h9.921Z" transform="translate(-5491.32 -3209.116)"/><path class="d" d="M7217.051,3485.75h-9.931v-16.34h9.931Z" transform="translate(-5555.715 -3209.116)"/><path class="d" d="M7301.821,3485.75h-9.931v-16.34h9.931Z" transform="translate(-5620.141 -3209.116)"/><path class="d" d="M5861.491,2802.612h-9.921v-9.932h9.921Z" transform="translate(-4525.488 -2694.797)"/><path class="d" d="M5946.261,2802.612h-9.921v-9.932h9.921Z" transform="translate(-4589.913 -2694.797)"/><path class="d" d="M6031.031,2802.612h-9.922v-9.932h9.922Z" transform="translate(-4654.338 -2694.797)"/><path class="d" d="M4766.924,2500.623h-6.434V2494.2h6.434Z" transform="translate(-3696.259 -2467.949)"/><path class="d" d="M4821.844,2500.623h-6.434V2494.2h6.434Z" transform="translate(-3737.998 -2467.949)"/><path class="e" d="M4876.754,2500.623h-6.424V2494.2h6.424Z" transform="translate(-3779.738 -2467.949)"/><path class="d" d="M4766.924,2577.984h-6.434v-6.425h6.434Z" transform="translate(-3696.259 -2526.744)"/><path class="d" d="M4821.844,2577.984h-6.434v-6.425h6.434Z" transform="translate(-3737.998 -2526.744)"/><path class="d" d="M4876.754,2577.984h-6.424v-6.425h6.424Z" transform="translate(-3779.738 -2526.744)"/><path class="d" d="M4766.924,2655.335h-6.434v-6.426h6.434Z" transform="translate(-3696.259 -2585.53)"/><path class="e" d="M4821.844,2655.335h-6.434v-6.426h6.434Z" transform="translate(-3737.998 -2585.53)"/><path class="d" d="M4876.754,2655.335h-6.424v-6.426h6.424Z" transform="translate(-3779.738 -2585.53)"/><path class="d" d="M4766.924,2732.7h-6.434v-6.425h6.434Z" transform="translate(-3696.259 -2644.326)"/><path class="d" d="M4821.844,2732.7h-6.434v-6.425h6.434Z" transform="translate(-3737.998 -2644.326)"/><path class="d" d="M4876.754,2732.7h-6.424v-6.425h6.424Z" transform="translate(-3779.738 -2644.326)"/><path class="d" d="M4766.924,2810.044h-6.434v-6.424h6.434Z" transform="translate(-3696.259 -2703.111)"/><path class="d" d="M4821.844,2810.044h-6.434v-6.424h6.434Z" transform="translate(-3737.998 -2703.111)"/><path class="d" d="M4876.754,2810.044h-6.424v-6.424h6.424Z" transform="translate(-3779.738 -2703.111)"/><path class="d" d="M4766.924,2887.4h-6.434v-6.426h6.434Z" transform="translate(-3696.259 -2761.904)"/><path class="d" d="M4821.844,2887.4h-6.434v-6.426h6.434Z" transform="translate(-3737.998 -2761.904)"/><path class="e" d="M4876.754,2887.4h-6.424v-6.426h6.424Z" transform="translate(-3779.738 -2761.904)"/><path class="d" d="M4766.924,2964.756h-6.434v-6.426h6.434Z" transform="translate(-3696.259 -2820.692)"/><path class="d" d="M4821.844,2964.756h-6.434v-6.426h6.434Z" transform="translate(-3737.998 -2820.692)"/><path class="d" d="M4876.754,2964.756h-6.424v-6.426h6.424Z" transform="translate(-3779.738 -2820.692)"/><path class="d" d="M4697.194,3035.444h-6.434v-6.434h6.434Z" transform="translate(-3643.263 -2874.41)"/><path class="e" d="M4752.115,3035.444h-6.435v-6.434h6.435Z" transform="translate(-3685.003 -2874.41)"/><path class="d" d="M4807.025,3035.444H4800.6v-6.434h6.425Z" transform="translate(-3726.743 -2874.41)"/><path class="d" d="M4860.064,3035.444h-6.434v-6.434h6.434Z" transform="translate(-3767.046 -2874.41)"/><path class="d" d="M4914.974,3035.444h-6.424v-6.434h6.424Z" transform="translate(-3808.785 -2874.41)"/><path class="d" d="M4969.9,3035.444h-6.425v-6.434h6.425Z" transform="translate(-3850.525 -2874.41)"/><path class="d" d="M4697.194,3100.244h-6.434v-6.436h6.434Z" transform="translate(-3643.263 -2923.657)"/><path class="d" d="M4752.115,3100.244h-6.435v-6.436h6.435Z" transform="translate(-3685.003 -2923.657)"/><path class="d" d="M4807.025,3100.244H4800.6v-6.436h6.425Z" transform="translate(-3726.743 -2923.657)"/><path class="d" d="M4860.064,3100.244h-6.434v-6.436h6.434Z" transform="translate(-3767.046 -2923.657)"/><path class="d" d="M4914.974,3100.244h-6.424v-6.436h6.424Z" transform="translate(-3808.785 -2923.657)"/><path class="d" d="M4969.9,3100.244h-6.425v-6.436h6.425Z" transform="translate(-3850.525 -2923.657)"/><path class="d" d="M4697.194,3165.074h-6.434v-6.426h6.434Z" transform="translate(-3643.263 -2972.936)"/><path class="e" d="M4752.115,3165.074h-6.435v-6.426h6.435Z" transform="translate(-3685.003 -2972.936)"/><path class="d" d="M4807.025,3165.074H4800.6v-6.426h6.425Z" transform="translate(-3726.743 -2972.936)"/><path class="d" d="M4860.064,3165.074h-6.434v-6.426h6.434Z" transform="translate(-3767.046 -2972.936)"/><path class="d" d="M4914.974,3165.074h-6.424v-6.426h6.424Z" transform="translate(-3808.785 -2972.936)"/><path class="d" d="M4969.9,3165.074h-6.425v-6.426h6.425Z" transform="translate(-3850.525 -2972.936)"/><path class="d" d="M4697.194,3229.873h-6.434v-6.424h6.434Z" transform="translate(-3643.263 -3022.184)"/><path class="d" d="M4752.115,3229.873h-6.435v-6.424h6.435Z" transform="translate(-3685.003 -3022.184)"/><path class="d" d="M4807.025,3229.873H4800.6v-6.424h6.425Z" transform="translate(-3726.743 -3022.184)"/><path class="d" d="M4860.064,3229.873h-6.434v-6.424h6.434Z" transform="translate(-3767.046 -3022.184)"/><path class="d" d="M4914.974,3229.873h-6.424v-6.424h6.424Z" transform="translate(-3808.785 -3022.184)"/><path class="d" d="M4969.9,3229.873h-6.425v-6.424h6.425Z" transform="translate(-3850.525 -3022.184)"/><path class="d" d="M4697.194,3294.668h-6.434v-6.428h6.434Z" transform="translate(-3643.263 -3071.426)"/><path class="d" d="M4752.115,3294.668h-6.435v-6.428h6.435Z" transform="translate(-3685.003 -3071.426)"/><path class="d" d="M4807.025,3294.668H4800.6v-6.428h6.425Z" transform="translate(-3726.743 -3071.426)"/><path class="e" d="M4860.064,3294.668h-6.434v-6.428h6.434Z" transform="translate(-3767.046 -3071.426)"/><path class="d" d="M4914.974,3294.668h-6.424v-6.428h6.424Z" transform="translate(-3808.785 -3071.426)"/><path class="d" d="M4969.9,3294.668h-6.425v-6.428h6.425Z" transform="translate(-3850.525 -3071.426)"/><path class="d" d="M4697.194,3359.475h-6.434v-6.434h6.434Z" transform="translate(-3643.263 -3120.676)"/><path class="d" d="M4752.115,3359.475h-6.435v-6.434h6.435Z" transform="translate(-3685.003 -3120.676)"/><path class="d" d="M4807.025,3359.475H4800.6v-6.434h6.425Z" transform="translate(-3726.743 -3120.676)"/><path class="d" d="M4860.064,3359.475h-6.434v-6.434h6.434Z" transform="translate(-3767.046 -3120.676)"/><path class="d" d="M4914.974,3359.475h-6.424v-6.434h6.424Z" transform="translate(-3808.785 -3120.676)"/><path class="d" d="M4969.9,3359.475h-6.425v-6.434h6.425Z" transform="translate(-3850.525 -3120.676)"/><path class="e" d="M4697.194,3424.275h-6.434v-6.436h6.434Z" transform="translate(-3643.263 -3169.922)"/><path class="d" d="M4752.115,3424.275h-6.435v-6.436h6.435Z" transform="translate(-3685.003 -3169.922)"/><path class="d" d="M4807.025,3424.275H4800.6v-6.436h6.425Z" transform="translate(-3726.743 -3169.922)"/><path class="d" d="M4860.064,3424.275h-6.434v-6.436h6.434Z" transform="translate(-3767.046 -3169.922)"/><path class="d" d="M4914.974,3424.275h-6.424v-6.436h6.424Z" transform="translate(-3808.785 -3169.922)"/><path class="d" d="M4969.9,3424.275h-6.425v-6.436h6.425Z" transform="translate(-3850.525 -3169.922)"/><path class="d" d="M5039.5,3294.668h-6.424v-6.428h6.424Z" transform="translate(-3903.429 -3071.426)"/><path class="d" d="M5094.425,3294.668H5088v-6.428h6.425Z" transform="translate(-3945.169 -3071.426)"/><path class="d" d="M5149.345,3294.668h-6.425v-6.428h6.425Z" transform="translate(-3986.908 -3071.426)"/><path class="e" d="M5039.5,3359.475h-6.424v-6.434h6.424Z" transform="translate(-3903.429 -3120.676)"/><path class="d" d="M5094.425,3359.475H5088v-6.434h6.425Z" transform="translate(-3945.169 -3120.676)"/><path class="d" d="M5149.345,3359.475h-6.425v-6.434h6.425Z" transform="translate(-3986.908 -3120.676)"/><path class="d" d="M5039.5,3424.275h-6.424v-6.436h6.424Z" transform="translate(-3903.429 -3169.922)"/><path class="d" d="M5094.425,3424.275H5088v-6.436h6.425Z" transform="translate(-3945.169 -3169.922)"/><path class="d" d="M5149.345,3424.275h-6.425v-6.436h6.425Z" transform="translate(-3986.908 -3169.922)"/><path class="d" d="M5202.022,3294.668H5195.6v-6.428h6.422Z" transform="translate(-4026.946 -3071.426)"/><path class="d" d="M5202.022,3359.475H5195.6v-6.434h6.422Z" transform="translate(-4026.946 -3120.676)"/><path class="d" d="M5202.022,3424.275H5195.6v-6.436h6.422Z" transform="translate(-4026.946 -3169.922)"/><path class="d" d="M5861.491,2901.875h-9.921v-9.926h9.921Z" transform="translate(-4525.488 -2770.241)"/><path class="e" d="M5946.261,2901.875h-9.921v-9.926h9.921Z" transform="translate(-4589.913 -2770.241)"/><path class="d" d="M6031.031,2901.875h-9.922v-9.926h9.922Z" transform="translate(-4654.338 -2770.241)"/><path class="d" d="M5861.491,3001.112h-9.921v-9.932h9.921Z" transform="translate(-4525.488 -2845.659)"/><path class="d" d="M5946.261,3001.112h-9.921v-9.932h9.921Z" transform="translate(-4589.913 -2845.659)"/><path class="e" d="M6031.031,3001.112h-9.922v-9.932h9.922Z" transform="translate(-4654.338 -2845.659)"/><path class="d" d="M6175.541,3294.781h-9.921v-9.93h9.921Z" transform="translate(-4764.167 -3068.852)"/><path class="d" d="M6260.319,3294.781H6250.4v-9.93h9.919Z" transform="translate(-4828.601 -3068.852)"/><path class="e" d="M6345.091,3294.781h-9.921v-9.93h9.921Z" transform="translate(-4893.027 -3068.852)"/><path class="d" d="M6175.541,3395.3h-9.921v-9.924h9.921Z" transform="translate(-4764.167 -3145.253)"/><path class="d" d="M6260.319,3395.3H6250.4v-9.924h9.919Z" transform="translate(-4828.601 -3145.253)"/><path class="d" d="M6345.091,3395.3h-9.921v-9.924h9.921Z" transform="translate(-4893.027 -3145.253)"/><path class="d" d="M5454.3,3154.074h-9.921v-25.6h9.921Z" transform="translate(-4216.02 -2950.006)"/><path class="d" d="M5604.391,3154.074h-9.931v-25.6h9.931Z" transform="translate(-4330.083 -2950.006)"/><path class="e" d="M5736.689,3154.074h-9.919v-25.6h9.919Z" transform="translate(-4430.638 -2950.006)"/><path class="e" d="M5454.3,3319.377h-9.921v-25.605h9.921Z" transform="translate(-4216.02 -3075.63)"/><path class="d" d="M5604.391,3319.377h-9.931v-25.605h9.931Z" transform="translate(-4330.083 -3075.63)"/><path class="d" d="M5736.689,3319.377h-9.919v-25.605h9.919Z" transform="translate(-4430.638 -3075.63)"/><path class="d" d="M5454.3,3484.707h-9.921V3459.1h9.921Z" transform="translate(-4216.02 -3201.282)"/><path class="d" d="M5604.391,3484.707h-9.931V3459.1h9.931Z" transform="translate(-4330.083 -3201.282)"/><path class="d" d="M5736.689,3484.707h-9.919V3459.1h9.919Z" transform="translate(-4430.638 -3201.282)"/><path class="e" d="M5861.491,3100.373h-9.921v-9.924h9.921Z" transform="translate(-4525.488 -2921.103)"/><path class="d" d="M5946.261,3100.373h-9.921v-9.924h9.921Z" transform="translate(-4589.913 -2921.103)"/><path class="d" d="M6031.031,3100.373h-9.922v-9.924h9.922Z" transform="translate(-4654.338 -2921.103)"/><path class="d" d="M5861.491,3199.612h-9.921v-9.932h9.921Z" transform="translate(-4525.488 -2996.521)"/><path class="d" d="M5946.261,3199.612h-9.921v-9.932h9.921Z" transform="translate(-4589.913 -2996.521)"/><path class="d" d="M6031.031,3199.612h-9.922v-9.932h9.922Z" transform="translate(-4654.338 -2996.521)"/><path class="d" d="M5861.491,3298.875h-9.921v-9.924h9.921Z" transform="translate(-4525.488 -3071.967)"/><path class="d" d="M5946.261,3298.875h-9.921v-9.924h9.921Z" transform="translate(-4589.913 -3071.967)"/><path class="d" d="M6031.031,3298.875h-9.922v-9.924h9.922Z" transform="translate(-4654.338 -3071.967)"/><path class="d" d="M5861.491,3398.111h-9.921v-9.932h9.921Z" transform="translate(-4525.488 -3147.381)"/><path class="e" d="M5946.261,3398.111h-9.921v-9.932h9.921Z" transform="translate(-4589.913 -3147.381)"/><path class="d" d="M6031.031,3398.111h-9.922v-9.932h9.922Z" transform="translate(-4654.338 -3147.381)"/><path class="d" d="M6210.289,3124.563H6156.78V3112.13h53.509Z" transform="translate(-4757.45 -2937.581)"/><path class="d" d="M6210.289,3215.635H6156.78v-12.443h53.509Z" transform="translate(-4757.45 -3006.788)"/><path class="d" d="M7681.959,2926.153H7628.45V2913.71h53.509Z" transform="translate(-5875.929 -2786.78)"/><path class="d" d="M7681.959,3017.242H7628.45v-12.434h53.509Z" transform="translate(-5875.929 -2856.016)"/></g></svg>