<svg xmlns="http://www.w3.org/2000/svg" viewBox="0 0 216.221 190.027"><defs><style>.a{fill:#fdc897;}.b{fill:rgba(253,200,151,0.5);}.c{fill:#bebebe;}.d{fill:rgba(93,93,93,0.3);}.e{fill:rgba(100,100,100,0.3);}.f{fill:#f2f2f2;}.g{fill:rgba(132,132,132,0.3);}.h{fill:rgba(230,166,107,0.5);}.i{fill:#fff;}</style></defs><g transform="translate(0 0)"><g transform="translate(56.291)"><path class="a" d="M243.955,111.918a16.091,16.091,0,0,1,4.713,11.492c0,7.144-4.48,13.177-10.5,14.921a14.659,14.659,0,0,1,4.384,10.56v.478c0,6.379-3.912,11.8-9.234,13.5a15.044,15.044,0,0,1,4.958,11.3v1.374c0,7.974-5.931,14.491-13.189,14.491H152.1s-19.556.06-23.223-4.641c-2.371-3.04-6.8-5.662-9.617-7.126-1.541-.8-2.6-1.266-2.6-1.266H94.24V99.542s19.765-1.272,31.795-7.61a23.016,23.016,0,0,0,5.686-4.026c9.778-9.85,24.448-37.159,26.491-51.482s-1.631-24.179,0-31.341,26.072-12.532,33.413,25.965c3.19,16.743,2.222,30.355.1,40.39-.472,2.234-1,4.295-1.553,6.17h47.809a14.991,14.991,0,0,1,8.607,2.742A18.279,18.279,0,0,1,254.169,95.4c0,7.466-4.241,13.887-10.214,16.516Z" transform="translate(-94.24 -0.001)"/></g><path class="b" d="M126.035,153.91l-6.779,86.329c-1.541-.8-2.6-1.266-2.6-1.266H94.24V161.52S114,160.247,126.035,153.91Z" transform="translate(-37.949 -61.979)"/><g transform="translate(0 84.901)"><path class="c" d="M75.583,149.672v90.056a7.533,7.533,0,0,1-7.532,7.538H7.537a7.536,7.536,0,0,1-7.425-8.834L7.74,194.7l8.082-46.327a7.531,7.531,0,0,1,7.425-6.236h44.8a7.528,7.528,0,0,1,7.532,7.532Z" transform="translate(0.002 -142.14)"/></g><path class="d" d="M3.273,273.04l-3.16,18.1a7.536,7.536,0,0,0,7.425,8.834H68.051a7.533,7.533,0,0,0,7.532-7.538v-19.4H3.273Z" transform="translate(0.002 -109.951)"/><path class="e" d="M47.338,275.311a8.264,8.264,0,1,1-8.267-8.261A8.27,8.27,0,0,1,47.338,275.311Z" transform="translate(-12.406 -107.539)"/><path class="f" d="M43.738,273.931a8.264,8.264,0,1,1-8.267-8.261A8.266,8.266,0,0,1,43.738,273.931Z" transform="translate(-10.956 -106.984)"/><path class="g" d="M38.469,266.62a6.853,6.853,0,1,1-11.259,7.646v.048a8.264,8.264,0,1,0,11.259-7.693Z" transform="translate(-10.956 -107.366)"/><path class="h" d="M298.884,95.4A18.268,18.268,0,0,0,291.3,80.357v-.006a.131.131,0,0,1-.03-.018c-.3-.209-.609-.406-.926-.6a.1.1,0,0,1-.03-.012c-.275-.167-.556-.317-.842-.466-.09-.042-.179-.09-.263-.131-.251-.119-.5-.233-.753-.34-.06-.024-.125-.054-.185-.084-.3-.119-.609-.227-.914-.334l-.346-.108c-.227-.072-.454-.131-.687-.191-.09-.024-.179-.048-.275-.072-.317-.072-.645-.137-.974-.191l-.221-.036c-.275-.036-.55-.072-.824-.1-.1-.006-.2-.018-.3-.024-.34-.024-.693-.042-1.039-.042H234.883c.155-.532.311-1.075.46-1.631.084-.3.161-.609.239-.92s.155-.615.233-.926.149-.6.227-.914c.131-.585.269-1.171.394-1.78h0c2.12-10.035,3.094-23.641-.1-40.39C230.17-1.319,211.9-2.675,205.28,1.972c6.547,3.44,13.236,11.88,16.516,29.077,3.9,20.476,1.577,36.263-1.457,46.56V84.9H273.75a10.529,10.529,0,0,1,10.59,10.321V95.4c0,7.466-4.241,13.887-10.214,16.516a16.091,16.091,0,0,1,4.713,11.492c0,7.144-4.48,13.177-10.5,14.921a14.663,14.663,0,0,1,4.39,10.56v.478c0,6.379-3.918,11.8-9.24,13.5a15.044,15.044,0,0,1,4.958,11.3v1.374c0,7.974-5.931,14.491-13.189,14.491H269.8c7.257,0,13.189-6.517,13.189-14.491v-1.374a15.044,15.044,0,0,0-4.958-11.3c5.322-1.7,9.234-7.12,9.234-13.5v-.478a14.659,14.659,0,0,0-4.384-10.56c6.021-1.744,10.5-7.777,10.5-14.921a16.091,16.091,0,0,0-4.713-11.492c5.973-2.628,10.214-9.049,10.214-16.516Z" transform="translate(-82.663 -0.002)"/><path class="i" d="M37.023,269.264c.765.83.442,2.371-.723,3.44s-2.724,1.266-3.488.442-.436-2.371.729-3.441S36.264,268.434,37.023,269.264Z" transform="translate(-13.046 -108.224)"/></g></svg>