<svg xmlns="http://www.w3.org/2000/svg" xmlns:xlink="http://www.w3.org/1999/xlink" viewBox="0 0 323.71 323.71"><defs><style>.a{fill-rule:evenodd;fill:url(#a);}</style><linearGradient id="a" x1="0.155" y1="0.195" x2="0.869" y2="0.85" gradientUnits="objectBoundingBox"><stop offset="0" stop-color="#fcec94"/><stop offset="0.169" stop-color="#f0c46c"/><stop offset="0.502" stop-color="#fffabd"/><stop offset="0.82" stop-color="#f0c46c"/><stop offset="1" stop-color="#fce79a"/></linearGradient></defs><g transform="translate(-706.19 -334.23)"><path d="M868.05,334.23q7.95,0,15.86.78t15.71,2.33q7.8,1.56,15.41,3.86t14.95,5.35q7.35,3.045,14.36,6.79t13.63,8.17q6.6,4.41,12.75,9.46t11.77,10.67q5.625,5.625,10.67,11.77t9.46,12.75q4.425,6.615,8.17,13.63t6.79,14.36q3.045,7.335,5.35,14.95t3.86,15.41q1.545,7.8,2.33,15.71t.78,15.86c0,5.31-.26,10.59-.78,15.87s-1.3,10.51-2.33,15.71-2.32,10.34-3.86,15.41-3.32,10.06-5.35,14.95-4.29,9.69-6.79,14.36-5.22,9.22-8.17,13.63-6.1,8.66-9.46,12.75-6.92,8.02-10.67,11.77-7.67,7.31-11.77,10.67-8.35,6.52-12.75,9.46-8.95,5.67-13.63,8.17-9.46,4.76-14.36,6.79-9.88,3.81-14.95,5.35-10.21,2.82-15.41,3.86-10.43,1.81-15.71,2.33-10.56.78-15.86.78-10.59-.26-15.87-.78-10.51-1.3-15.71-2.33-10.34-2.32-15.41-3.86-10.06-3.32-14.95-5.35-9.69-4.29-14.36-6.79-9.22-5.22-13.63-8.17-8.65-6.1-12.75-9.46-8.02-6.92-11.77-10.67-7.31-7.67-10.67-11.77-6.52-8.35-9.46-12.75-5.67-8.95-8.17-13.63-4.76-9.46-6.79-14.36-3.81-9.88-5.35-14.95-2.82-10.21-3.86-15.41-1.81-10.44-2.33-15.71-.78-10.56-.78-15.87.26-10.58.78-15.86,1.3-10.51,2.33-15.71,2.32-10.34,3.86-15.41,3.32-10.06,5.35-14.95,4.29-9.69,6.79-14.36,5.22-9.22,8.17-13.63,6.1-8.66,9.46-12.75,6.92-8.02,10.67-11.77,7.67-7.31,11.77-10.67,8.35-6.52,12.75-9.46,8.95-5.67,13.63-8.17,9.46-4.76,14.36-6.79,9.88-3.81,14.95-5.35,10.21-2.82,15.41-3.86,10.44-1.81,15.71-2.33S862.74,334.23,868.05,334.23Z"/><path class="a" d="M997.84,592.77A161.789,161.789,0,0,1,721.42,427.75l-.1-.05.01-.02.01-.03.01-.03.02-.02v-.01l.01-.03.02-.02.01-.03.01-.02v-.01l.01-.02.01-.03.02-.03.01-.02v-.01l.02-.02.01-.03.02-.04v-.02l.03-.05.01-.03.02-.02v-.01l.01-.03.02-.02v-.03l.02-.02v-.01l.01-.02.01-.03.02-.03.01-.03.01-.02.01-.03.02-.04.01-.01v-.01l.02-.02.01-.03.01-.03.01-.02v-.01l.01-.03.02-.02.01-.03.02-.02v-.01l.01-.02.01-.03.01-.03.02-.03.01-.02.01-.03.02-.04.01-.02.02-.02v-.03l.02-.02.01-.03v-.01l.01-.03.02-.02.01-.03.02-.02v-.01l.01-.02.01-.03.02-.03.01-.03.02-.02.01-.03.01-.03.01-.02.01-.02v-.02l.01-.01.01-.01.01-.02h0l.01-.02.01-.01v-.02l.01-.02v-.01l.01-.01v-.01l.01-.02.01-.02h.01v-.02l.01-.01.01-.02v-.01l.01-.01.01-.02v-.02l.01-.01h0l.01-.01v-.01l.01-.02.01-.01.01-.02v-.02h.01l.01-.01v-.02l.01-.02.01-.01v-.03l.01-.01.01-.01.01-.01v-.02l.01-.02.01-.01v-.01l.01-.02.01-.01.01-.02h0v-.01l.01-.02h.01v-.02l.01-.02.01-.01v-.02l.01-.01v-.01h.01l.01-.03.01-.02.01-.01v-.01l.01-.02.01-.01v-.01l.02-.05.02-.04.01-.01.02-.03.01-.04.02-.04.03-.05.02-.05.01-.02v-.01l.03-.05.02-.03v-.01l.02-.04.03-.04v-.03l.01-.02.02-.04.03-.04v-.01l.02-.03.01-.04.02-.05.03-.05.02-.04h.01l.01-.04.02-.04.03-.04h0l.02-.04.01-.05.01-.02.02-.03.02-.03.02-.05.02-.03.02-.05.02-.02v-.02l.02-.05.03-.04v-.01l.02-.03.02-.04.02-.04h0l.03-.05.01-.05h.01l.01-.03.03-.04.01-.04h.01l.01-.05.03-.04.01-.02.01-.03.02-.03.02-.05.03-.04.02-.05.01-.02.01-.02.02-.04.02-.05.02-.03.03-.05.01-.02v-.02l.02-.05.03-.03v-.01l.04-.07.02-.05h0l.03-.04.02-.05v-.01l.02-.02.02-.05.02-.04h0l.12.06c25.7-49.89,76.59-85.03,135.82-87.95,91.93-4.53,170,68.41,170,161.61a161.412,161.412,0,0,1-32.04,96.71h0ZM895.38,409.73a1.815,1.815,0,1,1,1.81-1.82A1.812,1.812,0,0,1,895.38,409.73Zm70.24,150.04V524.65l-7.81-10.59v45.71Zm-14.85,0V505.79L938.79,489.5v70.27Zm-19.44,0v-89.8l-19.94-27.08V559.77Zm-162.28,0V524.65l7.77-10.59v45.71Zm14.79,0V505.79l11.94-16.29v70.27Zm19.38,0v-89.8l19.86-27.08V559.77Zm3.4-129.68,28.18-24.43-.02-10.57,1.07-.12,2.31,8.71s18.87-12.77,35.17-21.44c10.06-5.35,19.34-10.13,23.37-11.49h2.05l-.02,28.56h-2V373.48l-51.1,30.73-2.02,3.25-2.58,4.09v96.71l-2.73,51.52-3.53.01-.3-146.56-20.22,15.64-7.63,1.22h0Zm86.17,125.46a1.815,1.815,0,1,1,1.81-1.82A1.82,1.82,0,0,1,892.79,555.55ZM890.3,416.36h3.27V539.37H890.3Zm-6.29,139.19a1.815,1.815,0,1,1,1.82-1.82,1.818,1.818,0,0,1-1.82,1.82Zm-8.73,0a1.815,1.815,0,1,1,1.81-1.82A1.822,1.822,0,0,1,875.28,555.55Zm-8.34-4.53h-4.18v-3.78h4.18Zm0,4.6h-4.18v-3.77h4.18Zm-5.11-4.6h-4.18v-3.78h4.18Zm0,4.6h-4.18v-3.77h4.18Zm25.95-127.4H876.89v-9.83h10.89Zm-.14,86.08H876.76v-9.82h10.88Zm.03-49.25H876.78v-9.82h10.89Zm.03-24.49H876.81v-9.83H887.7v9.83Zm.04,12.15H876.86v-9.82h10.88Zm-10.87,14.94h10.89v9.82H876.87Zm-.08,12.34h10.9v9.82h-10.9Zm.05,12.15h10.88v9.82H876.84Zm10.86,46.29H876.81v-9.82H887.7Zm-10.89-21.8H887.7v9.83H876.81Zm-2.47-2.33H863.45v-9.82h10.89Zm.01-49.25H863.48v-9.82h10.87Zm.05-24.49H863.51v-9.83H874.4v9.83Zm-10.81-22.17h10.88v9.83H863.59v-9.83Zm10.84,34.32H863.55v-9.82h10.88Zm-10.86,14.94h10.88v9.82H863.57Zm-.08,12.34h10.89v9.82H863.49Zm.04,12.15h10.88v9.82H863.53Zm10.87,46.29H863.51v-9.82H874.4Zm-10.89-21.8H874.4v9.83H863.51Zm-5.86-100.27h3.26V539.37h-3.26V416.36Zm-1.83-6.63a1.815,1.815,0,1,1,1.81-1.82A1.814,1.814,0,0,1,855.82,409.73Zm6.99,0H888.4a5.19,5.19,0,0,1,5.17,5.17H857.65a5.175,5.175,0,0,1,5.16-5.17ZM852.47,559.77h46.27V404.67H852.47v155.1Zm0-155.1v0ZM791.96,587.01h22.41v20.3H809.1V592.25H797.23v15.06h-5.27v-20.3Zm26.23,20.3v-20.3h18.46v4.9H823.46v2.84h12.59v4.87H823.46v2.78h13.19v4.91H818.19Zm23.47-20.3h12.89c2.82,0,4.67.39,5.57,1.21,1.11,1.01,1.68,3.16,1.68,6.45s-.55,5.42-1.66,6.42c-.91.84-2.77,1.25-5.59,1.25h-7.62v4.97h-5.27v-20.3Zm5.27,10.09h7.62a1.884,1.884,0,0,0,1.42-.49,2.661,2.661,0,0,0,.57-1.94,2.759,2.759,0,0,0-.57-1.94,1.921,1.921,0,0,0-1.42-.48h-7.62v4.85Zm23.45,2.13h9.13a1.667,1.667,0,0,1,1.15.35,1.733,1.733,0,0,1,.39,1.32,1.355,1.355,0,0,1-1.54,1.53h-9.13v-3.2h0Zm-5.28-12.22v20.3h15.95a5.447,5.447,0,0,0,4.05-1.28c.82-.86,1.22-2.3,1.22-4.34q0-3.555-2.37-4.8a3.054,3.054,0,0,0,1.24-1.49,6.191,6.191,0,0,0,.5-2.66c0-2.4-.55-4.04-1.67-4.89a6.008,6.008,0,0,0-3.6-.84H865.1Zm5.28,4.93h9.35a1.162,1.162,0,0,1,1.32,1.35,1.2,1.2,0,0,1-1.32,1.37h-9.35v-2.72h0Zm42.7-4.93h5.27v20.3h-5.27Zm-23.04,20.3v-20.3h5.27v4.98h7.63c2.79,0,4.65.42,5.55,1.26,1.13,1.01,1.69,3.15,1.69,6.4q0,4.905-1.66,6.41c-.92.84-2.77,1.25-5.58,1.25Zm5.27-10.08v4.83h7.63a1.941,1.941,0,0,0,1.41-.45,2.713,2.713,0,0,0,.55-1.93,2.837,2.837,0,0,0-.5-1.92,1.95,1.95,0,0,0-1.46-.53h-7.63Zm26.64-10.22h5.27v13.97l-.41,2.13.63-1.11,9.02-14.99h8.62v20.26h-5.27v-14l.43-2.13-.62,1.11-9.04,15.02h-8.63V587.01Zm16.35-3.92h-8.49v2.78h8.49Zm-144.83-4.2h-1.53V568.33h7.7v2.17h-5.73v8.39Zm6.49-.43V568.33h6.52a2.382,2.382,0,0,1,1.08.24,1.968,1.968,0,0,1,.82.7,2.961,2.961,0,0,1,.5,1.12,5.963,5.963,0,0,1,.16,1.47,4.228,4.228,0,0,1-.67,2.58,2.194,2.194,0,0,1-.84.71,2.529,2.529,0,0,1-1.09.23h-4.5v3.51h-1.98v-.43Zm1.98-5.25h4.5a.477.477,0,0,0,.22-.05.786.786,0,0,0,.19-.18,1.6,1.6,0,0,0,.14-.41,3.549,3.549,0,0,0,.06-.71,2.366,2.366,0,0,0-.2-1.13.64.64,0,0,0-.19-.18.521.521,0,0,0-.23-.05h-4.49v2.71h0Zm12.15,3.5a1.148,1.148,0,0,0,.56-.1.493.493,0,0,0,.15-.14.266.266,0,0,1,.05-.06l-5.78-8.08h2.6l4.2,5.99,2.63-5.99h2.22l-3.78,8.59a4.619,4.619,0,0,1-.49.85,3.116,3.116,0,0,1-.64.62,2.631,2.631,0,0,1-.81.38,3.6,3.6,0,0,1-.96.12h-2.88v-2.18h2.93Zm7.24-8.38h9.08v10.56h-1.99V570.5h-5.54v8.39H820.9V568.33h.43Zm10.48,0h9.08v10.56h-1.98V570.5h-5.54v8.39h-1.99V568.33h.43Zm16.08.27,4.16,10.29h-2.19l-.88-2.15h-4.74l-.87,2.15h-2.2l4.28-10.56h2.33l.11.27Zm.26,5.97-1.53-3.84-1.53,3.84h3.06Zm9.58,3.89V568.33h1.97v3.93h.52l4.52-3.93h3.23l-5.74,5.02,6.03,5.54h-3.11l-4.93-4.46h-.52v4.46h-1.97v-.43Zm15.3.57a16.974,16.974,0,0,1-2.03-.1,5.556,5.556,0,0,1-1.39-.31,2.514,2.514,0,0,1-.93-.7,2.734,2.734,0,0,1-.5-1.09,7.1,7.1,0,0,1-.14-1.23c-.04-.53-.05-1.19-.05-1.97s.01-1.45.04-1.99a9.422,9.422,0,0,1,.13-1.21,2.748,2.748,0,0,1,.51-1.09v-.01a2.446,2.446,0,0,1,.94-.7,5.243,5.243,0,0,1,1.4-.33,19,19,0,0,1,2.02-.1,9.75,9.75,0,0,1,3.41.42,2.318,2.318,0,0,1,.93.69,2.836,2.836,0,0,1,.51,1.11,6.126,6.126,0,0,1,.14,1.23c.03.54.05,1.19.05,1.98s-.02,1.45-.05,1.99a6.623,6.623,0,0,1-.13,1.19,2.715,2.715,0,0,1-.5,1.1,2.435,2.435,0,0,1-.93.71,5.543,5.543,0,0,1-1.4.31,16.96,16.96,0,0,1-2.03.1h0Zm0-2.17a12.46,12.46,0,0,0,1.97-.12,1.513,1.513,0,0,0,.74-.23,1.978,1.978,0,0,0,.24-.82,15.869,15.869,0,0,0,.1-2.06,16.3,16.3,0,0,0-.1-2.09,2.027,2.027,0,0,0-.23-.82,1.513,1.513,0,0,0-.74-.23,12.6,12.6,0,0,0-1.98-.12c-1.6,0-2.5.12-2.72.35a1.913,1.913,0,0,0-.22.82,14.13,14.13,0,0,0-.12,2.09,13.864,13.864,0,0,0,.12,2.06,1.812,1.812,0,0,0,.23.81,1.317,1.317,0,0,0,.74.24,12.548,12.548,0,0,0,1.97.12Zm8.86-8.29,3.46,7.17,3.59-7.41h2.7v10.56h-1.98v-7.41l-3.69,7.41h-1.24l-3.67-7.39v7.39h-1.98V568.33h2.69l.12.24Zm11.5-.24h9.07v10.56h-1.99V570.5h-5.54v8.39h-1.98V568.33h.44Zm16.07.27,4.16,10.29h-2.18l-.89-2.15h-4.74l-.87,2.15h-2.2l4.29-10.56h2.31l.12.27h0Zm.26,5.97-1.53-3.84-1.53,3.84h3.06Zm4.48-6.24h1.55v4.11h5.55v-4.11h1.98v10.56H921.3v-4.27h-5.55v4.27h-1.98V568.33Zm17.85,0h2.06v10.56h-1.99v-7.56l-5.69,7.56h-2.34V568.33h1.99v7.64l5.75-7.64h.22Zm11.01,0h2.07v10.56h-1.99v-7.56l-5.69,7.56h-2.34V568.33h1.99v7.62l5.75-7.62Zm-4.68-1.43h3.78v2.17h-4.21V566.9Zm75.71-70.83a145.5,145.5,0,1,1-42.62-102.88A145.019,145.019,0,0,1,1014.09,496.07Zm-46.47,99.04a140.073,140.073,0,1,0-99.04,41.02A139.61,139.61,0,0,0,967.62,595.11Zm42.2-47.2a150.313,150.313,0,0,0,9.18-51.85c0-85.59-72.24-155.13-158.71-150.73-76.05,3.86-137.26,64.04-142.54,139.55-6.27,89.7,65.42,164.65,154.52,162.09A151.341,151.341,0,0,0,1009.82,547.91Z"/></g></svg>