<svg xmlns="http://www.w3.org/2000/svg" viewBox="0 0 397.51 485.33"><defs><style>.a{fill:#d9d9d9;}.b{fill:#ff5959;}.c{fill:rgba(119,89,58,0.25);}.d{fill:#aee438;}.e{fill:#b579f9;}.f{fill:#0aaaf2;}.g{fill:#625772;}.h{fill:#fff;}.i{fill:#bebebe;}.j{fill:#a6a2a2;}</style></defs><path class="a" d="M380.03,197.82A180.975,180.975,0,1,1,199.06,16.85,180.973,180.973,0,0,1,380.03,197.82Z"/><g transform="translate(-12 -11)"><path class="b" d="M114.97,318.8a19.777,19.777,0,1,1-15.65-23.19A19.77,19.77,0,0,1,114.97,318.8Z"/><path class="c" d="M110.42,309.66a17.5,17.5,0,0,1-12.89,16.21c-8.2,2.15-20.93-3.51-21.64-12.87a19.774,19.774,0,1,0,30.26-14.67C109.26,303.94,110.58,307.06,110.42,309.66Z"/><path class="b" d="M236.89,362.58a19.777,19.777,0,1,1-15.65-23.19,19.77,19.77,0,0,1,15.65,23.19Z"/><path class="c" d="M232.34,353.44a17.5,17.5,0,0,1-12.89,16.21c-8.2,2.15-20.93-3.51-21.64-12.87a19.774,19.774,0,1,0,30.26-14.67c3.11,5.61,4.43,8.73,4.27,11.33Z"/><path class="b" d="M323.71,263.58a19.777,19.777,0,1,1-15.65-23.19A19.775,19.775,0,0,1,323.71,263.58Z"/><path class="c" d="M319.16,254.44a17.5,17.5,0,0,1-12.89,16.21c-8.2,2.15-20.93-3.51-21.64-12.87a19.774,19.774,0,1,0,30.26-14.67c3.11,5.61,4.43,8.73,4.27,11.33Z"/><path class="b" d="M341.07,199.25a19.776,19.776,0,1,1-15.65-23.18A19.774,19.774,0,0,1,341.07,199.25Z"/><path class="c" d="M336.52,190.12a17.5,17.5,0,0,1-12.89,16.21c-8.2,2.15-20.93-3.51-21.64-12.87a19.773,19.773,0,1,0,30.26-14.67c3.11,5.61,4.43,8.73,4.27,11.33Z"/><g transform="translate(-8 6)"><path class="b" d="M111.83,154.12a19.777,19.777,0,1,1-15.65-23.18A19.772,19.772,0,0,1,111.83,154.12Z"/><path class="c" d="M107.27,144.99A17.5,17.5,0,0,1,94.39,161.2c-8.2,2.15-20.93-3.51-21.65-12.87A19.778,19.778,0,1,0,103,133.65c3.12,5.61,4.44,8.74,4.27,11.34Z"/></g><path class="d" d="M80.89,264.69A19.777,19.777,0,1,1,88,237.64,19.776,19.776,0,0,1,80.89,264.69Z"/><path class="c" d="M84.75,255.24a17.506,17.506,0,0,1-20.69,1c-7.02-4.75-11.15-18.05-4.58-24.76a19.776,19.776,0,1,0,30.98,13.08c-2.17,6.04-3.65,9.09-5.71,10.68Z"/><g transform="translate(2 -28)"><path class="d" d="M183.99,320.6a19.779,19.779,0,1,1,7.11-27.05A19.787,19.787,0,0,1,183.99,320.6Z"/><path class="c" d="M187.85,311.15a17.506,17.506,0,0,1-20.69,1c-7.02-4.75-11.15-18.05-4.59-24.76a19.779,19.779,0,1,0,30.99,13.08c-2.17,6.04-3.65,9.09-5.71,10.68Z"/></g><path class="d" d="M272.51,328.56a19.784,19.784,0,1,1,7.11-27.06,19.8,19.8,0,0,1-7.11,27.06Z"/><path class="c" d="M276.37,319.11a17.522,17.522,0,0,1-20.69,1c-7.02-4.75-11.15-18.06-4.59-24.76a19.779,19.779,0,1,0,30.99,13.07c-2.17,6.04-3.65,9.1-5.71,10.69Z"/><path class="e" d="M233.91,335.97a19.777,19.777,0,1,1,7.11-27.05A19.778,19.778,0,0,1,233.91,335.97Z"/><path class="c" d="M237.78,326.52a17.506,17.506,0,0,1-20.69,1c-7.02-4.75-11.16-18.05-4.59-24.76-11.99,8.48-12.01,28.41,6.23,35.95,17.03,2.09,26.64-10.76,24.75-22.87C241.31,321.88,239.84,324.93,237.78,326.52Z"/><path class="d" d="M348.17,299.54a19.777,19.777,0,1,1,7.11-27.05A19.769,19.769,0,0,1,348.17,299.54Z"/><path class="c" d="M352.04,290.09a17.49,17.49,0,0,1-20.69,1c-7.02-4.74-11.16-18.05-4.59-24.76a19.776,19.776,0,1,0,30.98,13.08c-2.16,6.04-3.64,9.09-5.7,10.68Z"/><path class="d" d="M309.53,112.64a19.781,19.781,0,1,1,7.11-27.06A19.787,19.787,0,0,1,309.53,112.64Z"/><path class="c" d="M313.4,103.19a17.522,17.522,0,0,1-20.69,1c-7.02-4.75-11.16-18.05-4.59-24.76A19.776,19.776,0,1,0,319.1,92.51c-2.17,6.03-3.65,9.09-5.7,10.68Z"/><path class="f" d="M133.74,218.7a19.779,19.779,0,1,1,7.1-27.05A19.778,19.778,0,0,1,133.74,218.7Z"/><path class="c" d="M137.6,209.25a17.506,17.506,0,0,1-20.69,1c-7.02-4.74-11.15-18.05-4.59-24.76a19.779,19.779,0,1,0,30.99,13.08c-2.17,6.04-3.65,9.09-5.71,10.68Z"/><g transform="translate(-20 -214)"><path class="f" d="M277.03,302.61a19.779,19.779,0,1,1,7.1-27.05,19.787,19.787,0,0,1-7.1,27.05Z"/><path class="c" d="M280.89,293.16a17.506,17.506,0,0,1-20.69,1c-7.02-4.75-11.15-18.05-4.59-24.76a19.779,19.779,0,1,0,30.99,13.08c-2.17,6.04-3.65,9.09-5.71,10.68Z"/></g><path class="f" d="M368.1,176.76a19.777,19.777,0,1,1,7.11-27.05A19.769,19.769,0,0,1,368.1,176.76Z"/><path class="c" d="M371.97,167.31a17.49,17.49,0,0,1-20.69,1c-7.02-4.74-11.16-18.05-4.59-24.76a19.776,19.776,0,1,0,30.98,13.08c-2.16,6.04-3.64,9.09-5.7,10.68Z"/><g transform="translate(-74 -137)"><path class="f" d="M230.73,264.77a19.781,19.781,0,1,1,7.11-27.06,19.787,19.787,0,0,1-7.11,27.06Z"/><path class="c" d="M234.6,255.32a17.522,17.522,0,0,1-20.69,1c-7.02-4.75-11.16-18.05-4.59-24.76a19.776,19.776,0,1,0,30.98,13.08c-2.16,6.03-3.64,9.09-5.7,10.68Z"/></g><path class="f" d="M322.16,334.6a19.779,19.779,0,1,1,7.1-27.05,19.779,19.779,0,0,1-7.1,27.05Z"/><path class="c" d="M326.02,325.15a17.49,17.49,0,0,1-20.69,1c-7.02-4.74-11.16-18.05-4.59-24.76a19.778,19.778,0,1,0,30.98,13.08c-2.16,6.04-3.64,9.09-5.7,10.68Z"/><path class="f" d="M145.99,360.1a19.777,19.777,0,1,1,7.11-27.05A19.767,19.767,0,0,1,145.99,360.1Z"/><path class="c" d="M149.86,350.65a17.49,17.49,0,0,1-20.69,1c-7.03-4.74-11.16-18.05-4.59-24.76a19.776,19.776,0,1,0,30.98,13.08c-2.17,6.04-3.65,9.09-5.7,10.68Z"/><path class="e" d="M137.34,292.56a19.779,19.779,0,1,1,7.1-27.05A19.787,19.787,0,0,1,137.34,292.56Z"/><path class="c" d="M141.2,283.11a17.506,17.506,0,0,1-20.69,1c-7.02-4.75-11.15-18.05-4.59-24.76a19.779,19.779,0,1,0,30.99,13.08c-2.17,6.04-3.65,9.09-5.71,10.68Z"/><path class="g" d="M187.98,358.18a19.777,19.777,0,1,1,7.11-27.05A19.769,19.769,0,0,1,187.98,358.18Z"/><path class="c" d="M191.85,348.73a17.49,17.49,0,0,1-20.69,1c-7.02-4.74-11.16-18.05-4.59-24.76a19.776,19.776,0,1,0,30.98,13.08c-2.16,6.04-3.64,9.09-5.7,10.68Z"/><g transform="translate(107 -133)"><path class="g" d="M169.7,290.38a19.777,19.777,0,1,1,7.11-27.05A19.778,19.778,0,0,1,169.7,290.38Z"/><path class="c" d="M173.57,280.93a17.506,17.506,0,0,1-20.69,1c-7.02-4.75-11.16-18.05-4.59-24.76a19.776,19.776,0,1,0,30.98,13.08c-2.17,6.04-3.64,9.09-5.7,10.68Z"/></g><path class="g" d="M271.53,368.39a19.779,19.779,0,1,1,7.11-27.05,19.787,19.787,0,0,1-7.11,27.05Z"/><path class="c" d="M275.39,358.94a17.506,17.506,0,0,1-20.69,1c-7.02-4.75-11.15-18.05-4.59-24.76a19.779,19.779,0,1,0,30.99,13.08c-2.17,6.04-3.65,9.09-5.71,10.68Z"/></g><path class="h" d="M198.76,390.81C92.86,390.81,6.7,304.66,6.7,198.76S92.86,6.7,198.76,6.7,390.81,92.86,390.81,198.76,304.66,390.81,198.76,390.81Zm0-373.15h0c-99.86,0-181.1,81.24-181.1,181.1S98.9,379.85,198.76,379.85s181.09-81.24,181.09-181.09S298.61,17.66,198.76,17.66Z"/><path class="i" d="M238.05,199.91a35.475,35.475,0,1,1-35.47-35.48A35.469,35.469,0,0,1,238.05,199.91Z"/><path class="i" d="M204.28,188.23h-5.52V11.34h5.52Z"/><path class="i" d="M191.15,194.2l-2.76,4.79L30.59,107.111l2.76-4.78Z"/><path class="i" d="M189.76,208.56l2.76,4.78L39.33,301.79,36.57,297Z"/><path class="i" d="M201.5,216.94h5.52V393.83H201.5Z"/><path class="i" d="M214.63,210.96l2.76-4.78,153.19,88.45-2.76,4.78Z"/><path class="i" d="M216.02,196.61l-2.77-4.78,153.19-88.45,2.76,4.79Z"/><path class="i" d="M141.09,381.3s64.61,23.22,121.3.2l17.72,63.68H125.67l15.42-63.88Z"/><path class="j" d="M295.39,463.36h-185a5.627,5.627,0,0,1-5.61-5.61V445.89a5.627,5.627,0,0,1,5.61-5.61h185a5.627,5.627,0,0,1,5.61,5.61v11.86A5.627,5.627,0,0,1,295.39,463.36Z"/><path class="i" d="M317.95,485.33H87.83a5.627,5.627,0,0,1-5.61-5.61V467.86a5.627,5.627,0,0,1,5.61-5.61H317.95a5.627,5.627,0,0,1,5.61,5.61v11.86A5.627,5.627,0,0,1,317.95,485.33Z"/><path class="i" d="M198.76,397.51C89.16,397.51,0,308.35,0,198.76S89.16,0,198.76,0,397.51,89.16,397.51,198.76,308.35,397.51,198.76,397.51Zm0-386.17h0C95.42,11.34,11.34,95.42,11.34,198.76S95.42,386.17,198.76,386.17,386.17,302.1,386.17,198.76,302.1,11.34,198.76,11.34Z"/></svg>