<svg xmlns="http://www.w3.org/2000/svg" xmlns:xlink="http://www.w3.org/1999/xlink" viewBox="0 0 270.577 440.748"><defs><style>.a{fill:rgba(249,212,165,0.7);}.b{fill:#f9d4a5;}.c{fill:#d1d3d4;}.d{fill:url(#a);}.e{fill:#6a6a6a;}.f{fill:#898a8c;}.g{fill:#d7d7d7;}.h{fill:#212121;}.aj,.i{fill:#fff;}.j{fill:#fafafa;}.aa,.k,.v,.w{fill:#262627;}.l{fill:#333;}.m{fill:#3d3d3d;}.n{fill:#0c46a1;}.o{fill:url(#b);}.p{fill:url(#c);}.q{fill:#7496c9;}.r{fill:url(#d);}.s{fill:#858585;}.t{fill:#db565a;}.u{fill:#b2b2b2;}.v,.w{font-size:2px;}.aa,.ag,.v{font-family:Arial-BoldMT, Arial;font-weight:700;}.ae,.w,.y{font-family:ArialMT, Arial;}.x{fill:#294b76;}.y{fill:#ababac;font-size:1px;}.z{fill:#dbdbdb;}.aa,.ag{font-size:3px;}.ab{fill:url(#e);}.ac{fill:#a7a7a7;}.ad{fill:#c8c8c8;}.ae{fill:#9e9e9e;font-size:4px;}.af,.ah{fill-rule:evenodd;}.ah{fill:#57bf8e;}.ai{fill:url(#f);}.aj,.am{font-size:8px;}.aj{font-family:Montserrat-SemiBold, Montserrat;font-weight:600;}.ak{font-size:15px;}.al{font-size:22px;}.am{fill:#a8efb9;font-family:Montserrat-Regular, Montserrat;}.an{fill:#edbb98;}.ao{fill:#d4145a;}.ap{fill:#110102;}.aq{fill:#3f2820;}.ar{fill:#f4c5a2;}.as{fill:#e2b291;}.at{fill:#1b1464;}.au{fill:#2e3192;}.av{fill:rgba(51,70,98,0.2);}.aw{fill:#d39c67;}.ax{fill:#ffebd1;}.ay{fill:#e2ac69;}</style><radialGradient id="a" cx="88.331" cy="345.679" r="84.943" gradientTransform="translate(-82.736 -350.745) scale(2.015 2.015)" gradientUnits="userSpaceOnUse"><stop offset="0" stop-color="#a3a5a5"/><stop offset="0.651" stop-color="#babcbd"/><stop offset="0.969" stop-color="#d1d3d4"/><stop offset="1" stop-color="#d1d3d4"/></radialGradient><radialGradient id="b" cx="339.192" cy="40.261" r="2.296" gradientUnits="userSpaceOnUse"><stop offset="0" stop-color="#2b4492"/><stop offset="0.722" stop-color="#2b4492"/><stop offset="1" stop-color="#2b4492"/></radialGradient><radialGradient id="c" cx="341.532" cy="42.191" r="2.296" xlink:href="#b"/><radialGradient id="d" cx="345.847" cy="36.912" r="2.296" xlink:href="#b"/><linearGradient id="e" x1="0.759" y1="0.141" x2="0.133" y2="1.009" gradientUnits="objectBoundingBox"><stop offset="0" stop-color="#a844a1"/><stop offset="0.071" stop-color="#ab429a"/><stop offset="0.172" stop-color="#b43c88"/><stop offset="0.292" stop-color="#c33269"/><stop offset="0.423" stop-color="#d7243f"/><stop offset="0.426" stop-color="#d7243e"/><stop offset="0.799" stop-color="#f9a326"/><stop offset="1" stop-color="#f9dd26"/></linearGradient><linearGradient id="f" x1="0.5" y1="-0.127" x2="0.5" y2="1" gradientUnits="objectBoundingBox"><stop offset="0" stop-color="#4b4b5c" stop-opacity="0.431"/><stop offset="1" stop-color="#02021e" stop-opacity="0.62"/></linearGradient></defs><g transform="translate(-1784.128 -280.172)"><path class="a" d="M50.284,542.2a69.571,69.571,0,0,1,19.358,6.05c17.472,8.231,104.831,59.583,134.847,72.127s83.33,60.928,84.673,74.368-8.511,63.169-20.609,78.848c-3.966,5.142-4.774,22.729.583,30.25l-63.063,4.039c-22.938-19.056-18.907-50.715-18.907-50.715H96.816c-10.647-15.317-28.07-25.083-28.07-25.083V588.592s-5.365-3.16-22.4-15.7a62.289,62.289,0,0,1-7.155-6.069c9.712-5.451,11.288-16.848,11.1-24.62h0Z" transform="translate(1752.457 -161.396)"/><path class="b" d="M236.884,771.6c12.1-15.68,21.95-65.41,20.607-78.848s-54.656-61.824-84.672-74.368S55.444,554.491,37.97,546.26s-32.959-7.955-35.841-3.137c-3.584,5.992-4.492,15.232,12.544,27.777s22.4,15.7,22.4,15.7V730.095s19.713,11.046,30.018,28.068,21.119,41.311,51.072,58.689c21.4,12.413,33.322,62.56,33.634,63.475H270.579c-.514-1.293-56.046-101.818-33.695-108.723Z" transform="translate(1784.126 -159.406)"/><g transform="translate(656.75 -224.828)"><g transform="translate(1148 505)"><path class="c" d="M152.327,342.257H31.137A24.347,24.347,0,0,1,6.79,317.91V24.347A24.347,24.347,0,0,1,31.137,0H152.327a24.347,24.347,0,0,1,24.347,24.347V317.91A24.347,24.347,0,0,1,152.327,342.257Z" transform="translate(-4.631 0)"/><path class="d" d="M152.327,342.257H31.137A24.347,24.347,0,0,1,6.79,317.91V24.347A24.347,24.347,0,0,1,31.137,0H152.327a24.347,24.347,0,0,1,24.347,24.347V317.91A24.347,24.347,0,0,1,152.327,342.257Z" transform="translate(-4.631 0)"/><path class="e" d="M157.48,346.1H41.289A23.277,23.277,0,0,1,18.01,322.822V33.829A23.28,23.28,0,0,1,41.289,10.55H157.48a23.28,23.28,0,0,1,23.279,23.279V322.822A23.277,23.277,0,0,1,157.48,346.1Z" transform="translate(-12.283 -7.195)"/><path class="c" d="M160.974,348.224H44.86a21.669,21.669,0,0,1-21.67-21.667V38.06A21.669,21.669,0,0,1,44.86,16.39H160.974a21.669,21.669,0,0,1,21.67,21.67v288.5a21.669,21.669,0,0,1-21.67,21.667Z" transform="translate(-15.816 -11.178)"/><path class="f" d="M2.159,143.676H1.087A1.088,1.088,0,0,1,0,142.586V131.231a1.09,1.09,0,0,1,1.087-1.091H2.159v13.536Z" transform="translate(0 -88.759)"/><path class="g" d="M2.159,144.546H1.087A1.087,1.087,0,0,1,0,143.459v-9.841a1.087,1.087,0,0,1,1.087-1.087H2.159Z" transform="translate(0 -90.389)"/><path class="f" d="M2.159,256.965H1.087A1.087,1.087,0,0,1,0,255.878V231.531a1.088,1.088,0,0,1,1.087-1.091H2.159Z" transform="translate(0 -157.166)"/><path class="g" d="M2.159,257.857H1.087A1.087,1.087,0,0,1,0,256.77V233.977a1.087,1.087,0,0,1,1.087-1.087H2.159Z" transform="translate(0 -158.837)"/><path class="f" d="M2.159,378.8H1.087A1.09,1.09,0,0,1,0,377.7V353.357a1.087,1.087,0,0,1,1.087-1.087H2.159Z" transform="translate(0 -240.257)"/><path class="g" d="M2.159,379.881H1.087A1.087,1.087,0,0,1,0,378.793V356.351a1.09,1.09,0,0,1,1.087-1.091H2.159Z" transform="translate(0 -242.297)"/><path class="e" d="M168.629,348.592H53.328A18.317,18.317,0,0,1,35.01,330.274V40.208A18.319,18.319,0,0,1,53.328,21.89h115.3a18.321,18.321,0,0,1,18.318,18.318V330.274A18.319,18.319,0,0,1,168.629,348.592Z" transform="translate(-23.878 -14.93)"/><path class="h" d="M170.979,350.6H57.867a17.808,17.808,0,0,1-17.807-17.81V45.206A17.806,17.806,0,0,1,57.867,27.4H170.979a17.806,17.806,0,0,1,17.807,17.807V332.791A17.808,17.808,0,0,1,170.979,350.6Z" transform="translate(-27.322 -18.687)"/><path class="i" d="M175.546,352.779H62.93a15.81,15.81,0,0,1-15.81-15.81V49.2A15.809,15.809,0,0,1,62.93,33.39H175.546a15.809,15.809,0,0,1,15.81,15.81V336.969A15.809,15.809,0,0,1,175.546,352.779Z" transform="translate(-32.137 -22.773)"/><g transform="translate(14.988 10.603)"><path class="j" d="M23.047-3.708l105.295,0A15.154,15.154,0,0,1,139.46.854a16.1,16.1,0,0,1,4.721,12.556c.012,1.857.094,10.223.094,10.223H-.016s-.1-7.721,0-13.722C1.916-.051,9.789-3.678,15.69-3.711,18.572-3.72,23.047-3.708,23.047-3.708Z" transform="translate(0.061 3.72)"/><g transform="translate(52.642 14.309)"><path class="k" d="M275.139,60.211a3.634,3.634,0,0,0-1.961,2.48c-.346,1.5,1.115,2.154,1.231,1.942.135-.25-.269-.327-.346-1.115a3.244,3.244,0,0,1,.961-2.634c.115-.1.1.038.1.269,0,.423-.019,4.23-.019,5.019a7.338,7.338,0,0,1-.115,1.75c-.077.346-.211.577-.115.654.115.1.577-.135.846-.519a2.825,2.825,0,0,0,.461-1.6c.019-.711.019-1.846.019-2.5,0-.6.019-2.327-.019-3.384C276.177,60.326,275.466,60.057,275.139,60.211Z" transform="translate(-273.125 -60.166)"/><path class="k" d="M328.915,65.866c-.115,0-.173.115-.212.327-.154.711-.308.865-.519.865-.231,0-.442-.346-.5-1.038a23.106,23.106,0,0,1,.019-2.557c.019-.212-.038-.4-.6-.615-.231-.1-.577-.212-.75.212a11.433,11.433,0,0,0-.731,2.48c0,.019-.019.019-.038-.019-.019-.308-.1-.846-.1-2.019a.6.6,0,0,0-.308-.577c-.154-.1-.654-.288-.827-.077a4.79,4.79,0,0,0-.519,1.211c-.154.461-.25.769-.25.769V63.135a.258.258,0,0,0-.154-.25,4.5,4.5,0,0,0-.615-.135c-.173,0-.212.1-.212.231,0,.019-.019,1.615-.019,2.73v.154c-.1.519-.4,1.211-.731,1.211s-.481-.288-.481-1.634c0-.769.019-1.115.038-1.673,0-.327.019-.577.019-.635,0-.173-.308-.269-.442-.288a1.311,1.311,0,0,0-.365-.038.218.218,0,0,0-.231.212v.192a1.38,1.38,0,0,0-.635-.519,1.2,1.2,0,0,0-1.4.538,3.3,3.3,0,0,0-.577,1.634,4.841,4.841,0,0,0,.058,1.5c-.115.5-.327.711-.577.711-.346,0-.6-.558-.558-1.538a9.29,9.29,0,0,1,.288-1.731.536.536,0,0,0-.115-.558c-.115-.135-.346-.192-.692-.115-.25.058-.6.115-.9.173,0,0,.019-.077.038-.212.077-.711-.692-.654-.923-.423a.831.831,0,0,0-.288.577.689.689,0,0,0,.308.673,6.611,6.611,0,0,1-.731,1.807,7.628,7.628,0,0,1-.461.711v-.25c0-1.173.019-2.077.019-2.423,0-.327.019-.558.019-.615,0-.135-.077-.173-.231-.231a1.162,1.162,0,0,0-.461-.1c-.212-.019-.346.1-.327.231v.173a1.38,1.38,0,0,0-.635-.519,1.2,1.2,0,0,0-1.4.538,3.621,3.621,0,0,0-.577,1.634,4.732,4.732,0,0,0,.038,1.4c-.077.385-.308.808-.558.808-.327,0-.519-.288-.519-1.634,0-.769.019-1.115.038-1.673,0-.327.019-.577.019-.635,0-.173-.308-.269-.442-.288a1.381,1.381,0,0,0-.365-.038.226.226,0,0,0-.212.212v.192a1.38,1.38,0,0,0-.635-.519,1.229,1.229,0,0,0-1.423.538,3.278,3.278,0,0,0-.577,1.634,4.657,4.657,0,0,0-.038.711c-.1.635-.558,1.346-.923,1.346-.212,0-.423-.423-.423-1.327,0-1.192.077-2.9.077-3.076h.558c.231,0,.442,0,.75-.019.154,0,.308-.577.154-.635a4.411,4.411,0,0,0-.788-.058c-.173,0-.654-.038-.654-.038s.038-1.134.058-1.25c0-.1-.115-.154-.192-.173a2.481,2.481,0,0,0-.538-.154c-.269-.058-.385,0-.4.231-.038.346-.058,1.327-.058,1.327-.192,0-.846-.038-1.038-.038-.173,0-.365.769-.135.788.288.019.788.019,1.115.038,0,0-.019,1.731-.019,2.269V65a2.59,2.59,0,0,1-.827,1.461,1.419,1.419,0,0,0-.654-1.5c-.192-.154-.558-.423-.961-.731a2.493,2.493,0,0,0,.442-.711c.154-.327.154-.711-.212-.808a1.081,1.081,0,0,0-1.25.788.9.9,0,0,0,.173.923l.058.058c-.135.269-.327.615-.481.9-.442.769-.769,1.365-1.038,1.365-.211,0-.192-.615-.192-1.192,0-.5.038-1.25.058-2.019a.562.562,0,0,0-.327-.538,1.517,1.517,0,0,0-.577-.231c-.25,0-.942.038-1.6,1.942-.077.231-.25.673-.25.673l.019-2.288c0-.058-.019-.1-.1-.135a1.657,1.657,0,0,0-.673-.192c-.135,0-.192.058-.192.173L293.9,66.5a3.858,3.858,0,0,0,.038.731,1.069,1.069,0,0,0,.115.327.4.4,0,0,0,.212.135c.1.019.615.1.634-.115a8.452,8.452,0,0,1,.308-1.461,5.78,5.78,0,0,1,1.25-2.5c.038-.038.1-.038.1.019-.019.327-.058,1.154-.077,1.846-.077,1.865.269,2.211.75,2.211.365,0,.9-.365,1.461-1.308.346-.577.692-1.154.942-1.557.173.154.365.327.558.5a1.241,1.241,0,0,1,.5,1.192.517.517,0,0,1-.846.308,2.266,2.266,0,0,1-.346-.25.271.271,0,0,0-.269-.019.911.911,0,0,0-.346.538c-.058.212.154.327.385.423a3.625,3.625,0,0,0,.865.173,2.454,2.454,0,0,0,2.4-1.846c.1,1.173.538,1.846,1.288,1.846.5,0,1.019-.654,1.231-1.288a1.786,1.786,0,0,0,.288.673,1.324,1.324,0,0,0,2.269-.058,1.378,1.378,0,0,0,.192-.327,1.07,1.07,0,0,0,1.019,1,1.129,1.129,0,0,0,1.058-.808,1.691,1.691,0,0,0,.115.192,1.324,1.324,0,0,0,2.269-.058.419.419,0,0,1,.077-.1l.019.481s-.327.288-.519.481c-.865.808-1.538,1.4-1.6,2.115a1.217,1.217,0,0,0,1.231,1.288,1.556,1.556,0,0,0,1.4-.731,4.39,4.39,0,0,0,.442-2.115c0-.346-.019-.769-.019-1.231a9.9,9.9,0,0,0,.961-1.327,10.386,10.386,0,0,0,.9-1.942s.327,0,.673-.019c.115,0,.135.019.115.1a5.552,5.552,0,0,0-.058,2.73,1.3,1.3,0,0,0,1.173.961,1.194,1.194,0,0,0,1-.75.836.836,0,0,0,.077.135,1.324,1.324,0,0,0,2.269-.058,1.39,1.39,0,0,0,.192-.327,1.093,1.093,0,0,0,1.058,1c.346,0,.692-.154.961-.788a5.468,5.468,0,0,0,.058.6.549.549,0,0,0,.192.135,1.549,1.549,0,0,0,.769.038c.077-.019.154-.077.154-.269a8.82,8.82,0,0,1,.154-1.807,5.243,5.243,0,0,1,.558-1.519c.058-.1.115-.115.135-.019a17.518,17.518,0,0,0,.115,1.75,3.453,3.453,0,0,0,.231,1.154.637.637,0,0,0,.634.365c.135,0,.385-.038.365-.25a6.459,6.459,0,0,1,.231-1.731,7.729,7.729,0,0,1,.5-1.384c.038-.077.058-.019.058,0a12.635,12.635,0,0,0,.115,2.6c.231,1.038.923,1.154,1.154,1.154.5,0,.923-.385,1.058-1.4C329.126,66.058,329.068,65.866,328.915,65.866ZM307.59,65.25a3.55,3.55,0,0,1-.308,1.327c-.308.6-.9.788-1.173-.077a4.359,4.359,0,0,1-.038-1.923c.115-.673.423-1.154.884-1.115C307.437,63.5,307.667,64.116,307.59,65.25Zm4.653,0a3.354,3.354,0,0,1-.308,1.308c-.288.6-.923.788-1.173-.077a4.212,4.212,0,0,1-.038-1.827c.115-.615.385-1.192.885-1.192C312.09,63.462,312.321,63.981,312.244,65.25Zm.135,3.48a2.962,2.962,0,0,1-.461,1.98.566.566,0,0,1-.923-.6,4.45,4.45,0,0,1,1.384-1.961Zm8.018-3.48a3.185,3.185,0,0,1-.308,1.308c-.288.6-.923.788-1.173-.077a4.783,4.783,0,0,1-.038-1.9c.1-.673.4-1.173.884-1.115C320.243,63.5,320.454,64.116,320.4,65.25Z" transform="translate(-289.905 -60.187)"/></g><g transform="translate(4.739 14.854)"><path class="k" d="M29.326,63.385a.7.7,0,0,1,.5.212l.4.4a1.876,1.876,0,0,0,1.327.538h.135a1.157,1.157,0,0,1,1.154,1.154v3.846a1.076,1.076,0,0,1-.346.808,1.151,1.151,0,0,1-.808.346H25.538a1.157,1.157,0,0,1-1.154-1.154V65.692a1.076,1.076,0,0,1,.346-.808,1.151,1.151,0,0,1,.808-.346h.154A1.91,1.91,0,0,0,27.019,64l.4-.4a.7.7,0,0,1,.5-.212h1.4m0-.385h-1.4a1.078,1.078,0,0,0-.769.327l-.4.4a1.5,1.5,0,0,1-1.038.442h-.173A1.543,1.543,0,0,0,24,65.711v3.846A1.543,1.543,0,0,0,25.538,71.1h6.153a1.543,1.543,0,0,0,1.538-1.538V65.711a1.543,1.543,0,0,0-1.538-1.538h-.154a1.425,1.425,0,0,1-1.038-.442l-.4-.4A1.078,1.078,0,0,0,29.326,63Z" transform="translate(-24 -63)"/><path class="k" d="M38.307,74.385a1.923,1.923,0,1,1-1.923,1.923,1.928,1.928,0,0,1,1.923-1.923m0-.385a2.307,2.307,0,1,0,2.307,2.307A2.314,2.314,0,0,0,38.307,74Z" transform="translate(-33.693 -71.885)"/></g><g transform="translate(130.839 15.411)"><path class="k" d="M684.129,73.71h-.039a.291.291,0,0,1-.231-.212l-.788-4.307L679.9,66.481a.266.266,0,0,1-.077-.308.248.248,0,0,1,.25-.173h8.114a.267.267,0,0,1,.231.135.231.231,0,0,1,0,.269l-4.057,7.172A.245.245,0,0,1,684.129,73.71Zm-3.307-7.191,2.692,2.288a.265.265,0,0,1,.1.154l.673,3.673,3.461-6.115Z" transform="translate(-679.803 -65.98)"/><path class="k" d="M697.066,69.2a.267.267,0,0,1-.231-.135.254.254,0,0,1,.1-.365l4.865-2.769a.267.267,0,0,1,.269.461L697.2,69.185A.375.375,0,0,1,697.066,69.2Z" transform="translate(-693.529 -65.896)"/></g></g><path class="h" d="M167.142,27.4H117.36s7.778.156,8.245,3.11S125.917,40,133.539,40h67.21c7.622,0,7.466-6.534,7.933-9.492s8.245-3.11,8.245-3.11Z" transform="translate(-80.043 -18.688)"/><g transform="translate(72.342 10.617)"><path class="l" d="M255.355,41.372H228.871a1.361,1.361,0,1,1,0-2.722h26.484a1.361,1.361,0,0,1,0,2.722Z" transform="translate(-227.51 -36.977)"/><g transform="translate(35.139)"><path class="m" d="M344.087,36.423a3.033,3.033,0,1,1-3.033-3.033A3.033,3.033,0,0,1,344.087,36.423Z" transform="translate(-338.02 -33.39)"/><path class="n" d="M344.928,38.013a2.294,2.294,0,1,1-2.293-2.293A2.294,2.294,0,0,1,344.928,38.013Z" transform="translate(-339.602 -34.979)"/><path class="o" d="M344.928,38.013a2.294,2.294,0,1,1-2.293-2.293A2.294,2.294,0,0,1,344.928,38.013Z" transform="translate(-339.602 -34.979)"/><path class="p" d="M344.928,38.013a2.294,2.294,0,1,1-2.293-2.293A2.294,2.294,0,0,1,344.928,38.013Z" transform="translate(-339.602 -34.979)"/><path class="q" d="M342.7,38.083a.465.465,0,0,1-.388-.728,2.021,2.021,0,0,1,3.192-.2.466.466,0,1,1-.7.617,1.1,1.1,0,0,0-.887-.369,1.117,1.117,0,0,0-.833.477A.467.467,0,0,1,342.7,38.083Z" transform="translate(-340.891 -35.488)"/><path class="r" d="M344.928,38.013a2.294,2.294,0,1,1-2.293-2.293A2.294,2.294,0,0,1,344.928,38.013Z" transform="translate(-339.602 -34.979)"/></g></g><g transform="translate(2.159 25.874)"><path class="s" d="M11.3,976.232H6.79V974.48H11.3Z" transform="translate(-6.79 -690.494)"/><path class="s" d="M11.3,83.119H6.79V81.37H11.3Z" transform="translate(-6.79 -81.37)"/></g><g transform="translate(167.531 25.874)"><path class="s" d="M531.382,976.232H526.87V974.48h4.512Z" transform="translate(-526.87 -690.494)"/><path class="s" d="M531.382,83.119H526.87V81.37h4.512Z" transform="translate(-526.87 -81.37)"/></g></g><g transform="translate(1162.96 812.582)"><path class="j" d="M-.2-.083,144.087-.127V4.229s-.005.067-.043.423c.255,5.617-1.192,10.457-6.426,14.428-5.65,4.568-12.88,3.366-19.876,3.348-5.247-.013-100.537,0-100.537,0s-7.4.408-12.445-4.589A15.367,15.367,0,0,1-.19,5.529C-.225-.1-.2-.083-.2-.083Z" transform="translate(0.207 0.244)"/><path class="k" d="M211.191,1275.884l-1.807-1.807a3.731,3.731,0,1,0-.269.269l1.807,1.807Zm-4.538-.961a3.269,3.269,0,1,1,3.269-3.269A3.266,3.266,0,0,1,206.653,1274.922Z" transform="translate(-163.814 -1260.964)"/><path class="k" d="M8.1,7.884V7.345a1.592,1.592,0,0,0-1.6-1.6H1.98a1.592,1.592,0,0,0-1.6,1.6v.539a.182.182,0,0,1-.192.192A.182.182,0,0,1,0,7.884V7.345a1.978,1.978,0,0,1,1.98-1.98H6.5a1.978,1.978,0,0,1,1.98,1.98v.539a.192.192,0,0,1-.385,0ZM1.942,2.307A2.307,2.307,0,1,1,4.25,4.615,2.314,2.314,0,0,1,1.942,2.307Zm.385,0A1.923,1.923,0,1,0,4.25.385,1.928,1.928,0,0,0,2.327,2.307Z" transform="translate(125.655 7.074)"/><path class="k" d="M509.25,1270.584a1.819,1.819,0,0,1,.981.288,2.281,2.281,0,0,1,.731,3,16.458,16.458,0,0,1-3.5,3.23.1.1,0,0,1-.058.019.071.071,0,0,1-.058-.019,15.975,15.975,0,0,1-3.5-3.23,2.3,2.3,0,0,1,.731-3,1.819,1.819,0,0,1,.981-.288,1.881,1.881,0,0,1,1.538.807l.308.423.308-.423a1.933,1.933,0,0,1,1.538-.807m0-.385a2.29,2.29,0,0,1-3.73,0,2.3,2.3,0,0,0-1.192.346,2.7,2.7,0,0,0-.865,3.519c.538,1,2.807,2.75,3.615,3.346a.572.572,0,0,0,.288.1.519.519,0,0,0,.288-.1c.827-.615,3.076-2.346,3.615-3.346a2.7,2.7,0,0,0-.865-3.519,2.08,2.08,0,0,0-1.154-.346Z" transform="translate(-406.246 -1262.741)"/><ellipse class="t" cx="0.788" cy="0.788" rx="0.788" ry="0.788" transform="translate(100.351 16.631)"/><path class="k" d="M2.9,9.229A2.913,2.913,0,0,1,0,6.326V2.9A2.913,2.913,0,0,1,2.9,0H6.326a2.913,2.913,0,0,1,2.9,2.9V6.326a2.913,2.913,0,0,1-2.9,2.9ZM.385,2.9V6.326A2.528,2.528,0,0,0,2.9,8.845H6.326A2.527,2.527,0,0,0,8.845,6.326V2.9A2.528,2.528,0,0,0,6.326.385H2.9A2.528,2.528,0,0,0,.385,2.9ZM4.423,6.73V4.807H2.5V4.423H4.423V2.5h.385V4.423H6.73v.385H4.807V6.73Z" transform="translate(67.643 6.459)"/><path class="k" d="M57.23,1268.7a.611.611,0,0,0-.385.154l-3.557,3.576a.989.989,0,0,0-.288.692v2.865a.578.578,0,0,0,.577.577h2.307a.578.578,0,0,0,.577-.577v-1.731a.769.769,0,0,1,1.538,0v1.731a.578.578,0,0,0,.577.577h2.307a.578.578,0,0,0,.577-.577v-2.865a.976.976,0,0,0-.288-.692l-3.557-3.557a.544.544,0,0,0-.385-.173" transform="translate(-42.656 -1261.53)"/><path class="u" d="M0-.007,144.148-.025V.2L0,.186Z" transform="translate(0.153 0.025)"/></g><g transform="translate(1168.627 775.357)"><path class="k" d="M115.1,975.685h0a3.576,3.576,0,0,1,1,.135,3.529,3.529,0,0,1,2.519,2.577,3.66,3.66,0,0,1-.269,2.557.713.713,0,0,0-.058.558l.346,1.288-1.231-.327a.723.723,0,0,0-.212-.019.875.875,0,0,0-.385.1,3.606,3.606,0,0,1-2.634.327,4.033,4.033,0,0,1-2.615-2.557,3.736,3.736,0,0,1,.635-3.211,3.68,3.68,0,0,1,2.9-1.423m0-.385a4.042,4.042,0,0,0-3.884,5.115,4.424,4.424,0,0,0,2.9,2.846,4.563,4.563,0,0,0,1,.115,3.94,3.94,0,0,0,1.9-.481.387.387,0,0,1,.212-.058.145.145,0,0,1,.1.019l1.692.462h.019a.1.1,0,0,0,.1-.135l-.461-1.75a.373.373,0,0,1,.038-.288,4.138,4.138,0,0,0,.288-2.827,3.967,3.967,0,0,0-2.788-2.865,4.7,4.7,0,0,0-1.115-.154Z" transform="translate(-95.106 -975.242)"/><text class="v" transform="translate(0.577 15.54)"><tspan x="0" y="0">Нравится: 200 000</tspan></text><text class="v" transform="translate(0.769 24.193)"><tspan x="0" y="0">permial_partner</tspan></text><text class="w" transform="translate(36.068 24.193)"><tspan x="0" y="0">Участвуйте в розыгрыше квартиры!!</tspan><tspan class="x" y="0"> </tspan><tspan class="x"><tspan x="0" y="2">#квартираВМоскве #Первый #Москва</tspan></tspan></text><path class="k" d="M4.507,8.134A.287.287,0,0,1,4.276,7.9L3.45,3.365.1.519A.267.267,0,0,1,.027.192.289.289,0,0,1,.3,0H8.857a.263.263,0,0,1,.189.075A.349.349,0,0,1,9.1.135a.261.261,0,0,1,.034.212.262.262,0,0,1-.062.126L4.815,7.98a.233.233,0,0,1-.25.154Zm.212-1.115L8.083,1.055,4.046,3.362ZM3.767,2.857,7.773.577H1.085Z" transform="translate(30.738 0.385)"/><path class="k" d="M693.188,984.426a.247.247,0,0,1-.192-.077l-2.807-2.461-2.807,2.461a.261.261,0,0,1-.308.038.3.3,0,0,1-.173-.269v-7.23a.3.3,0,0,1,.288-.288h5.98a.3.3,0,0,1,.288.288v7.23a.29.29,0,0,1-.173.269A.147.147,0,0,1,693.188,984.426Zm-2.98-3.211a.246.246,0,0,1,.192.077l2.519,2.192v-6.307H687.5v6.307l2.519-2.192A.246.246,0,0,1,690.207,981.215Z" transform="translate(-560.206 -976.292)"/><text class="y" transform="translate(0.769 32.726)"><tspan x="0" y="0">10 МИНУТ НАЗАД</tspan></text><path class="t" d="M6.664,0A2.515,2.515,0,0,0,4.645,1.038,2.515,2.515,0,0,0,2.626,0,2.428,2.428,0,0,0,1.337.365,2.855,2.855,0,0,0,.4,4.153C.972,5.23,3.453,7.114,4.337,7.768a.521.521,0,0,0,.654,0c.884-.654,3.365-2.538,3.942-3.615A2.893,2.893,0,0,0,7.99.365,2.661,2.661,0,0,0,6.664,0Z" transform="translate(-0.037 0)"/></g><g transform="translate(1163.113 588.494)"><rect class="z" width="144.211" height="0.192" transform="translate(0 17.498)"/><text class="aa" transform="translate(20.247 4.959)"><tspan x="0" y="0">premial_partner</tspan></text><text class="w" transform="translate(20.247 10.589)"><tspan x="0" y="0">Moscow, Russia</tspan></text><g transform="translate(133.194 6.788)"><ellipse class="k" cx="0.577" cy="0.577" rx="0.577" ry="0.577"/><ellipse class="k" cx="0.577" cy="0.577" rx="0.577" ry="0.577" transform="translate(1.942)"/><ellipse class="k" cx="0.577" cy="0.577" rx="0.577" ry="0.577" transform="translate(3.903)"/></g><path class="ab" d="M21.307,167.613a7.307,7.307,0,1,1,7.307-7.307A7.3,7.3,0,0,1,21.307,167.613Zm0-14.037a6.73,6.73,0,1,0,6.73,6.73A6.737,6.737,0,0,0,21.307,153.577Z" transform="translate(-11.308 -153)"/></g><rect class="u" width="144.404" height="0.192" transform="translate(1163.017 542.956)"/><g transform="translate(1163.209 547.571)"><rect class="u" width="144.211" height="0.192" transform="translate(0 34.861)"/><g transform="translate(3.653)"><ellipse class="ac" cx="10.518" cy="10.518" rx="10.518" ry="10.518" transform="translate(1.981 1.981)"/><path class="ad" d="M32,177a12.5,12.5,0,1,1,12.5-12.5A12.523,12.523,0,0,1,32,177Zm0-24.016A11.518,11.518,0,1,0,43.516,164.5,11.538,11.538,0,0,0,32,152.981Z" transform="translate(-19.5 -152)"/><text class="ae" transform="translate(10.974 31.413)"><tspan x="-6.559" y="0">Partner</tspan></text></g></g><g transform="translate(1174.52 519.733)"><path class="af" d="M699.922,13.327a.6.6,0,0,1-.577.673V12.654A.6.6,0,0,1,699.922,13.327Zm-.769-1.25v2.5h0a.567.567,0,0,1-.577.577h-7.5a.567.567,0,0,1-.577-.577h0v-2.5a.567.567,0,0,1,.577-.577h7.5A.567.567,0,0,1,699.153,12.077Zm-8.076-.385a.386.386,0,0,0-.385.385v2.5a.386.386,0,0,0,.385.385h7.5a.386.386,0,0,0,.385-.385v-2.5a.386.386,0,0,0-.385-.385Zm-.192.385v2.5a.182.182,0,0,0,.192.192h7.5a.182.182,0,0,0,.192-.192v-2.5a.182.182,0,0,0-.192-.192h-7.5A.182.182,0,0,0,690.885,12.077Z" transform="translate(-576.503 -11.415)"/><text class="ag" transform="translate(0 3)"><tspan x="0" y="0">11:11</tspan></text><path d="M218.607,11.5a3.6,3.6,0,0,1,2.307.9l-.308.346a3.1,3.1,0,0,0-4,0L216.3,12.4A3.639,3.639,0,0,1,218.607,11.5Zm0,1.192a2.357,2.357,0,0,1,1.538.577l-.327.365a1.961,1.961,0,0,0-1.192-.423,1.88,1.88,0,0,0-1.192.423l-.327-.365A2.322,2.322,0,0,1,218.607,12.692Zm0,1.173a1.183,1.183,0,0,1,.731.269l-.731.827-.731-.827A1.183,1.183,0,0,1,218.607,13.865Z" transform="translate(-111.086 -11.415)"/></g><g transform="translate(1162.733 606.55)"><path class="ah" d="M-.369,0H144.274V162.914H-.369Z" transform="translate(0.369)"/><path class="ai" d="M15.867,299.7H10.612l.039-44.946h2.272v-7.81h.284l.426-1.367V238.35h.426v-.391l.284-.781h.284l.284.781v.391h.426v7.029l.426,1.562h.142v4.3h2.272V256.9h.852v-8.2h.71v-.976h2.272v.976h.568v-7.42H25V244.6l2.841,4.1v2.929l1.988,4.1.994-1.172v-12.5h.568v-3.71h.426v-2.929h.142l.142-4.491.142,4.491h.142v2.929h.426v3.71h.426V248.7h2.13v11.13h1.278v-4.686h.71V240.3h2.272v14.84h.71V257.1h.994v-9.763h2.414v-3.319h.71V236.2H47.72v7.81h.71v10.739h1.988v-7.81H50.7l.426-1.367V238.35h.426v-.391l.284-.781h.284l.284.781v.391h.426v7.029l.426,1.562H53.4v4.3h2.272V256.9h.852v-8.2h.71v-.976h2.272v.976h.568v-7.42h2.414V244.6l2.841,4.1v2.929l1.988,4.1.994-1.172V231.126h.568v-3.71h.426v-2.929h.568v2.929H70.3v3.71h.426V248.7h2.13v11.13h1.136v-4.686h.852V240.3H77.12v14.84h.426V257.1h1.278v-9.763H81.1v-3.319h.852V236.2h3.267v7.81h.71v7.225h.994V256.9h.994v-8.2h.568v-.976H90.9v.976h.568v-7.42h2.272V244.6l2.983,4.1v2.929l1.988,4.1.994-1.172v-11.52h.426v-3.71h.426V236.4h.142l.142-4.491.284,4.491h.142v2.929h.426v3.71h.426V248.7h2.13v11.13h1.278v-4.686h.568V240.3h2.414v14.84h.71V257.1h.852v-9.763h2.414v-3.319h.71V236.2H116.6v7.81h.71v10.739H119.3v-7.81h.142l.568-1.367V238.35h.284v-.391l.284-.781h.426l.284.781v.391h.284v7.029l.568,1.562h.142v4.3h2.13V256.9h.994v-8.2h.568v-.976h2.414v.976h.568v-7.42h2.272V244.6l2.983,4.1v2.929l1.846,4.1,1.136-1.172V237.374h.426v-3.71h.426v-2.929h.568v2.929h.568v3.71h.426V248.7h2.13v11.13h.994v-4.686h.852V240.3H146v14.84h.426V257.1h1.136v-9.763h2.414v-3.319h.71V236.2H154.1v7.81h1.074v55.922C105.672,299.934,60.538,299.7,15.867,299.7Zm119.625-43.189-1.278-2.734v4.1Zm-1.278-3.515,1.562,3.124.142-.2-1.7-3.515Zm-37.495-.586v.586l1.562,3.124.142-.2Zm0,1.367v4.1L98,256.509Zm-30.11,2.734-1.278-2.734v4.1Zm-1.278-3.515,1.562,3.124.142-.2-1.7-3.515Zm-37.495-.586v.586l1.562,3.124.142-.2Zm0,1.367v4.1l1.278-1.367Z" transform="translate(-10.568 -136.367)"/><text class="aj" transform="translate(67.573 32.147)"><tspan x="-45.164" y="0">Не упусти свой шанс</tspan><tspan x="-20.152" y="10">выиграть</tspan><tspan class="ak"><tspan x="-44.123" y="27">квартиру в</tspan></tspan><tspan class="al"><tspan x="-47.762" y="52">Москве!</tspan><tspan x="0" y="79"></tspan></tspan></text></g><text class="am" transform="translate(1234.093 762.597)"><tspan x="-32.192" y="0">#ХочуКвартиру</tspan></text><g transform="translate(1169.019 590.478)"><g transform="translate(0 5.312)"><path class="an" d="M206.344,279.3h-.491a.754.754,0,0,1-.753-.753v-1.093a.754.754,0,0,1,.753-.753h.491a.754.754,0,0,1,.753.753v1.093A.754.754,0,0,1,206.344,279.3Z" transform="translate(-201.976 -276.7)"/><path class="an" d="M51.119,369.9v.018a.754.754,0,0,1-.753.754h-.491a.754.754,0,0,1-.753-.754V369.9A3.963,3.963,0,0,0,46,372.563c0,.018,2.08,0,4.121,0s4.124.018,4.121,0A3.963,3.963,0,0,0,51.119,369.9Z" transform="translate(-45.998 -368.071)"/><path class="ao" d="M45.9,431.974h0c.033.006.281.008.649.008h0c.775,0,2.131-.008,3.467-.008s2.694.008,3.467.008h0c.369,0,.616,0,.648-.006h.006c-.014-.057-.031-.114-.049-.169,0-.008-.006-.018-.008-.027h0c-.02-.059-.041-.118-.065-.175h0q-.035-.085-.077-.171h0c-.027-.057-.057-.112-.086-.167h0c-.031-.055-.063-.11-.1-.163h0c-.033-.053-.071-.106-.108-.159h0q-.056-.079-.118-.153h0c-.082-.1-.169-.2-.263-.292-.094,1.307-1.933-.306-3.191.151-1.258-.455-3.212,1.156-3.306-.151a3.344,3.344,0,0,0-.263.292h0q-.062.077-.118.153h0c-.037.053-.073.1-.108.159h0c-.033.053-.067.108-.1.163h0c-.031.055-.059.11-.086.167h0q-.041.085-.077.171h0c-.024.057-.045.116-.065.175s-.041.128-.059.2l0,0Z" transform="translate(-45.9 -427.482)"/><path class="ap" d="M267.6,429.3" transform="translate(-263.25 -426.306)"/><path class="ap" d="M258.9,433.2" transform="translate(-254.721 -430.129)"/></g><path class="aq" d="M113.906,249.6c.051.065-.051.367-.067.432-.065.273-.3.491-.418.744a1.9,1.9,0,0,0-.151.956,10.3,10.3,0,0,1,.559,2.586,2.961,2.961,0,0,0,.077-1.3,7.04,7.04,0,0,1,.159,1.607,3.136,3.136,0,0,0,.092-1.621,2.824,2.824,0,0,1,.418,1.3,4.379,4.379,0,0,0-.073-1.466,2.792,2.792,0,0,1,.42,1.285,4.925,4.925,0,0,0-.092-1.527,4.154,4.154,0,0,1,.4.942c-.008-.135.018-.277.01-.414a3.529,3.529,0,0,0-.128-.681.877.877,0,0,1,.02-.644,1.3,1.3,0,0,0,.1-.538S113.908,249.6,113.906,249.6Z" transform="translate(-111.94 -244.82)"/><path class="aq" d="M114.012,48.9c-.061-3.173-2.3-3.475-2.9-3.5H111.1c-.591.024-2.835.326-2.9,3.5,0,0,2.28,2.086,2.863.757l-.124,1.56.161,0h.008l.161,0,.608-1.88C112.464,50.665,114.012,48.9,114.012,48.9Z" transform="translate(-106.978 -44.627)"/><path class="aq" d="M114.012,48.9c-.061-3.173-2.3-3.475-2.9-3.5H111.1c-.591.024-2.835.326-2.9,3.5,0,0,2.28,2.086,2.863.757l.816-.32C112.464,50.665,114.012,48.9,114.012,48.9Z" transform="translate(-106.978 -44.627)"/><path class="aq" d="M203.305,7.024a.5.5,0,0,0,.045-.214c0-.447-.481-.81-1.075-.81s-1.075.363-1.075.808a.481.481,0,0,0,.047.218A2.548,2.548,0,0,1,203.305,7.024Z" transform="translate(-198.153 -6)"/><ellipse class="ar" cx="0.536" cy="0.74" rx="0.536" ry="0.74" transform="translate(6.129 3.482) rotate(12.263)"/><ellipse class="ar" cx="0.536" cy="0.74" rx="0.536" ry="0.74" transform="translate(2.431 4.928) rotate(167.737)"/><ellipse class="ar" cx="2.302" cy="2.686" rx="2.302" ry="2.686" transform="translate(1.827 1.538)"/><path class="aq" d="M158.9,67.028a2.449,2.449,0,0,0,1.268.734s.677.086.753.334a.731.731,0,0,0-.5-.534s.734-.02.877.487c0,0,.016-.61-.493-.734,0,0,.673.016.865.467a.857.857,0,0,0-.5-.649s.834.1.867.763a.809.809,0,0,0-.277-.783.815.815,0,0,1,.6.573,4.3,4.3,0,0,0,.39.844,1.4,1.4,0,0,1,0,.863,1.562,1.562,0,0,0,.143-.863s-.188-.489-.267-.767a4.443,4.443,0,0,1,.432.907,9.928,9.928,0,0,0-.23-1.64L160.6,66.2l-1.193.5Z" transform="translate(-156.683 -65.019)"/></g><g transform="translate(1174.061 551.931)"><g transform="translate(0 7.602)"><path class="as" d="M208.4,293.613h-.354a1.142,1.142,0,0,1-1.141-1.141v-2.231a1.142,1.142,0,0,1,1.141-1.141h.354a1.142,1.142,0,0,1,1.141,1.141v2.231A1.143,1.143,0,0,1,208.4,293.613Z" transform="translate(-202.817 -289.1)"/><path class="at" d="M65.6,382.312a5.263,5.263,0,0,0-4.083-3.412v.024a11.5,11.5,0,0,1-1.307,1.909,11.493,11.493,0,0,1-1.326-1.909V378.9a5.263,5.263,0,0,0-4.086,3.412Z" transform="translate(-54.8 -376.489)"/><g transform="translate(3.494 2.411)"><path class="au" d="M257.607,378.9s.046.183-1.307,1.93a4.839,4.839,0,0,1,1.753.523S258.59,379.362,257.607,378.9Z" transform="translate(-254.385 -378.9)"/><path class="au" d="M185.538,378.9s-.032.183,1.323,1.93a4.873,4.873,0,0,0-1.769.523S184.556,379.362,185.538,378.9Z" transform="translate(-184.946 -378.9)"/></g></g><path class="aq" d="M118.588,64.774c-.081-4.236-3.079-4.641-3.874-4.674H114.7c-.795.032-3.815.435-3.9,4.674,0,0,3.071,2.786,3.849,1.012l1.09-.427C116.518,67.136,118.588,64.774,118.588,64.774Z" transform="translate(-109.297 -58.645)"/><ellipse class="ar" cx="0.717" cy="0.991" rx="0.717" ry="0.991" transform="translate(8.079 5.073) rotate(12.263)"/><ellipse class="ar" cx="0.717" cy="0.991" rx="0.717" ry="0.991" transform="translate(3.142 7.009) rotate(167.737)"/><ellipse class="ar" cx="3.076" cy="3.589" rx="3.076" ry="3.589" transform="translate(2.333 2.478)"/><path class="aq" d="M172.577,9.258c.787.239,4.241,1.058,4.966-2.617,0,0-.336.636-.829.636,0,0,.73-.1.961-1.377,0,0-.365,1.122-1.291,1.044a4.1,4.1,0,0,1-1.192-.051s-2.333-.636-2.88.459a1.757,1.757,0,0,0,.032,1.7A.358.358,0,0,0,172.577,9.258Z" transform="translate(-168.972 -5.9)"/><path class="aq" d="M300.745,103.523a1.766,1.766,0,0,1,.666.867,3.669,3.669,0,0,0,.451,1.235,1.528,1.528,0,0,1,.2.921l.255-.054.1-.985-.389-1.868-.972-.738-.456.432Z" transform="translate(-294.002 -100.296)"/><path class="aq" d="M145.972,103.523a1.766,1.766,0,0,0-.666.867,3.668,3.668,0,0,1-.451,1.235,1.528,1.528,0,0,0-.2.921l-.255-.054-.1-.985.389-1.868.972-.738.456.432Z" transform="translate(-141.897 -100.296)"/><path class="aq" d="M152.957,272.6l-.244.005a1.275,1.275,0,0,1-1.055.588c-.193.019-.609-.333-.609-.333a48.578,48.578,0,0,0-2.04,0s-.416.352-.609.333a1.275,1.275,0,0,1-1.055-.588l-.244-.005a3.9,3.9,0,0,0,.685,1.8v-.169a1.933,1.933,0,0,0,.717,1.012,1.134,1.134,0,0,1-.26-.408,2.583,2.583,0,0,0,.988.832,1.3,1.3,0,0,1-.558-.569,2.712,2.712,0,0,0,1.356.875h0a2.712,2.712,0,0,0,1.356-.875,1.3,1.3,0,0,1-.558.569,2.583,2.583,0,0,0,.988-.832,1.134,1.134,0,0,1-.26.408,1.9,1.9,0,0,0,.717-1.012v.169A3.9,3.9,0,0,0,152.957,272.6Zm-2.875,1.689-.054-.005h0a.33.33,0,0,1-.054.005.8.8,0,0,1-.792-1.023.046.046,0,0,1,.062-.067,1.45,1.45,0,0,0,.768.258h.032a1.419,1.419,0,0,0,.768-.258.046.046,0,0,1,.062.067A.8.8,0,0,1,150.082,274.289Z" transform="translate(-144.622 -265.441)"/></g></g><g transform="translate(1784.128 276.773)"><path class="av" d="M812.895,936.645c-3.392-9.407-4.774-28.226-4.774-28.226s-19.609-.447-33.945-11.2-12.1-27.777-8.511-31.808,13.44,0,28.671,2.688c8.847,1.562,17.078,2.068,23.487,3.095V997.912a8.56,8.56,0,0,1-8.552,8.55H774.88a81.96,81.96,0,0,1,8.853-21.783c11.948-20.578,32.554-38.625,29.16-48.032l0,0Z" transform="translate(-616.591 -697.989)"/><path class="av" d="M138.485,808.027c-4.86,7.3-18.264,6.909-29.939-.867-.127-.084-.249-.169-.376-.255V773.13c5.463.2,11.6,3.36,17.976,7.606C137.821,788.51,143.345,800.732,138.485,808.027Z" transform="translate(-87.416 -624.791)"/><path class="av" d="M125.652,982.048c11.04,7.354,16.265,18.911,11.669,25.81s-17.272,6.531-28.312-.821c-.28-.186-.554-.372-.829-.56V974.84c5.282.015,11.259,3.072,17.472,7.208Z" transform="translate(-87.424 -787.799)"/><path class="av" d="M125.141,1176.875c10.405,6.93,15.328,17.823,11,24.325s-16.278,6.157-26.685-.773c-.434-.29-.86-.581-1.282-.873v-29.459c5.1-.186,10.917,2.75,16.969,6.781h0Z" transform="translate(-87.416 -945.583)"/><path class="b" d="M901.821,1127.009c-7.92-8.966-29.126-74.034-32.244-77.87-5.823-7.168-5.073-25.544-1.005-30.818,12.1-15.679,21.729-65.387,20.607-78.848-1.343-16.129-18.957-39.872-23.813-52.417s-12.922-26.432-18.3-30.912-18.817-4.031-34.047-6.719-25.089-6.719-28.673-2.688-5.823,21.056,8.513,31.808,33.945,11.2,33.945,11.2,1.38,18.817,4.774,28.224S814.369,945.425,802.42,966a79.458,79.458,0,0,0,1.193,82.784c4.877,7.423,52.906,70.88,57.3,78.223h40.912l0,0Z" transform="translate(-631.69 -682.897)"/><path class="aw" d="M871.678,1225.1s.038.136.109.4c.035.13.081.3.132.489.023.2.052.42.083.675a10.75,10.75,0,0,1-.708,4.434c-1.3,3.719-4.459,8.45-8.536,13.824-4.073,5.393-9.087,11.5-13.995,18.391a108.449,108.449,0,0,0-7.009,11.008q-.78,1.474-1.564,2.953a32.1,32.1,0,0,0-1.5,3.01q-.662,1.554-1.328,3.114l-.668,1.562c-.109.259-.228.518-.328.781l-.269.806-1.057,3.22a31.066,31.066,0,0,0-.971,3.239q-.394,1.643-.787,3.277l-.391,1.631c-.119.547-.18,1.1-.274,1.648q-.259,1.649-.514,3.283c-.075.547-.194,1.086-.23,1.633s-.086,1.092-.129,1.635q-.127,1.629-.251,3.24a13.241,13.241,0,0,0-.059,1.606q0,.8-.006,1.594-.006,1.589-.01,3.151c.067,1.038.136,2.067.2,3.083.083,1.015.109,2.026.236,3.014s.269,1.961.4,2.922c.211,1.934.648,3.772,1,5.564.313,1.8.867,3.482,1.282,5.125a79.3,79.3,0,0,0,3.031,8.726c.482,1.289,1.065,2.439,1.562,3.521q.38.809.723,1.552.386.722.737,1.376c.468.869.89,1.644,1.253,2.32.4.654.746,1.211,1.023,1.661.556.9.852,1.382.852,1.382l.188-.123s-.263-.5-.76-1.433c-.246-.464-.549-1.038-.908-1.713q-.486-1.036-1.117-2.371-.314-.665-.662-1.4-.305-.751-.643-1.573c-.437-1.1-.959-2.258-1.372-3.559-.917-2.563-1.794-5.5-2.634-8.728-.357-1.629-.852-3.3-1.1-5.077-.3-1.769-.668-3.584-.815-5.485-.1-.944-.2-1.9-.3-2.872s-.088-1.959-.14-2.955c-.031-1-.081-2-.13-3.012q.023-1.523.046-3.074.009-.774.021-1.554a12.956,12.956,0,0,1,.075-1.566q.138-1.565.282-3.154c.048-.528.094-1.057.142-1.59s.165-1.057.244-1.587q.268-1.589.535-3.189c.1-.533.163-1.072.286-1.6l.4-1.583q.4-1.586.8-3.179a29.79,29.79,0,0,1,.979-3.137l1.065-3.12c.3-1.065.8-2.024,1.2-3.039.416-1,.836-2,1.253-3a31.4,31.4,0,0,1,1.46-2.984q.774-1.485,1.543-2.963l.384-.737.192-.368.1-.184c.042-.079-.033.056-.015.025l.027-.044.052-.088.823-1.4c.549-.931,1.1-1.854,1.669-2.761,1.124-1.823,2.31-3.588,3.486-5.317,2.389-3.436,4.743-6.754,7.021-9.879s4.459-6.08,6.428-8.851a85.651,85.651,0,0,0,5.056-7.823,34.18,34.18,0,0,0,2.989-6.6,10.7,10.7,0,0,0,.466-4.672c-.052-.271-.1-.509-.136-.714-.065-.192-.119-.351-.165-.482-.09-.259-.134-.391-.134-.391l-.215.06Z" transform="translate(-671.897 -989.993)"/><path class="ax" d="M894.362,979.487s.18-.758.518-2.182.819-3.515,1.383-6.188,1.218-5.923,1.857-9.676,1.291-8,1.761-12.66c.226-2.331.424-4.768.439-7.3a22.472,22.472,0,0,0-.251-3.86q-.138-.967-.278-1.947c-.152-.649-.307-1.3-.461-1.959a78.242,78.242,0,0,0-6.144-15.724c-2.6-5.25-5.578-10.52-8.594-15.871-2.984-5.363-6.159-10.754-8.425-16.551A130.137,130.137,0,0,0,868.03,868.8a89.661,89.661,0,0,0-4.939-7.7,26.161,26.161,0,0,0-6.123-6.5,25.385,25.385,0,0,0-8.25-2.652c-2.782-.491-5.524-.808-8.187-1.111-5.33-.593-10.371-1.134-14.983-1.9-9.233-1.493-16.75-3.661-22.188-4.392a22.968,22.968,0,0,0-3.657-.23,8.594,8.594,0,0,0-2.684.48,4.951,4.951,0,0,0-1.477.856c-.288.263-.422.413-.422.413l.2.178s.136-.132.416-.363a4.634,4.634,0,0,1,1.42-.716,8.233,8.233,0,0,1,2.563-.3,26.144,26.144,0,0,1,3.542.4c2.652.47,5.84,1.328,9.519,2.306s7.863,2.1,12.508,2.939c4.641.9,9.714,1.575,15.014,2.308,2.646.37,5.351.758,8.024,1.3l1.986.451c.637.188,1.31.326,1.932.537a17.244,17.244,0,0,1,3.346,1.408l.886.648.113.082.054.04c.13.1-.111-.088-.071-.054l.173.165.349.332c.474.409.921.965,1.381,1.452.892,1.065,1.773,2.182,2.6,3.379,1.664,2.377,3.216,4.923,4.716,7.531a127.409,127.409,0,0,1,7.882,16.483l.217.543.223.53.485,1.132.487,1.13.526,1.086c.691,1.46,1.433,2.857,2.172,4.254,1.5,2.774,3.035,5.48,4.559,8.147,3.024,5.349,6.1,10.511,8.724,15.653.658,1.284,1.268,2.569,1.9,3.837q.872,1.92,1.725,3.8a58.363,58.363,0,0,1,2.69,7.469c.161.6.324,1.2.485,1.794.109.65.221,1.3.328,1.936l.159.959.04.24c.013.1,0-.069,0-.031l.006.056.008.111.034.451c.06.591.073,1.2.09,1.811.054,2.435-.075,4.845-.238,7.149-.368,4.614-.827,8.864-1.3,12.623s-.994,7.03-1.437,9.72-.815,4.8-1.059,6.245l-.4,2.21.263.063,0,0Z" transform="translate(-642.562 -682.306)"/><path class="b" d="M28.149,788.4c11.675,7.776,25.079,8.164,29.939.867s-.662-19.515-12.339-27.291-22.564-11.938-29.937-.867C8.771,771.68,16.476,780.627,28.149,788.4Z" transform="translate(-10.603 -609.618)"/><path class="b" d="M33.948,988.357c11.04,7.352,23.717,7.721,28.312.821s-.627-18.456-11.668-25.81-21.34-11.288-28.312-.821C15.622,972.543,22.908,981,33.948,988.357Z" transform="translate(-15.949 -772.702)"/><path class="b" d="M39.756,1181.719c10.407,6.928,22.351,7.276,26.685.771s-.593-17.393-11-24.323-20.114-10.641-26.685-.773C22.484,1166.812,29.349,1174.786,39.756,1181.719Z" transform="translate(-21.302 -930.459)"/><path class="a" d="M15.807,762c2.621-3.935,5.685-5.936,9.072-6.545a16.524,16.524,0,0,0-4.591,4.751c-7.04,10.57.666,19.515,12.339,27.293,7.682,5.115,16.1,7.011,22.349,5.647-6.186,3.954-17.1,2.627-26.829-3.857C16.473,781.52,8.767,772.573,15.807,762Z" transform="translate(-10.6 -610.511)"/><path class="a" d="M22.28,963.3c2.51-3.768,5.453-5.662,8.7-6.209a15.766,15.766,0,0,0-4.223,4.419c-6.656,9.994.627,18.454,11.668,25.808,7.2,4.8,15.092,6.6,20.988,5.372-5.831,3.82-16.215,2.584-25.469-3.58C22.908,981.757,15.622,973.3,22.28,963.3Z" transform="translate(-15.949 -773.455)"/><path class="a" d="M28.758,1158c2.4-3.611,5.23-5.4,8.354-5.879a14.863,14.863,0,0,0-3.874,4.087c-6.276,9.419.591,17.393,11,24.323,6.727,4.482,14.085,6.192,19.628,5.1-5.476,3.682-15.332,2.54-24.108-3.306-10.407-6.932-17.272-14.9-11-24.325Z" transform="translate(-21.302 -931.064)"/><path class="ay" d="M861.059,873.132l.393.244a7.3,7.3,0,0,1,1.032.758,5.163,5.163,0,0,1,1.149,1.487,2.748,2.748,0,0,1,.13,2.132,3.356,3.356,0,0,1-1.742,1.769,6.377,6.377,0,0,1-2.934.673,30.649,30.649,0,0,1-3.548-.173c-1.224-.113-2.469-.282-3.709-.489-1.245-.184-2.487-.4-3.7-.658s-2.412-.5-3.557-.785-2.253-.574-3.292-.879-2.007-.627-2.893-.948c-.875-.34-1.683-.656-2.366-.994a13.017,13.017,0,0,1-1.711-.982,6.68,6.68,0,0,1-.99-.813l-.311-.342s.075.144.213.414a5.472,5.472,0,0,0,.792,1.074,14.613,14.613,0,0,0,3.843,2.813,35.294,35.294,0,0,0,6.184,2.554c1.168.359,2.377.723,3.628,1s2.527.543,3.814.756c1.291.19,2.59.34,3.881.432a24.1,24.1,0,0,0,3.851-.017c.318-.023.639-.075.963-.123a6.285,6.285,0,0,0,.961-.238,8.3,8.3,0,0,0,1.733-.842,5.848,5.848,0,0,0,1.381-1.239,4.236,4.236,0,0,0,.746-1.629,3.617,3.617,0,0,0-.633-2.9,5.143,5.143,0,0,0-1.627-1.412,5.664,5.664,0,0,0-1.238-.507l-.445-.132v0Z" transform="translate(-673.182 -705.604)"/><path class="a" d="M792.609,899.04c9.524,5.676,26.4,15.979,38.644,9.856,0,0,.449,24.037,8.216,32.85s-10.9,23.366-29.933,44.08c11.487-15.963,24.841-29.492,22.059-37.207-3.394-9.407-4.774-28.224-4.774-28.224s-19.609-.449-33.945-11.2a26.76,26.76,0,0,1-10.789-26.234c1.688,5.424,4.9,12.73,10.522,16.081Z" transform="translate(-631.705 -713.548)"/><path class="ay" d="M117.5,835.567l.535-.838a11.925,11.925,0,0,0,.518-1.092,6.4,6.4,0,0,0,.228-.735,4.532,4.532,0,0,0,.188-.854,10.789,10.789,0,0,0-.215-4.436,16.432,16.432,0,0,0-2.37-5.282,21.954,21.954,0,0,0-4.666-5.036c-.5-.368-.961-.741-1.516-1.115-.524-.326-1-.679-1.581-.994a19.269,19.269,0,0,0-1.756-.913l-.906-.412-.94-.355a18.48,18.48,0,0,0-8.254-1.163,10.487,10.487,0,0,0-7.755,4.336l-.507.9c-.165.322-.309.746-.455,1.117a9.239,9.239,0,0,0-.455,2.268,12.154,12.154,0,0,0,.487,4.413,18.418,18.418,0,0,0,4.252,7.17,24,24,0,0,0,6.057,4.712,21.848,21.848,0,0,0,6.466,2.375,16.373,16.373,0,0,0,5.789.152,10.835,10.835,0,0,0,4.179-1.514,4.743,4.743,0,0,0,.714-.5,6.718,6.718,0,0,0,.589-.5,11.067,11.067,0,0,0,.806-.9l.57-.819s-.226.261-.652.748a10.934,10.934,0,0,1-.881.785,7.047,7.047,0,0,1-.618.414,4.433,4.433,0,0,1-.723.426,10.282,10.282,0,0,1-4.073,1.107,17.088,17.088,0,0,1-5.443-.537,22.383,22.383,0,0,1-5.931-2.527,24.016,24.016,0,0,1-5.526-4.618,17.3,17.3,0,0,1-3.7-6.522,10.176,10.176,0,0,1-.382-3.7,7.274,7.274,0,0,1,.365-1.771c.117-.267.173-.508.32-.8l.512-.9c-.073.117-.01.019-.021.04l.017-.023.035-.044.069-.088.138-.178.274-.359c.192-.23.43-.422.641-.639a7.377,7.377,0,0,1,1.5-1.03,10.246,10.246,0,0,1,3.563-1.073,17.326,17.326,0,0,1,7.444.9,22.615,22.615,0,0,1,3.352,1.435c.53.253,1.067.61,1.591.906.466.286.961.65,1.431.963a22.4,22.4,0,0,1,4.637,4.513,17.134,17.134,0,0,1,2.592,4.818,10.212,10.212,0,0,1,.547,4.187,4.476,4.476,0,0,1-.111.833c-.056.257-.071.512-.144.729a11.409,11.409,0,0,1-.386,1.115c-.286.581-.439.89-.439.89l0,0Z" transform="translate(-70.761 -656.411)"/><path class="ay" d="M118.215,1032.732s.177-.276.51-.792a11.07,11.07,0,0,0,.491-1.032,7.969,7.969,0,0,0,.4-1.5c.449-2.295-.161-5.848-2.431-9.212a20.686,20.686,0,0,0-4.413-4.779c-.476-.347-.909-.7-1.437-1.057-.5-.307-.944-.641-1.495-.94a21.986,21.986,0,0,0-3.413-1.6,17.5,17.5,0,0,0-7.826-1.105,9.965,9.965,0,0,0-7.375,4.125l-.478.854c-.155.307-.3.712-.434,1.067a8.691,8.691,0,0,0-.432,2.157,11.545,11.545,0,0,0,.462,4.194,17.423,17.423,0,0,0,4.037,6.8,22.606,22.606,0,0,0,5.741,4.457,20.545,20.545,0,0,0,6.128,2.243,15.4,15.4,0,0,0,5.484.132,10.215,10.215,0,0,0,3.954-1.441,8.021,8.021,0,0,0,1.23-.946,10.891,10.891,0,0,0,.762-.852c.349-.5.535-.777.535-.777l-.618.706a10.9,10.9,0,0,1-.837.739,6.424,6.424,0,0,1-.583.39,4.278,4.278,0,0,1-.685.4,9.656,9.656,0,0,1-3.851,1.036,16.2,16.2,0,0,1-5.138-.516,21.242,21.242,0,0,1-5.593-2.393,22.9,22.9,0,0,1-5.213-4.365,16.4,16.4,0,0,1-3.484-6.149,9.622,9.622,0,0,1-.359-3.482,6.8,6.8,0,0,1,.343-1.662c.107-.247.159-.474.3-.746l.485-.852c-.073.119-.012.021-.023.042l.015-.019.033-.042.065-.083.13-.167.257-.338c.18-.215.4-.4.6-.6a6.917,6.917,0,0,1,1.412-.967,9.583,9.583,0,0,1,3.352-1.009,16.339,16.339,0,0,1,7.019.844,21.82,21.82,0,0,1,3.164,1.351c.5.238,1.009.578,1.5.856.439.269.909.612,1.355.908a21.2,21.2,0,0,1,4.382,4.254,16.182,16.182,0,0,1,2.458,4.543,9.7,9.7,0,0,1,.526,3.953,4.145,4.145,0,0,1-.1.785,6.855,6.855,0,0,1-.134.689,11.019,11.019,0,0,1-.359,1.053l-.414.844,0,0Z" transform="translate(-72.61 -816.729)"/><path class="ay" d="M118.923,1223.33l.482-.742a9.494,9.494,0,0,0,.466-.973,7.507,7.507,0,0,0,.382-1.416,12.323,12.323,0,0,0-2.276-8.7,19.569,19.569,0,0,0-4.16-4.519c-.447-.328-.856-.662-1.357-1-.466-.294-.888-.606-1.408-.89a16.491,16.491,0,0,0-1.569-.819,15.684,15.684,0,0,0-1.654-.689,16.542,16.542,0,0,0-7.4-1.05,9.451,9.451,0,0,0-7,3.916l-.451.8c-.148.29-.282.677-.413,1.015a8.25,8.25,0,0,0-.411,2.047,10.933,10.933,0,0,0,.439,3.972,16.491,16.491,0,0,0,3.82,6.426,21.327,21.327,0,0,0,5.426,4.206,19.461,19.461,0,0,0,5.793,2.109,14.6,14.6,0,0,0,5.179.113,9.678,9.678,0,0,0,3.73-1.37,7.541,7.541,0,0,0,1.159-.9,10.446,10.446,0,0,0,.716-.806l.5-.735s-.2.232-.585.664c-.188.213-.482.42-.789.693a6.444,6.444,0,0,1-.553.365,3.814,3.814,0,0,1-.647.374,9.083,9.083,0,0,1-3.624.965,15.4,15.4,0,0,1-4.835-.5,20.025,20.025,0,0,1-5.255-2.26,21.553,21.553,0,0,1-4.9-4.112,15.427,15.427,0,0,1-3.271-5.777,9.01,9.01,0,0,1-.334-3.262,6.337,6.337,0,0,1,.32-1.55c.1-.23.146-.437.278-.7l.457-.8c-.073.121-.01.023-.023.044l.015-.017.031-.04.061-.077.121-.155.24-.315c.167-.2.376-.37.56-.56a6.378,6.378,0,0,1,1.32-.9,8.993,8.993,0,0,1,3.139-.946,15.37,15.37,0,0,1,6.591.789,20.3,20.3,0,0,1,2.974,1.264c.47.224.95.543,1.418.8.411.251.854.574,1.272.852a19.97,19.97,0,0,1,4.131,3.995,15.311,15.311,0,0,1,2.322,4.267,9.148,9.148,0,0,1,.507,3.72,4.02,4.02,0,0,1-.1.739c-.046.228-.061.457-.123.648a9.866,9.866,0,0,1-.336.994c-.251.52-.388.8-.388.8v0Z" transform="translate(-74.452 -971.742)"/><path class="ax" d="M69.19,788.791s.127-.228.368-.656l.437-.792c.123-.338.267-.727.426-1.163a11.83,11.83,0,0,0,.539-3.277,16.8,16.8,0,0,0-.086-2.043c-.115-.71-.226-1.462-.426-2.226a19.555,19.555,0,0,0-.766-2.341c-.163-.391-.305-.8-.491-1.2s-.4-.791-.6-1.2c-.386-.819-.923-1.583-1.4-2.4-.566-.76-1.074-1.593-1.719-2.339-.313-.38-.627-.766-.946-1.151s-.685-.737-1.028-1.109c-.675-.758-1.449-1.435-2.2-2.145s-1.593-1.333-2.4-1.994c-.86-.6-1.688-1.247-2.577-1.809-1.752-1.142-3.544-2.249-5.361-3.231-.9-.512-1.834-.936-2.736-1.4-.936-.388-1.832-.842-2.772-1.147a22.923,22.923,0,0,0-5.51-1.366c-.453-.027-.9-.056-1.339-.083a10.047,10.047,0,0,0-1.3.046,13.082,13.082,0,0,0-2.435.391,9.238,9.238,0,0,0-1.1.382,7.546,7.546,0,0,0-1.025.424c-.313.178-.62.351-.917.522a4.673,4.673,0,0,0-.835.537c-.5.4-.99.756-1.4,1.13l-1.055,1.1a6.553,6.553,0,0,0-.783.946l-.543.727-.451.606.15.1s.178-.192.516-.551c.351-.343.79-.911,1.468-1.5L30,757.6c.424-.324.925-.618,1.426-.959a4.177,4.177,0,0,1,.829-.434l.892-.409a8.608,8.608,0,0,1,.973-.317,8.262,8.262,0,0,1,1.023-.284A11.791,11.791,0,0,1,37.388,755a10.209,10.209,0,0,1,1.184.023l1.224.136a23.832,23.832,0,0,1,5.106,1.495c.879.311,1.733.781,2.615,1.172.86.474,1.746.9,2.617,1.406,1.767.984,3.448,2.045,5.213,3.225.861.537,1.658,1.142,2.487,1.708.783.624,1.583,1.222,2.322,1.88a39.332,39.332,0,0,1,4.093,4.1c.645.691,1.128,1.475,1.711,2.17.482.756,1.034,1.46,1.433,2.218l.622,1.105c.2.368.34.748.522,1.109a18.331,18.331,0,0,1,.867,2.16c.236.706.374,1.406.545,2.066a15.951,15.951,0,0,1,.249,1.915,11.276,11.276,0,0,1-.234,3.141c-.115.416-.211.8-.29,1.14-.136.33-.251.612-.347.84-.19.455-.294.7-.294.7l.157.086v0Z" transform="translate(-21.626 -609.095)"/><path class="ax" d="M72.743,988.772s.121-.215.347-.622c.111-.2.251-.453.414-.746.117-.32.251-.689.4-1.1a11.191,11.191,0,0,0,.51-3.1,16.089,16.089,0,0,0-.081-1.932c-.107-.672-.215-1.383-.4-2.107a18.233,18.233,0,0,0-.725-2.212c-.153-.372-.288-.76-.464-1.136s-.374-.75-.564-1.132c-.365-.775-.873-1.5-1.324-2.274-.535-.719-1.013-1.506-1.625-2.212-.3-.361-.595-.723-.894-1.09s-.647-.695-.973-1.048c-.639-.718-1.368-1.358-2.084-2.028s-1.506-1.263-2.272-1.886c-.812-.566-1.6-1.18-2.439-1.713-1.654-1.078-3.352-2.124-5.071-3.053-.848-.485-1.733-.886-2.586-1.32-.886-.367-1.734-.8-2.623-1.086a21.677,21.677,0,0,0-5.213-1.293,13.75,13.75,0,0,0-4.8.338,8.576,8.576,0,0,0-1.038.361,6.973,6.973,0,0,0-.969.4,15.039,15.039,0,0,0-1.658,1c-.474.384-.938.716-1.326,1.071l-1,1.042a6.635,6.635,0,0,0-.741.894q-.3.409-.512.689c-.28.374-.428.574-.428.574l.15.1.491-.518c.334-.322.754-.858,1.4-1.414.319-.276.67-.585,1.053-.917.4-.305.877-.579,1.353-.9a14.2,14.2,0,0,1,1.625-.787,8.685,8.685,0,0,1,.917-.3,8.054,8.054,0,0,1,.963-.261,11.074,11.074,0,0,1,2.109-.186,10.881,10.881,0,0,1,1.115.023q.57.066,1.153.13a22.66,22.66,0,0,1,4.806,1.422c.827.294,1.635.739,2.466,1.109.81.449,1.646.856,2.467,1.33,1.669.931,3.252,1.932,4.923,3.049.814.507,1.564,1.078,2.348,1.61.739.589,1.495,1.155,2.191,1.773A37.3,37.3,0,0,1,68,971.185c.608.65,1.067,1.389,1.619,2.045.457.71.979,1.374,1.357,2.086.2.353.4.7.587,1.044s.324.7.5,1.044a17.438,17.438,0,0,1,.825,2.032c.226.666.359,1.324.522,1.946a15.375,15.375,0,0,1,.246,1.8,10.73,10.73,0,0,1-.2,2.966c-.106.393-.2.754-.267,1.078-.129.315-.238.579-.324.8-.177.432-.272.662-.272.662l.155.086v0Z" transform="translate(-26.354 -772.254)"/><path class="ax" d="M76.3,1182.09s.115-.2.328-.585l.389-.706c.111-.3.24-.649.382-1.038a10.5,10.5,0,0,0,.48-2.924,15.42,15.42,0,0,0-.073-1.823c-.1-.633-.2-1.3-.38-1.986a17.141,17.141,0,0,0-.683-2.086c-.144-.351-.272-.718-.437-1.073s-.353-.706-.535-1.067c-.343-.731-.823-1.41-1.247-2.143-.5-.679-.956-1.42-1.531-2.088-.28-.34-.56-.681-.844-1.026s-.61-.654-.915-.986c-.6-.677-1.291-1.282-1.965-1.913s-1.42-1.192-2.143-1.781c-.764-.533-1.506-1.111-2.3-1.614-1.562-1.019-3.162-2.005-4.781-2.878-.8-.457-1.635-.837-2.441-1.245-.835-.343-1.633-.75-2.471-1.023a20.457,20.457,0,0,0-4.916-1.214,12.868,12.868,0,0,0-4.528.318,8.437,8.437,0,0,0-.979.34,6.722,6.722,0,0,0-.915.38,14.292,14.292,0,0,0-1.562.944c-.445.363-.883.675-1.249,1.009-.343.359-.656.689-.94.984a5.9,5.9,0,0,0-.7.842l-.485.651-.4.541.15.1s.161-.171.466-.485.718-.8,1.326-1.326l1-.859c.38-.284.827-.539,1.274-.837a13.662,13.662,0,0,1,1.531-.729,17.351,17.351,0,0,1,1.767-.514,10.194,10.194,0,0,1,1.978-.165,9.6,9.6,0,0,1,1.046.025c.355.042.716.083,1.08.129a21.476,21.476,0,0,1,4.511,1.345c.777.278,1.533.7,2.316,1.049.76.422,1.545.806,2.318,1.253,1.571.875,3.058,1.817,4.634,2.87.764.478,1.47,1.013,2.208,1.514.695.552,1.406,1.082,2.061,1.665a35.282,35.282,0,0,1,3.638,3.626c.574.61,1,1.3,1.525,1.919.43.666.925,1.289,1.28,1.957.19.328.374.656.558.977s.3.66.468.979a15.934,15.934,0,0,1,.783,1.907c.215.624.342,1.243.5,1.827a14.69,14.69,0,0,1,.24,1.692,10,10,0,0,1-.177,2.788c-.1.37-.18.71-.244,1.017-.119.3-.219.549-.3.754l-.253.626.155.086Z" transform="translate(-31.081 -930.014)"/></g></g></svg>