<svg xmlns="http://www.w3.org/2000/svg" viewBox="0 0 100 100"><defs><style>.a,.d{fill:none;}.a{stroke:#292929;stroke-width:3px;}.b{fill:#292929;}.c{stroke:none;}</style></defs><g transform="translate(-1322 -6533.5)"><g class="a" transform="translate(1322 6533.5)"><rect class="c" width="100" height="100" rx="25"/><rect class="d" x="1.5" y="1.5" width="97" height="97" rx="23.5"/></g><g transform="translate(1344 6558.94)"><circle class="b" cx="6.348" cy="6.348" r="6.348" transform="translate(12.203 38.581)"/><path class="b" d="M271.643,324.207h0a6.41,6.41,0,1,0,5.751,5.751A6.409,6.409,0,0,0,271.643,324.207Z" transform="translate(-232.754 -285.688)"/><path class="b" d="M51.954,18.789a1.664,1.664,0,0,0-1.417-.74H43.511v-.123a13.5,13.5,0,1,0-26.994,0v.125H11.278L9.491,9.914A1.849,1.849,0,0,0,7.7,8.5H0v3.7H6.225L11.956,38.51a1.787,1.787,0,0,0,1.787,1.479H45.976a1.849,1.849,0,0,0,1.787-1.417L52.324,20.33A1.726,1.726,0,0,0,51.954,18.789Zm-21.94,8.936a9.8,9.8,0,1,1,9.8-9.8A9.8,9.8,0,0,1,30.014,27.725Z" transform="translate(0 -4.428)"/><path class="b" d="M192.92,73.513l-3.39-3.451-2.65,2.588,4.684,4.746a1.849,1.849,0,0,0,1.294.555,1.725,1.725,0,0,0,1.294-.493l7.765-7.334-2.527-2.712Z" transform="translate(-164.385 -59.831)"/></g></g></svg>