<svg xmlns="http://www.w3.org/2000/svg" viewBox="0 0 100 100"><defs><style>.a,.d{fill:none;}.a{stroke:#292929;stroke-width:3px;}.b{fill:#292929;}.c{stroke:none;}</style></defs><g transform="translate(-910 -6749.5)"><g class="a" transform="translate(910 6749.5)"><rect class="c" width="100" height="100" rx="25"/><rect class="d" x="1.5" y="1.5" width="97" height="97" rx="23.5"/></g><path class="b" d="M174.5,62.4a11.4,11.4,0,1,0,11.4,11.4,11.413,11.413,0,0,0-11.4-11.4Z" transform="translate(781.503 6717.541)"/><path class="b" d="M157.623,93.9a.977.977,0,0,1-1.023-.877v-2.63c0-5.407,2.923-9.791,8.33-9.791h25.135c5.407,0,8.329,4.384,8.329,9.791v2.484a.842.842,0,0,1-.877.877H157.623Z" transform="translate(778.505 6725.937)"/><path class="b" d="M-1.372-12.359v-8.01q0-1.663,1.889-1.663,1.927,0,1.927,1.663v8.01h7.784q1.663,0,1.663,1.889,0,1.851-1.663,1.851H2.444V-.571q0,1.663-1.927,1.663-1.889,0-1.889-1.663V-8.619H-9.155q-1.663,0-1.663-1.851,0-1.889,1.663-1.889Z" transform="translate(981.299 6809.409)"/></g></svg>