<svg xmlns="http://www.w3.org/2000/svg" viewBox="0 0 100 100"><defs><style>.a,.d{fill:none;}.a{stroke:#292929;stroke-width:3px;}.b{fill:#292929;fill-rule:evenodd;}.c{stroke:none;}</style></defs><g transform="translate(-497 -6963.5)"><g class="a" transform="translate(497 6963.5)"><rect class="c" width="100" height="100" rx="25"/><rect class="d" x="1.5" y="1.5" width="97" height="97" rx="23.5"/></g><path class="b" d="M26.608,53.215A26.608,26.608,0,1,1,53.215,26.608,26.638,26.638,0,0,1,26.608,53.215Zm16.051-22.3c.494,1.951-4.907,1.332-6.226,3.158s-4.544.6-5.292.248-3.612.819-3.362-1.17,1.991-2.105,3.859-2.924,4.561-3.537,3.238-3.892a13.013,13.013,0,0,1-8.358-7.526c-.374-.07-.28-4.139-1.9-4.255s-2.491.468-4.856,0S17.9,12.57,17.524,9.295s1-2.222,1.737-3.274a1.972,1.972,0,0,1,.232-.257A22.064,22.064,0,0,0,4.578,26.608c0,.016,0,.031,0,.046,1.611.1,4.543.444,4.681,1.549.19,1.526,0,3.432,1.335,4.005s1.717-2.289,2.86-1.526,4.2,1.5,4.2,2.846-.572,3.447,0,3.828a15.169,15.169,0,0,1,2.86,3.433c0,.381.807,2.321.566,3.062A10.464,10.464,0,0,1,18.9,47.244,22.018,22.018,0,0,0,46.23,16.612c.147,2.241.048,4.282.539,4.951,2.147,2.923-5.23,4.934-4.109,9.355Z" transform="translate(521.025 6987.06)"/></g></svg>