<svg xmlns="http://www.w3.org/2000/svg" viewBox="0 0 100 100"><defs><style>.a,.d{fill:none;}.a{stroke:#292929;stroke-width:3px;}.b{fill:#292929;}.c{stroke:none;}</style></defs><g transform="translate(-1322 -6749.5)"><g class="a" transform="translate(1322 6749.5)"><rect class="c" width="100" height="100" rx="25"/><rect class="d" x="1.5" y="1.5" width="97" height="97" rx="23.5"/></g><path class="b" d="M48.277,22.556a24.161,24.161,0,0,0-22.5-22.5V0H22.556V.055a24.164,24.164,0,0,0-22.5,22.5H0v3.222H.055a24.161,24.161,0,0,0,22.5,22.5v.058h3.222v-.058a24.158,24.158,0,0,0,22.5-22.5h.058V22.556ZM15.129,5.268a25.619,25.619,0,0,0-3.789,7.621H6.512A21.055,21.055,0,0,1,15.129,5.268ZM4.827,16.112h5.665A38.268,38.268,0,0,0,9.7,22.556H3.284A20.764,20.764,0,0,1,4.827,16.112ZM3.284,25.778H9.7a38.268,38.268,0,0,0,.793,6.445H4.827A20.764,20.764,0,0,1,3.284,25.778Zm3.229,9.667h4.824a25.547,25.547,0,0,0,3.793,7.621A21.032,21.032,0,0,1,6.512,35.445Zm16.044,9.461c-3.313-.886-6.164-4.444-7.895-9.461h7.895Zm0-12.683h-8.8a36.014,36.014,0,0,1-.835-6.445h9.635Zm0-9.667H12.921a36.014,36.014,0,0,1,.835-6.445h8.8Zm0-9.667H14.661c1.73-5.017,4.582-8.575,7.895-9.457Zm19.266,0H37a25.551,25.551,0,0,0-3.8-7.621A21.076,21.076,0,0,1,41.822,12.889ZM25.778,3.432c3.309.883,6.164,4.44,7.895,9.457H25.778Zm0,12.68h8.8a36.3,36.3,0,0,1,.838,6.445H25.778Zm0,9.667h9.635a35.718,35.718,0,0,1-.838,6.445h-8.8Zm0,19.128V35.445h7.895C31.943,40.463,29.088,44.02,25.778,44.906Zm7.427-1.84A25.743,25.743,0,0,0,37,35.445h4.821A21.053,21.053,0,0,1,33.206,43.066Zm10.3-10.843H37.843a38.268,38.268,0,0,0,.793-6.445h6.412A20.67,20.67,0,0,1,43.508,32.223Zm-4.872-9.667a38.268,38.268,0,0,0-.793-6.445h5.665a20.764,20.764,0,0,1,1.543,6.445Z" transform="translate(1348 6774.914)"/></g></svg>