<svg xmlns="http://www.w3.org/2000/svg" viewBox="0 0 100 100"><defs><style>.a,.d{fill:none;}.a{stroke:#292929;stroke-width:3px;}.b{fill:#292929;}.c{stroke:none;}</style></defs><g transform="translate(-497 -6535.5)"><g class="a" transform="translate(497 6535.5)"><rect class="c" width="100" height="100" rx="25"/><rect class="d" x="1.5" y="1.5" width="97" height="97" rx="23.5"/></g><path class="b" d="M49.46,9.968l-6.122,6.122H36.247l-1.119,1.119-4.256,4.256-2.652,2.652-2.242,2.242a1.717,1.717,0,0,1-2.466-.038,1.765,1.765,0,0,1,.088-2.442l4.461-4.461.342-.342h0L32.677,14.8h0l1.14-1.14V6.568l2.117-2.117h0l4-4A1.6,1.6,0,0,1,40.1.3l.041-.03A1.541,1.541,0,0,1,40.32.166l.015-.007a1.506,1.506,0,0,1,.172-.073L40.55.07a1.472,1.472,0,0,1,.187-.048l.026,0A1.507,1.507,0,0,1,40.932,0l.044,0a1.549,1.549,0,0,1,.189.007l.031,0a1.52,1.52,0,0,1,.161.029L41.4.049a1.583,1.583,0,0,1,.178.058l.025.011a1.551,1.551,0,0,1,.149.072L41.8.213a1.591,1.591,0,0,1,.157.1l.017.014A1.541,1.541,0,0,1,42.1.445l.034.034a1.514,1.514,0,0,1,.124.146l.009.014a1.485,1.485,0,0,1,.095.153l.023.044a1.465,1.465,0,0,1,.079.184l0,.009a1.5,1.5,0,0,1,.049.192c0,.017.006.035.009.053a1.632,1.632,0,0,1,.021.217l.123,5.749.123,0,5.626.12a1.557,1.557,0,0,1,1.029.425,1.538,1.538,0,0,1,.261.339,1.579,1.579,0,0,1,.159.4A1.5,1.5,0,0,1,49.46,9.968Zm-25,2.061a13.613,13.613,0,1,0,12.551,8.378L32.1,25.32c0,.1.011.2.011.306a7.648,7.648,0,1,1-7.692-7.647l5.01-5.01A13.51,13.51,0,0,0,24.461,12.028Zm21.419,6.6a3.593,3.593,0,0,1-2.541,1.052H40.589A17.21,17.21,0,1,1,30.224,9.434V6.568a3.594,3.594,0,0,1,1.052-2.541L32.413,2.89A24.092,24.092,0,1,0,47.1,17.409Z" transform="translate(523.626 6561.803)"/></g></svg>