<svg xmlns="http://www.w3.org/2000/svg" viewBox="0 0 100 100"><defs><style>.a,.d{fill:none;}.a{stroke:#292929;stroke-width:3px;}.b{fill:#292929;fill-rule:evenodd;}.c{stroke:none;}</style></defs><g transform="translate(-497 -6749.5)"><g class="a" transform="translate(497 6749.5)"><rect class="c" width="100" height="100" rx="25"/><rect class="d" x="1.5" y="1.5" width="97" height="97" rx="23.5"/></g><path class="b" d="M33,41.393c-3.1,4.308-8.784,6.442-15.31,6.442C7.906,47.835,0,43.066,0,33.278A17.45,17.45,0,0,1,5.4,20.52a11.483,11.483,0,0,0,3.6-8.366v-.042a8.71,8.71,0,0,1,9.035-8.659,8.84,8.84,0,0,1,8.408,8.868A11.179,11.179,0,0,0,28.151,18.3,12.129,12.129,0,0,0,33,41.393Z" transform="translate(531 6780.225)"/><path class="b" d="M4.13,10.81A10.812,10.812,0,0,0,14.94,0,10.66,10.66,0,0,0,7.3,3.169,10.782,10.782,0,0,0,4.13,10.81Z" transform="translate(545.146 6770.28)"/></g></svg>