<svg xmlns="http://www.w3.org/2000/svg" viewBox="0 0 100 100"><defs><style>.a,.d{fill:none;}.a{stroke:#292929;stroke-width:3px;}.b{fill:#292929;}.c{stroke:none;}</style></defs><g transform="translate(-910 -6963.5)"><g class="a" transform="translate(910 6963.5)"><rect class="c" width="100" height="100" rx="25"/><rect class="d" x="1.5" y="1.5" width="97" height="97" rx="23.5"/></g><path class="b" d="M980.949-16919.289a12.968,12.968,0,0,1-12.958-12.949v-21.031a12.967,12.967,0,0,1,12.958-12.945h21.028a12.96,12.96,0,0,1,12.951,12.945v21.031a12.961,12.961,0,0,1-12.951,12.949Zm-1.583-23.461a12.109,12.109,0,0,0,12.093,12.094,12.11,12.11,0,0,0,12.1-12.094,12.114,12.114,0,0,0-12.1-12.1A12.113,12.113,0,0,0,979.367-16942.75Zm22.541-14.734a3.068,3.068,0,0,0-.9,2.156,3.087,3.087,0,0,0,.9,2.164,3.087,3.087,0,0,0,2.152.9,3.124,3.124,0,0,0,2.168-.9,3.079,3.079,0,0,0,.889-2.164,3.061,3.061,0,0,0-.889-2.156,3.105,3.105,0,0,0-2.168-.891A3.082,3.082,0,0,0,1001.908-16957.484Z" transform="translate(-31 23956.168)"/></g></svg>