<?xml version="1.0" encoding="UTF-8"?>
<!DOCTYPE svg PUBLIC "-//W3C//DTD SVG 1.1//EN" "http://www.w3.org/Graphics/SVG/1.1/DTD/svg11.dtd">
<!-- Creator: CorelDRAW 2018 (64-Bit) -->
<svg xmlns="http://www.w3.org/2000/svg" xml:space="preserve" width="327px" height="362px" version="1.1" style="shape-rendering:geometricPrecision; text-rendering:geometricPrecision; image-rendering:optimizeQuality; fill-rule:evenodd; clip-rule:evenodd"
viewBox="0 0 116.23 128.75"
 xmlns:xlink="http://www.w3.org/1999/xlink">
 <defs>
  <style type="text/css">
   <![CDATA[
    .fil0 {fill:none}
    .fil1 {fill:#F5C0BA}
   ]]>
  </style>
 </defs>
 <g id="Слой_x0020_1">
  <metadata id="CorelCorpID_0Corel-Layer"/>
  <g id="_2517636850160">
   <rect class="fil0" width="116.23" height="128.75"/>
   <path class="fil1" d="M63.42 92.95c-6.53,0 -11.84,5.31 -11.84,11.84 0,1.96 0.49,3.9 1.43,5.62l9.76 17.67c0.13,0.23 0.38,0.38 0.65,0.38 0.27,0 0.52,-0.15 0.65,-0.38l9.77 -17.67c0.92,-1.72 1.41,-3.66 1.41,-5.62 0,-6.53 -5.31,-11.84 -11.83,-11.84zm0 17.75c-3.26,0 -5.92,-2.65 -5.92,-5.91 0,-3.26 2.66,-5.92 5.92,-5.92 3.26,0 5.92,2.66 5.92,5.92 0,3.26 -2.66,5.91 -5.92,5.91z"/>
  </g>
 </g>
</svg>
