<svg id="icon_inst" xmlns="http://www.w3.org/2000/svg" xmlns:xlink="http://www.w3.org/1999/xlink" viewBox="0 0 40 40">
  <defs>
    <style>
      .cls-1 {
        fill-rule: evenodd;
        fill: url(#linear-gradient);
      }
    </style>
    <linearGradient id="linear-gradient" x1="0.147" y1="0.185" x2="0.868" y2="0.85" gradientUnits="objectBoundingBox">
      <stop offset="0" stop-color="#fcec94"/>
      <stop offset="0.169" stop-color="#f0c46c"/>
      <stop offset="0.502" stop-color="#fffabd"/>
      <stop offset="0.82" stop-color="#f0c46c"/>
      <stop offset="1" stop-color="#fce79a"/>
    </linearGradient>
  </defs>
  <path id="Path_39" data-name="Path 39" class="cls-1" d="M20,40A19.983,19.983,0,0,1,5.861,5.861,20,20,0,0,1,40,20,20.01,20.01,0,0,1,20,40ZM15.26,9.789a5.665,5.665,0,0,0-5.67,5.661v9.19A5.67,5.67,0,0,0,15.26,30.3h9.19a5.668,5.668,0,0,0,5.661-5.661V15.45A5.663,5.663,0,0,0,24.45,9.789ZM19.85,25.33a5.289,5.289,0,1,1,5.289-5.289A5.295,5.295,0,0,1,19.85,25.33Zm5.507-9.444a1.364,1.364,0,0,1-1.334-1.343,1.348,1.348,0,0,1,1.334-1.334,1.385,1.385,0,0,1,.953.39,1.363,1.363,0,0,1,.39.944,1.347,1.347,0,0,1-1.343,1.343Z"/>
</svg>
