<svg id="icon_ytb" xmlns="http://www.w3.org/2000/svg" xmlns:xlink="http://www.w3.org/1999/xlink" viewBox="0 0 40 40">
  <defs>
    <style>
      .cls-1 {
        fill-rule: evenodd;
        fill: url(#linear-gradient);
      }
    </style>
    <linearGradient id="linear-gradient" x1="0.147" y1="0.185" x2="0.868" y2="0.85" gradientUnits="objectBoundingBox">
      <stop offset="0" stop-color="#fcec94"/>
      <stop offset="0.169" stop-color="#f0c46c"/>
      <stop offset="0.502" stop-color="#fffabd"/>
      <stop offset="0.82" stop-color="#f0c46c"/>
      <stop offset="1" stop-color="#fce79a"/>
    </linearGradient>
  </defs>
  <path id="Path_43" data-name="Path 43" class="cls-1" d="M20,40A19.993,19.993,0,0,1,5.858,5.858,20,20,0,1,1,27.784,38.429,19.871,19.871,0,0,1,20,40Zm.539-27.156c-2.39,0-5.636.03-6.915.116-1.218.07-1.815.257-2.366,1.227-.594,1.023-.857,2.758-.857,5.623v.007c0,2.832.273,4.616.857,5.614.548.966,1.146,1.156,2.364,1.238,1.264.074,4.437.113,6.917.113s5.637-.039,6.913-.111c1.221-.083,1.819-.273,2.361-1.237.595-1.007.86-2.738.86-5.613v-.006c0-2.876-.265-4.611-.86-5.629-.548-.972-1.144-1.157-2.363-1.226-1.274-.086-4.518-.117-6.911-.117ZM18,23.615h0v-7.6l6.336,3.8L18,23.613Z"/>
</svg>
