<svg id="icon_vk" xmlns="http://www.w3.org/2000/svg" xmlns:xlink="http://www.w3.org/1999/xlink" viewBox="0 0 40 40">
  <defs>
    <style>
      .cls-1 {
        fill-rule: evenodd;
        fill: url(#linear-gradient);
      }
    </style>
    <linearGradient id="linear-gradient" x1="0.148" y1="0.185" x2="0.868" y2="0.85" gradientUnits="objectBoundingBox">
      <stop offset="0" stop-color="#fcec94"/>
      <stop offset="0.169" stop-color="#f0c46c"/>
      <stop offset="0.502" stop-color="#fffabd"/>
      <stop offset="0.82" stop-color="#f0c46c"/>
      <stop offset="1" stop-color="#fce79a"/>
    </linearGradient>
  </defs>
  <path id="Path_42" data-name="Path 42" class="cls-1" d="M20,40A20,20,0,0,1,12.217,1.572,20,20,0,0,1,34.142,34.142,19.948,19.948,0,0,1,20,40Zm2.313-16.737a.9.9,0,0,1,.513.206,3.912,3.912,0,0,1,.719.68c.223.268.485.563.8.908a5.188,5.188,0,0,0,.825.752l.234.145a2.818,2.818,0,0,0,.613.256,1.462,1.462,0,0,0,.463.078,1.105,1.105,0,0,0,.2-.017l3.01-.05a1.425,1.425,0,0,0,.7-.145.562.562,0,0,0,.29-.323.878.878,0,0,0,.006-.4,1.645,1.645,0,0,0-.078-.312c-.028-.056-.056-.106-.078-.145a11.779,11.779,0,0,0-2.246-2.6l-.022-.022-.011-.017-.017-.011h-.011a11.933,11.933,0,0,1-.947-.964.9.9,0,0,1-.167-.953,8.931,8.931,0,0,1,1.059-1.538c.29-.373.557-.719.764-1,1.349-1.795,1.945-2.959,1.761-3.455l-.067-.117a.7.7,0,0,0-.368-.2,1.464,1.464,0,0,0-.407-.056A2.613,2.613,0,0,0,29.5,14l-3.383.022a.231.231,0,0,0-.089-.017.767.767,0,0,0-.145.022c-.089.022-.139.028-.15.033l-.061.028-.05.039a.5.5,0,0,0-.128.123.908.908,0,0,0-.117.206,19.3,19.3,0,0,1-1.26,2.642c-.29.49-.557.914-.8,1.265a5.923,5.923,0,0,1-.613.791,4.433,4.433,0,0,1-.446.4.52.52,0,0,1-.273.134h-.033c-.061-.017-.134-.033-.2-.05a.779.779,0,0,1-.262-.29,1.264,1.264,0,0,1-.134-.457,4.17,4.17,0,0,1-.045-.474c-.006-.134,0-.323.006-.568.011-.229.011-.4.011-.49,0-.3.006-.624.017-.97l.011-.217V16.1c.011-.212.017-.39.022-.535.006-.206.011-.424.011-.647a2.7,2.7,0,0,0-.045-.535,1.626,1.626,0,0,0-.123-.373.6.6,0,0,0-.24-.284,1.393,1.393,0,0,0-.39-.162,8.122,8.122,0,0,0-1.588-.15H18.7a6.932,6.932,0,0,0-2.508.284,1.551,1.551,0,0,0-.446.351c-.095.117-.134.2-.117.245a.075.075,0,0,0,.061.039,1.441,1.441,0,0,1,1,.5l.072.145a1.98,1.98,0,0,1,.162.541,5.472,5.472,0,0,1,.106.858,9.126,9.126,0,0,1,0,1.466c-.039.424-.078.73-.111.953a1.88,1.88,0,0,1-.156.552,1.825,1.825,0,0,1-.145.262.131.131,0,0,1-.056.056.918.918,0,0,1-.318.061.736.736,0,0,1-.4-.167,2.725,2.725,0,0,1-.485-.451,6.258,6.258,0,0,1-.574-.8c-.212-.346-.429-.758-.658-1.226l-.189-.34c-.117-.223-.279-.546-.479-.959s-.39-.836-.541-1.215a.764.764,0,0,0-.284-.379l-.056-.033a.642.642,0,0,0-.189-.1,1.353,1.353,0,0,0-.268-.078l-3.227.022a.818.818,0,0,0-.669.229l-.045.067a.4.4,0,0,0-.039.189,1.045,1.045,0,0,0,.072.318c.468,1.092.981,2.168,1.533,3.2s1.037,1.856,1.443,2.48.825,1.221,1.243,1.772.708.914.842,1.07.245.273.323.357l.3.279a6.6,6.6,0,0,0,.83.674,13.013,13.013,0,0,0,1.209.78,6.514,6.514,0,0,0,1.544.619,5.5,5.5,0,0,0,1.444.206c.095,0,.184-.006.273-.011h1.354a.949.949,0,0,0,.624-.256l.045-.061a.687.687,0,0,0,.089-.217,1.168,1.168,0,0,0,.039-.323,4.214,4.214,0,0,1,.078-.908,2.453,2.453,0,0,1,.2-.613,1.672,1.672,0,0,1,.251-.346,1.184,1.184,0,0,1,.2-.173c.033-.017.067-.028.095-.039a.469.469,0,0,1,.15-.022Z" transform="translate(0)"/>
</svg>
