<svg id="icon_twt" xmlns="http://www.w3.org/2000/svg" xmlns:xlink="http://www.w3.org/1999/xlink" viewBox="0 0 40 40">
  <defs>
    <style>
      .cls-1 {
        fill-rule: evenodd;
        fill: url(#linear-gradient);
      }
    </style>
    <linearGradient id="linear-gradient" x1="0.148" y1="0.185" x2="0.868" y2="0.85" gradientUnits="objectBoundingBox">
      <stop offset="0" stop-color="#fcec94"/>
      <stop offset="0.169" stop-color="#f0c46c"/>
      <stop offset="0.502" stop-color="#fffabd"/>
      <stop offset="0.82" stop-color="#f0c46c"/>
      <stop offset="1" stop-color="#fce79a"/>
    </linearGradient>
  </defs>
  <path id="Path_41" data-name="Path 41" class="cls-1" d="M20,0A20,20,0,1,0,40,20,20.021,20.021,0,0,0,20,0ZM28.92,15.421c.01.2.015.4.015.6A13.091,13.091,0,0,1,8.779,27.048a9.012,9.012,0,0,0,1.1.064,9.232,9.232,0,0,0,5.72-1.971,4.6,4.6,0,0,1-4.3-3.2,4.527,4.527,0,0,0,.862.084,4.708,4.708,0,0,0,1.217-.158,4.608,4.608,0,0,1-3.7-4.513.24.24,0,0,1,0-.059,4.494,4.494,0,0,0,2.084.571,4.61,4.61,0,0,1-1.429-6.144,13.1,13.1,0,0,0,9.489,4.813,4.606,4.606,0,0,1,7.843-4.2A9.154,9.154,0,0,0,30.6,11.218a4.585,4.585,0,0,1-2.03,2.547,8.953,8.953,0,0,0,2.646-.724,9.25,9.25,0,0,1-2.3,2.38Z"/>
</svg>
