<svg id="icon_ok" xmlns="http://www.w3.org/2000/svg" xmlns:xlink="http://www.w3.org/1999/xlink" viewBox="0 0 40 40">
  <defs>
    <style>
      .cls-1 {
        fill-rule: evenodd;
        fill: url(#linear-gradient);
      }
    </style>
    <linearGradient id="linear-gradient" x1="0.147" y1="0.185" x2="0.867" y2="0.85" gradientUnits="objectBoundingBox">
      <stop offset="0" stop-color="#fcec94"/>
      <stop offset="0.169" stop-color="#f0c46c"/>
      <stop offset="0.502" stop-color="#fffabd"/>
      <stop offset="0.82" stop-color="#f0c46c"/>
      <stop offset="1" stop-color="#fce79a"/>
    </linearGradient>
  </defs>
  <path id="Path_40" data-name="Path 40" class="cls-1" d="M20,0A20,20,0,1,0,40,20,20,20,0,0,0,20,0Zm.017,17.173a2.848,2.848,0,1,0-2.865-2.823,2.837,2.837,0,0,0,2.865,2.823ZM20.021,8.5a5.819,5.819,0,1,1-5.839,5.806A5.816,5.816,0,0,1,20.021,8.5Zm6.522,13.92a7.109,7.109,0,0,1-2.519,1.635,12.085,12.085,0,0,1-2.865.64c.152.16.219.236.312.329,1.323,1.331,2.654,2.654,3.969,3.986a1.3,1.3,0,0,1,.295,1.55,1.564,1.564,0,0,1-1.466.918,1.447,1.447,0,0,1-.935-.48c-.994-1-2.014-1.989-2.991-3.017-.286-.295-.421-.236-.674.017q-1.5,1.555-3.05,3.067a1.285,1.285,0,0,1-1.55.278,1.58,1.58,0,0,1-.9-1.441,1.459,1.459,0,0,1,.489-.961c1.306-1.315,2.612-2.621,3.918-3.935.093-.084.169-.177.295-.312A8.9,8.9,0,0,1,14.106,23a4.9,4.9,0,0,1-.506-.413,1.428,1.428,0,0,1,1.618-2.326,2.667,2.667,0,0,1,.4.228,7.8,7.8,0,0,0,8.654.084,2.479,2.479,0,0,1,.851-.438,1.312,1.312,0,0,1,1.508.607,1.276,1.276,0,0,1-.084,1.685Z" transform="translate(0 0)"/>
</svg>
