<svg xmlns="http://www.w3.org/2000/svg" xmlns:xlink="http://www.w3.org/1999/xlink" viewBox="0 0 85 85"><defs><style>.a{fill-rule:evenodd;fill:url(#a);}</style><linearGradient id="a" x1="0.155" y1="0.15" x2="0.869" y2="0.805" gradientUnits="objectBoundingBox"><stop offset="0" stop-color="#fcec94"/><stop offset="0.169" stop-color="#f0c46c"/><stop offset="0.502" stop-color="#fffabd"/><stop offset="0.82" stop-color="#f0c46c"/><stop offset="1" stop-color="#fce79a"/></linearGradient></defs><g transform="translate(0 0)"><path class="a" d="M42.5,85a42.969,42.969,0,0,1-8.27-.8,46.383,46.383,0,0,1-8-2.432,43.476,43.476,0,0,1-7.341-3.936,45.975,45.975,0,0,1-6.457-5.263,43.571,43.571,0,0,1-5.263-6.457,41.844,41.844,0,0,1-3.936-7.341A45.917,45.917,0,0,1,.8,50.814,43.769,43.769,0,0,1,0,42.5a42.969,42.969,0,0,1,.8-8.27,46.382,46.382,0,0,1,2.432-8,43.475,43.475,0,0,1,3.936-7.341,45.976,45.976,0,0,1,5.263-6.457,45.976,45.976,0,0,1,6.457-5.263,43.475,43.475,0,0,1,7.341-3.936A46.382,46.382,0,0,1,34.23.8,42.969,42.969,0,0,1,42.5,0a43.769,43.769,0,0,1,8.314.8,45.917,45.917,0,0,1,7.96,2.432,41.844,41.844,0,0,1,7.341,3.936,43.571,43.571,0,0,1,6.457,5.263,45.975,45.975,0,0,1,5.263,6.457,43.475,43.475,0,0,1,3.936,7.341,46.381,46.381,0,0,1,2.432,8A42.969,42.969,0,0,1,85,42.5a43.768,43.768,0,0,1-.8,8.314,45.916,45.916,0,0,1-2.432,7.96,41.844,41.844,0,0,1-3.936,7.341,41.09,41.09,0,0,1-11.72,11.72,41.844,41.844,0,0,1-7.341,3.936,45.918,45.918,0,0,1-7.96,2.432A43.768,43.768,0,0,1,42.5,85Z" transform="translate(0 0)"/><path d="M34.726,5.78H33.443V36.693a3.709,3.709,0,0,1-3.715,3.715H6.82v1.15a2.407,2.407,0,0,0,2.388,2.388H34.682a2.378,2.378,0,0,0,2.388-2.388V8.168A2.369,2.369,0,0,0,34.726,5.78Z" transform="translate(23.341 19.782)"/><path d="M20.825,42.846H33.562a2.407,2.407,0,0,0,2.388-2.388V7.068A2.407,2.407,0,0,0,33.562,4.68H16.579v7.562A3.36,3.36,0,0,1,13.218,15.6h-6.5c-.044,0-.133-.044-.177-.044H5.7v24.9a2.378,2.378,0,0,0,2.388,2.388H20.825Zm.486-8.093H13a1.133,1.133,0,0,1-1.15-1.106A1.171,1.171,0,0,1,13,32.5h8.314a1.133,1.133,0,0,1,1.106,1.15A1.1,1.1,0,0,1,21.311,34.753Zm8.27-5.7H13a1.171,1.171,0,0,1-1.15-1.15A1.133,1.133,0,0,1,13,26.792H29.581a1.106,1.106,0,0,1,1.15,1.106A1.142,1.142,0,0,1,29.581,29.048ZM13,20.689H29.581a1.142,1.142,0,0,1,1.15,1.15,1.106,1.106,0,0,1-1.15,1.106H13a1.133,1.133,0,0,1-1.15-1.106A1.171,1.171,0,0,1,13,20.689Z" transform="translate(19.508 16.017)"/><path d="M6.7,14.2h6.545a2.04,2.04,0,0,0,1.99-1.99h0v-6.5A1.027,1.027,0,0,0,14.219,4.69a.942.942,0,0,0-.708.31L5.993,12.474A1.013,1.013,0,0,0,6.7,14.2Z" transform="translate(19.524 16.051)"/></g></svg>