<svg xmlns="http://www.w3.org/2000/svg" xmlns:xlink="http://www.w3.org/1999/xlink" viewBox="0 0 113 113"><defs><style>.a{fill:#fff;}.b{fill-rule:evenodd;fill:url(#c);}.c{fill:#292929;}.d{filter:url(#a);}</style><filter id="a" x="0" y="0" width="113" height="113" filterUnits="userSpaceOnUse"><feOffset dy="3" input="SourceAlpha"/><feGaussianBlur stdDeviation="3" result="b"/><feFlood flood-opacity="0.161"/><feComposite operator="in" in2="b"/><feComposite in="SourceGraphic"/></filter><linearGradient id="c" x1="0.845" y1="0.85" x2="0.131" y2="0.195" gradientUnits="objectBoundingBox"><stop offset="0" stop-color="#fcec94"/><stop offset="0.169" stop-color="#f0c46c"/><stop offset="0.502" stop-color="#fffabd"/><stop offset="0.82" stop-color="#f0c46c"/><stop offset="1" stop-color="#fce79a"/></linearGradient></defs><g transform="translate(30 26.702)"><g class="d" transform="matrix(1, 0, 0, 1, -30, -26.7)"><circle class="a" cx="47.5" cy="47.5" r="47.5" transform="translate(9 6)"/></g><path class="b" d="M0,47.526A47.5,47.5,0,1,0,47.526,0,47.5,47.5,0,0,0,0,47.526Z" transform="translate(-21.364 -20.819)"/><path class="c" d="M50.584,30.546l-1.325-.283a5.149,5.149,0,0,0-.553-.634c-.1-.1-.21-.183-.319-.271a6.917,6.917,0,0,0-4.445-1.323H38.811L35.835,27.4,27.6,13.784a1.9,1.9,0,0,0-1.564-1.072,1.905,1.905,0,0,0-1.564,1.072L16.245,27.4l-2.976.634H3.085a1.433,1.433,0,0,0-1.406,1.406v1.065l-.182.039c-1.633.348-1.986,1.573-.786,2.735l5.725,5.551v5.7a1.406,1.406,0,0,0,1.406,1.406h3.65L9.461,60.511c-.17,1.222.347,1.948,1.233,1.948a2.461,2.461,0,0,0,1.065-.283L26.04,55.184l14.281,6.993a2.464,2.464,0,0,0,1.065.283c.886,0,1.4-.726,1.233-1.948l-2.03-14.572h.284a1.421,1.421,0,0,0,1.406-1.406V42.1l1.835-1.78a10.3,10.3,0,0,0,1.141-.127,7.819,7.819,0,0,0,1.377-.357,5.627,5.627,0,0,0,1.949-1.16A5.476,5.476,0,0,0,49.968,36.6a6.406,6.406,0,0,0,.338-1.307,7.929,7.929,0,0,0,.089-1.065l.975-.946C52.569,32.119,52.217,30.894,50.584,30.546Zm-1.84,5.282a4.131,4.131,0,0,1-1.122,1.818,4.372,4.372,0,0,1-1.752.969,8.422,8.422,0,0,1-2.443.317H40.874v5.6H36.19V29.442h7.751a5.3,5.3,0,0,1,3.793,1.2A4.517,4.517,0,0,1,49,34.075,5.846,5.846,0,0,1,48.744,35.829Zm-40.9,6.325V33.169H3.085V29.442H17.26v3.726H12.5V44.534H7.841Zm18.2,2.636a9.654,9.654,0,0,1-4.226-.813A6.362,6.362,0,0,1,19.1,41.4,8.547,8.547,0,0,1,18.063,37a7.779,7.779,0,0,1,2.059-5.754,7.749,7.749,0,0,1,5.734-2.059,7.89,7.89,0,0,1,5.806,2.023A7.627,7.627,0,0,1,33.7,36.875a9.291,9.291,0,0,1-.89,4.339,6.35,6.35,0,0,1-2.573,2.635A8.493,8.493,0,0,1,26.04,44.791Z" transform="translate(0.001 -12.712)"/><path class="c" d="M250.465,230.422a2.833,2.833,0,0,0-2.265,1,6.794,6.794,0,0,0,0,6.588,3.214,3.214,0,0,0,4.637.021,5.584,5.584,0,0,0,.824-3.51,4.663,4.663,0,0,0-.859-3.114A2.939,2.939,0,0,0,250.465,230.422Z" transform="translate(-224.619 -210.418)"/><path class="c" d="M446.19,228.183h-1.328v3.366H446a2.939,2.939,0,0,0,1.894-.468,1.509,1.509,0,0,0,.546-1.2,1.676,1.676,0,0,0-.474-1.2A2.456,2.456,0,0,0,446.19,228.183Z" transform="translate(-403.987 -208.385)"/></g></svg>