<svg xmlns="http://www.w3.org/2000/svg" xmlns:xlink="http://www.w3.org/1999/xlink" viewBox="0 0 95 95"><defs><style>.a{fill-rule:evenodd;fill:url(#a);}.b{fill:#292929;}</style><linearGradient id="a" x1="0.845" y1="0.85" x2="0.131" y2="0.195" gradientUnits="objectBoundingBox"><stop offset="0" stop-color="#fcec94"/><stop offset="0.169" stop-color="#f0c46c"/><stop offset="0.502" stop-color="#fffabd"/><stop offset="0.82" stop-color="#f0c46c"/><stop offset="1" stop-color="#fce79a"/></linearGradient></defs><g transform="translate(-1377.636 -5009.434)"><path class="a" d="M0,47.526A47.5,47.5,0,1,0,47.526,0,47.5,47.5,0,0,0,0,47.526Z" transform="translate(1377.636 5009.434)"/><g transform="translate(1392.001 5027.255)"><g transform="translate(-0.001 4.722)"><path class="b" d="M63.144,26.9a3.308,3.308,0,0,0-2.605,1.28c-3.468-2.505-11.1-6.656-17.728-.6,0,0-6.716-9.265-2.183-16.825a3.326,3.326,0,1,0-1.394-2.7,3.245,3.245,0,0,0,.187,1.063c-4.759,1.821-12.973,6.353-14.2,16.243,0,0-7.622-10.094-19.057-3.543a3.321,3.321,0,1,0,.509,1.754c0-.1-.022-.2-.031-.3,3.988.311,10.381,3.837,12.14,22.565l.2,1.529c0,1.572,6.353,2.843,14.187,2.843s14.189-1.276,14.189-2.843c0,0,.509-12.849,12.473-16.946A3.327,3.327,0,1,0,63.144,26.9Z" transform="translate(0.001 -4.722)"/></g></g></g></svg>