<svg xmlns="http://www.w3.org/2000/svg" xmlns:xlink="http://www.w3.org/1999/xlink" viewBox="0 0 95 95"><defs><style>.a{fill-rule:evenodd;fill:url(#a);}.b{fill:#292929;}</style><linearGradient id="a" x1="0.845" y1="0.85" x2="0.131" y2="0.195" gradientUnits="objectBoundingBox"><stop offset="0" stop-color="#fcec94"/><stop offset="0.169" stop-color="#f0c46c"/><stop offset="0.502" stop-color="#fffabd"/><stop offset="0.82" stop-color="#f0c46c"/><stop offset="1" stop-color="#fce79a"/></linearGradient></defs><g transform="translate(-1377.636 -5343.434)"><path class="a" d="M0,47.526A47.5,47.5,0,1,0,47.526,0,47.5,47.5,0,0,0,0,47.526Z" transform="translate(1377.636 5343.434)"/><path class="b" d="M2100.342,101.1a.288.288,0,1,1,0-.575h23.2a.432.432,0,0,1,.287.287.254.254,0,0,1-.287.288Zm15.623-1.257h-14.377a30.913,30.913,0,0,0,10.447-3.93,3.959,3.959,0,0,0,6.8,0,3.887,3.887,0,0,1,3.93,3.93ZM2104,94.613V88.475l-1.054-1.3h18.211l-1.025,1.265h.067v6.176Zm-1.162-8.09a.288.288,0,0,1,0-.575h18.69c.1,0,.192.1.192.287a.254.254,0,0,1-.287.288ZM2099,76.316c0-6.65,8.1-12.134,11.693-17.206,0-.013,0-.028,0-.046,0,.018,0,.033,0,.046q.29-.408.538-.814a.45.45,0,0,1-.442-.479v-.287a.449.449,0,0,1,.427-.477l.757-4.994a1.533,1.533,0,1,1,.318,0l.756,4.994a.448.448,0,0,1,.427.477v.287a.449.449,0,0,1-.44.478c3.241,5.285,12.23,10.929,12.23,18.021,0,8.243-5.847,8.531-13.132,8.627C2104.846,84.848,2099,84.56,2099,76.316Z" transform="translate(-686.666 5310.905)"/></g></svg>