<svg xmlns="http://www.w3.org/2000/svg" viewBox="0 0 50 50.045"><defs><style>.a{fill:#292929;}.b{fill:#fff;}</style></defs><ellipse class="a" cx="25" cy="25.022" rx="25" ry="25.022"/><g transform="translate(12 12.011)"><g transform="translate(0 13.774)"><path class="b" d="M4.595,271H0a13.172,13.172,0,0,0,1.162,4.625H5.246A22.473,22.473,0,0,1,4.595,271Z" transform="translate(0 -271)"/></g><g transform="translate(6.117 13.774)"><path class="b" d="M120.449,271a21.7,21.7,0,0,0,.686,4.625h5.436V271Z" transform="translate(-120.449 -271)"/></g><g transform="translate(0 7.624)"><path class="b" d="M1.162,150A13.173,13.173,0,0,0,0,154.625H4.595A22.473,22.473,0,0,1,5.246,150Z" transform="translate(0 -150)"/></g><g transform="translate(13.762 7.624)"><path class="b" d="M276.436,150H271v4.625h6.122A21.7,21.7,0,0,0,276.436,150Z" transform="translate(-271 -150)"/></g><g transform="translate(13.762)"><path class="b" d="M271,0V6.1h4.976C274.877,2.986,273.048.488,271,0Z" transform="translate(-271)"/></g><g transform="translate(7.263 19.924)"><path class="b" d="M143.02,392c1.1,3.114,2.928,5.611,4.976,6.1V392Z" transform="translate(-143.02 -392)"/></g><g transform="translate(6.117 7.624)"><path class="b" d="M121.135,150a21.7,21.7,0,0,0-.686,4.625h6.122V150Z" transform="translate(-120.449 -150)"/></g><g transform="translate(7.263)"><path class="b" d="M143.02,6.1H148V0C145.948.488,144.118,2.986,143.02,6.1Z" transform="translate(-143.02)"/></g><g transform="translate(1.984 0.656)"><path class="b" d="M39.062,18.357h3.717a15.944,15.944,0,0,1,2.941-5.443A13.176,13.176,0,0,0,39.062,18.357Z" transform="translate(-39.062 -12.914)"/></g><g transform="translate(17.359 0.656)"><path class="b" d="M341.831,12.914a15.945,15.945,0,0,1,2.941,5.443h3.717A13.176,13.176,0,0,0,341.831,12.914Z" transform="translate(-341.831 -12.914)"/></g><g transform="translate(13.762 19.924)"><path class="b" d="M271,392v6.1c2.048-.488,3.877-2.986,4.976-6.1Z" transform="translate(-271 -392)"/></g><g transform="translate(17.359 19.924)"><path class="b" d="M344.772,392a15.944,15.944,0,0,1-2.941,5.443A13.177,13.177,0,0,0,348.489,392Z" transform="translate(-341.831 -392)"/></g><g transform="translate(1.984 19.924)"><path class="b" d="M42.779,392H39.062a13.177,13.177,0,0,0,6.658,5.443A15.944,15.944,0,0,1,42.779,392Z" transform="translate(-39.062 -392)"/></g><g transform="translate(13.762 13.774)"><path class="b" d="M271,271v4.625h5.436a21.7,21.7,0,0,0,.686-4.625Z" transform="translate(-271 -271)"/></g><g transform="translate(20.754 13.774)"><path class="b" d="M409.338,271a22.472,22.472,0,0,1-.651,4.625h4.084A13.171,13.171,0,0,0,413.933,271Z" transform="translate(-408.687 -271)"/></g><g transform="translate(20.754 7.624)"><path class="b" d="M412.771,150h-4.084a22.473,22.473,0,0,1,.651,4.625h4.595A13.172,13.172,0,0,0,412.771,150Z" transform="translate(-408.687 -150)"/></g></g></svg>