<svg xmlns="http://www.w3.org/2000/svg" viewBox="0 0 50 50.045"><defs><style>.a{fill:#292929;}.b{fill:#fff;}</style></defs><ellipse class="a" cx="25" cy="25.022" rx="25" ry="25.022" transform="translate(0 0)"/><g transform="translate(15.568 13.388)"><g transform="translate(0 0)"><path class="b" d="M80.1,0a9.547,9.547,0,0,0-9.532,9.54c0,6.529,8.53,16.113,8.893,16.518a.858.858,0,0,0,1.277,0c.363-.4,8.893-9.989,8.893-16.518A9.547,9.547,0,0,0,80.1,0Zm0,14.34a4.8,4.8,0,1,1,4.8-4.8A4.8,4.8,0,0,1,80.1,14.34Z" transform="translate(-70.573)"/></g></g></svg>