<svg xmlns="http://www.w3.org/2000/svg" viewBox="0 0 50 50"><defs><style>.a{fill:#292929;}.b{fill:#fff;}</style></defs><circle class="a" cx="25" cy="25" r="25"/><path class="b" d="M18.571,25.651H7.078A7.086,7.086,0,0,1,0,18.571V7.078A7.086,7.086,0,0,1,7.078,0H18.571a7.087,7.087,0,0,1,7.08,7.078V18.571A7.088,7.088,0,0,1,18.571,25.651ZM12.825,6.216a6.61,6.61,0,1,0,6.61,6.61A6.617,6.617,0,0,0,12.825,6.216Zm6.886-1.929a1.667,1.667,0,1,0,1.181.487A1.678,1.678,0,0,0,19.711,4.287Z" transform="translate(11.993 12.23)"/></svg>