<svg xmlns="http://www.w3.org/2000/svg" viewBox="0 0 50 50.044"><defs><style>.a{fill:#292929;}.b{fill:#fff;}</style></defs><ellipse class="a" cx="25" cy="25.022" rx="25" ry="25.022"/><g transform="translate(13.435 17.153)"><g transform="translate(0 0)"><path class="b" d="M11.635,10.054,8.7,7.484.316,14.679a1.716,1.716,0,0,0,1.17.459h20.3a1.7,1.7,0,0,0,1.165-.459L14.568,7.484Z" transform="translate(0.219 1.811)"/><path class="b" d="M22.952,2.459A1.7,1.7,0,0,0,21.782,2H1.485a1.7,1.7,0,0,0-1.167.463L11.633,12.17Z" transform="translate(0.221 -2)"/><path class="b" d="M0,2.878V16.959L8.184,10Z" transform="translate(0 -1.39)"/><path class="b" d="M9.167,10l8.184,6.961V2.875Z" transform="translate(6.357 -1.392)"/></g></g></svg>