<svg xmlns="http://www.w3.org/2000/svg" xmlns:xlink="http://www.w3.org/1999/xlink" viewBox="0 0 95.364 95.21"><defs><style>.a{fill:#fff;}.b{fill-rule:evenodd;fill:url(#a);}.c{fill:#292929;}</style><linearGradient id="a" x1="0.845" y1="0.85" x2="0.131" y2="0.195" gradientUnits="objectBoundingBox"><stop offset="0" stop-color="#fcec94"/><stop offset="0.169" stop-color="#f0c46c"/><stop offset="0.502" stop-color="#fffabd"/><stop offset="0.82" stop-color="#f0c46c"/><stop offset="1" stop-color="#fce79a"/></linearGradient></defs><g transform="translate(-1377.636 -5176.434)"><circle class="a" cx="47.5" cy="47.5" r="47.5" transform="translate(1473 5271.645) rotate(180)"/><path class="b" d="M0,47.526A47.5,47.5,0,1,0,47.526,0,47.5,47.5,0,0,0,0,47.526Z" transform="translate(1377.636 5176.434)"/><path class="c" d="M39.8,51.747H4.478A4.479,4.479,0,0,1,0,47.268V4.478A4.479,4.479,0,0,1,4.478,0H39.8a4.479,4.479,0,0,1,4.478,4.478v42.79A4.479,4.479,0,0,1,39.8,51.747ZM12.57,29.277a2.043,2.043,0,0,0-2.04,2.041V43.194a2.043,2.043,0,0,0,2.04,2.041H31.712a2.043,2.043,0,0,0,2.04-2.041V31.317a2.039,2.039,0,0,0-2.04-2.041ZM37.082,40.584v4.478h3.856V40.584Zm-33.71,0v4.478H7.228V40.584Zm33.71-8.428v4.478h3.856V32.156Zm-33.71,0v4.478H7.228V32.156Zm33.71-8.428v4.478h3.856V23.728Zm-33.71,0v4.478H7.228V23.728Zm9.2-17.215a2.043,2.043,0,0,0-2.04,2.041V20.431a2.043,2.043,0,0,0,2.04,2.041H31.712a2.043,2.043,0,0,0,2.04-2.041V8.554a2.039,2.039,0,0,0-2.04-2.04ZM37.082,15.3v4.478h3.856V15.3Zm-33.71,0v4.478H7.228V15.3Zm33.71-8.427v4.478h3.856V6.873Zm-33.71,0v4.478H7.228V6.873Z" transform="translate(1403.059 5198.836)"/></g></svg>