<svg xmlns="http://www.w3.org/2000/svg" xmlns:xlink="http://www.w3.org/1999/xlink" viewBox="0 0 85 85"><defs><style>.a,.b{fill-rule:evenodd;}.a{fill:url(#a);}</style><linearGradient id="a" x1="0.845" y1="0.85" x2="0.131" y2="0.195" gradientUnits="objectBoundingBox"><stop offset="0" stop-color="#fcec94"/><stop offset="0.169" stop-color="#f0c46c"/><stop offset="0.502" stop-color="#fffabd"/><stop offset="0.82" stop-color="#f0c46c"/><stop offset="1" stop-color="#fce79a"/></linearGradient></defs><path class="a" d="M0,42.5A42.5,42.5,0,1,0,42.5,0,42.5,42.5,0,0,0,0,42.5Z"/><g transform="translate(13.251 24.682)"><path class="b" d="M21.834,5.913l3.451,7.445a1.564,1.564,0,0,0,1.035.887l7.691,1.183A1.331,1.331,0,0,1,34.9,17.8l-5.621,5.818a2.065,2.065,0,0,0-.444,1.331l1.331,7.987c.148,1.233-1.035,2.268-2.071,1.676l-7-3.9a1.109,1.109,0,0,0-1.331,0l-6.952,3.9a1.47,1.47,0,0,1-2.12-1.676l1.381-7.987a1.491,1.491,0,0,0-.444-1.331L5.958,17.8a1.537,1.537,0,0,1,.887-2.515L14.586,14.1a1.269,1.269,0,0,0,1.035-.887l3.4-7.445a1.6,1.6,0,0,1,2.81.148Z" transform="translate(8.746 -5.006)"/><path class="b" d="M12.856,8.3l2.12,4.635a1,1,0,0,0,.641.542l4.832.74a.828.828,0,0,1,.542,1.479l-3.5,3.648a1.16,1.16,0,0,0-.3.838l.838,4.98A.936.936,0,0,1,16.751,26.2l-4.388-2.416a.667.667,0,0,0-.838,0L7.186,26.2A.9.9,0,0,1,5.9,25.164l.838-4.98a.986.986,0,0,0-.3-.838L2.9,15.7a.986.986,0,0,1,.592-1.578l4.832-.74a.788.788,0,0,0,.641-.542L11.081,8.2a1.022,1.022,0,0,1,1.775.1Z" transform="translate(-2.688 5.719)"/><path class="b" d="M20.906,8.3l2.169,4.635c.049.3.345.444.641.542l4.832.74a.845.845,0,0,1,.542,1.479l-3.55,3.648a1.41,1.41,0,0,0-.247.838l.838,4.98A.969.969,0,0,1,24.8,26.2l-4.339-2.416a.668.668,0,0,0-.838,0L15.286,26.2a.918.918,0,0,1-1.331-1.035l.838-4.98a.963.963,0,0,0-.247-.838L11,15.7a.971.971,0,0,1,.542-1.578l4.832-.74a.731.731,0,0,0,.641-.542L19.181,8.2a.979.979,0,0,1,1.726.1Z" transform="translate(29.099 5.719)"/></g></svg>