<svg xmlns="http://www.w3.org/2000/svg" viewBox="0 0 50 50.044"><defs><style>.a{fill:#292929;}.b{fill:#fff;}</style></defs><ellipse class="a" cx="25" cy="25.022" rx="25" ry="25.022" transform="translate(0 0)"/><g transform="translate(14.776 14.219)"><g transform="translate(0 0)"><path class="b" d="M20.727,17.141l-3.274-3.278a1.706,1.706,0,0,0-2.407.045L13.4,15.56l-.326-.181A16.417,16.417,0,0,1,9.1,12.506,16.523,16.523,0,0,1,6.227,8.527c-.061-.111-.12-.217-.177-.318L7.156,7.1,7.7,6.557a1.708,1.708,0,0,0,.044-2.41L4.47.869A1.7,1.7,0,0,0,2.063.915l-.923.929.025.025A5.343,5.343,0,0,0,.4,3.211,5.57,5.57,0,0,0,.067,4.573c-.432,3.588,1.206,6.867,5.651,11.316,6.145,6.15,11.1,5.685,11.31,5.663a5.529,5.529,0,0,0,1.364-.343,5.317,5.317,0,0,0,1.337-.758l.02.018.935-.916A1.711,1.711,0,0,0,20.727,17.141Z" transform="translate(0 -0.394)"/></g></g></svg>