<svg xmlns="http://www.w3.org/2000/svg" xmlns:xlink="http://www.w3.org/1999/xlink" viewBox="0 0 95.364 95.117"><defs><style>.a{fill:#fff;}.b{fill-rule:evenodd;fill:url(#a);}.c{fill:#292929;}</style><linearGradient id="a" x1="0.845" y1="0.85" x2="0.131" y2="0.195" gradientUnits="objectBoundingBox"><stop offset="0" stop-color="#fcec94"/><stop offset="0.169" stop-color="#f0c46c"/><stop offset="0.502" stop-color="#fffabd"/><stop offset="0.82" stop-color="#f0c46c"/><stop offset="1" stop-color="#fce79a"/></linearGradient></defs><g transform="translate(-444.636 -5343.434)"><circle class="a" cx="47.5" cy="47.5" r="47.5" transform="translate(445 5343.551)"/><path class="b" d="M0,47.526A47.5,47.5,0,1,0,47.526,0,47.5,47.5,0,0,0,0,47.526Z" transform="translate(444.636 5343.434)"/><path class="c" d="M43.169,25.892,35.5,22.352V3.757L43.169.218a2.338,2.338,0,0,1,3.318,2.123V23.769a2.333,2.333,0,0,1-3.318,2.123ZM1.95,25.733A1.95,1.95,0,0,1,0,23.783V2.327A1.95,1.95,0,0,1,1.95.377h31.6a1.95,1.95,0,0,1,1.95,1.95V23.783a1.95,1.95,0,0,1-1.95,1.95Z" transform="translate(471 5380.336)"/><rect class="c" width="29.582" height="3.381" rx="1.69" transform="translate(471 5373.951)"/><rect class="c" width="3.381" height="10.143" rx="1.69" transform="translate(497.201 5373.951)"/></g></svg>