<svg xmlns="http://www.w3.org/2000/svg" xmlns:xlink="http://www.w3.org/1999/xlink" viewBox="0 0 85 85"><defs><style>.a,.b{fill-rule:evenodd;}.a{fill:url(#a);}</style><linearGradient id="a" x1="0.845" y1="0.85" x2="0.131" y2="0.195" gradientUnits="objectBoundingBox"><stop offset="0" stop-color="#fcec94"/><stop offset="0.169" stop-color="#f0c46c"/><stop offset="0.502" stop-color="#fffabd"/><stop offset="0.82" stop-color="#f0c46c"/><stop offset="1" stop-color="#fce79a"/></linearGradient></defs><path class="a" d="M0,42.482A42.5,42.5,0,1,0,42.482,0,42.5,42.5,0,0,0,0,42.482Z"/><g transform="translate(27.717 19.953)"><path class="b" d="M30.967,44.281v3.192h3.12a3.089,3.089,0,0,0,3.084-3.12V17.943H29.407a3.12,3.12,0,0,1-3.12-3.12V5.5H10.76A3.143,3.143,0,0,0,7.64,8.62V44.354a3.143,3.143,0,0,0,3.12,3.12H23.2V44.281a5.344,5.344,0,0,1-1.56-3.809,5.442,5.442,0,1,1,10.883,0,5.5,5.5,0,0,1-1.56,3.809Zm-6.2,1.088v7.691l2.322-2.322,2.322,2.322V45.37a5.225,5.225,0,0,1-4.644,0h0ZM27.847,5.5v9.324a1.572,1.572,0,0,0,1.56,1.56h7.764L27.847,5.5h0ZM12.32,16.383v1.56H23.2v-1.56Zm0-4.68v1.56H23.2V11.7Zm0,9.324v1.56H32.527v-1.56Zm0,4.68v1.56H32.527v-1.56Zm0,4.644v1.56H32.527v-1.56Zm14.765,14A3.882,3.882,0,1,0,23.2,40.472a3.886,3.886,0,0,0,3.882,3.882Z" transform="translate(-7.64 -5.5)"/></g></svg>