<svg xmlns="http://www.w3.org/2000/svg" xmlns:xlink="http://www.w3.org/1999/xlink" viewBox="0 0 85 85"><defs><style>.a,.b{fill-rule:evenodd;}.a{fill:url(#a);}</style><linearGradient id="a" x1="0.155" y1="0.15" x2="0.869" y2="0.805" gradientUnits="objectBoundingBox"><stop offset="0" stop-color="#fcec94"/><stop offset="0.169" stop-color="#f0c46c"/><stop offset="0.502" stop-color="#fffabd"/><stop offset="0.82" stop-color="#f0c46c"/><stop offset="1" stop-color="#fce79a"/></linearGradient></defs><g transform="translate(0 0)"><path class="a" d="M42.5,0a43.292,43.292,0,0,1,8.294.815,42.176,42.176,0,0,1,7.975,2.41A40.548,40.548,0,0,1,66.107,7.16a44.128,44.128,0,0,1,6.451,5.281,41.954,41.954,0,0,1,5.281,6.451,40.548,40.548,0,0,1,3.935,7.337,42.176,42.176,0,0,1,2.41,7.975,42.6,42.6,0,0,1,0,16.589,42.176,42.176,0,0,1-2.41,7.975,40.547,40.547,0,0,1-3.935,7.337A42.021,42.021,0,0,1,66.107,77.84a40.548,40.548,0,0,1-7.337,3.935,42.176,42.176,0,0,1-7.975,2.41,42.6,42.6,0,0,1-16.589,0,42.176,42.176,0,0,1-7.975-2.41,40.548,40.548,0,0,1-7.337-3.935,41.954,41.954,0,0,1-6.451-5.281A44.129,44.129,0,0,1,7.16,66.107,40.548,40.548,0,0,1,3.226,58.77a42.175,42.175,0,0,1-2.41-7.975,42.6,42.6,0,0,1,0-16.589,42.176,42.176,0,0,1,2.41-7.975A40.548,40.548,0,0,1,7.16,18.893,42.021,42.021,0,0,1,18.893,7.16,40.548,40.548,0,0,1,26.23,3.226,42.176,42.176,0,0,1,34.206.815,43.292,43.292,0,0,1,42.5,0Z" transform="translate(0 0)"/><path class="b" d="M17.821,5.91H37.458A12.011,12.011,0,0,1,49.439,17.891V37.032A12.011,12.011,0,0,1,37.458,49.013H17.821A12.011,12.011,0,0,1,5.84,37.032V17.891A12.011,12.011,0,0,1,17.821,5.91Zm22.331,5.955A3.066,3.066,0,1,1,37.1,14.913a3.048,3.048,0,0,1,3.048-3.048ZM27.639,16.473A10.988,10.988,0,1,1,16.651,27.461,11,11,0,0,1,27.639,16.473Z" transform="translate(14.861 15.039)"/></g></svg>