<svg xmlns="http://www.w3.org/2000/svg" xmlns:xlink="http://www.w3.org/1999/xlink" viewBox="0 0 95.364 95.117"><defs><style>.a{fill:#fff;}.b{fill-rule:evenodd;fill:url(#a);}.c{fill:#292929;}</style><linearGradient id="a" x1="0.845" y1="0.85" x2="0.131" y2="0.195" gradientUnits="objectBoundingBox"><stop offset="0" stop-color="#fcec94"/><stop offset="0.169" stop-color="#f0c46c"/><stop offset="0.502" stop-color="#fffabd"/><stop offset="0.82" stop-color="#f0c46c"/><stop offset="1" stop-color="#fce79a"/></linearGradient></defs><g transform="translate(18.364 18.566)"><circle class="a" cx="47.5" cy="47.5" r="47.5" transform="translate(-18 -18.449)"/><path class="b" d="M0,47.526A47.5,47.5,0,1,0,47.526,0,47.5,47.5,0,0,0,0,47.526Z" transform="translate(-18.364 -18.566)"/><path class="c" d="M35.285,48.736H13.448A13.464,13.464,0,0,1,0,35.285V13.448A13.463,13.463,0,0,1,13.448,0H35.285A13.465,13.465,0,0,1,48.737,13.448V35.285A13.466,13.466,0,0,1,35.285,48.736ZM24.369,11.809A12.558,12.558,0,1,0,36.927,24.368,12.572,12.572,0,0,0,24.369,11.809ZM37.452,8.145a3.167,3.167,0,1,0,2.244.926A3.188,3.188,0,0,0,37.452,8.145Z" transform="translate(4.786 4.787)"/></g></svg>