<svg xmlns="http://www.w3.org/2000/svg" xmlns:xlink="http://www.w3.org/1999/xlink" viewBox="0 0 85 85"><defs><style>.a,.b{fill-rule:evenodd;}.a{fill:url(#a);}</style><linearGradient id="a" x1="0.845" y1="0.85" x2="0.131" y2="0.195" gradientUnits="objectBoundingBox"><stop offset="0" stop-color="#fcec94"/><stop offset="0.169" stop-color="#f0c46c"/><stop offset="0.502" stop-color="#fffabd"/><stop offset="0.82" stop-color="#f0c46c"/><stop offset="1" stop-color="#fce79a"/></linearGradient></defs><path class="a" d="M0,42.5A42.5,42.5,0,1,0,42.5,0,42.514,42.514,0,0,0,0,42.5Z"/><path class="b" d="M49.263,35.556a1.033,1.033,0,0,1,1.026,1.026v3.429a1.013,1.013,0,0,1-1.026,1.026H7.436A1.033,1.033,0,0,1,6.41,40.011V9.178A1.061,1.061,0,0,1,7.436,8.12h3.429a1.04,1.04,0,0,1,1.026,1.058V35.556Zm-3.75-24.679H35.9A2.059,2.059,0,0,0,34.455,14.4l2.821,2.821-6.186,6.25L26.314,18.7a.988.988,0,0,0-1.442,0l-10.192,10.1a1.015,1.015,0,0,0,0,1.442l2.436,2.532a1.016,1.016,0,0,0,1.442,0l7.051-7.051,4.744,4.776a1.086,1.086,0,0,0,1.474,0l9.359-9.359,2.853,2.853a2.066,2.066,0,0,0,3.526-1.442V12.928a2.066,2.066,0,0,0-2.051-2.051Z" transform="translate(14.135 17.906)"/></svg>