<svg xmlns="http://www.w3.org/2000/svg" xmlns:xlink="http://www.w3.org/1999/xlink" viewBox="0 0 85 85"><defs><style>.a,.b{fill-rule:evenodd;}.a{fill:url(#a);}</style><linearGradient id="a" x1="0.845" y1="0.85" x2="0.131" y2="0.195" gradientUnits="objectBoundingBox"><stop offset="0" stop-color="#fcec94"/><stop offset="0.169" stop-color="#f0c46c"/><stop offset="0.502" stop-color="#fffabd"/><stop offset="0.82" stop-color="#f0c46c"/><stop offset="1" stop-color="#fce79a"/></linearGradient></defs><path class="a" d="M0,42.523A42.5,42.5,0,1,0,42.523,0,42.5,42.5,0,0,0,0,42.523Z"/><path class="b" d="M14.8,42.339H9.926a.983.983,0,0,1-.966-1.012V32.674H7.532A1.021,1.021,0,0,1,6.52,31.662V29.223h0A1.021,1.021,0,0,1,7.532,28.21H8.959V26.6H7.532A1.021,1.021,0,0,1,6.52,25.587V23.194a1.021,1.021,0,0,1,1.012-1.012H8.959V6.212A.983.983,0,0,1,9.926,5.2H23.87a11.478,11.478,0,0,1,7.962,3.129,10.209,10.209,0,0,1,0,15.141A11.478,11.478,0,0,1,23.87,26.6h-8.1V28.21H25.3a.983.983,0,0,1,.966,1.012v2.439a.983.983,0,0,1-.966,1.012H15.77v8.652a.983.983,0,0,1-.966,1.012Zm.966-20.157h6.9a7.225,7.225,0,0,0,4.878-1.887,5.826,5.826,0,0,0,1.979-4.372A5.925,5.925,0,0,0,27.551,11.5a7.225,7.225,0,0,0-4.878-1.887h-6.9V22.182Z" transform="translate(23.485 18.731)"/></svg>