<svg xmlns="http://www.w3.org/2000/svg" viewBox="0 0 58 58"><defs><style>.a{opacity:0.5;}.b{stroke:#fff;stroke-width:4px;}.c{fill:#fff;}.d{stroke:none;}.e{fill:none;}</style></defs><g class="a" transform="translate(2091 -866)"><g class="b" transform="translate(-2087 870)"><circle class="d" cx="25" cy="25" r="25"/><circle class="e" cx="25" cy="25" r="27"/></g><path class="c" d="M10.833,15.1.7,4.937a2.408,2.408,0,0,1,0-3.389L1.543.7A2.391,2.391,0,0,1,4.921.7l7.735,7.76L20.392.7A2.391,2.391,0,0,1,23.77.7l.846.85a2.408,2.408,0,0,1,0,3.389L14.478,15.1a2.367,2.367,0,0,1-1.822.686A2.372,2.372,0,0,1,10.833,15.1Z" transform="translate(-2049 901.063) rotate(180)"/></g></svg>